<svg id="Artwork" xmlns="http://www.w3.org/2000/svg" viewBox="0 0 336 186"><defs><style>.cls-1{fill:#fff;}.cls-2{fill:#59595c;}.cls-3{fill:#d85f0e;}.cls-4{fill:#2c7fb7;}.cls-5{fill:#c41b89;}.cls-6{fill:#ef3b20;}.cls-7{fill:#31a254;}.cls-8{fill:#7eb963;}.cls-9{fill:#d53927;}.cls-10{fill:#9269a5;}.cls-11{fill:#fbdf00;}.cls-12{fill:#792b8c;}.cls-13{fill:#f06522;}.cls-14{fill:#263e95;}.cls-15{fill:#0f9047;}.cls-16{fill:#e9874b;}.cls-17{fill:#616ca8;}.cls-18{fill:#c1693c;}.cls-19{fill:#646871;}</style></defs><title>cis_ready_dashboards_executive_flow</title><path class="cls-1" d="M336 182.08a3.76 3.76 0 0 1-3.56 3.92H3.56A3.76 3.76 0 0 1 0 182.08V0h336v182.08z"/><path class="cls-2" d="M248.58 25.39c0-2.7 1.54-4.16 3.64-4.16a3.1 3.1 0 0 1 3.3 2.63h-.87a2.26 2.26 0 0 0-2.43-1.9c-1.6 0-2.76 1.17-2.76 3.43s1.14 3.36 2.73 3.36a2.34 2.34 0 0 0 2.46-2.13h.87a3.2 3.2 0 0 1-3.34 2.87c-2.18-.01-3.6-1.49-3.6-4.1zM259.65 23.43c1.54 0 2.72 1 2.72 3s-1.15 3-2.72 3-2.73-1-2.73-3 1.22-3 2.73-3zm0 5.38c1.09 0 1.86-.8 1.86-2.35s-.79-2.36-1.87-2.36-1.88.79-1.88 2.36.83 2.35 1.91 2.35zM264.92 29.31h-.81v-7.92h.81v7.92zM267.8 29.31h-.8v-7.92h.81v7.92zM269.67 25.13a2.06 2.06 0 0 1 2.33-1.7 2 2 0 0 1 2.23 1.92v4h-.67l-.1-.87a2.27 2.27 0 0 1-2 1 1.7 1.7 0 0 1-1.95-1.63c0-1 .61-1.61 2.18-1.87l1.71-.29v-.39a1.24 1.24 0 0 0-1.4-1.22 1.26 1.26 0 0 0-1.44 1.06h-.86zm3.75 1.21l-1.48.25c-1.2.21-1.54.58-1.54 1.18a1.07 1.07 0 0 0 1.29 1 1.69 1.69 0 0 0 1.74-1.54v-.9zM276.24 29.31v-7.92h.81v3.13a2.19 2.19 0 0 1 2-1.1c1.45 0 2.46 1 2.46 3s-1.08 3.08-2.53 3.08a2.13 2.13 0 0 1-1.98-1.09l-.12.9h-.67zm2.6-5.19c-1 0-1.84.69-1.84 2.3s.76 2.37 1.84 2.37 1.79-.76 1.79-2.41-.76-2.26-1.79-2.26zM285.61 23.43c1.54 0 2.72 1 2.72 3s-1.16 3-2.72 3-2.73-1-2.73-3 1.22-3 2.73-3zm0 5.38c1.09 0 1.86-.8 1.86-2.35s-.79-2.36-1.87-2.36-1.88.79-1.88 2.36.83 2.35 1.91 2.35zM290.07 29.31v-5.72h.67l.11 1a1.61 1.61 0 0 1 1.53-1.14 2.55 2.55 0 0 1 .61.08v.81a2.3 2.3 0 0 0-.64-.1c-.78 0-1.46.68-1.46 2.09v3h-.81zM294.14 25.13a2.06 2.06 0 0 1 2.33-1.71 2 2 0 0 1 2.23 1.92v4h-.7l-.1-.87a2.27 2.27 0 0 1-2 1 1.7 1.7 0 0 1-1.9-1.62c0-1 .61-1.61 2.18-1.87l1.71-.29v-.39a1.24 1.24 0 0 0-1.45-1.22 1.26 1.26 0 0 0-1.44 1.05h-.86zm3.75 1.21l-1.49.25c-1.2.21-1.54.58-1.54 1.18a1.07 1.07 0 0 0 1.29 1 1.69 1.69 0 0 0 1.74-1.54v-.9zM301.75 24.3V28a.63.63 0 0 0 .68.71 2.42 2.42 0 0 0 .67-.09v.69a2.69 2.69 0 0 1-.76.11 1.3 1.3 0 0 1-1.4-1.42v-3.7h-.84v-.71h.84l.06-1.37h.76v1.38H303v.7h-1.29zM304.49 22.42v-1h.93v1h-.93zm.06 6.9v-5.73h.82v5.72h-.82zM309.8 23.43c1.54 0 2.72 1 2.72 3s-1.15 3-2.72 3-2.73-1-2.73-3 1.21-3 2.73-3zm0 5.38c1.09 0 1.86-.8 1.86-2.35s-.79-2.36-1.87-2.36-1.88.79-1.88 2.36.83 2.35 1.9 2.35zM314.26 29.31v-5.72h.67l.1.86a2.08 2.08 0 0 1 1.81-1 1.87 1.87 0 0 1 2 2.07v3.82H318v-3.82a1.25 1.25 0 0 0-1.38-1.4 1.59 1.59 0 0 0-1.58 1.65v3.54h-.81z"/><path class="cls-3" d="M232 21h8v8h-8z"/><path class="cls-2" d="M253.4 72.54h-3.63v2.93h3.95v.73h-4.81v-7.92h4.81V69h-3.95v2.79h3.63v.73zM255.55 76.2v-5.72h.67l.1.86a2.08 2.08 0 0 1 1.82-1 1.87 1.87 0 0 1 2 2.07v3.79h-.81v-3.8a1.25 1.25 0 0 0-1.37-1.4 1.59 1.59 0 0 0-1.58 1.65v3.55h-.81zM263.2 71.18v3.75a.63.63 0 0 0 .68.71 2.42 2.42 0 0 0 .67-.09v.69a2.69 2.69 0 0 1-.76.11 1.3 1.3 0 0 1-1.41-1.45v-3.72h-.84v-.7h.84l.06-1.37h.76v1.38h1.29v.71h-1.29zM270.86 74.59a2.41 2.41 0 0 1-2.47 1.77c-1.58 0-2.75-1-2.75-3s1.14-3 2.67-3 2.63 1 2.63 3.21h-4.47a1.93 1.93 0 0 0 1.95 2.15 1.55 1.55 0 0 0 1.58-1.13h.88zm-4.37-1.73h3.61a1.76 1.76 0 0 0-1.78-1.86 1.84 1.84 0 0 0-1.82 1.87zM272.73 76.2v-5.72h.67l.11 1a1.61 1.61 0 0 1 1.49-1.17 2.53 2.53 0 0 1 .61.08v.81a2.29 2.29 0 0 0-.64-.1c-.78 0-1.46.68-1.46 2.09v3h-.81zM277.67 70.48l.12.91a2.26 2.26 0 0 1 2-1.08c1.45 0 2.46 1 2.46 3s-1.09 3.08-2.54 3.08a2.09 2.09 0 0 1-1.89-1v2.86H277v-7.7h.67zm1.93.52c-1 0-1.84.69-1.84 2.3s.76 2.37 1.83 2.37 1.8-.76 1.8-2.41-.76-2.26-1.79-2.26zM284 76.2v-5.72h.67l.11 1a1.61 1.61 0 0 1 1.53-1.14 2.55 2.55 0 0 1 .61.08v.81a2.3 2.3 0 0 0-.64-.1c-.78 0-1.46.68-1.46 2.09v3H284zM288.15 69.3v-1h.94v1h-.94zm.06 6.9v-5.72h.79v5.72h-.83zM292.71 73.5c-1.24-.25-1.87-.75-1.87-1.62s.74-1.57 2.16-1.57a2.1 2.1 0 0 1 2.29 1.63h-.84A1.34 1.34 0 0 0 293 71c-.89 0-1.3.38-1.3.85s.31.79 1.46 1c1.41.29 2.18.7 2.18 1.78s-.85 1.75-2.31 1.75-2.27-.69-2.38-1.74h.84a1.35 1.35 0 0 0 1.51 1.07 1.22 1.22 0 0 0 1.46-1c.02-.71-.58-.97-1.75-1.21zM301.95 74.59a2.41 2.41 0 0 1-2.47 1.77c-1.58 0-2.75-1-2.75-3s1.14-3 2.67-3 2.63 1 2.63 3.21h-4.47a1.93 1.93 0 0 0 1.95 2.15 1.55 1.55 0 0 0 1.56-1.08h.88zm-4.37-1.73h3.61a1.76 1.76 0 0 0-1.78-1.86 1.84 1.84 0 0 0-1.83 1.87z"/><path class="cls-4" d="M232 68h8v8h-8z"/><path class="cls-2" d="M253.77 120.9c0-.85-.43-1.26-2.57-1.79-1.81-.45-2.43-1.11-2.43-2.21s1-2 2.78-2c1.63 0 2.84.77 3.07 2.06h-.89c-.17-.84-.94-1.33-2.17-1.33s-1.93.53-1.93 1.22.35 1.12 2.17 1.57c2.16.55 2.84 1.21 2.84 2.44s-1.09 2.29-3 2.29a2.9 2.9 0 0 1-3.15-2.29h.89a2 2 0 0 0 2.24 1.56c1.38.01 2.15-.64 2.15-1.52zM261.33 121.39a2.41 2.41 0 0 1-2.47 1.77c-1.58 0-2.75-1-2.75-3s1.14-3 2.67-3 2.63 1 2.63 3.21h-4.47a1.93 1.93 0 0 0 1.95 2.14 1.55 1.55 0 0 0 1.56-1.08h.88zm-4.33-1.73h3.61a1.76 1.76 0 0 0-1.78-1.89 1.85 1.85 0 0 0-1.83 1.89zM267.92 121.23a2.32 2.32 0 0 1-2.43 1.92c-1.47 0-2.62-1-2.62-3s1.1-3.07 2.62-3.07a2.24 2.24 0 0 1 2.4 1.8H267a1.38 1.38 0 0 0-1.47-1.11c-1 0-1.78.76-1.78 2.41s.8 2.25 1.78 2.25a1.45 1.45 0 0 0 1.53-1.23h.88zM270.41 117.27v3.81a1.23 1.23 0 0 0 1.34 1.38 1.56 1.56 0 0 0 1.56-1.69v-3.5h.83V123h-.68l-.09-.79a2.07 2.07 0 0 1-1.8 1 1.86 1.86 0 0 1-2-2.08v-3.81h.81zM276.2 123v-5.72h.67l.11 1a1.61 1.61 0 0 1 1.53-1.14 2.52 2.52 0 0 1 .61.08v.78a2.26 2.26 0 0 0-.64-.1c-.78 0-1.46.68-1.46 2.09v3h-.82zM280.38 116.1v-1h.93v1h-.93zm.06 6.9v-5.72h.82V123h-.82zM284.34 118v3.75a.62.62 0 0 0 .68.71 2.43 2.43 0 0 0 .67-.09v.63a2.73 2.73 0 0 1-.76.11 1.3 1.3 0 0 1-1.41-1.45V118h-.84v-.7h.84l.05-1.38h.76v1.38h1.29v.7h-1.29zM289.75 123.06c-.5 1.41-.8 2.08-1.74 2.08a2.41 2.41 0 0 1-.64-.1v-.67a2.21 2.21 0 0 0 .56.09c.5 0 .66-.38 1-1.46h-.29l-2.18-5.72h.88l1.83 5.07 1.73-5.07h.83zM236.41 145l-2.66-6.67V145h-.84v-7.92h1.22l2.73 6.94 2.56-6.94h1.17V145h-.81v-6.61l-2.51 6.61h-.86zM245.11 139.11c1.54 0 2.72 1 2.72 3s-1.15 3-2.72 3-2.73-1-2.73-3 1.21-3 2.73-3zm0 5.38c1.09 0 1.86-.8 1.86-2.36s-.79-2.35-1.87-2.35-1.88.79-1.88 2.35.78 2.36 1.9 2.36zM249.56 145v-5.72h.67l.11 1a1.61 1.61 0 0 1 1.53-1.14 2.52 2.52 0 0 1 .6.08v.78a2.26 2.26 0 0 0-.64-.1c-.78 0-1.46.68-1.46 2.09v3h-.81zM258.62 143.39a2.41 2.41 0 0 1-2.47 1.77c-1.58 0-2.75-1-2.75-3s1.14-3 2.67-3 2.63 1 2.63 3.21h-4.47a1.93 1.93 0 0 0 1.95 2.14 1.55 1.55 0 0 0 1.56-1.08h.88zm-4.37-1.73h3.61a1.76 1.76 0 0 0-1.78-1.89 1.85 1.85 0 0 0-1.83 1.89z"/><path class="cls-5" d="M232 114h8v8h-8z"/><path class="cls-2" d="M248.58 48.83c0-2.7 1.54-4.16 3.64-4.16a3.1 3.1 0 0 1 3.3 2.63h-.87a2.26 2.26 0 0 0-2.43-1.9c-1.6 0-2.76 1.17-2.76 3.43s1.14 3.36 2.73 3.36a2.34 2.34 0 0 0 2.46-2.13h.87a3.2 3.2 0 0 1-3.34 2.87c-2.18-.01-3.6-1.54-3.6-4.1zM259.66 46.87c1.54 0 2.72 1 2.72 3s-1.15 3-2.72 3-2.73-1-2.73-3 1.21-3 2.73-3zm0 5.38c1.09 0 1.86-.8 1.86-2.35s-.79-2.36-1.87-2.36-1.88.79-1.88 2.36.82 2.35 1.9 2.35zM264.11 52.76V47h.67l.09.78a1.94 1.94 0 0 1 1.73-.95 1.71 1.71 0 0 1 1.69 1 2 2 0 0 1 1.86-1 1.78 1.78 0 0 1 1.89 2v3.88h-.83v-3.77a1.15 1.15 0 0 0-1.21-1.37 1.57 1.57 0 0 0-1.51 1.67v3.52h-.81v-3.82a1.15 1.15 0 0 0-1.23-1.38 1.56 1.56 0 0 0-1.51 1.66v3.53h-.81zM274.71 47l.13 1a2.26 2.26 0 0 1 2-1.08c1.45 0 2.46 1 2.46 3S278.21 53 276.76 53a2.09 2.09 0 0 1-1.89-1v2.86H274V47h.67zm1.93.53c-1 0-1.84.69-1.84 2.3s.76 2.37 1.83 2.37 1.8-.76 1.8-2.41-.76-2.22-1.79-2.22zM281.78 47v3.81a1.23 1.23 0 0 0 1.34 1.39 1.56 1.56 0 0 0 1.56-1.69V47h.82v5.72h-.68l-.08-.72a2.07 2.07 0 0 1-1.8 1 1.86 1.86 0 0 1-2-2.08V47h.81zM288.61 47.74v3.75a.63.63 0 0 0 .68.71 2.42 2.42 0 0 0 .67-.09v.69a2.69 2.69 0 0 1-.76.11 1.3 1.3 0 0 1-1.41-1.45v-3.72H287V47h.84l.06-1.37h.76V47h1.29v.71h-1.29zM291.35 45.86v-1h.93v1h-.93zm.06 6.9V47h.82v5.72h-.83zM294.26 52.76V47h.67l.07.9a2.08 2.08 0 0 1 1.82-1 1.87 1.87 0 0 1 2 2.07v3.82H298V49a1.25 1.25 0 0 0-1.37-1.4 1.59 1.59 0 0 0-1.58 1.65v3.54h-.81zM301.65 53.22a1.41 1.41 0 0 0 1.58 1 1.52 1.52 0 0 0 1.77-1.57v-1a2.25 2.25 0 0 1-1.95.92 2.53 2.53 0 0 1-2.48-2.81c0-1.83 1.06-2.89 2.52-2.89a2.13 2.13 0 0 1 1.93 1l.13-.88h.67v5.64a2.25 2.25 0 0 1-2.52 2.22c-1.42 0-2.28-.64-2.47-1.68h.87zm1.53-1.34a1.81 1.81 0 0 0 1.83-2.1c0-1.47-.77-2.21-1.84-2.21s-1.79.7-1.79 2.21a1.86 1.86 0 0 0 1.8 2.1z"/><path class="cls-6" d="M232 44h8v9h-8z"/><path class="cls-2" d="M252.41 99.64L249.75 93v6.67h-.84v-7.95h1.22l2.73 6.94 2.56-6.94h1.17v7.92h-.81V93l-2.51 6.61h-.86zM261.11 93.76c1.54 0 2.72 1 2.72 3s-1.16 3-2.72 3-2.73-1-2.73-3 1.21-3 2.73-3zm0 5.38c1.09 0 1.86-.8 1.86-2.35s-.79-2.36-1.87-2.36-1.88.79-1.88 2.36.78 2.35 1.9 2.35zM265.56 99.64v-7.92h.81v3.13a2.19 2.19 0 0 1 2-1.1c1.45 0 2.46 1 2.46 3s-1.08 3.08-2.53 3.08a2.13 2.13 0 0 1-1.93-1.07l-.12.9h-.67zm2.6-5.19c-1 0-1.84.69-1.84 2.3s.76 2.37 1.84 2.37 1.79-.76 1.79-2.41-.76-2.26-1.79-2.26zM272.45 92.75v-1h.93v1h-.93zm.05 6.9v-5.73h.83v5.72h-.83zM276.18 99.64h-.81v-7.92h.81v7.92zM278.16 92.75v-1h.93v1h-.93zm.05 6.9v-5.73h.79v5.72h-.83zM282.12 94.63v3.75a.63.63 0 0 0 .68.71 2.42 2.42 0 0 0 .67-.09v.7a2.69 2.69 0 0 1-.76.11 1.3 1.3 0 0 1-1.41-1.45v-3.73h-.84v-.71h.84l.06-1.37h.76v1.38h1.29v.71h-1.29zM287.53 99.71c-.49 1.41-.8 2.08-1.74 2.08a2.36 2.36 0 0 1-.64-.1V101a2.17 2.17 0 0 0 .56.09c.49 0 .66-.39 1-1.46h-.29l-2.18-5.72h.88L287 99l1.73-5.07h.82z"/><path class="cls-7" d="M232 91h8v9h-8z"/><path class="cls-8" d="M108.69 50.69h.53l1.23.09.6.06.95.16h.2l.57.09.69.12.55.1.3.06.62.14.85.2.78.21.92.26.52.18 1 .33h.09l.55.21.66.26.54.22.25.11 1 .47.21.1c.41.19.82.4 1.22.61l.39.21c.34.18.67.37 1 .57l.61.37.59.37c.4.26.8.52 1.18.8l.54.38.17.06c.42.31.84.63 1.25 1l.08.07c.3.24.59.5.88.75l.12.1c.39.35.78.7 1.15 1.06l.23.21.46.48c.27.28.55.55.81.84l.13.15q.89 1 1.71 2v.05c.5.64 1 1.3 1.44 2 .13.2.25.4.38.6.29.45.57.9.84 1.37l.35.61c.25.46.49.93.72 1.4l23.18-10.32c-.14-.3-.28-.61-.43-.92l-.1-.21-.1-.19c-.25-.5-.5-1-.77-1.5-.18-.34-.38-.66-.57-1s-.5-.9-.76-1.34l-.07-.12-.15-.25-.31-.51-.34-.54-.13-.32-.14-.21-.17-.25q-.45-.68-.92-1.35l-.24-.35-.53-.69-.74-1-.12-.15-.22-.28-.39-.48c-.27-.34-.53-.69-.81-1l-.72-.86-.42-.48-.19-.21-.17-.18-.43-.46-.6-.65-.57-.62c-.3-.31-.6-.6-.9-.9l-.21-.21-.06-.06-.41-.4-.26-.25-.88-.86-.62-.57-.08-.07-.2-.1-.56-.47c-.41-.35-.81-.71-1.23-1q-1.85-1.5-3.8-2.84l-.35-.25-.17-.11-.66-.44-.68-.44-.17-.1c-.45-.29-.92-.55-1.37-.82l-.36-.22q-2-1.2-4.18-2.24l-.38-.19L133 31l-.72-.33-.28-.1a59.67 59.67 0 0 0-6.24-2.4l-.91-.27c-.63-.19-1.26-.39-1.91-.56a59.89 59.89 0 0 0-6.31-1.34l-.63-.1-1-.14h-.46l-1.25-.13-1.57-.13-1.19-.08h-.28l-1.73-.06v25.32h.26z"/><path class="cls-9" d="M142.18 87v.5c0 .35 0 .7-.08 1s0 .46-.07.69q-.06.54-.13 1.07c0 .24-.07.48-.11.72s-.09.54-.14.8l-.21 1.08v.12l-.11.48q-.11.45-.23.9l-.13.47-.1.35-.24.8v.07l-.08.26-.13.4c-.11.32-.22.64-.34 1v.08l-.11.3 23.37 9.92.17-.44.34-.88.18-.48c.12-.32.23-.64.34-1l.14-.42c.12-.34.23-.69.34-1l.11-.35c.11-.37.23-.73.33-1.1l.09-.31c.11-.38.22-.77.32-1.16l.07-.27.09-.35v-.12c.06-.23.12-.45.17-.68l.06-.26v-.13l.05-.24.1-.47.09-.38.1-.51.12-.64.05-.26v-.1l.08-.43v-.26c0-.19.07-.37.1-.56v-.26l.05-.37v-.23l.1-.68v-.31-.19c0-.37.09-.74.13-1.11v-.98c0-.22 0-.44.06-.66v-.26c0-.25 0-.51.05-.77v-.15-.31V88.52v-.39-.7-.33-1-.16-.11-.64-1V84v-.49-1s0-.67-.06-1-.05-.68-.08-1-.08-.83-.13-1.24v-.28c0-.32-.07-.65-.12-1s-.09-.69-.14-1-.11-.71-.17-1.06-.07-.5-.12-.75c-.07-.37-.14-.73-.21-1.09 0-.19-.07-.38-.11-.57l-.12-.56-.25-1.1c-.11-.48-.24-1-.36-1.44v-.06l-.08-.31-.17-.62v-.09l-.06-.2-.3-1-.16-.49V67.43l-.09-.27c-.08-.24-.15-.48-.23-.72-.08-.23-.16-.45-.24-.68l-.02-.76c-.06-.18-.13-.36-.2-.55s-.13-.36-.2-.53l-.41-1-.1-.24-23.2 10.33.16.5c.13.33.24.67.36 1l.19.59c.13.4.25.81.36 1.21v.15c.13.48.25 1 .36 1.44v.19c0 .14.06.29.09.42.1.45.18.9.26 1.35v.23c.08.5.15 1 .21 1.5v.11c0 .4.08.8.11 1.21v3.12c.26.36.25.69.24.97z"/><path class="cls-10" d="M72.51 81.93v-.28c0-.35.09-.69.14-1l.12-.75s.09-.53.14-.8v-.21l.1-.51c.06-.27.12-.54.19-.81s.1-.44.16-.66v-.13l.09-.31c.09-.34.19-.67.29-1s.15-.49.23-.73.21-.61.31-.91l.2-.54.2-.29c.29-.76.61-1.51 1-2.25l.24-.51v-.06l.29-.57c.1-.19.19-.38.29-.56s.31-.56.47-.84L55.69 54.35l-.38.65c-.26.44-.53.87-.78 1.32l-.18.35-.28.5-.14.28c-.32.62-.65 1.24-.95 1.87l-.12.25-.22.43-.44 1-.2.49c-.1.24-.19.48-.29.71s-.24.55-.35.83-.21.54-.31.81l-.23.61-.09.22c-.07.18-.12.36-.18.54l-.09.25-.29.85q-.29.86-.55 1.73l-.21.69c-.12.42-.23.85-.35 1.27-.06.21-.11.42-.16.63l-.16.62c0 .19-.1.37-.14.56l-.18.85-.06.27c0 .15-.07.29-.1.43s0 .21-.06.31v.93l-.11.62v.06c0 .15-.06.3-.08.46-.07.43-.14.85-.2 1.28V78.12c0 .18 0 .36-.05.54-.06.51-.11 1-.16 1.53z"/><path class="cls-11" d="M72.33 87v-1.2-.29-.52L47 83.15v4.1c0 .4 0 .8.06 1.2 0 .27 0 .54.06.8v.3l25.27-2.21c-.04-.1-.05-.23-.06-.34z"/><path class="cls-12" d="M74.75 98.42l-.14-.36c-.11-.29-.22-.59-.32-.88l-.29-.7c0-.24-.11-.48-.19-.73s-.16-.54-.23-.82v-.1c-.08-.3-.17-.61-.24-.92s-.15-.63-.21-1-.13-.4-.13-.62-.12-.65-.17-1-.08-.51-.12-.76v-.21l-25.36 2.24v.34q.29 2.35.76 4.69c.08.41.19.82.28 1.24 0 .19.07.38.12.56l.05.25v.11l.08.31v.06l.05.21.09.36c.07.29.16.57.24.86s.19.68.28 1l.05.19.15.26.11.36.21.64c.11.35.23.7.35 1l.22.65.12.35.19.52c.14.39.3.77.45 1.15.05.14.1.27.15.41l.09.24v.11l.11.26v.08l23.29-10.26z"/><path class="cls-13" d="M112.53 145.68l1.09-.11.53-.05h.27l1.11-.16.36-.05-4.41-25-.9.11c-1.1.1-2.2.16-3.32.16h-1.51s-1 0-1.46-.08a35.34 35.34 0 0 1-4.31-.66l-.75-.16-.77-.2-.78-.22-7.85 24.16h.11c1.47.44 3 .81 4.44 1.13l.62.09 1.65.36.65.12c1.34.22 2.68.42 4 .55l.65.05h.61l.73.06q.85.06 1.69.09h1.4a59.5 59.5 0 0 0 6.09-.22z"/><path class="cls-14" d="M94.22 118c-.91-.37-1.8-.77-2.68-1.21l-.69-.36a35.36 35.36 0 0 1-3.52-2.14l-.33-.2c-.22-.15-.43-.31-.65-.47a35.43 35.43 0 0 1-2.73-2.27c-.31-.28-.62-.56-.92-.85l-1.87 1.75-16.7 15.57.11.11.43.43c.55.55 1.11 1.09 1.68 1.61l.09.03c.42.38.84.75 1.27 1.12 1.2 1 2.43 2 3.7 3l.23.16c.49.36 1 .69 1.48 1s.84.58 1.27.86l.24.16.37.26c.55.35 1.11.69 1.68 1l.53.31.89.51 1 .55.3.15 1 .5.6.32.37.18.58.26.77.37.38.17.79.33.35.15.89.37 1.31.5.55.2 7.85-24.16z"/><path class="cls-15" d="M121.62 144.18l1.14-.3.39-.1h.08l.43-.12.5-.14 1.4-.43h.06l.16-.05h.09l.15-.05 1.12-.38.79-.28c.76-.28 1.51-.57 2.26-.87l.13-.06 1-.41.57-.25h.07l.79-.36.15-.07 1.34-.64.67-.36.59-.3.74-.4.12-.07.37-.2.34-.19.94-.56h.08l.25-.14.12-.07.13-.08.23-.14.9-.56.87-.57c.55-.37 1.1-.74 1.63-1.13l.43-.31c.42-.3.82-.63 1.23-.94l.48-.35.3-.24.85-.7.1-.08.16-.14.38-.31.8-.69.78-.69q.74-.68 1.44-1.36l.38-.37.19-.2.16-.16c1-1 1.94-2 2.85-3.1l.52-.59.13-.16.12-.15.17-.22.77-1c.22-.29.46-.57.67-.85l.33-.44.35-.46q.74-1 1.45-2.07l.4-.61.35-.54c.06-.08.1-.16.15-.24l.42-.7.11-.18.14-.22.52-.89.25-.43.47-.85.26-.49.67-1.17.28-.56.36-.75.36-.69.08-.18-23.38-9.92-.08.17-.27.54c-.18.35-.37.7-.57 1l-.26.46-.28.47c-.24.41-.49.8-.75 1.2l-.08.13c-.29.43-.59.86-.9 1.28v.07c-.31.42-.64.84-1 1.25l-.07.08c-.25.3-.51.6-.76.9l-.38.44c-.21.24-.44.47-.66.7l-.39.41-.17.18-.62.61-.29.28-.45.41-.48.42-.26.23-.74.61-.11.09-.44.35-1 .72-.62.44-.61.4-.73.47-.92.55-.47.27c-.42.23-.84.46-1.27.67l-.61.3-.73.34h-.11c-.71.32-1.42.62-2.14.88l-.8.28-.46.16h-.07l-.65.21-.33.1-1 .27-.23.06c-.5.13-1 .24-1.51.35l4.4 25c.92-.18 1.85-.38 2.76-.61z"/><path class="cls-16" d="M84.27 29.84l-.72.29-.37.16c-.59.26-1.19.53-1.77.81l-.9.44-.68.35-.19.1-.14.08-.78.42-.2.11-.61.33-.42.24-.5.3-.34.19-.39.22-.1.06-.2.12h-.06l-.72.45-.18.14c-.49.31-1 .63-1.44.95l-.42.29-1.28.9-.13.1-.73.54-.9.71-.17.13-.23.18-.7.48-.35.28-.08.07-.06.05-.2.18-.27.24c-.49.42-1 .84-1.46 1.28q-1.76 1.6-3.38 3.33l-.15.16-.61.67-.23.25-.27.3-.14.26-.13.16c-.23.27-.45.54-.67.81-.48.57-1 1.14-1.41 1.72l-.11.13-.08.1-.4.49-.18.26-.67.94-.38.53-.17.23-.16.23-.15.21 21.29 13.83.06-.09L79 65l.21-.29.33-.43.47-.6.13-.16.63-.75.23-.22v-.05q.52-.6 1.08-1.17l.4-.33c.25-.25.5-.5.76-.73l.57-.53.68-.59c.44-.38.89-.75 1.35-1.11l.13-.1.5-.38c.34-.26.7-.51 1-.75l.13-.09 1-.64.15-.09c.49-.31 1-.61 1.5-.89l.42-.23.48-.25 1-.48.79-.37.66-.29.53-.22-8.27-24h-.13c-.5.18-.98.38-1.46.58z"/><path class="cls-17" d="M104.85 25.31l-.85.06-1.31.09-1.55.13H101c-1.75.18-3.51.44-5.26.78l-.27.06-.39.09c-.94.19-1.87.4-2.8.64l-.39.1-1.32.38-1.57.47-.31.1 8.26 24 .91-.27h.08l.41-.11.89-.22.52-.12h.39c.46-.09.91-.18 1.36-.25h.22c.5-.08 1-.15 1.5-.21h.11c.5-.06 1-.1 1.49-.14H105.4V25.3h-.58z"/><path class="cls-18" d="M80.68 108.28l-.15-.18-.43-.52-.1-.12c-.3-.38-.61-.75-.9-1.14-.3-.4-.58-.81-.85-1.22l-.18-.28c-.22-.33-.43-.67-.63-1l-.35-.58-.18-.32c-.19-.33-.36-.65-.54-1l-.21-.42-.16-.25-23.18 10.33.18.32.31.6c.21.42.43.84.65 1.26l.34.65.27.48.34.58.43.74.36.61.06.18v.08l.13.2.23.38.43.68c.26.4.52.8.79 1.2s.63.91 1 1.36l.36.49c.46.63.93 1.24 1.42 1.85l.07.09c.35.44.72.87 1.08 1.3l.35.37.48.55 13-12.08z"/><path class="cls-19" d="M176.37 84.41a2.65 2.65 0 0 1-2.62-2.21h.89a1.9 1.9 0 0 0 2.13 1.51c1.33 0 2-.62 2-1.46s-.41-1.23-2.44-1.73c-1.69-.42-2.31-1.07-2.31-2.12s.8-1.84 2.31-1.95v-1.3h.77v1.29a2.49 2.49 0 0 1 2.52 2h-.89c-.17-.83-.87-1.29-2.06-1.29s-1.78.53-1.78 1.19.29 1.07 2 1.5c2 .5 2.71 1.25 2.71 2.37s-.9 2.1-2.54 2.22v1.35h-.77v-1.37zM184.17 84.29v-6.85l-1.75 1v-.89l1.76-1h.82v7.7h-.81zM188.87 80.42c0-2.83 1.18-4 2.7-4s2.7 1.18 2.7 4-1.17 4-2.7 4-2.7-1.21-2.7-4zm4.55 0c0-2.27-.66-3.31-1.86-3.31s-1.86 1-1.86 3.31.66 3.33 1.86 3.33 1.87-1.05 1.87-3.33zM200.06 84.29l-2.66-6.67v6.67h-.84v-7.93h1.22l2.73 6.94 2.56-6.94h1.17v7.92h-.81v-6.61l-2.51 6.61h-.86zM154 143.55a2.65 2.65 0 0 1-2.62-2.21h.89a1.9 1.9 0 0 0 2.13 1.51c1.33 0 2-.62 2-1.46s-.41-1.23-2.44-1.73c-1.69-.42-2.31-1.07-2.31-2.12s.8-1.84 2.31-1.95v-1.29h.77v1.29a2.49 2.49 0 0 1 2.52 2h-.89c-.17-.83-.87-1.29-2.06-1.29s-1.78.53-1.78 1.19.29 1.07 2 1.5c2 .5 2.71 1.25 2.71 2.37s-.9 2.1-2.54 2.22v1.35H154v-1.36zM160.21 142a1.34 1.34 0 0 0 1.4.91c1.09 0 1.87-.8 2-3.31a2.22 2.22 0 0 1-2 1.14 2.35 2.35 0 0 1-2.42-2.57 2.47 2.47 0 0 1 2.51-2.62c1.86 0 2.68 1.4 2.68 3.7 0 3.33-1.26 4.33-2.8 4.33a2.21 2.21 0 0 1-2.26-1.58h.89zm3.26-3.76a1.8 1.8 0 0 0-1.76-2 1.91 1.91 0 1 0 1.76 2.01zM170.23 143.43l-2.66-6.67v6.67h-.84v-7.92H168l2.73 6.94 2.56-6.94h1.17v7.92h-.86v-6.61l-2.51 6.61h-.86zM93.87 162.93a2.65 2.65 0 0 1-2.62-2.21h.89a1.9 1.9 0 0 0 2.13 1.51c1.33 0 2-.62 2-1.46s-.41-1.23-2.44-1.73c-1.69-.42-2.31-1.07-2.31-2.12s.8-1.84 2.31-1.95v-1.29h.77V155a2.49 2.49 0 0 1 2.52 2h-.86c-.17-.83-.87-1.29-2.06-1.29s-1.78.53-1.78 1.19.29 1.07 2 1.5c2 .5 2.71 1.25 2.71 2.37s-.9 2.1-2.54 2.22v1.35h-.72v-1.36zM103.21 156.52a1.3 1.3 0 0 0-1.34-.9c-1 0-1.88.74-2 3.31a2.26 2.26 0 0 1 2-1.14 2.36 2.36 0 0 1 2.42 2.57 2.47 2.47 0 0 1-2.53 2.62c-1.86 0-2.66-1.45-2.66-3.7 0-3.46 1.37-4.33 2.78-4.33a2.17 2.17 0 0 1 2.22 1.57h-.89zm-3.2 3.77a1.8 1.8 0 0 0 1.76 2 1.91 1.91 0 0 0 0-3.81 1.69 1.69 0 0 0-1.77 1.81zM110.13 162.81l-2.66-6.67v6.67h-.84v-7.92h1.22l2.73 6.94 2.56-6.94h1.17v7.92h-.81v-6.61l-2.5 6.61h-.86zM50 151.18a2.65 2.65 0 0 1-2.63-2.18h.89a1.9 1.9 0 0 0 2.13 1.51c1.33 0 2-.62 2-1.46s-.39-1.27-2.39-1.77c-1.69-.42-2.31-1.07-2.31-2.12s.8-1.84 2.31-1.95v-1.29h.77v1.29a2.49 2.49 0 0 1 2.52 2h-.9c-.17-.83-.87-1.29-2.06-1.29s-1.78.53-1.78 1.19.29 1.07 2 1.5c2 .5 2.71 1.25 2.71 2.37s-.9 2.1-2.54 2.22v1.35H50v-1.36zM55.06 149.23h.86a1.71 1.71 0 0 0 1.8 1.3 1.82 1.82 0 0 0 1.86-2 1.71 1.71 0 0 0-1.82-1.88 2.21 2.21 0 0 0-1.72.8h-.71l.17-4.11h4.57v.66h-3.82l-.1 2.61a2.61 2.61 0 0 1 1.79-.65 2.39 2.39 0 0 1 2.49 2.57 2.57 2.57 0 0 1-2.72 2.64 2.53 2.53 0 0 1-2.65-1.94zM66.26 151.06l-2.66-6.67v6.67h-.84v-7.92H64l2.73 6.94 2.56-6.94h1.17v7.92h-.84v-6.61l-2.51 6.61h-.85zM28.46 131.25a2.65 2.65 0 0 1-2.61-2.25h.89a1.9 1.9 0 0 0 2.13 1.51c1.33 0 2-.62 2-1.46s-.41-1.23-2.44-1.73c-1.69-.42-2.31-1.07-2.31-2.12s.8-1.84 2.31-1.95V122h.77v1.29a2.49 2.49 0 0 1 2.52 2h-.86c-.16-.84-.86-1.29-2.05-1.29s-1.78.53-1.78 1.19.29 1.07 2 1.5c2 .5 2.71 1.25 2.71 2.37s-.9 2.1-2.54 2.22v1.35h-.74v-1.36zM37.8 123.43V129H39v.7h-1.2v1.45H37v-1.45h-3.45v-.8l3.39-5.47h.86zM37 129v-4.24L34.44 129H37zM44.73 131.13l-2.66-6.67v6.67h-.83v-7.92h1.22l2.73 6.94 2.56-6.94h1.17v7.92h-.82v-6.61l-2.51 6.61h-.86zM18.71 109.56a2.65 2.65 0 0 1-2.62-2.21H17a1.9 1.9 0 0 0 2.13 1.51c1.33 0 2-.62 2-1.46s-.41-1.23-2.44-1.73c-1.69-.42-2.31-1.07-2.31-2.12s.8-1.84 2.31-1.95v-1.29h.77v1.29a2.49 2.49 0 0 1 2.52 2h-.87c-.17-.83-.87-1.29-2.06-1.29s-1.78.53-1.78 1.19.29 1.07 2 1.5c2 .5 2.71 1.25 2.71 2.37s-.9 2.1-2.54 2.22v1.35h-.73v-1.36zM23.74 107.62h.87a1.65 1.65 0 0 0 1.82 1.3 1.61 1.61 0 0 0 1.84-1.58 1.52 1.52 0 0 0-1.66-1.58h-.72V105h.68a1.36 1.36 0 0 0 1.45-1.4 1.43 1.43 0 0 0-1.63-1.36 1.59 1.59 0 0 0-1.74 1.24h-.85a2.43 2.43 0 0 1 2.64-1.94c1.3 0 2.42.68 2.42 2a1.81 1.81 0 0 1-1.42 1.78 1.93 1.93 0 0 1 1.66 2c0 1.35-1.07 2.26-2.66 2.26a2.45 2.45 0 0 1-2.7-1.96zM35 109.44l-2.66-6.67v6.67h-.85v-7.92h1.22l2.73 6.94 2.56-6.94h1.17v7.92h-.82v-6.61l-2.51 6.61H35zM12.22 90.46a2.65 2.65 0 0 1-2.62-2.21h.89a1.9 1.9 0 0 0 2.13 1.51c1.33 0 2-.62 2-1.46s-.41-1.23-2.44-1.73c-1.69-.42-2.31-1.07-2.31-2.12s.8-1.84 2.31-1.95v-1.29H13v1.29a2.49 2.49 0 0 1 2.52 2h-.9c-.17-.83-.87-1.29-2.06-1.29s-1.78.53-1.78 1.19.29 1.07 2 1.5c2 .5 2.71 1.25 2.71 2.37s-.9 2.1-2.54 2.22v1.35h-.73v-1.38zM20 90.34v-6.85l-1.75 1v-.89l1.76-1h.8v7.7H20zM28.49 90.34l-2.66-6.67v6.67H25v-7.92h1.22l2.73 6.94 2.56-6.94h1.17v7.92h-.82v-6.62l-2.51 6.61h-.86zM23.24 65.67a2.65 2.65 0 0 1-2.62-2.21h.89A1.9 1.9 0 0 0 23.64 65c1.33 0 2-.62 2-1.46s-.41-1.23-2.44-1.73c-1.69-.42-2.31-1.07-2.31-2.12s.8-1.84 2.31-1.95v-1.32h.8v1.29a2.49 2.49 0 0 1 2.52 2h-.89c-.17-.83-.87-1.29-2.06-1.29s-1.78.53-1.78 1.19.29 1.07 2 1.5c2 .5 2.71 1.25 2.71 2.37s-.9 2.1-2.54 2.22V67h-.72v-1.33zM30.1 65.55h-.92l3.36-7h-4v-.7h4.86v.74zM39.5 65.55l-2.66-6.67v6.67H36v-7.92h1.22L40 64.57l2.56-6.94h1.17v7.92h-.86v-6.61l-2.51 6.61h-.86zM47.18 34.68a2.65 2.65 0 0 1-2.62-2.21h.89A1.9 1.9 0 0 0 47.59 34c1.33 0 2-.62 2-1.46s-.41-1.23-2.44-1.73c-1.69-.42-2.31-1.07-2.31-2.12s.8-1.84 2.31-1.95v-1.31H48v1.29a2.49 2.49 0 0 1 2.52 2h-.94c-.17-.83-.87-1.29-2.06-1.29s-1.78.53-1.78 1.19.29 1.07 2 1.5c2 .5 2.71 1.25 2.71 2.37s-.9 2.1-2.54 2.22V36h-.73v-1.32zM56 30.46a2.29 2.29 0 0 1 1.73 2.07c0 1.26-1.09 2.2-2.76 2.2s-2.76-.92-2.76-2.13a2.16 2.16 0 0 1 1.65-2.08 1.93 1.93 0 0 1-1.36-1.8c0-1.38 1.19-2 2.48-2s2.47.58 2.47 1.95A2 2 0 0 1 56 30.46zm-1.21.32a1.91 1.91 0 0 0-1.72 1.75 1.94 1.94 0 0 0 3.78 0c0-1.25-1.13-1.53-2.07-1.75zm.3-.54a1.78 1.78 0 0 0 1.54-1.57 1.71 1.71 0 0 0-3.33 0c-.01 1.16 1.03 1.45 1.78 1.57zM63.45 34.56l-2.66-6.67v6.67H60v-7.92h1.22l2.73 6.94 2.56-6.94h1.17v7.92h-.86v-6.61l-2.51 6.61h-.86zM87 16.13a2.65 2.65 0 0 1-2.62-2.21h.92a1.9 1.9 0 0 0 2.13 1.51c1.33 0 2-.62 2-1.46s-.36-1.24-2.43-1.74c-1.69-.42-2.31-1.07-2.31-2.12s.83-1.84 2.31-1.95V6.88h.8v1.28a2.49 2.49 0 0 1 2.52 2h-.89c-.17-.83-.87-1.29-2.06-1.29s-1.78.53-1.78 1.19.29 1.07 2 1.5c2 .5 2.71 1.25 2.71 2.37s-.9 2.1-2.54 2.22v1.35H87v-1.37zM92.22 10.24a2.47 2.47 0 0 1 2.62-2.1 2.2 2.2 0 0 1 2.42 2.15c0 1-.46 1.69-1.73 2.93l-2.08 2h3.78V16h-4.88v-.75l2.7-2.66c1-.93 1.38-1.5 1.38-2.29a1.43 1.43 0 0 0-1.61-1.46 1.61 1.61 0 0 0-1.73 1.41h-.87zM103.3 16l-2.66-6.67V16h-.84V8.09h1.2l2.75 6.91 2.56-6.94h1.17V16h-.81V9.4l-2.51 6.6h-.86zM145.38 30.77a2.65 2.65 0 0 1-2.62-2.21h.89a1.9 1.9 0 0 0 2.13 1.51c1.33 0 2-.62 2-1.46s-.41-1.23-2.44-1.73c-1.69-.42-2.31-1.07-2.31-2.12s.8-1.84 2.31-1.95v-1.29h.77v1.29a2.49 2.49 0 0 1 2.52 2h-.89c-.17-.83-.87-1.29-2.06-1.29s-1.78.53-1.78 1.19.29 1.07 2 1.5c2 .5 2.71 1.25 2.71 2.37s-.9 2.1-2.54 2.22v1.35h-.77v-1.38zM153.18 30.65v-6.84l-1.75 1v-.89l1.76-1h.81v7.7h-.81zM160.6 30.65v-6.84l-1.75 1v-.89l1.76-1h.8v7.7h-.81zM169.07 30.65L166.41 24v6.67h-.84v-7.94h1.22l2.73 6.94 2.56-6.94h1.17v7.92h-.81V24l-2.51 6.61h-.86z"/></svg>