<svg id="Artwork" xmlns="http://www.w3.org/2000/svg" viewBox="0 0 336 186"><defs><style>.cls-1{fill:#fff;}.cls-2{fill:#646871;}.cls-3{fill:#59595c;}.cls-4{fill:#d85f0e;}.cls-5{fill:#31a254;}.cls-6{fill:#ef3b20;}.cls-7{fill:#2c7fb7;}.cls-8{fill:#7eb963;}.cls-9{fill:#263e95;}.cls-10{fill:#d53927;}.cls-11{fill:#792b8c;}</style></defs><title>cis_ready_dashboards_executive_flow</title><path class="cls-1" d="M336 182.08a3.76 3.76 0 0 1-3.56 3.92H3.56A3.76 3.76 0 0 1 0 182.08V0h336v182.08z"/><path class="cls-2" d="M37.42 41.12a2.65 2.65 0 0 1-2.62-2.21h.9a1.9 1.9 0 0 0 2.13 1.51c1.33 0 2-.62 2-1.46s-.41-1.23-2.44-1.73c-1.69-.42-2.31-1.07-2.31-2.12s.8-1.84 2.31-1.95v-1.29h.77v1.29a2.49 2.49 0 0 1 2.52 2h-.86c-.17-.82-.87-1.29-2.06-1.29S36 34.39 36 35s.29 1.07 2 1.5c2 .5 2.71 1.25 2.71 2.37s-.9 2.1-2.54 2.22v1.35h-.75v-1.32zM43.67 39.58a1.34 1.34 0 0 0 1.4.91c1.09 0 1.87-.8 2-3.31a2.22 2.22 0 0 1-2 1.14 2.35 2.35 0 0 1-2.42-2.57 2.47 2.47 0 0 1 2.51-2.62c1.86 0 2.68 1.4 2.68 3.7 0 3.33-1.26 4.33-2.8 4.33a2.21 2.21 0 0 1-2.26-1.58h.89zm3.26-3.76a1.8 1.8 0 0 0-1.76-2 1.71 1.71 0 0 0-1.69 1.87 1.73 1.73 0 1 0 3.45.13zM53.69 41L51 34.33V41h-.81v-7.92h1.22L54.14 40l2.56-6.94h1.17V41h-.81v-6.61L54.55 41h-.86zM22.06 111.95a2.65 2.65 0 0 1-2.62-2.21h.89a1.9 1.9 0 0 0 2.13 1.51c1.33 0 2-.62 2-1.46s-.41-1.23-2.44-1.73c-1.69-.42-2.31-1.07-2.31-2.12s.8-1.84 2.31-1.95v-1.29h.77v1.3a2.49 2.49 0 0 1 2.52 2h-.85c-.17-.83-.87-1.29-2.06-1.29s-1.78.53-1.78 1.19.29 1.07 2 1.5c2 .5 2.71 1.25 2.71 2.37s-.9 2.1-2.54 2.22v1.35h-.73v-1.36zM27.13 110H28a1.71 1.71 0 0 0 1.8 1.3 1.82 1.82 0 0 0 1.86-2 1.71 1.71 0 0 0-1.82-1.88 2.21 2.21 0 0 0-1.72.8h-.71l.17-4.11h4.57v.69h-3.83l-.1 2.61a2.61 2.61 0 0 1 1.79-.65 2.39 2.39 0 0 1 2.49 2.57 2.57 2.57 0 0 1-2.72 2.67 2.53 2.53 0 0 1-2.65-2zM38.33 111.83l-2.66-6.67v6.67h-.84v-7.92h1.22l2.73 6.94 2.56-6.94h1.17v7.92h-.81v-6.61l-2.51 6.61h-.86zM170.93 58.81a2.65 2.65 0 0 1-2.62-2.21h.89a1.9 1.9 0 0 0 2.13 1.51c1.33 0 2-.62 2-1.46s-.41-1.23-2.44-1.73c-1.69-.42-2.31-1.07-2.31-2.12s.8-1.84 2.31-1.95v-1.29h.77v1.29a2.49 2.49 0 0 1 2.52 2h-.89c-.17-.82-.87-1.29-2.06-1.29s-1.78.53-1.78 1.19.29 1.07 2 1.5c2 .5 2.71 1.25 2.71 2.37s-.9 2.1-2.54 2.22v1.35h-.77v-1.38zM178.72 58.69v-6.84l-1.75 1V52l1.76-1h.8v7.7h-.81zM187.69 51v5.54h1.21v.7h-1.21v1.45h-.8v-1.45h-3.45v-.78l3.38-5.46h.87zm-.8 5.54V52.3l-2.56 4.24h2.56zM194.62 58.69L192 52v6.67h-.84v-7.9h1.22l2.73 6.94 2.56-6.94h1.17v7.92H198v-6.61l-2.51 6.61h-.86zM102.85 161.7a2.65 2.65 0 0 1-2.62-2.21h.89a1.9 1.9 0 0 0 2.13 1.51c1.33 0 2-.62 2-1.46s-.41-1.23-2.44-1.73c-1.69-.42-2.31-1.07-2.31-2.12s.8-1.84 2.31-1.95v-1.29h.77v1.29a2.49 2.49 0 0 1 2.52 2h-.89c-.17-.82-.87-1.29-2.06-1.29s-1.78.53-1.78 1.19.29 1.07 2 1.5c2 .49 2.71 1.25 2.71 2.37s-.9 2.1-2.54 2.22v1.35h-.77v-1.38zM110.65 161.57v-6.84l-1.75 1v-.85l1.76-1h.8v7.7h-.81zM115.36 157.71c0-2.83 1.18-4 2.7-4s2.7 1.18 2.7 4-1.17 4-2.7 4-2.7-1.21-2.7-4zm4.55 0c0-2.27-.66-3.31-1.86-3.31s-1.86 1-1.86 3.31.66 3.33 1.86 3.33 1.86-1.04 1.86-3.33zM126.54 161.57l-2.66-6.67v6.67H123v-7.92h1.22l2.78 6.95 2.56-6.94h1.17v7.92h-.81V155l-2.51 6.61h-.86z"/><path class="cls-3" d="M265 26.82l-2-3.14h-2.11v3.14H260V18.9h2.63c1.9 0 3 .89 3 2.43a2.27 2.27 0 0 1-1.75 2.19l2.19 3.3h-1zm-4.14-7.21V23h1.8c1.28 0 2-.66 2-1.64s-.67-1.72-2-1.72h-1.79zM272.16 25.21a2.41 2.41 0 0 1-2.48 1.79c-1.58 0-2.75-1-2.75-3s1.14-3 2.67-3 2.63 1 2.63 3.21h-4.47a1.93 1.93 0 0 0 1.95 2.14 1.55 1.55 0 0 0 1.56-1.08h.88zm-4.37-1.73h3.61a1.76 1.76 0 0 0-1.78-1.89 1.85 1.85 0 0 0-1.83 1.89zM276.69 19.57a3.34 3.34 0 0 0-.86-.13.65.65 0 0 0-.69.73v.93h1.29v.7h-1.29v5h-.81v-5h-.85v-.7h.85v-.89a1.38 1.38 0 0 1 1.46-1.47 3.34 3.34 0 0 1 .9.13v.71zM277.89 26.82V21.1h.67l.11 1a1.61 1.61 0 0 1 1.53-1.14 2.51 2.51 0 0 1 .6.08v.81a2.25 2.25 0 0 0-.64-.1c-.78 0-1.46.68-1.46 2.09v3h-.81zM286.94 25.21a2.41 2.41 0 0 1-2.47 1.79c-1.58 0-2.75-1-2.75-3s1.14-3 2.67-3 2.63 1 2.63 3.21h-4.47a1.93 1.93 0 0 0 1.95 2.14 1.54 1.54 0 0 0 1.56-1.08h.88zm-4.37-1.73h3.61a1.76 1.76 0 0 0-1.78-1.89 1.84 1.84 0 0 0-1.82 1.89zM290.45 24.12c-1.24-.25-1.87-.75-1.87-1.62s.74-1.57 2.16-1.57a2.1 2.1 0 0 1 2.26 1.63h-.84a1.34 1.34 0 0 0-1.47-1c-.89 0-1.3.39-1.3.85s.31.79 1.46 1c1.41.29 2.18.7 2.18 1.78s-.82 1.81-2.28 1.81-2.27-.69-2.38-1.74h.84a1.34 1.34 0 0 0 1.55 1.08 1.22 1.22 0 0 0 1.46-1c0-.76-.6-.99-1.77-1.22zM294.8 26.82V18.9h.81v3a2 2 0 0 1 1.77-1 1.88 1.88 0 0 1 2 2.07v3.82h-.81V23a1.25 1.25 0 0 0-1.37-1.4 1.6 1.6 0 0 0-1.58 1.68v3.51h-.82z"/><path class="cls-4" d="M243 20h8v8h-8z"/><path class="cls-3" d="M265.65 73.7l-.83-2.12h-3.89l-.85 2.12h-.9l3.21-7.92h1l3.2 7.92h-1zm-4.44-2.84h3.33l-1.65-4.22zM268.95 68.69v3.75a.63.63 0 0 0 .68.71 2.43 2.43 0 0 0 .67-.09v.69a2.69 2.69 0 0 1-.76.11 1.3 1.3 0 0 1-1.41-1.45v-3.72h-.83V68h.84l.05-1.37h.76V68h1.29v.71h-1.29zM272.82 68.69v3.75a.63.63 0 0 0 .68.71 2.42 2.42 0 0 0 .67-.09v.69a2.69 2.69 0 0 1-.76.11 1.3 1.3 0 0 1-1.41-1.45v-3.72h-.84V68h.84l.06-1.37h.76V68h1.29v.71h-1.29zM275.45 69.52a2.06 2.06 0 0 1 2.33-1.71 2 2 0 0 1 2.22 1.93v4h-.67l-.1-.87a2.27 2.27 0 0 1-2 1 1.7 1.7 0 0 1-1.95-1.63c0-1 .61-1.61 2.18-1.87l1.71-.29v-.4a1.24 1.24 0 0 0-1.45-1.22 1.26 1.26 0 0 0-1.44 1.06h-.86zm3.75 1.21l-1.49.25c-1.2.21-1.54.58-1.54 1.18a1.07 1.07 0 0 0 1.29 1 1.69 1.69 0 0 0 1.74-1.54v-.9zM286.73 71.94a2.31 2.31 0 0 1-2.43 1.93c-1.47 0-2.62-1-2.62-3s1.1-3.07 2.62-3.07a2.24 2.24 0 0 1 2.4 1.8h-.9a1.38 1.38 0 0 0-1.47-1.11c-1 0-1.78.76-1.78 2.41s.8 2.26 1.78 2.26a1.45 1.45 0 0 0 1.53-1.23h.88zM288.47 73.7v-7.92h.81v3a2.05 2.05 0 0 1 1.77-1 1.87 1.87 0 0 1 2 2.07v3.85h-.81v-3.79a1.25 1.25 0 0 0-1.38-1.4 1.6 1.6 0 0 0-1.58 1.68v3.51h-.81z"/><path class="cls-5" d="M243 66h8v9h-8z"/><path class="cls-3" d="M264.87 48.17c0-.85-.43-1.27-2.58-1.79-1.82-.45-2.43-1.11-2.43-2.21s1-2 2.78-2c1.63 0 2.84.77 3.07 2.06h-.89c-.16-.84-.93-1.33-2.17-1.33s-1.92.53-1.92 1.22.35 1.12 2.17 1.57c2.16.55 2.84 1.21 2.84 2.44s-1.09 2.29-3 2.29a2.89 2.89 0 0 1-3.15-2.29h.89a2 2 0 0 0 2.24 1.56c1.4.01 2.15-.64 2.15-1.52zM267.5 42.34l2.57 7.13 2.6-7.13h.85l-2.89 7.92h-1.11l-2.92-7.92h.9zM274.31 46.33c0-2.7 1.54-4.16 3.64-4.16a3.1 3.1 0 0 1 3.3 2.63h-.87a2.26 2.26 0 0 0-2.38-1.9c-1.6 0-2.76 1.17-2.76 3.43s1.14 3.36 2.73 3.36a2.34 2.34 0 0 0 2.46-2.13h.87a3.2 3.2 0 0 1-3.34 2.87c-2.21 0-3.65-1.53-3.65-4.1zM291.78 50.26l-2-3.13h-2.11v3.13h-.86v-7.92h2.63c1.9 0 3 .89 3 2.43a2.27 2.27 0 0 1-1.81 2.23l2.19 3.3h-1zm-4.14-7.21v3.36h1.8c1.28 0 2-.66 2-1.64s-.67-1.72-2-1.72h-1.79zM298.94 48.65a2.41 2.41 0 0 1-2.48 1.77c-1.58 0-2.75-1-2.75-3s1.14-3 2.67-3 2.63 1 2.63 3.21h-4.47a1.93 1.93 0 0 0 1.95 2.15 1.55 1.55 0 0 0 1.56-1.08h.88zm-4.37-1.73h3.61A1.76 1.76 0 0 0 296.4 45a1.85 1.85 0 0 0-1.82 1.93zM300.81 50.26v-5.72h.67l.1.86a2.08 2.08 0 0 1 1.81-1 1.87 1.87 0 0 1 2 2.07v3.82h-.81v-3.83a1.25 1.25 0 0 0-1.38-1.4 1.59 1.59 0 0 0-1.58 1.65v3.54h-.81zM312.31 48.65a2.41 2.41 0 0 1-2.48 1.77c-1.58 0-2.75-1-2.75-3s1.14-3 2.67-3 2.63 1 2.63 3.21h-4.47a1.93 1.93 0 0 0 1.95 2.15 1.55 1.55 0 0 0 1.56-1.08h.88zm-4.37-1.73h3.61a1.76 1.76 0 0 0-1.78-1.92 1.85 1.85 0 0 0-1.83 1.93zM321.85 44.54l-1.66 5.72h-1l-1.5-4.83-1.45 4.83h-1l-1.71-5.72h.85l1.38 4.86 1.44-4.86h1l1.46 4.84 1.34-4.84h.83z"/><path class="cls-6" d="M243 42h8v8h-8z"/><path class="cls-3" d="M264.87 95.05c0-.85-.43-1.27-2.58-1.79-1.82-.45-2.43-1.11-2.43-2.21s1-2 2.78-2c1.63 0 2.84.77 3.07 2.06h-.89c-.16-.84-.93-1.33-2.17-1.33s-1.92.53-1.92 1.22.35 1.12 2.17 1.57c2.16.55 2.84 1.21 2.84 2.44s-1.09 2.29-3 2.29a2.89 2.89 0 0 1-3.18-2.3h.89a2 2 0 0 0 2.24 1.56c1.43.02 2.18-.63 2.18-1.51zM268.29 91.42v3.81a1.23 1.23 0 0 0 1.34 1.39 1.56 1.56 0 0 0 1.56-1.69v-3.5h.81v5.72h-.68l-.09-.79a2.07 2.07 0 0 1-1.8 1 1.86 1.86 0 0 1-2-2.08v-3.86h.81zM274.07 97.14v-7.92h.81v3.13a2.19 2.19 0 0 1 2-1.1c1.45 0 2.46 1 2.46 3s-1.08 3.08-2.53 3.08a2.13 2.13 0 0 1-1.92-1.07l-.12.9h-.67zm2.6-5.19c-1 0-1.84.69-1.84 2.3s.76 2.37 1.84 2.37 1.79-.76 1.79-2.41-.76-2.21-1.79-2.21zM289.84 97.14l-2-3.13h-2.14v3.13h-.86v-7.92h2.63c1.9 0 3 .89 3 2.43a2.27 2.27 0 0 1-1.75 2.19l2.19 3.3h-1zm-4.14-7.21v3.36h1.8c1.28 0 2-.66 2-1.64s-.67-1.72-2-1.72h-1.8zM297 95.54a2.41 2.41 0 0 1-2.48 1.77c-1.58 0-2.75-1-2.75-3s1.14-3 2.67-3 2.63 1 2.63 3.21h-4.47a1.93 1.93 0 0 0 1.95 2.15 1.55 1.55 0 0 0 1.56-1.08h.89zm-4.37-1.73h3.61a1.76 1.76 0 0 0-1.78-1.89 1.85 1.85 0 0 0-1.83 1.89zM298.87 97.14v-5.72h.67l.1.86a2.08 2.08 0 0 1 1.81-1 1.87 1.87 0 0 1 2 2.07v3.82h-.81v-3.82a1.25 1.25 0 0 0-1.38-1.4 1.59 1.59 0 0 0-1.58 1.65v3.54h-.81zM310.36 95.54a2.41 2.41 0 0 1-2.48 1.77c-1.58 0-2.75-1-2.75-3s1.14-3 2.67-3 2.63 1 2.63 3.21H306a1.93 1.93 0 0 0 1.95 2.15 1.55 1.55 0 0 0 1.56-1.08h.88zM306 93.81h3.61a1.76 1.76 0 0 0-1.78-1.89 1.85 1.85 0 0 0-1.83 1.89zM319.9 91.42l-1.66 5.72h-1l-1.5-4.83-1.45 4.83h-1l-1.71-5.72h.85l1.38 4.86 1.44-4.86h1l1.46 4.84 1.32-4.84h.83z"/><path class="cls-7" d="M243 89h8v8h-8z"/><path class="cls-8" d="M109.42 51.65c.62 0 1.24 0 1.86.07l.83.06c.54 0 1.08.11 1.62.19l1.06.15c.43.07.85.16 1.28.24s.89.18 1.33.29a34.45 34.45 0 0 1 5.47 1.85c.66.28 1.31.58 1.94.91l.59.31q.87.46 1.71 1l.7.44a34.75 34.75 0 0 1 6 4.82l.34.35q.8.83 1.55 1.73l.3.36q.76.93 1.47 1.92l.2.29q.74 1.07 1.41 2.2a34.63 34.63 0 0 1 2.27 4.59c.17.41.33.83.48 1.25l.09.33q.22.62.41 1.24l.17.58c.09.33.18.65.26 1s.12.47.18.71.1.47.15.7.12.53.17.79a34.53 34.53 0 0 1 .56 5v3.63a34.65 34.65 0 0 1-.75 5.32q-.23 1-.52 2v.12q-.28 1-.61 1.9l-.05.14a35 35 0 0 1-3.56 7.17q-.33.51-.68 1l-.48.67q-.44.6-.9 1.17l-.36.44-.1.12 18.76 16.89c.75-.87 1.47-1.74 2.17-2.65l.07-.09q.48-.63.94-1.27l.34-.47.63-.92.59-.87.35-.54c.27-.42.54-.85.8-1.28l.09-.16c.57-1 1.13-1.91 1.65-2.9q1.18-2.23 2.17-4.55c.18-.43.35-.87.52-1.31l.06-.15q1-2.59 1.81-5.3l.17-.6c.15-.53.29-1.06.43-1.6s.33-1.35.47-2c.07-.34.14-.69.21-1q.18-.91.33-1.82c0-.23.08-.46.11-.69s0-.24.06-.37q.36-2.48.51-5a59.65 59.65 0 0 0 0-7.11v-.1c-.1-1.67-.26-3.34-.51-5q-.18-1.27-.42-2.53c0-.19-.08-.38-.12-.57q-.23-1.19-.51-2.35l-.11-.45q-.32-1.3-.7-2.58l-.06-.19a59.6 59.6 0 0 0-4.43-10.78l-.25-.45c-.25-.45-.49-.9-.75-1.35s-.44-.75-.67-1.12l-.5-.82q-.47-.75-1-1.49l-.27-.4q-.6-.89-1.24-1.75l-.08-.1a59.67 59.67 0 0 0-10-10.6l-.22-.18q-.66-.54-1.34-1.07l-.75-.58-1-.76-1.1-.78-.69-.46c-.5-.33-1-.65-1.5-1l-.25-.15A59.61 59.61 0 0 0 120 27.41h-.16l-.84-.17a59.59 59.59 0 0 0-9.7-.83v25.25h.13z"/><path class="cls-9" d="M79.07 104a34.94 34.94 0 0 1-2.73-5.86c-.25-.69-.46-1.38-.66-2.07v-.17c-.18-.63-.34-1.26-.48-1.9l-.06-.25q-.22-1-.38-2c0-.15 0-.3-.06-.45-.07-.48-.13-1-.17-1.45s-.06-.69-.08-1 0-.57 0-.86v-1.17-.66-1.31L49.19 83a59.6 59.6 0 0 0 .56 12.31l.08.54q.17 1.07.39 2.15c.09.44.18.88.28 1.32s.22 1 .33 1.45.27 1.05.41 1.58l.16.57a60.1 60.1 0 0 0 11.82 22.18l18.51-17.26a35 35 0 0 1-2.66-3.84z"/><path class="cls-10" d="M70.87 132.66l.07.06c.57.47 1.15.92 1.73 1.36l.63.49c.4.3.82.58 1.23.87s.82.58 1.24.86l.67.43c.62.4 1.24.8 1.87 1.18h.08a60.09 60.09 0 0 0 34.61 8.38h.57l1.62-.14 1.35-.16 1.22-.16c.81-.12 1.61-.25 2.41-.4l.49-.1a59.8 59.8 0 0 0 31.81-17.44l-18.77-16.9c-.18.18-.35.37-.53.54l-.19.18q-.69.65-1.41 1.27l-.21.18q-.7.59-1.44 1.14l-.33.24q-.67.49-1.37.95l-.56.36q-.59.38-1.2.73l-.88.49-1 .5c-.41.21-.83.4-1.26.59l-.68.3c-.52.22-1.05.43-1.59.63l-.5.19-1.13.37-.81.24-1 .28-1.21.28-.67.15c-.68.13-1.36.25-2 .34h-.18q-1 .13-2 .2h-.18c-.73 0-1.47.07-2.22.07a34.87 34.87 0 0 1-17.8-4.9h-.05c-.37-.22-.72-.45-1.08-.68l-.39-.25-.71-.5-.71-.51L88 114c-.34-.26-.68-.52-1-.79a34.73 34.73 0 0 1-3.25-3.11l-18.54 17.24a59.51 59.51 0 0 0 5.66 5.32z"/><path class="cls-11" d="M74.64 81.77v-.32A34.54 34.54 0 0 1 75.93 76c.16-.52.34-1 .53-1.54l.14-.37c.18-.48.38-1 .59-1.44l.2-.46c.2-.44.41-.87.62-1.3l.29-.58a34.9 34.9 0 0 1 3-4.81 35 35 0 0 1 10-8.94l.32-.2.78-.43c.36-.2.71-.4 1.08-.58l.35-.17c.52-.25 1-.5 1.58-.73h.12q.91-.38 1.85-.72h.09c.76-.27 1.52-.5 2.28-.72l.42-.12c.67-.18 1.34-.33 2-.47l.47-.1q1.15-.22 2.29-.35c.35 0 .7-.06 1-.09h.3V26.49c-.87 0-1.74.09-2.62.17l-.59.06c-.59.06-1.19.13-1.78.2l-1.73.25-.64.11a59.54 59.54 0 0 0-16.8 5.53h-.06q-1.49.75-2.92 1.58l-.5.29q-1.2.71-2.35 1.46l-.86.57q-1 .65-1.9 1.35l-1.17.94q-.74.57-1.45 1.17t-1.57 1.35l-1.05 1q-.74.69-1.45 1.4T65.66 45c-.37.38-.73.77-1.08 1.16s-.94 1.06-1.4 1.61l-.65.77c-.59.72-1.16 1.46-1.71 2.21l-.33.44-.11.15c-1 1.36-1.89 2.78-2.75 4.22a59.64 59.64 0 0 0-7.37 19.09c0 .11 0 .23-.06.34-.09.46-.18.92-.25 1.38s-.13.79-.19 1.19c0 .22-.07.44-.1.66-.08.59-.15 1.19-.22 1.78z"/></svg>