<svg id="Artwork" xmlns="http://www.w3.org/2000/svg" viewBox="0 0 336 186"><defs><style>.cls-1{fill:#fff;}.cls-2{fill:#59595c;}.cls-3{fill:#31a254;}.cls-4{fill:#2c7fb7;}.cls-5{fill:#ef3b20;}.cls-6{fill:#646871;}.cls-7{fill:#0f9047;}.cls-8{fill:#263e95;}.cls-9{fill:#792b8c;}</style></defs><title>cis_ready_dashboards_executive_flow</title><path class="cls-1" d="M336 182.08a3.76 3.76 0 0 1-3.56 3.92H3.56A3.76 3.76 0 0 1 0 182.08V0h336v182.08z"/><path class="cls-2" d="M259.39 23.61c0-2.66 1.64-4.13 3.66-4.13s3.66 1.43 3.66 4.13a4.19 4.19 0 0 1-1.31 3.29l1.25 1.56-.71.47-1.17-1.62a3.62 3.62 0 0 1-1.73.42c-2.1.01-3.65-1.49-3.65-4.12zm6.44 0c0-2.22-1.17-3.41-2.77-3.41s-2.78 1.19-2.78 3.41 1.2 3.41 2.78 3.41 2.77-1.13 2.77-3.41zM269.26 21.85v3.81A1.23 1.23 0 0 0 270.6 27a1.56 1.56 0 0 0 1.56-1.69v-3.5h.84v5.72h-.68l-.09-.79a2.07 2.07 0 0 1-1.8 1 1.86 1.86 0 0 1-2-2.08v-3.81h.81zM274.85 23.39a2.06 2.06 0 0 1 2.33-1.71 2 2 0 0 1 2.23 1.92v4h-.67l-.1-.87a2.27 2.27 0 0 1-2 1 1.7 1.7 0 0 1-1.95-1.63c0-1 .61-1.61 2.18-1.87l1.73-.23v-.4a1.24 1.24 0 0 0-1.45-1.22 1.26 1.26 0 0 0-1.44 1.06h-.86zm3.75 1.21l-1.49.25c-1.2.21-1.54.58-1.54 1.18a1.07 1.07 0 0 0 1.29 1 1.69 1.69 0 0 0 1.74-1.54v-.89zM282.23 27.57h-.81v-7.92h.81v7.92zM284.21 20.68v-1h.93v1h-.93zm.06 6.9v-5.73h.82v5.72h-.82zM290.59 27.57v-5h-2.35v5h-.81v-5h-.85v-.72h.85v-.73a1.52 1.52 0 0 1 1.76-1.6 5.51 5.51 0 0 1 1.35.2v.7a5.16 5.16 0 0 0-1.25-.2c-.7 0-1 .24-1 .84v.79h3.18v5.72h-.83zM298.37 26a2.41 2.41 0 0 1-2.47 1.77c-1.58 0-2.75-1-2.75-3s1.14-3 2.67-3 2.63 1 2.63 3.21H294a1.93 1.93 0 0 0 1.92 2.02 1.55 1.55 0 0 0 1.57-1h.88zM294 24.24h3.61a1.76 1.76 0 0 0-1.78-1.89 1.84 1.84 0 0 0-1.83 1.89zM304.48 27.57l-.14-.95a2.17 2.17 0 0 1-2 1.11c-1.39 0-2.48-1-2.48-3s1.08-3.07 2.52-3.07a2.12 2.12 0 0 1 1.9 1v-3.01h.82v7.92h-.67zm-1.94-.57c1 0 1.84-.8 1.84-2.3s-.75-2.37-1.83-2.37-1.8.76-1.8 2.39.78 2.28 1.79 2.28z"/><path class="cls-3" d="M242.7 20.11h8.48v8.48h-8.48z"/><path class="cls-4" d="M242.7 67h8.48v8.48h-8.48z"/><path class="cls-2" d="M262.12 43.1c2.29 0 3.85 1.31 3.85 4a3.67 3.67 0 0 1-3.91 4h-2.34v-8h2.4zm-1.54.7v6.49h1.57c1.79 0 2.95-1.12 2.95-3.23s-1.2-3.26-3-3.26h-1.55zM267.68 44.12v-1h.94v1h-.94zm.05 6.9v-5.73h.83V51h-.83zM272.23 48.32c-1.24-.25-1.87-.75-1.87-1.62s.74-1.57 2.16-1.57a2.1 2.1 0 0 1 2.29 1.63H274a1.34 1.34 0 0 0-1.47-1c-.89 0-1.3.38-1.3.85s.31.79 1.46 1c1.41.29 2.18.7 2.18 1.78s-.85 1.75-2.31 1.75-2.27-.69-2.38-1.74h.82a1.35 1.35 0 0 0 1.55 1.08 1.22 1.22 0 0 0 1.46-1c-.01-.7-.61-.93-1.78-1.16zM281.49 45.29V53h-.83v-2.92a2.18 2.18 0 0 1-1.95 1.1c-1.39 0-2.48-1-2.48-3s1.08-3.07 2.52-3.07a2.19 2.19 0 0 1 1.94 1l.12-.86h.67zm-2.61 5.19c1 0 1.84-.8 1.84-2.3s-.75-2.37-1.83-2.37-1.8.76-1.8 2.39.79 2.29 1.8 2.29zM284.31 45.29v3.81a1.23 1.23 0 0 0 1.34 1.39 1.56 1.56 0 0 0 1.56-1.69v-3.5h.79V51h-.68l-.09-.79a2.08 2.08 0 0 1-1.8 1 1.86 1.86 0 0 1-2-2.08v-3.84h.81zM289.9 46.84a2.06 2.06 0 0 1 2.33-1.71 2 2 0 0 1 2.23 1.92v4h-.67l-.1-.87a2.27 2.27 0 0 1-2 1 1.7 1.7 0 0 1-1.95-1.63c0-1 .61-1.61 2.18-1.87l1.71-.29V47a1.24 1.24 0 0 0-1.45-1.22 1.26 1.26 0 0 0-1.44 1.06h-.84zm3.75 1.16l-1.48.25c-1.2.21-1.54.58-1.54 1.18a1.07 1.07 0 0 0 1.29 1 1.69 1.69 0 0 0 1.74-1.54V48zM297.28 51h-.81v-7.9h.81V51zM299.26 44.12v-1h.94v1h-.94zm.05 6.9v-5.73h.83V51h-.83zM305.64 51v-5h-2.35v5h-.81v-5h-.85v-.71h.85v-.73a1.52 1.52 0 0 1 1.76-1.6 5.55 5.55 0 0 1 1.35.2v.7a5.18 5.18 0 0 0-1.25-.2c-.7 0-1 .24-1 .84v.79h3.18V51h-.83zM313.42 49.41a2.41 2.41 0 0 1-2.48 1.77c-1.58 0-2.75-1-2.75-3s1.14-3 2.67-3 2.63 1 2.63 3.21H309a1.93 1.93 0 0 0 2 2.1 1.55 1.55 0 0 0 1.56-1.08h.88zM309 47.68h3.61a1.76 1.76 0 0 0-1.78-1.89 1.84 1.84 0 0 0-1.83 1.89zM319.53 51l-.14-.95a2.18 2.18 0 0 1-2 1.11c-1.39 0-2.47-1-2.47-3s1.08-3.07 2.52-3.07a2.12 2.12 0 0 1 1.9 1V43.1h.83V51h-.67zm-1.94-.53c1 0 1.84-.8 1.84-2.3s-.75-2.37-1.83-2.37-1.8.76-1.8 2.39.78 2.3 1.8 2.3z"/><path class="cls-5" d="M242.7 42.47h8.48v8.48h-8.48z"/><path class="cls-2" d="M261.12 72.35v-5.3h.88v5.36a2.23 2.23 0 0 0 4.43 0v-5.36h.84v5.29a3.08 3.08 0 0 1-6.15.01zM269.3 75v-5.75h.7l.1.86a2.08 2.08 0 0 1 1.82-1 1.87 1.87 0 0 1 2 2.07V75h-.81v-3.82a1.25 1.25 0 0 0-1.37-1.4 1.59 1.59 0 0 0-1.58 1.65V75h-.86zM275.71 70.79a2.06 2.06 0 0 1 2.29-1.7 2 2 0 0 1 2.27 1.91v4h-.67l-.1-.87a2.27 2.27 0 0 1-2 1 1.7 1.7 0 0 1-1.95-1.63c0-1 .61-1.61 2.18-1.87l1.71-.29V71a1.24 1.24 0 0 0-1.44-1.26 1.26 1.26 0 0 0-1.44 1.06h-.86zm3.75 1.21l-1.49.25c-1.2.21-1.54.58-1.54 1.18a1.07 1.07 0 0 0 1.29 1 1.69 1.69 0 0 0 1.74-1.54V72zM283.91 72.28c-1.24-.28-1.91-.75-1.91-1.62s.74-1.57 2.16-1.57a2.1 2.1 0 0 1 2.29 1.63h-.84a1.34 1.34 0 0 0-1.47-1c-.89 0-1.3.38-1.3.85s.31.79 1.46 1c1.41.29 2.18.7 2.18 1.78s-.85 1.75-2.31 1.75-2.27-.69-2.38-1.74h.84a1.35 1.35 0 0 0 1.55 1.08 1.22 1.22 0 0 0 1.46-1c.04-.7-.56-.93-1.73-1.16zM289.82 72.28c-1.24-.25-1.87-.75-1.87-1.62s.74-1.57 2.16-1.57a2.1 2.1 0 0 1 2.29 1.63h-.84a1.34 1.34 0 0 0-1.47-1c-.89 0-1.3.38-1.3.85s.31.79 1.46 1c1.41.29 2.18.7 2.18 1.78s-.85 1.75-2.31 1.75-2.27-.69-2.38-1.74h.84a1.35 1.35 0 0 0 1.55 1.08 1.22 1.22 0 0 0 1.46-1c0-.7-.59-.93-1.77-1.16zM294.07 68.08v-1h.93v1h-.94zm.06 6.9v-5.73h.87V75h-.83zM297.78 75.44a1.41 1.41 0 0 0 1.58 1 1.52 1.52 0 0 0 1.72-1.61v-1a2.25 2.25 0 0 1-1.95.92 2.53 2.53 0 0 1-2.47-2.75c0-1.83 1.06-2.89 2.52-2.89a2.13 2.13 0 0 1 1.92 1l.13-.88h.67v5.67a2.25 2.25 0 0 1-2.52 2.22c-1.42 0-2.28-.64-2.48-1.68h.87zm1.53-1.34a1.81 1.81 0 0 0 1.83-2.1c0-1.47-.77-2.21-1.84-2.21s-1.79.7-1.79 2.21a1.86 1.86 0 0 0 1.8 2.1zM304 75v-5.75h.67l.1.86a2.08 2.08 0 0 1 1.82-1 1.87 1.87 0 0 1 2 2.07V75h-.81v-3.82a1.25 1.25 0 0 0-1.38-1.4 1.59 1.59 0 0 0-1.58 1.65V75H304zM315.46 73.37a2.41 2.41 0 0 1-2.46 1.77c-1.58 0-2.75-1-2.75-3s1.14-3 2.67-3 2.63 1 2.63 3.21h-4.47a1.93 1.93 0 0 0 1.92 2.1 1.55 1.55 0 0 0 1.56-1.08h.88zm-4.37-1.73h3.61a1.76 1.76 0 0 0-1.78-1.89 1.84 1.84 0 0 0-1.83 1.89zM321.57 75l-.14-1a2.17 2.17 0 0 1-2 1.11c-1.39 0-2.48-1-2.48-3s1.08-3.07 2.52-3.07a2.12 2.12 0 0 1 1.9 1v-2.99h.83V75h-.67zm-1.94-.53c1 0 1.84-.8 1.84-2.3s-.75-2.37-1.83-2.37-1.8.76-1.8 2.39.79 2.26 1.8 2.26z"/><path class="cls-6" d="M11.67 66.36a2.65 2.65 0 0 1-2.62-2.21h.89a1.9 1.9 0 0 0 2.13 1.51c1.33 0 2-.62 2-1.46s-.37-1.2-2.4-1.73c-1.67-.42-2.31-1.07-2.31-2.12s.8-1.84 2.31-1.95v-1.29h.77v1.29a2.49 2.49 0 0 1 2.52 2h-.89c-.17-.84-.87-1.3-2.07-1.3s-1.78.53-1.78 1.19.29 1.07 2 1.5C14.3 62.28 15 63 15 64.15s-.9 2.1-2.54 2.22v1.35h-.79v-1.36zM19.47 66.24V59.4l-1.75 1v-.89l1.76-1h.8v7.7h-.81zM28.43 59.95a1.3 1.3 0 0 0-1.34-.9c-1 0-1.88.74-2 3.31a2.26 2.26 0 0 1 2-1.14 2.36 2.36 0 0 1 2.42 2.57A2.47 2.47 0 0 1 27 66.41c-1.86 0-2.66-1.45-2.66-3.7 0-3.46 1.38-4.33 2.78-4.33a2.17 2.17 0 0 1 2.22 1.57h-.91zm-3.2 3.77a1.8 1.8 0 0 0 1.76 2 1.91 1.91 0 0 0 0-3.81 1.69 1.69 0 0 0-1.76 1.81zM35.36 66.24l-2.66-6.66v6.67h-.84v-7.93h1.22l2.73 6.94 2.56-6.94h1.17v7.92h-.81v-6.61l-2.51 6.61h-.86zM88.82 162.76a2.65 2.65 0 0 1-2.62-2.21h.89a1.9 1.9 0 0 0 2.13 1.51c1.33 0 2-.62 2-1.46s-.41-1.23-2.44-1.73c-1.69-.42-2.31-1.07-2.31-2.12s.8-1.84 2.31-1.95v-1.29h.77v1.29a2.49 2.49 0 0 1 2.52 2h-.85c-.17-.82-.87-1.29-2.06-1.29s-1.78.53-1.78 1.19.29 1.07 2 1.5c2 .5 2.71 1.25 2.71 2.37s-.9 2.1-2.54 2.22v1.35h-.73v-1.36zM95.69 162.64h-.93l3.36-7h-4v-.74H99v.74zM105.09 162.64l-2.66-6.64v6.67h-.84v-7.92h1.22l2.73 6.94 2.56-6.94h1.17v7.92h-.81V156l-2.51 6.61h-.86zM168.59 49.81A2.65 2.65 0 0 1 166 47.6h.89a1.9 1.9 0 0 0 2.11 1.51c1.33 0 2-.62 2-1.46s-.41-1.23-2.44-1.73c-1.7-.42-2.31-1.07-2.31-2.12s.8-1.84 2.31-1.95v-1.29h.77v1.29a2.49 2.49 0 0 1 2.52 2H171c-.17-.82-.87-1.29-2.06-1.29s-1.78.53-1.78 1.19.29 1.07 2 1.5c2 .49 2.71 1.25 2.71 2.37s-.9 2.1-2.54 2.22v1.35h-.77v-1.38zM176.39 49.69v-6.84l-1.75 1V43l1.76-1h.8v7.7h-.81zM181.09 47.87h.86a1.71 1.71 0 0 0 1.8 1.3 1.82 1.82 0 0 0 1.86-2 1.71 1.71 0 0 0-1.82-1.88 2.21 2.21 0 0 0-1.72.8h-.71l.17-4.09h4.56v.69h-3.82l-.1 2.61a2.61 2.61 0 0 1 1.79-.65 2.39 2.39 0 0 1 2.49 2.57 2.57 2.57 0 0 1-2.72 2.64 2.53 2.53 0 0 1-2.64-1.99zM192.29 49.69L189.63 43v6.67h-.84v-7.9H190l2.73 6.94 2.56-6.94h1.17v7.92h-.81v-6.61l-2.51 6.61h-.86z"/><path class="cls-7" d="M110 27.32v26a34 34 0 0 1 13.51 64.21l13 22.53A60 60 0 0 0 110 27.32z"/><path class="cls-8" d="M48 87.28a59.85 59.85 0 0 0 17 41.8l16.59-20.45A34 34 0 0 1 106 53.34v-26a60 60 0 0 0-58 59.94z"/><path class="cls-9" d="M119.8 119.17a34 34 0 0 1-35.55-7.55l-16.43 20.25a60.07 60.07 0 0 0 65.09 10z"/></svg>