<svg id="Body_Content" xmlns="http://www.w3.org/2000/svg" xmlns:xlink="http://www.w3.org/1999/xlink" viewBox="0 0 18 18"><style>.st0{fill:#00BCEB;} .st1{fill:#FFFFFF;}</style><title>cis-ready-style-guide-web-3.0</title><use xlink:href="#actions_2" width="-32766" height="-32766" id="actions_2-3" x="16383" y="16383" transform="matrix(0 0 0 0 -6696 -23858)" overflow="visible"/><use xlink:href="#actions_2" width="-32766" height="-32766" id="left_panel_3-3" x="16383" y="16383" transform="matrix(0 0 0 0 -12419 -14269)" overflow="visible"/><path class="st0" d="M0 0h18v18H0z"/><g id="_Group_"><path id="_Compound_Path_2" class="st1" d="M14.5 2.9l.2.5c-1.5 1.2-2.9 2.7-4 4.3-1.3 1.7-2.4 3.4-3.4 5.3 0 0-.6 1.1-1.2 1.1s-.9-.9-1-1.2l-.2-.5c-.2-.6-.6-1.2-1-1.7-.2-.4-.6-.6-1-.7.5-.9 1.1-1.1 1.8-1.3.5 0 1 .6 1.5 1.8l.2.6c1-1.7 2.2-3.3 3.7-4.7 1.2-1.4 2.8-2.5 4.4-3.5z"/></g></svg>