<svg id="Layer_1" data-name="Layer 1" xmlns="http://www.w3.org/2000/svg" viewBox="0 0 148 82"><defs><style>.cls-1{fill:#ccc;}.cls-2{fill:#c82439;}</style></defs><title>Artwork21_44504992-39de-46c6-ac54-94aaf36443cc</title><path class="cls-1" d="M1 80h147v2H1zM121 62v18h2V62zm-4-62H30a6 6 0 0 0-6 6v74h2V6a4 4 0 0 1 4-4h87a4 4 0 0 1 4 4v32a5 5 0 0 1 2 .41V6a6 6 0 0 0-6-6z"/><path class="cls-1" d="M92.69 53.97l-.31 2.18-11.91-12.04-11.48 11.98L57 44.11 45.95 56.16 35.5 44.22 26 55.98V52.8l9.44-11.69 10.55 12.05 10.95-11.94 12.02 12.01 11.51-12.01 12.22 12.75z"/><path class="cls-1" d="M102.44 41.11l7.55 8.62-1.14 1.75-6.35-7.26-10.12 11.93L92 54l10.44-12.89zM54 12h67v2H54zM30 11h4v3h-4zM38 11h4v3h-4zM46 11h4v3h-4z"/><path class="cls-2" d="M130.32 56.15l-9-13.75a1 1 0 0 0-.81-.4 1.27 1.27 0 0 0-1 .54l-8.84 13.55c-.41.61.1 1.91.93 1.91h17.8a1.28 1.28 0 0 0 .92-1.85zM122 56h-2v-2h2zm0-3h-2v-5h2z"/></svg>