<svg id="Layer_1" xmlns="http://www.w3.org/2000/svg" viewBox="0 0 85 83"><style>.st0{fill:none;stroke:#BBBAC0;stroke-width:2;stroke-miterlimit:10;} .st1{fill:#EEEFF2;} .st2{fill:#EEEFF2;stroke:#BBBAC0;stroke-width:2;stroke-miterlimit:10;} .st3{fill:#BBBAC0;} .st4{fill:#999999;}</style><path class="st0" d="M13.1 46.1s-15.8-4-9.5-21.7c0 0 2.3-10.5 19.5-9 0 0 3.5-6.8 12-3.5 0 0 3.5-11.2 18-10.5 0 0 15.5 0 16.5 18.5 0 0 13.5.5 12.8 16.5 0 0-3.2 10-12.2 9.8s-57.1-.1-57.1-.1z"/><path class="st1" d="M70 44h3v7h-3z"/><path class="st2" d="M65 75H19c-2.2 0-4-1.8-4-4V43c0-2.2 1.8-4 4-4h46c2.2 0 4 1.8 4 4v28c0 2.2-1.8 4-4 4z"/><path class="st0" d="M31 82h22M42 75v7"/><path class="st3" d="M40 59v-9c0-1.1.9-2 2-2s2 .9 2 2v9c0 1.1-.9 2-2 2s-2-.9-2-2z"/><circle class="st3" cx="42" cy="65" r="2"/><path class="st1" d="M11 44h3v7h-3z"/></svg>