<svg id="Layer_1" xmlns="http://www.w3.org/2000/svg" viewBox="0 0 30 36"><style>.st0{fill:#FFFFFF;stroke:#C8C8C8;stroke-miterlimit:10;} .st1{fill:#9B9798;} .st2{fill:#7FBB9A;} .st3{fill:#157448;} .st4{fill:#FFFFFF;} .st5{font-family:&apos;Arial-BoldMT&apos;;} .st6{font-size:9.49px;}</style><path class="st0" d="M28.5 35.5h-25v-34H21L28.5 9z"/><path class="st1" d="M14 6h6v2h-6z"/><path class="st2" d="M14 9h6v2h-6zM14 13h6v2h-6zM14 17h6v2h-6zM14 21h6v2h-6zM14 25h6v2h-6zM14 29h6v2h-6z"/><path class="st1" d="M26 8h-6V6h4.7l1.3.1z"/><path class="st2" d="M20 9h6v2h-6zM20 13h6v2h-6zM20 17h6v2h-6zM20 21h6v2h-6zM20 25h6v2h-6zM20 29h6v2h-6z"/><path class="st1" d="M7 6h6v2H7zM7 9h6v2H7zM7 13h6v2H7zM7 17h6v2H7zM7 21h6v2H7zM7 25h6v2H7zM7 29h6v2H7z"/><path class="st0" d="M28.8 8.5h-7.3V1.2z"/><path class="st3" d="M13 30.6L0 29.1V13l13-1.5z"/><text transform="translate(3.59 23.9)" class="st4 st5 st6">X</text></svg>