<svg id="Layer_1" xmlns="http://www.w3.org/2000/svg" viewBox="0 0 34 34"><style>.st0{fill:#00BBEB;} .st1{fill-rule:evenodd;clip-rule:evenodd;fill:#FFFFFF;}</style><g id="XMLID_1612_"><circle id="XMLID_1622_" class="st0" cx="17" cy="17" r="17"/></g><g id="XMLID_14_"><g id="XMLID_57_"><path id="XMLID_58_" class="st1" d="M14.3 13.8c0-.8-.8-1.5-1.5-1.5H12L10.6 14 9 12.3h-.7c-.7 0-1.7.9-1.7 1.7v5c0 .8 1.3 2 2 2v5.9c0 .8.3 1 1 1 .6 0 .8-.5 1-1 .2.5.4 1 1 1 .7 0 1-.2 1-1v-2.6-3.4c.7 0 2-1.2 2-2l-.3-5.1zm-3.8-2.3c1.1 0 2.3-.9 2.3-2.2C12.8 8 11.7 7 10.5 7 9.4 7 8.3 8 8.3 9.3c0 1.3 1.1 2.2 2.2 2.2zm11.9 4.9l.5-4.3c1-.4 1.7-1.3 1.7-2.4 0-1.4-1.1-2.6-2.5-2.6s-2.5 1.2-2.5 2.6c0 1.1.7 2.1 1.7 2.4l.4 4.1c-2.1-.5-4.5-.8-7.1-.9v.5c2.8.1 5.2.4 7.2.9l.3 3.2v.1l.3-3.1c3.4 1 5.3 2.6 5.3 4.4 0 3.6-6.3 4.5-13.1 4.7v2c8.3-.2 15-2.8 15-6.2 0-2.3-2.9-4.3-7.2-5.4z"/></g></g></svg>