<svg xmlns="http://www.w3.org/2000/svg" viewBox="0 0 34 34"><defs><style>.cls-1{fill:#fff;}.cls-2{fill:#00b9ec;}</style></defs><title>Guided Help</title><g id="Layer_2" data-name="Layer 2"><g id="Layer_1-2" data-name="Layer 1"><g id="_Group_" data-name="&lt;Group&gt;"><circle id="_Path_" data-name="&lt;Path&gt;" class="cls-1" cx="17" cy="17" r="17"/><g id="_Group_2" data-name="&lt;Group&gt;"><path class="cls-2" d="M15.56 19h-2v3h2zm-2 7h2v-3h-2zm-4-5h3v-2h-3zm17-2.59a3.5 3.5 0 0 0-7 0c0 1.89 3.5 7.59 3.5 7.59s3.5-5.7 3.5-7.59zm-5.25-.26a1.75 1.75 0 1 1 1.75 1.69 1.72 1.72 0 0 1-1.75-1.68zM17.56 29h3v-2h-3zm4 0h3v-2h-3zm-7-11.91v-4.33a1 1 0 0 0 1-.91V8.5a1 1 0 0 0-1-.91h-1l-1 1.15-1-1.15h-1a1 1 0 0 0-1 .91v3.35a1 1 0 0 0 1 .91v4.33a1 1 0 0 0 1 .91 1 1 0 0 0 1-.58 1 1 0 0 0 1 .58 1 1 0 0 0 .97-.91zm-1 11.91h3v-2h-3zm-1-22a1.6 1.6 0 0 0 1.67-1.49A1.59 1.59 0 0 0 12.55 4a1.59 1.59 0 0 0-1.67 1.49A1.6 1.6 0 0 0 12.55 7z" id="_Group_3" data-name="&lt;Group&gt;"/></g></g></g></g></svg>