<svg id="Global_Nav" data-name="Global Nav" xmlns="http://www.w3.org/2000/svg" viewBox="0 0 115.71 22.65"><defs><style>.cls-1{fill:#58595b;}.cls-2{fill:#666;}</style></defs><title>iphone-logo</title><path class="cls-1" d="M8.12 7.21h1.54a4.49 4.49 0 0 1-4.71 4c-3 0-5-2-5-5.62S2.1 0 5.07 0a4.3 4.3 0 0 1 4.57 3.69H8.1a2.81 2.81 0 0 0-3-2.42C3 1.27 1.56 2.7 1.56 5.63S3 10 5 10a3 3 0 0 0 3.12-2.79zM13.74.22V11h-1.53V.22h1.53zM19.88 5.83c-2.5-.69-3.29-1.58-3.29-3.06S18 0 20.46 0c2.31 0 4 1.09 4.27 2.92h-1.57c-.17-1-1.08-1.67-2.7-1.67s-2.34.64-2.34 1.46S18.48 4 21 4.65c3 .84 3.81 1.73 3.81 3.35s-1.53 3.21-4.21 3.21c-2.32 0-4.08-1.27-4.38-3.25h1.58C18 9.21 19 10 20.57 10c1.8 0 2.71-.87 2.71-1.89s-.49-1.48-3.4-2.28zM35 7.21h1.54a4.49 4.49 0 0 1-4.71 4c-3 0-5-2-5-5.62S29 0 32 0a4.3 4.3 0 0 1 4.57 3.69H35a2.81 2.81 0 0 0-3-2.42c-2.07 0-3.51 1.43-3.51 4.35S29.87 10 31.89 10A3 3 0 0 0 35 7.21zM38.37 5.63C38.37 2 40.67 0 43.52 0s5.11 1.9 5.11 5.63c0 3.57-2.22 5.62-5.13 5.62s-5.13-2.06-5.13-5.62zm8.7 0c0-2.85-1.46-4.38-3.57-4.38s-3.57 1.53-3.57 4.38S41.39 10 43.5 10s3.57-1.53 3.57-4.37zM63.28 11l-2.61-4.08h-2.56V11h-1.53V.22h3.49c2.75 0 4.28 1.21 4.28 3.39a3.05 3.05 0 0 1-2.17 3l2.9 4.39h-1.8zm-5.17-9.53v4.2h2c1.68 0 2.61-.79 2.61-2.06s-.8-2.14-2.62-2.14h-2zM73.48 6.17h-4.77v3.56h5.21V11h-6.74V.22h6.74v1.29h-5.21V4.9h4.77v1.27zM84.39 11l-1.07-2.71h-5.14L77.1 11h-1.6L79.94.2h1.72L86.08 11h-1.69zm-5.72-4h4.15l-2.05-5.25zM91.54.22c3.18 0 5.31 1.7 5.31 5.4 0 3.49-2.25 5.4-5.42 5.4H88V.22h3.51zm-2 1.21v8.33h2c2.37 0 3.72-1.42 3.72-4.14s-1.44-4.19-3.75-4.19h-2zM101.49 11V6.73l-4-6.51h1.68l3 5.19 3.15-5.19H107l-4 6.51V11h-1.51z"/><path class="cls-2" d="M3.67 19.52h-3v2.39h3.26v.6H0V16h3.93v.6H.7v2.29h3v.59zM8.33 19.15l2.31 3.37H9.8l-1.86-2.79L6 22.52h-.79l2.32-3.36L5.37 16h.84L8 18.61 9.77 16h.8zM15.83 19.52h-3v2.39h3.23v.6h-3.9V16h3.93v.6h-3.23v2.29h3v.59zM17.68 19.3c0-2.21 1.26-3.4 3-3.4a2.54 2.54 0 0 1 2.7 2.15h-.73a1.85 1.85 0 0 0-2-1.56c-1.31 0-2.26 1-2.26 2.81s.95 2.7 2.25 2.7a1.91 1.91 0 0 0 2-1.75h.71a2.61 2.61 0 0 1-2.74 2.35c-1.76.05-2.93-1.2-2.93-3.3zM25.1 20.37V16h.7v4.38A1.63 1.63 0 0 0 27.61 22a1.64 1.64 0 0 0 1.82-1.63V16h.68v4.33a2.27 2.27 0 0 1-2.5 2.29 2.26 2.26 0 0 1-2.51-2.25zM36.62 16.67h-2.18v5.85h-.71v-5.85h-2.16V16h5.05v.63zM38.83 16v6.48h-.7V16h.7zM41 16l2.11 5.83L45.23 16h.69l-2.37 6.48h-.91L40.26 16H41zM51 19.52h-3v2.39h3.23v.6h-3.89V16h3.93v.6H48v2.29h3v.59zM58.47 16a2.92 2.92 0 0 1 3.15 3.24 3 3 0 0 1-3.2 3.24h-1.91V16h2zm-1.26.58v5.31h1.29c1.47 0 2.41-.92 2.41-2.65s-1-2.67-2.43-2.67h-1.27zM67.89 22.52l-.67-1.74H64l-.69 1.74h-.72L65.22 16h.83l2.62 6.48h-.78zm-3.64-2.32H67l-1.35-3.46zM74 20.81c0-.69-.35-1-2.11-1.47-1.49-.37-2-.91-2-1.81s.81-1.63 2.28-1.63a2.29 2.29 0 0 1 2.51 1.68H74a1.56 1.56 0 0 0-1.77-1.09c-1.09 0-1.58.43-1.58 1s.29.92 1.77 1.29c1.76.45 2.32 1 2.32 2s-.89 1.87-2.48 1.87a2.37 2.37 0 0 1-2.58-1.87h.73a1.64 1.64 0 0 0 1.84 1.28c1.16 0 1.75-.53 1.75-1.25zM81.41 16v6.48h-.72v-3h-3.43v3h-.7V16h.7v2.89h3.43V16h.71zM85.77 16c1.41 0 2.16.63 2.16 1.67a1.45 1.45 0 0 1-1.11 1.39 1.6 1.6 0 0 1 1.34 1.61c0 1.13-.81 1.82-2.39 1.82H83.5V16h2.27zm-1.57.55v2.25h1.7a1.14 1.14 0 0 0 1.32-1.13 1.16 1.16 0 0 0-1.38-1.12H84.2zm0 2.81v2.54h1.68c1 0 1.54-.44 1.54-1.23a1.29 1.29 0 0 0-1.5-1.31H84.2zM89.71 19.28c0-2.18 1.34-3.38 3-3.38s3 1.17 3 3.38-1.31 3.38-3 3.38-3-1.23-3-3.38zm5.27 0c0-1.82-1-2.79-2.27-2.79s-2.28 1-2.28 2.79 1 2.79 2.28 2.79S95 21.14 95 19.28zM102 22.52l-.68-1.74H98.1l-.69 1.74h-.74L99.3 16h.83l2.62 6.48H102zm-3.68-2.32h2.73l-1.35-3.46zM108.25 22.52L106.6 20h-1.73v2.57h-.7V16h2.15c1.56 0 2.42.73 2.42 2a1.86 1.86 0 0 1-1.43 1.79l1.79 2.7h-.85zm-3.38-5.9v2.75h1.48A1.41 1.41 0 0 0 108 18c0-.9-.55-1.41-1.67-1.41h-1.47zM112.56 16a2.92 2.92 0 0 1 3.15 3.24 3 3 0 0 1-3.2 3.24h-1.91V16h2zm-1.26.58v5.31h1.29c1.47 0 2.41-.92 2.41-2.65s-1-2.67-2.43-2.67h-1.27z"/></svg>