<svg data-name="Layer 1" xmlns="http://www.w3.org/2000/svg" viewBox="0 0 29 14"><title>jive</title><path d="M0 11.59a4 4 0 0 0 .47-.15A1.46 1.46 0 0 0 1.39 10V2.81v-.16l1.06.17 1.75.28c.1 0 .12 0 .12.14v7.3a3.1 3.1 0 0 1-.82 2.21 3.93 3.93 0 0 1-1.59 1c-.27.1-.54.17-.81.25l-.89-1.94-.21-.44v-.03zM29 5.43l-5.86.4a5.06 5.06 0 0 0 .19.51 1.87 1.87 0 0 0 1.33 1 4.92 4.92 0 0 0 1.74 0c.27 0 .53-.1.8-.15a.14.14 0 0 1 .11 0l1.42 1.85a.2.2 0 0 1 0 .05l-.39.14a8.66 8.66 0 0 1-3.83.41A4.49 4.49 0 0 1 21 7.43a5 5 0 0 1-.62-3v-.38s0-.12.14-.12h.82l3.38-.2c.56 0 1.12-.1 1.68-.14.13 0 .14-.06.13-.17a1.32 1.32 0 0 0-1.11-1.22 3.93 3.93 0 0 0-1.37 0c-.69.07-1.38.13-2.07.19l-.98.02V2.3A4.23 4.23 0 0 1 24.25.05a4.37 4.37 0 0 1 2.52.33 3.68 3.68 0 0 1 1.9 2.19 5.71 5.71 0 0 1 .33 2v.86zM15.56 5.72c.07-.21.14-.41.21-.62q.75-2.37 1.49-4.74a.18.18 0 0 1 .21-.15h2.94v.12l-3.55 9.24a.15.15 0 0 1-.17.12h-2.42a.14.14 0 0 1-.16-.11L12 4v-.12h.12l2.76.1C15 3.94 15 4 15 4l.49 1.55v.11zM6.42 3.38l2.9.27v6h-2.9z"/><path d="M10.63.21h3c.09 0 .14 0 .16.11.23.73.46 1.46.7 2.19v.12h-2.94a.12.12 0 0 1-.14-.09L10.65.28a.66.66 0 0 1-.02-.07zM9.32.24v2.28l-2.9-.16V.24zM1.4.23h2.9v2h-.63L1.5 2c-.07 0-.11 0-.11-.1V.32A.45.45 0 0 1 1.4.23z"/></svg>