<svg id="Layer_1" xmlns="http://www.w3.org/2000/svg" viewBox="-297 389 16 16"><style>.st0{fill:#FFFFFF;} .st1{fill:#CCCCCC;} .st2{fill:#039AD3;} .st3{fill:#049FD9;}</style><path class="st0" d="M-289 389c4.4 0 8 3.6 8 8s-3.6 8-8 8-8-3.6-8-8 3.6-8 8-8z"/><path class="st1" d="M-289 390c3.9 0 7 3.1 7 7s-3.1 7-7 7-7-3.1-7-7 3.1-7 7-7m0-1c-4.4 0-8 3.6-8 8s3.6 8 8 8 8-3.6 8-8-3.6-8-8-8z"/><path class="st2" d="M-287.5 400.4l-3.1-3.4 3.1-3.4-1-1.1-4 4.5 4 4.5 1-1.1z"/><path class="st3" d="M-287.5 400.4l-3.1-3.4 3.1-3.4-1-1.1-4 4.5 4 4.5 1-1.1z"/></svg>