<svg id="Global_Nav" data-name="Global Nav" xmlns="http://www.w3.org/2000/svg" viewBox="0 0 221 34"><defs><style>.cls-1{fill:#0c9ed9;}.cls-2{fill:#58595b;}.cls-3{fill:#666;}</style></defs><title>cis_ready_logo</title><path id="_Path_" data-name="&lt;Path&gt;" class="cls-1" d="M59 10.81a1.51 1.51 0 0 0-3 0v2.89a1.51 1.51 0 0 0 3 0v-2.89z"/><path id="_Path_2" data-name="&lt;Path&gt;" class="cls-1" d="M17 22.83h3v11h-3z"/><path id="_Path_3" data-name="&lt;Path&gt;" class="cls-1" d="M41 25.78c-1-.06-1.55-.59-2.83-.59a3.08 3.08 0 0 0-3.22 2.94 3.22 3.22 0 0 0 3.36 2.94c1.26 0 1.69-.52 2.69-.58v3a25.51 25.51 0 0 1-3 .39 5.73 5.73 0 0 1-6-5.75 5.86 5.86 0 0 1 6.08-5.69 24.67 24.67 0 0 1 2.87.39v3z"/><path id="_Path_4" data-name="&lt;Path&gt;" class="cls-1" d="M13 25.78a7.56 7.56 0 0 0-2.79-.59A3.06 3.06 0 0 0 7 28.13a3.19 3.19 0 0 0 3.34 2.94 6.58 6.58 0 0 0 2.66-.59v3a24.7 24.7 0 0 1-3 .39 5.71 5.71 0 0 1-5.91-5.7 5.84 5.84 0 0 1 6-5.69 24.16 24.16 0 0 1 2.85.39v3z"/><path id="_Compound_Path_" data-name="&lt;Compound Path&gt;" class="cls-1" d="M53.85 28.13a5.6 5.6 0 1 1-11.2 0 5.6 5.6 0 1 1 11.2 0m-5.6-2.89A2.9 2.9 0 1 0 51 28.13a2.79 2.79 0 0 0-2.76-2.89"/><path id="_Path_5" data-name="&lt;Path&gt;" class="cls-1" d="M30 25.13a12.7 12.7 0 0 0-2.38-.33c-1.08 0-1.8.37-1.8.9A1.31 1.31 0 0 0 27 26.75l.67.25a3.27 3.27 0 0 1 2.51 3.14c0 2.76-1.79 3.69-3.84 3.69a7.12 7.12 0 0 1-2.34-.3V31a3.82 3.82 0 0 0 2 .41c1.33 0 1.66-.4 1.66-1a1.56 1.56 0 0 0-1.33-1.09l-.64-.19c-1.49-.49-2.77-1.39-2.77-3.21 0-2.06 1.76-3.44 4.23-3.44a14 14 0 0 1 2.88.35v2.35z"/><path id="_Path_6" data-name="&lt;Path&gt;" class="cls-1" d="M3 10.81a1.51 1.51 0 0 0-3 0v2.89a1.51 1.51 0 0 0 3 0v-2.89z"/><path id="_Path_7" data-name="&lt;Path&gt;" class="cls-1" d="M10 7a1.51 1.51 0 0 0-3 0v6.7a1.51 1.51 0 0 0 3 0V7z"/><path id="_Path_8" data-name="&lt;Path&gt;" class="cls-1" d="M16 1.84a1.12 1.12 0 0 0-1-1.37 1.12 1.12 0 0 0-1 1.37v14.6a1.12 1.12 0 0 0 1 1.38c.73 0 1-.61 1-1.38V1.84z"/><path id="_Path_9" data-name="&lt;Path&gt;" class="cls-1" d="M24 7a1.51 1.51 0 0 0-3 0v6.7a1.51 1.51 0 0 0 3 0V7z"/><path id="_Path_10" data-name="&lt;Path&gt;" class="cls-1" d="M31 10.81a1.51 1.51 0 0 0-3 0v2.89a1.51 1.51 0 0 0 3 0v-2.89z"/><path id="_Path_11" data-name="&lt;Path&gt;" class="cls-1" d="M38 7a1.3 1.3 0 0 0-1.5-1.37A1.29 1.29 0 0 0 35 7v6.7a1.3 1.3 0 0 0 1.5 1.38A1.3 1.3 0 0 0 38 13.7V7z"/><path id="_Path_12" data-name="&lt;Path&gt;" class="cls-1" d="M45 1.41a1.5 1.5 0 0 0-3 0v15a1.5 1.5 0 0 0 3 0v-15z"/><path id="_Path_13" data-name="&lt;Path&gt;" class="cls-1" d="M17 1.41A1.3 1.3 0 0 0 15.5 0 1.31 1.31 0 0 0 14 1.41v15a1.31 1.31 0 0 0 1.5 1.41 1.3 1.3 0 0 0 1.5-1.41v-15z"/><path id="_Path_14" data-name="&lt;Path&gt;" class="cls-1" d="M52 7a1.51 1.51 0 0 0-3 0v6.7a1.51 1.51 0 0 0 3 0V7z"/><path class="cls-2" d="M87.83 13.56h2a5.68 5.68 0 0 1-6 5.11c-3.82 0-6.27-2.56-6.27-7.12S80.21 4.42 84 4.42c3.29 0 5.6 2.17 5.79 4.67h-2A3.55 3.55 0 0 0 84 6c-2.62 0-4.45 1.81-4.45 5.51 0 3.53 1.77 5.49 4.33 5.49a3.76 3.76 0 0 0 3.95-3.44zM95 4.7v13.68h-2V4.7h2zM102.72 11.81c-3.17-.87-4.16-2-4.16-3.88s1.77-3.51 4.9-3.51c2.93 0 5.07 1.39 5.41 3.7h-2c-.2-1.33-1.36-2.12-3.41-2.12s-3 .82-3 1.84.46 1.58 3.59 2.45c3.8 1.06 4.88 2.19 4.88 4.29s-1.94 4.07-5.34 4.07c-2.94 0-5.17-1.62-5.55-4.12h2c.23 1.54 1.48 2.53 3.51 2.53 2.28 0 3.44-1.1 3.44-2.39s-.58-1.86-4.27-2.86zM121.91 13.56h2a5.68 5.68 0 0 1-6 5.11c-3.82 0-6.27-2.56-6.27-7.12s2.66-7.12 6.42-7.12c3.29 0 5.6 2.17 5.79 4.67h-2a3.55 3.55 0 0 0-3.8-3.1c-2.62 0-4.45 1.81-4.45 5.51 0 3.53 1.77 5.49 4.33 5.49a3.76 3.76 0 0 0 3.98-3.44zM126.15 11.54c0-4.6 2.91-7.12 6.52-7.12s6.48 2.41 6.48 7.12c0 4.52-2.81 7.12-6.5 7.12s-6.5-2.6-6.5-7.12zm11 0c0-3.61-1.84-5.55-4.52-5.55s-4.52 1.94-4.52 5.55 1.84 5.55 4.52 5.55 4.54-1.94 4.54-5.55zM157.71 18.38l-3.31-5.21h-3.25v5.21h-1.94V4.7h4.43c3.48 0 5.41 1.54 5.41 4.29a3.86 3.86 0 0 1-2.75 3.78l3.69 5.6h-2.28zm-6.55-12.1v5.32h2.58c2.13 0 3.31-1 3.31-2.6 0-1.77-1.06-2.72-3.36-2.72h-2.53zM170.63 12.22h-6v4.52h6.59v1.63h-8.53V4.7h8.53v1.64h-6.59v4.29h6v1.6zM184.44 18.38l-1.35-3.46h-6.52l-1.37 3.46h-2l5.6-13.68h2.2l5.6 13.68h-2.15zm-7.24-5h5.26l-2.6-6.71zM193.5 4.7c4 0 6.72 2.15 6.72 6.84 0 4.43-2.85 6.84-6.86 6.84h-4.31V4.7h4.45zM191 6.24v10.54h2.56c3 0 4.71-1.8 4.71-5.24 0-3.59-1.82-5.3-4.75-5.3H191zM206.1 18.38v-5.43l-5-8.24h2.13l3.86 6.57 4-6.57h2l-5 8.24v5.43h-1.99z"/><path class="cls-3" d="M83 30.17h-3.58v2.93h3.95v.74h-4.81v-7.93h4.81v.74h-3.95v2.79H83v.73zM88.75 29.72l2.83 4.11h-1l-2.28-3.41-2.35 3.41h-1l2.84-4.1-2.64-3.82h1l2.15 3.15 2.21-3.15h1zM97.91 30.17h-3.63v2.93h3.95v.74h-4.81v-7.93h4.81v.74h-3.95v2.79h3.63v.73zM100.17 29.91c0-2.7 1.54-4.16 3.64-4.16a3.1 3.1 0 0 1 3.3 2.63h-.87a2.26 2.26 0 0 0-2.43-1.9c-1.6 0-2.76 1.17-2.76 3.43s1.14 3.36 2.73 3.36a2.34 2.34 0 0 0 2.46-2.13h.87a3.19 3.19 0 0 1-3.34 2.86c-2.17 0-3.6-1.53-3.6-4.09zM109.24 31.21v-5.3h.86v5.36a2.23 2.23 0 0 0 4.43 0v-5.36h.84v5.29a3.08 3.08 0 0 1-6.13.01zM123.32 26.68h-2.66v7.15h-.87v-7.15h-2.64v-.77h6.17v.77zM126 25.91v7.92h-.86v-7.92h.86zM128.67 25.91l2.57 7.09 2.6-7.13h.85l-2.89 7.92h-1.11l-2.92-7.92h.9zM140.91 30.17h-3.63v2.93h3.95v.74h-4.81v-7.93h4.81v.74h-3.95v2.79h3.63v.73zM150 25.91c2.29 0 3.85 1.31 3.85 4a3.67 3.67 0 0 1-3.91 4h-2.34v-8h2.4zm-1.54.7v6.49h1.57c1.79 0 2.95-1.12 2.95-3.23s-1.2-3.26-3-3.26h-1.55zM161.53 33.83l-.83-2.12h-3.89l-.81 2.12h-.9l3.21-7.92h1l3.2 7.92h-1zM157.09 31h3.33l-1.65-4.22zM169 31.74c0-.85-.43-1.27-2.57-1.79-1.81-.45-2.43-1.11-2.43-2.21s1-2 2.78-2c1.63 0 2.84.77 3.07 2.06H169c-.17-.84-.94-1.33-2.17-1.33s-1.93.53-1.93 1.22.35 1.12 2.17 1.57c2.16.55 2.84 1.21 2.84 2.44s-1.09 2.29-3 2.29a2.89 2.89 0 0 1-3.15-2.29h.89a2 2 0 0 0 2.24 1.56c1.4.01 2.11-.63 2.11-1.52zM178.06 25.91v7.92h-.87v-3.65H173v3.65h-.86v-7.92h.86v3.53h4.19v-3.53h.87zM183.39 25.91c1.73 0 2.64.77 2.64 2a1.78 1.78 0 0 1-1.35 1.69 2 2 0 0 1 1.64 2c0 1.39-1 2.22-2.92 2.22h-2.78v-7.91h2.77zm-1.91.67v2.75h2.07a1.4 1.4 0 0 0 1.62-1.39 1.41 1.41 0 0 0-1.68-1.36h-2zm0 3.43v3.1h2.06c1.24 0 1.88-.54 1.88-1.51a1.57 1.57 0 0 0-1.84-1.6h-2.1zM188.21 29.87c0-2.66 1.64-4.13 3.66-4.13s3.66 1.43 3.66 4.13-1.6 4.13-3.66 4.13-3.66-1.5-3.66-4.13zm6.44 0c0-2.22-1.17-3.41-2.77-3.41s-2.78 1.19-2.78 3.41 1.2 3.41 2.78 3.41 2.76-1.13 2.76-3.41zM203.18 33.83l-.83-2.12h-3.89l-.85 2.12h-.9l3.21-7.92h1l3.2 7.92h-1zM198.73 31h3.33l-1.65-4.22zM210.87 33.83l-2-3.14h-2.11v3.14h-.86v-7.92h2.63c1.9 0 3 .89 3 2.43a2.27 2.27 0 0 1-1.75 2.19l2.19 3.3h-1zm-4.14-7.21V30h1.8c1.28 0 2-.66 2-1.64s-.67-1.72-2-1.72h-1.79zM216.14 25.91c2.29 0 3.85 1.31 3.85 4a3.67 3.67 0 0 1-3.91 4h-2.34v-8h2.4zm-1.54.7v6.49h1.57c1.79 0 2.95-1.12 2.95-3.23s-1.2-3.26-3-3.26h-1.52z"/></svg>