<svg id="Layer_1" xmlns="http://www.w3.org/2000/svg" viewBox="0 0 294.5 33.8"><style>.st0{fill:#0C9ED9;} .st1{fill:#666666;} .st2{fill:#59595B;}</style><title>Asset 9</title><path id="_Path_" class="st0" d="M59 10.8c-.1-.8-.8-1.4-1.7-1.3-.7.1-1.2.6-1.3 1.3v2.9c.1.8.8 1.4 1.7 1.3.7-.1 1.2-.6 1.3-1.3v-2.9z"/><path id="_Path_2" class="st0" d="M17 22.4h3v11h-3z"/><path id="_Path_3" class="st0" d="M41 25.8c-1-.1-1.5-.6-2.8-.6-1.7-.1-3.1 1.2-3.2 2.9.1 1.7 1.6 3 3.4 2.9 1.3 0 1.7-.5 2.7-.6v3c-1 .2-2 .3-3 .4-3.2.1-5.8-2.3-6-5.5V28c.1-3.2 2.8-5.8 6-5.7h.1c1 .1 1.9.2 2.9.4l-.1 3.1z"/><path id="_Path_4" class="st0" d="M13 25.8c-.9-.4-1.8-.6-2.8-.6-1.7-.1-3.1 1.2-3.2 2.9.1 1.7 1.6 3 3.3 2.9.9 0 1.8-.2 2.7-.6v3c-1 .2-2 .3-3 .4-3.2.1-5.8-2.4-5.9-5.5v-.2c.1-3.2 2.8-5.8 6-5.7 1 .1 1.9.2 2.9.4v3z"/><path id="_Compound_Path_" class="st0" d="M53.8 28.1c0 3.1-2.5 5.6-5.6 5.6-3.1 0-5.6-2.5-5.6-5.6s2.5-5.6 5.6-5.6c3.1 0 5.6 2.5 5.6 5.6m-5.5-2.9c-1.6-.1-3 1.1-3 2.7-.1 1.6 1.1 3 2.7 3 1.6.1 3-1.1 3-2.7V28c.1-1.4-1.1-2.7-2.7-2.8"/><path id="_Path_5" class="st0" d="M30 25.1c-.8-.2-1.6-.3-2.4-.3-1.1 0-1.8.4-1.8.9s.7.9 1.1 1l.7.2c1.5.3 2.5 1.6 2.5 3.1 0 2.8-1.8 3.7-3.8 3.7-.8 0-1.6-.1-2.3-.3V31c.6.3 1.3.5 2 .4 1.3 0 1.7-.4 1.7-1s-.7-.9-1.4-1.1l-.6-.2c-1.5-.5-2.8-1.4-2.8-3.2 0-2.1 1.8-3.4 4.2-3.4 1 0 1.9.1 2.9.4v2.2z"/><path id="_Path_6" class="st0" d="M3 10.8c-.1-.8-.8-1.4-1.7-1.3-.7.1-1.2.6-1.3 1.3v2.9c.1.8.8 1.4 1.7 1.3.7-.1 1.2-.6 1.3-1.3v-2.9z"/><path id="_Path_7" class="st0" d="M10 7c-.1-.8-.8-1.4-1.7-1.3-.7.1-1.2.6-1.3 1.3v6.7c.1.8.8 1.4 1.7 1.3.7-.1 1.2-.6 1.3-1.3V7z"/><path id="_Path_8" class="st0" d="M16 1.8c0-.8-.3-1.4-1-1.4s-1 .6-1 1.4v14.6c0 .8.3 1.4 1 1.4s1-.6 1-1.4V1.8z"/><path id="_Path_9" class="st0" d="M24 7c-.1-.8-.8-1.4-1.7-1.3-.7.1-1.2.6-1.3 1.3v6.7c.1.8.8 1.4 1.7 1.3.7-.1 1.2-.6 1.3-1.3V7z"/><path id="_Path_10" class="st0" d="M31 10.8c-.1-.8-.8-1.4-1.7-1.3-.7.1-1.2.6-1.3 1.3v2.9c.1.8.8 1.4 1.7 1.3.7-.1 1.2-.6 1.3-1.3v-2.9z"/><path id="_Path_11" class="st0" d="M38 7c0-.8-.4-1.4-1.5-1.4S35 6.3 35 7v6.7c0 .8.4 1.4 1.5 1.4s1.5-.6 1.5-1.4V7z"/><path id="_Path_12" class="st0" d="M45 1.4c0-.8-.7-1.5-1.5-1.5S42 .6 42 1.4v15c0 .8.7 1.5 1.5 1.5s1.5-.7 1.5-1.5v-15z"/><path id="_Path_13" class="st0" d="M17 1.4c.1-.7-.5-1.4-1.2-1.4h-.3c-.7-.1-1.4.4-1.5 1.1v15.3c-.1.7.5 1.4 1.2 1.4h.3c.7.1 1.4-.4 1.5-1.1V1.4z"/><path id="_Path_14" class="st0" d="M52 7c-.1-.8-.8-1.4-1.7-1.3-.7.1-1.2.6-1.3 1.3v6.7c.1.8.8 1.4 1.7 1.3.7-.1 1.2-.6 1.3-1.3V7z"/><path class="st1" d="M79.1 25.3v7.2H83v.8h-4.8v-7.9h.9zM89.6 29.5H86v2.9h4v.7h-4.9v-7.9h4.8v.8H86v2.8h3.6v.7zM97.8 33.2l-.8-2.1h-3.9l-.8 2.1h-.9l3.2-7.9h1l3.2 7.9h-1zm-4.4-2.8h3.3L95 26.2l-1.6 4.2zM102.9 25.3c2.3 0 3.8 1.3 3.8 4 .2 2-1.3 3.8-3.3 4h-2.9v-8h2.4zm-1.5.7v6.5h1.6c1.8 0 2.9-1.1 2.9-3.2S104.7 26 103 26h-1.6zM113.5 29.5h-3.6v2.9h4v.7H109v-7.9h4.8v.8h-4v2.8h3.6l.1.7zM121.1 33.2l-2-3.1H117v3.1h-.9v-7.9h2.6c1.9 0 3 .9 3 2.4 0 1-.7 2-1.8 2.2l2.2 3.3h-1zM117 26v3.4h1.8c1.3 0 2-.7 2-1.6s-.7-1.7-2-1.7L117 26zM128.8 31.1c0-.9-.4-1.3-2.6-1.8-1.8-.5-2.4-1.1-2.4-2.2s1-2 2.8-2c1.6 0 2.8.8 3.1 2.1h-.9c-.2-.8-.9-1.3-2.2-1.3s-1.9.5-1.9 1.2.3 1.1 2.2 1.6c2.2.5 2.8 1.2 2.8 2.4s-1.1 2.3-3 2.3c-1.5.2-2.8-.8-3.2-2.3h.9c.2 1 1 1.6 2.2 1.6 1.4 0 2.2-.7 2.2-1.6zM137.8 25.3v7.9h-.9v-3.7h-4.2v3.7h-.9v-7.9h.9v3.5h4.2v-3.5h.9zM141.2 25.3v7.9h-.9v-7.9h.9zM146.4 25.3c1.9 0 2.9.9 2.9 2.5s-1.1 2.5-3 2.5h-1.7v2.9h-.9v-7.9h2.7zm-1.8.7v3.5h1.7c1.4 0 2.1-.6 2.1-1.7s-.7-1.8-2-1.8h-1.8zM158 25.3c2.3 0 3.9 1.3 3.9 4 .2 2-1.3 3.8-3.3 4h-2.9v-8h2.3zm-1.5.7v6.5h1.6c1.8 0 2.9-1.1 2.9-3.2s-1.2-3.3-3-3.3h-1.5zM169.6 33.2l-.8-2.1h-3.9l-.8 2.1h-.9l3.2-7.9h1l3.2 7.9h-1zm-4.5-2.8h3.3l-1.6-4.2-1.7 4.2zM177 31.1c0-.9-.4-1.3-2.6-1.8-1.8-.5-2.4-1.1-2.4-2.2s1-2 2.8-2c1.6 0 2.8.8 3.1 2.1h-.9c-.2-.8-.9-1.3-2.2-1.3s-1.9.5-1.9 1.2.4 1.1 2.2 1.6c2.2.5 2.8 1.2 2.8 2.4s-1.1 2.3-3 2.3c-1.5.2-2.8-.8-3.1-2.3h.9c.2 1 1 1.6 2.2 1.6 1.4 0 2.1-.7 2.1-1.6zM186.1 25.3v7.9h-.9v-3.7H181v3.7h-.9v-7.9h.9v3.5h4.2v-3.5h.9zM191.4 25.3c1.7 0 2.6.8 2.6 2 0 .8-.6 1.5-1.3 1.7 1 .2 1.7 1 1.6 2 0 1.4-1 2.2-2.9 2.2h-2.8v-7.9h2.8zm-1.9.7v2.8h2.1c1.1 0 1.6-.6 1.6-1.4s-.6-1.3-1.7-1.3l-2-.1zm0 3.4v3.1h2.1c1.2 0 1.9-.5 1.9-1.5s-.7-1.6-1.8-1.6h-2.2zM196.2 29.3c0-2.7 1.6-4.1 3.7-4.1s3.7 1.4 3.7 4.1-1.6 4.1-3.7 4.1-3.7-1.5-3.7-4.1zm6.5 0c0-2.2-1.2-3.4-2.8-3.4s-2.8 1.1-2.8 3.4 1.2 3.4 2.8 3.4 2.8-1.2 2.8-3.4zM211.2 33.2l-.8-2.1h-3.9l-.9 2.1h-.9l3.2-7.9h1l3.2 7.9h-.9zm-4.4-2.8h3.3l-1.6-4.2-1.7 4.2zM218.9 33.2l-2-3.1h-2.1v3.1h-.9v-7.9h2.6c1.9 0 3 .9 3 2.4 0 1-.7 2-1.8 2.2l2.2 3.3h-1zm-4.2-7.2v3.4h1.8c1.3 0 2-.7 2-1.6s-.7-1.7-2-1.7l-1.8-.1zM224.1 25.3c2.3 0 3.9 1.3 3.9 4 .2 2-1.3 3.8-3.3 4h-2.9v-8h2.3zm-1.5.7v6.5h1.6c1.8 0 2.9-1.1 2.9-3.2s-1.2-3.3-3-3.3h-1.5z"/><path class="st2" d="M87.6 5.5H83v11.9h-1.9V5.5h-4.5V3.7h11.1v1.8zM98.2 11.3h-6v4.5h6.6v1.6h-8.5V3.7h8.5v1.6h-6.6v4.3h6v1.7zM111.9 12.6h2c-.2 2.7-2.5 5.1-6 5.1-3.8 0-6.3-2.6-6.3-7.1 0-4.6 2.7-7.1 6.4-7.1 3.3 0 5.6 2.2 5.8 4.7h-2c-.2-1.9-1.7-3.1-3.8-3.1-2.6 0-4.4 1.8-4.4 5.5 0 3.5 1.8 5.5 4.3 5.5 2.3 0 3.9-1.5 4-3.5zM127.7 3.7v13.7h-2v-6.1H119v6.1h-1.9V3.7h1.9v5.9h6.7V3.7h2zM142.4 3.7v13.7h-2.5L133.3 6v11.5h-1.8V3.7h2.6l6.5 11.4V3.7h1.8zM148.2 3.7v13.7h-1.9V3.7h1.9zM161.8 12.6h2c-.2 2.7-2.5 5.1-6 5.1-3.8 0-6.3-2.6-6.3-7.1 0-4.6 2.7-7.1 6.4-7.1 3.3 0 5.6 2.2 5.8 4.7h-2c-.2-1.9-1.7-3.1-3.8-3.1-2.6 0-4.4 1.8-4.4 5.5 0 3.5 1.8 5.5 4.3 5.5 2.3 0 3.9-1.5 4-3.5zM176.9 17.4l-1.3-3.5H169l-1.4 3.5h-2l5.6-13.7h2.2l5.6 13.7h-2.1zm-7.3-5h5.3l-2.6-6.7-2.7 6.7zM183.4 3.7v11.9h6.4v1.7h-8.4V3.7h2zM203.6 10.9c-3.2-.9-4.2-2-4.2-3.9 0-2 1.8-3.5 4.9-3.5 2.9 0 5.1 1.4 5.4 3.7h-2c-.2-1.3-1.4-2.1-3.4-2.1-2.1 0-3 .8-3 1.8 0 1.1.5 1.6 3.6 2.5 3.8 1.1 4.9 2.2 4.9 4.3 0 2.1-1.9 4.1-5.3 4.1-2.9 0-5.2-1.6-5.5-4.1h2c.2 1.5 1.5 2.5 3.5 2.5 2.3 0 3.4-1.1 3.4-2.4 0-1.3-.6-1.9-4.3-2.9zM221.2 11.3h-6v4.5h6.6v1.6h-8.5V3.7h8.5v1.6h-6.6v4.3h6v1.7zM233.6 17.4l-3.3-5.2h-3.2v5.2h-1.9V3.7h4.4c3.5 0 5.4 1.5 5.4 4.3 0 2.1-1.3 3.2-2.8 3.8l3.7 5.6h-2.3zm-6.5-12.1v5.3h2.6c2.1 0 3.3-1 3.3-2.6 0-1.8-1.1-2.7-3.4-2.7h-2.5zM249.3 3.7l-4.9 13.7H242l-5-13.7h2.1l4.1 11.9 4.2-11.9h1.9zM253.7 3.7v13.7h-1.9V3.7h1.9zM267.3 12.6h2c-.2 2.7-2.5 5.1-6 5.1-3.8 0-6.3-2.6-6.3-7.1 0-4.6 2.7-7.1 6.4-7.1 3.3 0 5.6 2.2 5.8 4.7h-2c-.2-1.9-1.7-3.1-3.8-3.1-2.6 0-4.4 1.8-4.4 5.5 0 3.5 1.8 5.5 4.3 5.5 2.2 0 3.9-1.5 4-3.5zM280.4 11.3h-6v4.5h6.6v1.6h-8.5V3.7h8.5v1.6h-6.6v4.3h6v1.7zM288.3 10.9c-3.2-.9-4.2-2-4.2-3.9 0-2 1.8-3.5 4.9-3.5 2.9 0 5.1 1.4 5.4 3.7h-2c-.2-1.3-1.4-2.1-3.4-2.1-2.1 0-3 .8-3 1.8 0 1.1.5 1.6 3.6 2.5 3.8 1.1 4.9 2.2 4.9 4.3 0 2.1-1.9 4.1-5.3 4.1-2.9 0-5.2-1.6-5.5-4.1h2c.2 1.5 1.5 2.5 3.5 2.5 2.3 0 3.4-1.1 3.4-2.4 0-1.3-.6-1.9-4.3-2.9z"/></svg>