<svg id="Layer_1" xmlns="http://www.w3.org/2000/svg" viewBox="0 0 59 33.8"><style>.st0{fill:#0C9ED9;}</style><title>Asset 9</title><path id="_Path_" class="st0" d="M59 10.8c-.1-.8-.8-1.4-1.7-1.3-.7.1-1.2.6-1.3 1.3v2.9c.1.8.8 1.4 1.7 1.3.7-.1 1.2-.6 1.3-1.3v-2.9z"/><path id="_Path_2" class="st0" d="M17 22.4h3v11h-3z"/><path id="_Path_3" class="st0" d="M41 25.8c-1-.1-1.5-.6-2.8-.6-1.7-.1-3.1 1.2-3.2 2.9.1 1.7 1.6 3 3.4 2.9 1.3 0 1.7-.5 2.7-.6v3c-1 .2-2 .3-3 .4-3.2.1-5.8-2.3-6-5.5V28c.1-3.2 2.8-5.8 6-5.7h.1c1 .1 1.9.2 2.9.4l-.1 3.1z"/><path id="_Path_4" class="st0" d="M13 25.8c-.9-.4-1.8-.6-2.8-.6-1.7-.1-3.1 1.2-3.2 2.9.1 1.7 1.6 3 3.3 2.9.9 0 1.8-.2 2.7-.6v3c-1 .2-2 .3-3 .4-3.2.1-5.8-2.4-5.9-5.5v-.2c.1-3.2 2.8-5.8 6-5.7 1 .1 1.9.2 2.9.4v3z"/><path id="_Compound_Path_" class="st0" d="M53.8 28.1c0 3.1-2.5 5.6-5.6 5.6s-5.6-2.5-5.6-5.6 2.5-5.6 5.6-5.6 5.6 2.5 5.6 5.6m-5.6-2.9c-1.6-.1-3 1.1-3 2.7-.1 1.6 1.1 3 2.7 3 1.6.1 3-1.1 3-2.7V28c.2-1.4-1-2.7-2.7-2.8.1 0 .1 0 0 0"/><path id="_Path_5" class="st0" d="M30 25.1c-.8-.2-1.6-.3-2.4-.3-1.1 0-1.8.4-1.8.9s.7.9 1.1 1l.7.2c1.5.3 2.5 1.6 2.5 3.1 0 2.8-1.8 3.7-3.8 3.7-.8 0-1.6-.1-2.3-.3V31c.6.3 1.3.5 2 .4 1.3 0 1.7-.4 1.7-1s-.7-.9-1.4-1.1l-.6-.2c-1.5-.5-2.8-1.4-2.8-3.2 0-2.1 1.8-3.4 4.2-3.4 1 0 1.9.1 2.9.4v2.2z"/><path id="_Path_6" class="st0" d="M3 10.8c-.1-.8-.8-1.4-1.7-1.3-.7.1-1.2.6-1.3 1.3v2.9c.1.8.8 1.4 1.7 1.3.7-.1 1.2-.6 1.3-1.3v-2.9z"/><path id="_Path_7" class="st0" d="M10 7c-.1-.8-.8-1.4-1.7-1.3-.7.1-1.2.6-1.3 1.3v6.7c.1.8.8 1.4 1.7 1.3.7-.1 1.2-.6 1.3-1.3V7z"/><path id="_Path_8" class="st0" d="M16 1.8c0-.8-.3-1.4-1-1.4s-1 .6-1 1.4v14.6c0 .8.3 1.4 1 1.4s1-.6 1-1.4V1.8z"/><path id="_Path_9" class="st0" d="M24 7c-.1-.8-.8-1.4-1.7-1.3-.7.1-1.2.6-1.3 1.3v6.7c.1.8.8 1.4 1.7 1.3.7-.1 1.2-.6 1.3-1.3V7z"/><path id="_Path_10" class="st0" d="M31 10.8c-.1-.8-.8-1.4-1.7-1.3-.7.1-1.2.6-1.3 1.3v2.9c.1.8.8 1.4 1.7 1.3.7-.1 1.2-.6 1.3-1.3v-2.9z"/><path id="_Path_11" class="st0" d="M38 7c0-.8-.4-1.4-1.5-1.4S35 6.3 35 7v6.7c0 .8.4 1.4 1.5 1.4s1.5-.6 1.5-1.4V7z"/><path id="_Path_12" class="st0" d="M45 1.4c0-.8-.7-1.5-1.5-1.5S42 .6 42 1.4v15c0 .8.7 1.5 1.5 1.5s1.5-.7 1.5-1.5v-15z"/><path id="_Path_13" class="st0" d="M17 1.4c.1-.7-.5-1.4-1.2-1.4h-.3c-.7-.1-1.4.4-1.5 1.1v15.3c-.1.7.5 1.4 1.2 1.4h.3c.7.1 1.4-.4 1.5-1.1V1.4z"/><path id="_Path_14" class="st0" d="M52 7c-.1-.8-.8-1.4-1.7-1.3-.7.1-1.2.6-1.3 1.3v6.7c.1.8.8 1.4 1.7 1.3.7-.1 1.2-.6 1.3-1.3V7z"/></svg>