<svg id="Layer_1" xmlns="http://www.w3.org/2000/svg" viewBox="0 0 218 30.4"><style>.st0{fill:#666666;} .st1{fill:#59595B;}</style><title>Asset 10</title><path class="st0" d="M1.3 22.3v7.1h3.9v.8H.4v-7.9h.9zM11.8 26.6H8.1v2.9h4v.7H7.3v-7.9h4.8v.7h-4v2.8h3.6l.1.8zM20 30.3l-.8-2.1h-3.9l-.9 2.1h-.9l3.2-7.9h1l3.3 7.9h-1zm-4.4-2.9h3.3l-1.6-4.2-1.7 4.2zM25.1 22.3c2.3 0 3.9 1.3 3.9 4 .2 2-1.3 3.8-3.3 4h-2.9v-8h2.3zm-1.6.7v6.5h1.6c1.8 0 3-1.1 3-3.2s-1.2-3.3-3-3.3h-1.6zM35.7 26.6H32v2.9h4v.7h-4.8v-7.9H36v.7h-4v2.8h3.6l.1.8zM43.3 30.3l-2-3.1h-2.1v3.1h-.9v-7.9h2.6c1.9 0 3 .9 3 2.4 0 1.1-.7 2-1.8 2.2l2.2 3.3h-1zM39.1 23v3.4h1.8c1.3 0 2-.7 2-1.6s-.7-1.7-2-1.7l-1.8-.1zM50.9 28.2c0-.9-.4-1.3-2.6-1.8-1.8-.5-2.4-1.1-2.4-2.2s1-2 2.8-2c1.6 0 2.8.8 3.1 2.1h-.9c-.2-.8-.9-1.3-2.2-1.3s-1.9.5-1.9 1.2.3 1.1 2.2 1.6c2.2.5 2.8 1.2 2.8 2.4s-1.1 2.3-3 2.3c-1.5.2-2.8-.8-3.2-2.3h.9c.2 1 1 1.6 2.2 1.6 1.5-.1 2.2-.8 2.2-1.6zM60 22.3v7.9h-.9v-3.6h-4.2v3.6H54v-7.9h.9v3.5H59v-3.5h1zM63.4 22.3v7.9h-.9v-7.9h.9zM68.6 22.3c1.9 0 2.9.9 2.9 2.5s-1.1 2.5-3 2.5h-1.7v2.9h-.9v-7.9h2.7zm-1.8.7v3.5h1.7c1.4 0 2.1-.6 2.1-1.7s-.7-1.8-2-1.8h-1.8zM80.2 22.3c2.3 0 3.8 1.3 3.8 4 .2 2-1.3 3.8-3.3 4h-2.9v-8h2.4zm-1.6.7v6.5h1.6c1.8 0 2.9-1.1 2.9-3.2S82 23 80.2 23h-1.6zM91.7 30.3l-.8-2.1H87l-.8 2.1h-.9l3.2-7.9h1l3.2 7.9h-1zm-4.4-2.9h3.3l-1.7-4.2-1.6 4.2zM99.2 28.2c0-.9-.4-1.3-2.6-1.8-1.8-.5-2.4-1.1-2.4-2.2s1-2 2.8-2c1.6 0 2.8.8 3.1 2.1h-.9c-.1-.8-.9-1.3-2.1-1.3s-1.9.5-1.9 1.2.3 1.1 2.2 1.6c2.2.5 2.8 1.2 2.8 2.4S99 30.4 97 30.4c-1.5.2-2.8-.8-3.2-2.3h.9c.2 1 1 1.6 2.2 1.6 1.5 0 2.3-.7 2.3-1.5zM108.2 22.3v7.9h-.9v-3.6h-4.2v3.6h-.9v-7.9h.9v3.5h4.2v-3.5h.9zM113.6 22.3c1.7 0 2.6.8 2.6 2 0 .8-.6 1.5-1.3 1.7 1 .2 1.7 1 1.6 2 0 1.4-1 2.2-2.9 2.2h-2.8v-7.9h2.8zm-2 .7v2.8h2.1c1.1 0 1.6-.6 1.6-1.4s-.6-1.4-1.7-1.4h-2zm0 3.4v3.1h2.1c1.2 0 1.9-.5 1.9-1.5s-.7-1.6-1.8-1.6h-2.2zM118.4 26.3c0-2.7 1.6-4.1 3.7-4.1s3.7 1.4 3.7 4.1-1.6 4.1-3.7 4.1-3.7-1.5-3.7-4.1zm6.4 0c0-2.2-1.2-3.4-2.8-3.4s-2.8 1.2-2.8 3.4 1.2 3.4 2.8 3.4 2.8-1.1 2.8-3.4zM133.3 30.3l-.8-2.1h-3.9l-.8 2.1h-.9l3.2-7.9h1l3.2 7.9h-1zm-4.4-2.9h3.3l-1.6-4.2-1.7 4.2zM141 30.3l-2-3.1h-2.1v3.1h-.9v-7.9h2.6c1.9 0 3 .9 3 2.4 0 1.1-.7 2-1.8 2.2l2.2 3.3h-1zm-4.1-7.3v3.4h1.8c1.3 0 2-.7 2-1.6s-.7-1.7-2-1.7l-1.8-.1zM146.3 22.3c2.3 0 3.9 1.3 3.9 4 .2 2-1.3 3.8-3.3 4H144v-8h2.3zm-1.5.7v6.5h1.6c1.8 0 2.9-1.1 2.9-3.2s-1.2-3.3-3-3.3h-1.5z"/><path class="st1" d="M11.1 2H6.5v11.9h-2V2H0V.3h11.1V2zM21.7 7.8h-6v4.5h6.6v1.6h-8.5V.3h8.5v1.6h-6.6v4.3h6v1.6zM35.4 9.1h2c-.2 2.7-2.5 5.1-6 5.1-3.8 0-6.3-2.6-6.3-7.1 0-4.6 2.7-7.1 6.4-7.1 3.3 0 5.6 2.2 5.8 4.7h-2c-.2-1.9-1.7-3.1-3.8-3.1-2.6 0-4.4 1.8-4.4 5.5 0 3.5 1.8 5.5 4.3 5.5 2.2 0 3.9-1.5 4-3.5zM51.2.3V14h-2V7.8h-6.7v6.1h-1.9V.3h1.9v5.9h6.7V.3h2zM65.9.3V14h-2.5L56.8 2.5V14H55V.3h2.6l6.5 11.4V.3h1.8zM71.7.3V14h-1.9V.3h1.9zM85.3 9.1h2c-.2 2.7-2.5 5.1-6 5.1-3.8 0-6.3-2.6-6.3-7.1C75 2.5 77.7 0 81.4 0c3.3 0 5.6 2.2 5.8 4.7h-2c-.2-1.9-1.7-3.1-3.8-3.1-2.6 0-4.4 1.8-4.4 5.5 0 3.5 1.8 5.5 4.3 5.5 2.2 0 3.9-1.5 4-3.5zM100.3 13.9L99 10.5h-6.5L91.1 14h-2L94.7.3h2.2l5.6 13.7h-2.2zm-7.2-5h5.3l-2.6-6.7-2.7 6.7zM106.9.3v11.9h6.4v1.7h-8.4V.3h2zM127.1 7.4c-3.2-.9-4.2-2-4.2-3.9 0-2 1.8-3.5 4.9-3.5 2.9 0 5.1 1.4 5.4 3.7h-2c-.2-1.3-1.4-2.1-3.4-2.1-2.1 0-3 .8-3 1.8 0 1.1.5 1.6 3.6 2.5 3.8 1.1 4.9 2.2 4.9 4.3 0 2.1-1.9 4.1-5.3 4.1-2.9 0-5.2-1.6-5.5-4.1h2c.2 1.5 1.5 2.5 3.5 2.5 2.3 0 3.4-1.1 3.4-2.4 0-1.3-.6-1.9-4.3-2.9zM144.7 7.8h-6v4.5h6.6v1.6h-8.5V.3h8.5v1.6h-6.6v4.3h6v1.6zM157.1 13.9l-3.3-5.2h-3.2v5.2h-1.9V.3h4.4c3.5 0 5.4 1.5 5.4 4.3 0 2.1-1.3 3.2-2.8 3.8l3.7 5.6h-2.3zm-6.5-12.1v5.3h2.6c2.1 0 3.3-1 3.3-2.6 0-1.8-1.1-2.7-3.4-2.7h-2.5zM172.7.3L167.8 14h-2.4l-5-13.7h2.1l4.1 11.9L170.8.3h1.9zM177.1.3V14h-1.9V.3h1.9zM190.7 9.1h2c-.2 2.7-2.5 5.1-6 5.1-3.8 0-6.3-2.6-6.3-7.1 0-4.6 2.7-7.1 6.4-7.1 3.3 0 5.6 2.2 5.8 4.7h-2c-.2-1.9-1.7-3.1-3.8-3.1-2.6 0-4.4 1.8-4.4 5.5 0 3.5 1.8 5.5 4.3 5.5 2.3 0 3.9-1.5 4-3.5zM203.9 7.8h-6v4.5h6.6v1.6H196V.3h8.5v1.6h-6.6v4.3h6v1.6zM211.8 7.4c-3.2-.9-4.2-2-4.2-3.9 0-2 1.8-3.5 4.9-3.5 2.9 0 5.1 1.4 5.4 3.7h-2c-.2-1.3-1.4-2.1-3.4-2.1-2.1 0-3 .8-3 1.8 0 1.1.5 1.6 3.6 2.5 3.8 1.1 4.9 2.2 4.9 4.3 0 2.1-1.9 4.1-5.3 4.1-2.9 0-5.2-1.6-5.5-4.1h2c.2 1.5 1.5 2.5 3.5 2.5 2.3 0 3.4-1.1 3.4-2.4 0-1.3-.7-1.9-4.3-2.9z"/></svg>