<svg id="Layer_1" xmlns="http://www.w3.org/2000/svg" viewBox="0 0 85 70"><style>.st0{fill:none;stroke:#BBBAC0;stroke-width:2;stroke-miterlimit:10;} .st1{fill:#EEEFF2;} .st2{fill:#EEEFF2;stroke:#BBBAC0;stroke-width:2;stroke-miterlimit:10;} .st3{fill:#BBBAC0;} .st4{fill:#999999;}</style><path class="st3" d="M79 5c1.1 0 2 .9 2 2v47c0 1.1-.9 2-2 2H5c-1.1 0-2-.9-2-2V7c0-1.1.9-2 2-2h74m0-2H5C2.8 3 1 4.8 1 7v47c0 2.2 1.8 4 4 4h74c2.2 0 4-1.8 4-4V7c0-2.2-1.8-4-4-4z"/><path class="st4" d="M36.8 20.3c1.5-1.4 3.5-2.2 6-2.2 2.4 0 4.3.6 5.7 1.8 1.4 1.2 2.1 2.8 2.1 4.7 0 1.2-.3 2.1-.8 2.8-.5.7-1.6 1.8-3.2 3.2-1.2 1-1.9 2.2-2.3 2.9-.4.7-.5 1.8-.5 3.4h-3.2c0-1.6.2-3.1.6-4.1.4-1 1.3-2.2 2.7-3.4l1.5-1.4c.4-.4.8-.8 1.1-1.2.5-.7.7-1.5.7-2.2 0-1.1-.4-2-1.1-2.8-.7-.8-1.9-1.2-3.5-1.2-2 0-3.4.7-4.2 2-.4.8-.7 1.7-.7 3.3h-3.2c.1-1.5.8-4.2 2.3-5.6zM40 38h3v5h-3v-5z"/><path class="st0" d="M25 69h33M42 58v11"/></svg>