<svg id="Layer_1" xmlns="http://www.w3.org/2000/svg" viewBox="0 0 94.5 92.1"><style>.st0{fill:#CCCCCC;}</style><path class="st0" d="M89.9 26.5c-3.4-3.7-7.9-4.9-10.1-5.2C78.9 10.8 74 5.5 69.2 2.8 64.4.1 59.8 0 59.7 0 45.6-.7 40 8.1 38.3 11.6c-7.8-2.3-12.1 2.3-13.6 4.3-.2.3-4.4-.1-5.1 0-1.8.1-3.5.4-5.3.8-3.3.8-6.4 2.4-8.8 4.8-5.5 5.4-7.2 15.4-4 22.4.2.4.3.7.5 1.1 2.3 4.3 6.1 6.7 8.8 8v-3.4c-2-1.1-4.5-3-6.1-6-2.7-5.1-2-13.1 1.2-18 2.5-3.9 7.1-5.8 11.5-6.4 2.6-.4 5.3-.4 7.9-.1l1 .1.5-.9c.1-.3 3.5-6.4 11.8-3.3l1.5.6.5-1.5c0-.1 3.8-11.7 19.1-10.9.6-.2 16.2.1 17.3 19.5l.1 1.4 1.4.1c.1 0 5.5.3 9.3 4.4 3.9 4.3 5.4 11.1 2.2 16.1-1.3 2-3.3 4.2-6.1 5.4v3.2c2.7-.9 5-2.8 7.2-5.3 5.3-6 4.1-15.8-1.2-21.5zM73.3 40.1h-54c-3 0-5.5 2.5-5.5 5.5v33c0 3 2.5 5.5 5.5 5.5h25.5v5h-11v3h25v-3h-11v-5h25.5c3 0 5.5-2.5 5.5-5.5v-33c0-3-2.5-5.5-5.5-5.5zm0 41h-54c-1.4 0-2.5-1.1-2.5-2.5v-33c0-1.4 1.1-2.5 2.5-2.5h54c1.4 0 2.5 1.1 2.5 2.5v33c0 1.4-1.1 2.5-2.5 2.5zm-28.5-17v-11c0-1.1.9-2 2-2h1c1.1 0 2 .9 2 2v11c0 1.1-.9 2-2 2h-1c-1.1 0-2-.9-2-2zm5 6.5c0 1.4-1.1 2.5-2.5 2.5s-2.5-1.1-2.5-2.5 1.1-2.5 2.5-2.5 2.5 1.2 2.5 2.5z"/></svg>