<svg xmlns="http://www.w3.org/2000/svg" viewBox="0 0 75 79"><defs><style>.cls-1{fill:#bbbac0;}.cls-2{fill:#eff0f3;}</style></defs><title>cis_ready_timeout_and_notification_flow</title><g id="artwork-1"><path class="cls-1" d="M46.66 40c-1.16-.48-2.36-1-3.56-1.51-3.64-1.58-5.39-2.49-6.1-2.89v-4.49c.67-.73 2-2.59 2.61-6.34a2.57 2.57 0 0 0 .76-.38 5.75 5.75 0 0 0 2.1-3.82s.19-3.61-1.31-4.89a2.06 2.06 0 0 0-.35-.25 29.94 29.94 0 0 0 .33-5.37C40.62 5.11 36 0 28.94 0S17.27 5.11 16.81 10.06a28.32 28.32 0 0 0 .34 5.37 2.2 2.2 0 0 0-.37.25c-1.5 1.3-1.3 4.86-1.3 4.89a5.75 5.75 0 0 0 2.1 3.82 2.62 2.62 0 0 0 .77.38c.65 3.75 1.95 5.61 2.65 6.34l-.05 4.54c-.75.4-2.56 1.31-6.28 2.92-1.22.53-2.45 1-3.64 1.51-4.4 1.77-8.21 3.3-9.68 5.69C-.28 48.32 0 61.26.1 63.83v1h38.1c-.09-.65-.16-1.32-.19-2H2.13c-.14-6.11.05-14.58.93-16 1.13-1.83 4.82-3.31 8.73-4.9 1.2-.48 2.44-1 3.69-1.53a63 63 0 0 0 7-3.32l.46-.29.06-6.1v-.47l-.35-.31s-1.81-1.58-2.38-6.25l-.15-1.17-1.12.31s-.14 0-.33-.19a3.94 3.94 0 0 1-1.13-2.2 6.12 6.12 0 0 1 .56-3.25l1.38.29-.18-1.39a38.4 38.4 0 0 1-.44-5.87c.38-4.07 4.28-8.27 10.14-8.27s9.77 4.2 10.14 8.25a37.61 37.61 0 0 1-.44 5.88l-.23 1.38 1.38-.3c.34.23.7 1.85.62 3.27-.06 1-1.07 2.39-1.45 2.39h-.12l-1.1-.34-.15 1.17c-.57 4.66-2.3 6.23-2.31 6.23l-.37.31.03 6.58.44.29a60.62 60.62 0 0 0 6.85 3.32c1.22.55 2.44 1 3.62 1.54s2.52 1 3.65 1.56a17.7 17.7 0 0 1 2.58-.95c-1.55-.84-3.46-1.63-5.48-2.5zM43 62.8h-2a14.57 14.57 0 0 0 .25 2h2a14.58 14.58 0 0 1-.25-2zm13.6-16.94v-.09a6.14 6.14 0 0 0-.63-.84 14.84 14.84 0 0 0-2.49.49 6.29 6.29 0 0 1 .93.79 3.36 3.36 0 0 1 .49.61 1.72 1.72 0 0 1 .13.27 16.13 16.13 0 0 1 2-.25 4.49 4.49 0 0 0-.42-.98z"/><path class="cls-2" d="M58 44.8a15.33 15.33 0 0 0-2 .13 14.84 14.84 0 0 0-2.49.49A17 17 0 0 0 41 61.8v1a14.57 14.57 0 0 0 .25 2A17 17 0 1 0 58 44.8zm0 32a15 15 0 0 1-14.7-12 14.58 14.58 0 0 1-.26-2v-1A15 15 0 0 1 55 47.09a16.13 16.13 0 0 1 2-.25h1a15 15 0 1 1 0 30z"/><path class="cls-2" d="M58 45.8c-.46 0-.91 0-1.36.06a15.16 15.16 0 0 0-2.24.35A16 16 0 0 0 42 61.8v1a16.29 16.29 0 0 0 .25 2A16 16 0 1 0 58 45.8zm0 31a15 15 0 0 1-14.7-12 14.58 14.58 0 0 1-.26-2v-1A15 15 0 0 1 55 47.09a16.13 16.13 0 0 1 2-.25h1a15 15 0 1 1 0 30z"/><path class="cls-1" d="M58 44.8a15.33 15.33 0 0 0-2 .13 14.84 14.84 0 0 0-2.49.49A17 17 0 0 0 41 61.8v1a14.57 14.57 0 0 0 .25 2A17 17 0 1 0 58 44.8zm0 32a15 15 0 0 1-14.7-12 14.58 14.58 0 0 1-.26-2v-1A15 15 0 0 1 55 47.09a16.13 16.13 0 0 1 2-.25h1a15 15 0 1 1 0 30z"/><path class="cls-1" d="M68.578 49.78l1.415 1.414L47.365 73.82l-1.414-1.413z"/></g></svg>