<svg xmlns="http://www.w3.org/2000/svg" viewBox="0 0 82 67"><defs><style>.cls-1{fill:#bbbac0;}.cls-2{fill:none;stroke:#bbbac0;stroke-miterlimit:10;stroke-width:2px;}</style></defs><title>cis_ready_timeout_and_notification_flow</title><g id="Layer_1" data-name="Layer 1"><path class="cls-1" d="M78 2a2 2 0 0 1 2 2v47a2 2 0 0 1-2 2H4a2 2 0 0 1-2-2V4a2 2 0 0 1 2-2zm0-2H4a4 4 0 0 0-4 4v47a4 4 0 0 0 4 4h74a4 4 0 0 0 4-4V4a4 4 0 0 0-4-4z"/><path class="cls-1" d="M34.49 17.3a8.26 8.26 0 0 1 6-2.16A8.4 8.4 0 0 1 46.23 17a6 6 0 0 1 2.14 4.72 4.74 4.74 0 0 1-.78 2.82 22.4 22.4 0 0 1-3.18 3.19 9.91 9.91 0 0 0-2.27 2.87 8.12 8.12 0 0 0-.53 3.4h-3.17a11.49 11.49 0 0 1 .56-4.07 10.39 10.39 0 0 1 2.7-3.43l1.45-1.37a5.89 5.89 0 0 0 1.06-1.2A3.89 3.89 0 0 0 45 21.7a4.06 4.06 0 0 0-1.06-2.8 4.54 4.54 0 0 0-3.52-1.19c-2 0-3.43.67-4.2 2a6.73 6.73 0 0 0-.75 3.29h-3.18a9 9 0 0 1 2.2-5.7zM39 35h3v5h-3z"/><path class="cls-2" d="M24 66h33M41 55v11"/></g></svg>