<svg id="Layer_1" data-name="Layer 1" xmlns="http://www.w3.org/2000/svg" viewBox="0 0 78 60"><defs><style>.cls-1{fill:#585858;}</style></defs><title>shredder</title><path class="cls-1" d="M10 51h2v-7h55v7h2v-9H10v9z"/><path class="cls-1" d="M64 21V8.27c0-1.27 0-2.53 1-2.53.82 0 1 1.42 1 1.7V11h5V8.16C71 3.67 68.44 0 64 0H22c-3.11 0-9 .38-9 8.41V21H0v26h8v-2H2V23h11v5H7v11h64V28h-7v-5h12v22h-5v2h7V21zM9 37v-7h4v7zm60-7v7h-5v-7zM62 8.27V37H15V8.41C15 3.09 17.8 2 22 2h42c3.69 0 5 3.32 5 6.16V9h-1V7.63v-.2a2 2 0 0 0 0-.38c-.3-2.44-1.72-3.32-3-3.32-3 .01-3 3.27-3 4.54zM16 47h2v12h-2zM20 47h2v9h-2zM41 47h2v13h-2zM45 47h2v9h-2zM32 47h2v13h-2zM57 47h2v12h-2zM62 47h2v12h-2zM53 47h2v9h-2zM49 47h2v13h-2zM36 47h2v9h-2zM24 47h2v13h-2zM28 47h2v12h-2z"/><path class="cls-1" d="M24 10h29v2H24zM24 16h29v2H24zM24 22h29v2H24zM24 28h23v2H24z"/></svg>