<svg xmlns="http://www.w3.org/2000/svg" viewBox="0 0 83 83"><defs><style>.cls-1{fill:#eff0f3;}.cls-2{fill:#bbbac0;}</style></defs><title>cis_ready_timeout_and_notification_flow</title><g id="artwork-1"><path class="cls-1" d="M64.24 37.41h-46a5 5 0 0 0-5 5v3h2v-3a3 3 0 0 1 3-3h46a3 3 0 0 1 3 3v3h2v-3a5 5 0 0 0-5-5z"/><path class="cls-1" d="M81.59 35.82s-2.54 7.75-9.35 9.38v-1c5.6-1.52 8-7.62 8.36-8.56.2-4.8-.93-8.59-3.38-11.25a13.4 13.4 0 0 0-8.41-4h-.91v-.91c-.4-7.27-3.13-12.42-8.13-15.3A16.47 16.47 0 0 0 52.34 2c-13.56-.7-16.91 9.32-17 9.75l-.32 1-1-.38c-7.53-2.87-10.63 2.77-10.76 3l-.31.59-.66-.06C6.17 14.56 3.91 23.73 3.82 24.12v.11c-1.91 5.39-1.88 9.95.07 13.58a14.16 14.16 0 0 0 6.38 5.85v1.06c-4.06-1.83-12.19-7.31-7.4-20.8 0 0 2.25-10.41 19.5-8.92 0 0 3.5-6.7 12-3.47 0 0 3.5-11.16 18-10.42 0 0 15.5 0 16.5 18.35-.03 0 13.47.54 12.72 16.36z"/><path class="cls-2" d="M14.24 44.41h-1v2h2v-2zm54 0h-1v2h2v-2zM78.68 23a15 15 0 0 0-8.89-4.5c-.59-7.28-3.56-11.9-7.07-14.7A17.24 17.24 0 0 0 52.4 0c-7.88-.4-12.61 2.63-15.2 5.24a16.9 16.9 0 0 0-3.43 5C26.71 8 23 12.3 21.82 13.91 12.94 13.27 8 15.83 5.46 18.13a11.56 11.56 0 0 0-3.58 5.49c-2.08 5.91-2 11 .22 15.14a16.37 16.37 0 0 0 8.14 7.09v-2.19a14.16 14.16 0 0 1-6.38-5.85c-2-3.63-2-8.19-.07-13.58v-.11c.09-.39 2.35-9.56 18.44-8.18l.66.06.31-.59c.13-.24 3.23-5.88 10.76-3l1 .38.32-1c.13-.43 3.48-10.45 17-9.75a16.47 16.47 0 0 1 7.38 2.16c5 2.88 7.73 8 8.13 15.3v.91h.91a13.4 13.4 0 0 1 8.41 4c2.45 2.66 3.58 6.45 3.38 11.25-.34.94-2.76 7-8.36 8.56v2.06c7.44-1.63 10.27-10 10.31-10.12v-.26c.41-5.46-.91-9.77-3.76-12.9z"/><path class="cls-1" d="M41.24 62.41a2 2 0 1 0 2 2 2 2 0 0 0-2-2zm0-15a2 2 0 0 0-2 2v9a2 2 0 0 0 2 2 2 2 0 0 0 2-2v-9a2 2 0 0 0-1.99-2zm0 0a2 2 0 0 0-2 2v9a2 2 0 0 0 2 2 2 2 0 0 0 2-2v-9a2 2 0 0 0-1.99-2zm0 15a2 2 0 1 0 2 2 2 2 0 0 0-2-2zm0 0a2 2 0 1 0 2 2 2 2 0 0 0-2-2zm0-15a2 2 0 0 0-2 2v9a2 2 0 0 0 2 2 2 2 0 0 0 2-2v-9a2 2 0 0 0-1.99-2zm0 0a2 2 0 0 0-2 2v9a2 2 0 0 0 2 2 2 2 0 0 0 2-2v-9a2 2 0 0 0-1.99-2zm0 15a2 2 0 1 0 2 2 2 2 0 0 0-2-2zm23-24h-46a4 4 0 0 0-4 4v28a4 4 0 0 0 4 4h46a4 4 0 0 0 4-4v-28a4 4 0 0 0-4-4zm3 32a3 3 0 0 1-3 3h-46a3 3 0 0 1-3-3v-28a3 3 0 0 1 3-3h46a3 3 0 0 1 3 3zm-26-23a2 2 0 0 0-2 2v9a2 2 0 0 0 2 2 2 2 0 0 0 2-2v-9a2 2 0 0 0-1.99-2zm0 15a2 2 0 1 0 2 2 2 2 0 0 0-2-2zm0 0a2 2 0 1 0 2 2 2 2 0 0 0-2-2zm0-15a2 2 0 0 0-2 2v9a2 2 0 0 0 2 2 2 2 0 0 0 2-2v-9a2 2 0 0 0-1.99-2zm0 0a2 2 0 0 0-2 2v9a2 2 0 0 0 2 2 2 2 0 0 0 2-2v-9a2 2 0 0 0-1.99-2zm0 15a2 2 0 1 0 2 2 2 2 0 0 0-2-2z"/><path class="cls-2" d="M64.24 37.41h-46a5 5 0 0 0-5 5v28a5 5 0 0 0 5 5h46a5 5 0 0 0 5-5v-28a5 5 0 0 0-5-5zm3 33a3 3 0 0 1-3 3h-46a3 3 0 0 1-3-3v-28a3 3 0 0 1 3-3h46a3 3 0 0 1 3 3zM30.24 80.41h22v2h-22z"/><path class="cls-2" d="M40.24 74.41h2v7h-2z"/><rect class="cls-2" x="39.24" y="47.41" width="4" height="13" rx="1.99" ry="1.99"/><circle class="cls-2" cx="41.24" cy="64.41" r="2"/></g></svg>