<svg id="Layer_1" xmlns="http://www.w3.org/2000/svg" viewBox="0 0 75 78"><style>.st0{fill:#BBBAC0;}</style><title>cis_ready_timeout_and_notification_flow</title><g id="Icons"><path class="st0" d="M38.9 65c-.1-.7-.2-1.3-.2-2H2V51.4c-.1-1.5.2-2.9.7-4.3.6-1.4 3-2.7 4.4-3.2h.2l14.6-6.4 1.2-.5v-8.2l-.4-.5c-.8-1.4-1.4-2.8-1.8-4.3l-.4-1.1-1.1-.2c-.3 0-.5-.2-.7-.4-.5-1.2-.6-2.5-.6-3.8v-1.2c.2-.4.5-.8.9-1l1.1-.5v-1.2-1.9c0-3.4 0-5.3.7-6.5 2.4-3.9 5.8-4.2 9-4.2 2.8 0 5.4.3 7.7 4.3.6 1 .5 2.6.5 5.3v4.3l1 .6c.4.2.7.5 1 .8v1.3c.1 1.3-.1 2.6-.6 3.9-.2.2-.4.3-.7.4l-1.1.1-.4 1.1c-.5 1.5-1.1 3-1.9 4.3l-.3.5v8.2l1.2.5 14.4 6.3c.9-.4 1.9-.7 2.8-.9-.6-.3-1.2-.6-1.8-.8L37 35.8v-6.7c.9-1.5 1.6-3.1 2.1-4.8.9-.1 1.6-.6 2.1-1.3.6-1.5.8-5.7.8-5.7 0-1.2-1.2-2.1-2.1-2.6 0-4.9.4-7.5-.8-9.5C36.2.3 32.5 0 29.4 0h-.1c-3.2 0-7.5.3-10.4 5.2-1.2 1.9-1 4.5-1 9.4-1.1.5-1.8 1.6-1.9 2.8 0 0 .2 4.2.8 5.7.5.7 1.2 1.2 2.1 1.3.5 1.7 1.2 3.3 2.1 4.8v6.7L6.4 42.2C6 42.3 2 43.8.8 46.5c-.7 1.7-1 3.6-.8 5.4V65h38.9z"/><path class="st0" d="M57.6 45.9c8.3 0 15.1 6.7 15.1 15.1S66 76 57.6 76s-15-6.7-15-15c0-8.4 6.7-15.1 15-15.1m0-2c-9.4 0-17.1 7.6-17.1 17.1s7.7 17 17.1 17 17.1-7.6 17.1-17-7.6-17.1-17.1-17.1z"/><path class="st0" d="M56.8 52h2v12h-2z"/><path class="st0" d="M56.8 62h10v2h-10z"/></g></svg>