<svg id="Artwork" xmlns="http://www.w3.org/2000/svg" viewBox="0 0 336 186"><defs><style>.cls-1{fill:#fff;}.cls-2{fill:#646871;}.cls-3{fill:#59595c;}.cls-4{fill:#d85f0e;}.cls-5{fill:#31a254;}.cls-6{fill:#ef3b20;}.cls-7{fill:#2c7fb7;}.cls-8{fill:#7eb963;}.cls-9{fill:#263e95;}.cls-10{fill:#d53927;}.cls-11{fill:#792b8c;}</style></defs><title>cis_ready_dashboards_executive_flow</title><path class="cls-1" d="M336,182.08a3.76,3.76,0,0,1-3.56,3.92H3.56A3.76,3.76,0,0,1,0,182.08V0H336V182.08Z"/><path class="cls-2" d="M37.42,41.12a2.65,2.65,0,0,1-2.62-2.21H35.7a1.9,1.9,0,0,0,2.13,1.51c1.33,0,2-.62,2-1.46s-0.41-1.23-2.44-1.73c-1.69-.42-2.31-1.07-2.31-2.12s0.8-1.84,2.31-1.95V31.87h0.77v1.29a2.49,2.49,0,0,1,2.52,2H39.82c-0.17-.82-0.87-1.29-2.06-1.29S36,34.39,36,35s0.29,1.07,2,1.5c2,0.5,2.71,1.25,2.71,2.37s-0.9,2.1-2.54,2.22v1.35H37.42V41.12Z"/><path class="cls-2" d="M43.67,39.58a1.34,1.34,0,0,0,1.4.91c1.09,0,1.87-.8,2-3.31a2.22,2.22,0,0,1-2,1.14,2.35,2.35,0,0,1-2.42-2.57,2.47,2.47,0,0,1,2.51-2.62c1.86,0,2.68,1.4,2.68,3.7,0,3.33-1.26,4.33-2.8,4.33a2.21,2.21,0,0,1-2.26-1.58h0.89Zm3.26-3.76a1.8,1.8,0,0,0-1.76-2,1.71,1.71,0,0,0-1.69,1.87A1.73,1.73,0,1,0,46.93,35.82Z"/><path class="cls-2" d="M53.69,41L51,34.33V41H50.19V33.08h1.22L54.14,40l2.56-6.94h1.17V41H57.06V34.39L54.55,41H53.69Z"/><path class="cls-2" d="M22.06,111.95a2.65,2.65,0,0,1-2.62-2.21h0.89a1.9,1.9,0,0,0,2.13,1.51c1.33,0,2-.62,2-1.46s-0.41-1.23-2.44-1.73c-1.69-.42-2.31-1.07-2.31-2.12s0.8-1.84,2.31-1.95V102.7h0.77V104a2.49,2.49,0,0,1,2.52,2H24.46c-0.17-.83-0.87-1.29-2.06-1.29s-1.78.53-1.78,1.19,0.29,1.07,2,1.5c2,0.5,2.71,1.25,2.71,2.37s-0.9,2.1-2.54,2.22v1.35H22.06v-1.36Z"/><path class="cls-2" d="M27.13,110H28a1.71,1.71,0,0,0,1.8,1.3,1.82,1.82,0,0,0,1.86-2,1.71,1.71,0,0,0-1.82-1.88,2.21,2.21,0,0,0-1.72.8H27.41l0.17-4.11h4.57v0.69H28.32l-0.1,2.61a2.61,2.61,0,0,1,1.79-.65,2.39,2.39,0,0,1,2.49,2.57A2.57,2.57,0,0,1,29.78,112,2.53,2.53,0,0,1,27.13,110Z"/><path class="cls-2" d="M38.33,111.83l-2.66-6.67v6.67H34.83v-7.92h1.22l2.73,6.94,2.56-6.94h1.17v7.92H41.7v-6.61l-2.51,6.61H38.33Z"/><path class="cls-2" d="M170.93,58.81a2.65,2.65,0,0,1-2.62-2.21h0.89a1.9,1.9,0,0,0,2.13,1.51c1.33,0,2-.62,2-1.46s-0.41-1.23-2.44-1.73c-1.69-.42-2.31-1.07-2.31-2.12s0.8-1.84,2.31-1.95V49.56h0.77v1.29a2.49,2.49,0,0,1,2.52,2h-0.89c-0.17-.82-0.87-1.29-2.06-1.29s-1.78.53-1.78,1.19,0.29,1.07,2,1.5c2,0.5,2.71,1.25,2.71,2.37s-0.9,2.1-2.54,2.22v1.35h-0.77V58.81Z"/><path class="cls-2" d="M178.72,58.69V51.85l-1.75,1V52l1.76-1h0.8v7.7h-0.81Z"/><path class="cls-2" d="M187.69,51v5.54h1.21v0.7h-1.21v1.45h-0.8V57.24h-3.45V56.46L186.82,51h0.87Zm-0.8,5.54V52.3l-2.56,4.24h2.56Z"/><path class="cls-2" d="M194.62,58.69L192,52v6.67h-0.84V50.77h1.22l2.73,6.94,2.56-6.94h1.17v7.92H198V52.08l-2.51,6.61h-0.86Z"/><path class="cls-2" d="M102.85,161.7a2.65,2.65,0,0,1-2.62-2.21h0.89a1.9,1.9,0,0,0,2.13,1.51c1.33,0,2-.62,2-1.46s-0.41-1.23-2.44-1.73c-1.69-.42-2.31-1.07-2.31-2.12s0.8-1.84,2.31-1.95v-1.29h0.77v1.29a2.49,2.49,0,0,1,2.52,2h-0.89c-0.17-.82-0.87-1.29-2.06-1.29s-1.78.53-1.78,1.19,0.29,1.07,2,1.5c2,0.49,2.71,1.25,2.71,2.37s-0.9,2.1-2.54,2.22v1.35h-0.77V161.7Z"/><path class="cls-2" d="M110.65,161.57v-6.84l-1.75,1v-0.85l1.76-1h0.8v7.7h-0.81Z"/><path class="cls-2" d="M115.36,157.71c0-2.83,1.18-4,2.7-4s2.7,1.18,2.7,4-1.17,4-2.7,4S115.36,160.5,115.36,157.71Zm4.55,0c0-2.27-.66-3.31-1.86-3.31s-1.86,1-1.86,3.31,0.66,3.33,1.86,3.33S119.91,160,119.91,157.71Z"/><path class="cls-2" d="M126.54,161.57l-2.66-6.67v6.67H123v-7.92h1.22L127,160.6l2.56-6.94h1.17v7.92h-0.81V155l-2.51,6.61h-0.86Z"/><path class="cls-3" d="M265,26.82l-2-3.14h-2.11v3.14H260V18.9h2.63c1.9,0,3,.89,3,2.43a2.27,2.27,0,0,1-1.75,2.19l2.19,3.3h-1Zm-4.14-7.21V23h1.8c1.28,0,2-.66,2-1.64s-0.67-1.72-2-1.72h-1.79Z"/><path class="cls-3" d="M272.16,25.21A2.41,2.41,0,0,1,269.68,27c-1.58,0-2.75-1-2.75-3s1.14-3,2.67-3,2.63,1,2.63,3.21h-4.47a1.93,1.93,0,0,0,1.95,2.14,1.55,1.55,0,0,0,1.56-1.08h0.88Zm-4.37-1.73h3.61a1.76,1.76,0,0,0-1.78-1.89A1.85,1.85,0,0,0,267.79,23.48Z"/><path class="cls-3" d="M276.69,19.57a3.34,3.34,0,0,0-.86-0.13,0.65,0.65,0,0,0-.69.73V21.1h1.29v0.7h-1.29v5h-0.81v-5h-0.85V21.1h0.85V20.21a1.38,1.38,0,0,1,1.46-1.47,3.34,3.34,0,0,1,.9.13v0.71Z"/><path class="cls-3" d="M277.89,26.82V21.1h0.67l0.11,1a1.61,1.61,0,0,1,1.53-1.14,2.51,2.51,0,0,1,.6.08v0.81a2.25,2.25,0,0,0-.64-0.1c-0.78,0-1.46.68-1.46,2.09v3h-0.81Z"/><path class="cls-3" d="M286.94,25.21A2.41,2.41,0,0,1,284.47,27c-1.58,0-2.75-1-2.75-3s1.14-3,2.67-3,2.63,1,2.63,3.21h-4.47a1.93,1.93,0,0,0,1.95,2.14,1.54,1.54,0,0,0,1.56-1.08h0.88Zm-4.37-1.73h3.61a1.76,1.76,0,0,0-1.78-1.89A1.84,1.84,0,0,0,282.58,23.48Z"/><path class="cls-3" d="M290.45,24.12c-1.24-.25-1.87-0.75-1.87-1.62s0.74-1.57,2.16-1.57A2.1,2.1,0,0,1,293,22.56h-0.84a1.34,1.34,0,0,0-1.47-1c-0.89,0-1.3.39-1.3,0.85s0.31,0.79,1.46,1c1.41,0.29,2.18.7,2.18,1.78S292.21,27,290.75,27s-2.27-.69-2.38-1.74h0.84a1.34,1.34,0,0,0,1.55,1.08,1.22,1.22,0,0,0,1.46-1C292.22,24.58,291.62,24.35,290.45,24.12Z"/><path class="cls-3" d="M294.8,26.82V18.9h0.81v3a2,2,0,0,1,1.77-1,1.88,1.88,0,0,1,2,2.07v3.82h-0.81V23a1.25,1.25,0,0,0-1.37-1.4,1.6,1.6,0,0,0-1.58,1.68v3.51H294.8Z"/><rect class="cls-4" x="243" y="20" width="8" height="8"/><path class="cls-3" d="M265.65,73.7l-0.83-2.12h-3.89l-0.85,2.12h-0.9l3.21-7.92h1l3.2,7.92h-1Zm-4.44-2.84h3.33l-1.65-4.22Z"/><path class="cls-3" d="M268.95,68.69v3.75a0.63,0.63,0,0,0,.68.71,2.43,2.43,0,0,0,.67-0.09v0.69a2.69,2.69,0,0,1-.76.11,1.3,1.3,0,0,1-1.41-1.45V68.69H267.3V68h0.84l0.05-1.37h0.76V68h1.29v0.71h-1.29Z"/><path class="cls-3" d="M272.82,68.69v3.75a0.63,0.63,0,0,0,.68.71,2.42,2.42,0,0,0,.67-0.09v0.69a2.69,2.69,0,0,1-.76.11A1.3,1.3,0,0,1,272,72.41V68.69h-0.84V68H272l0.06-1.37h0.76V68h1.29v0.71h-1.29Z"/><path class="cls-3" d="M275.45,69.52a2.06,2.06,0,0,1,2.33-1.71A2,2,0,0,1,280,69.74v4h-0.67l-0.1-.87a2.27,2.27,0,0,1-2,1,1.7,1.7,0,0,1-1.95-1.63c0-1,.61-1.61,2.18-1.87l1.71-.29v-0.4a1.24,1.24,0,0,0-1.45-1.22,1.26,1.26,0,0,0-1.44,1.06h-0.86Zm3.75,1.21-1.49.25c-1.2.21-1.54,0.58-1.54,1.18a1.07,1.07,0,0,0,1.29,1,1.69,1.69,0,0,0,1.74-1.54v-0.9Z"/><path class="cls-3" d="M286.73,71.94a2.31,2.31,0,0,1-2.43,1.93c-1.47,0-2.62-1-2.62-3s1.1-3.07,2.62-3.07a2.24,2.24,0,0,1,2.4,1.8h-0.9a1.38,1.38,0,0,0-1.47-1.11c-1,0-1.78.76-1.78,2.41s0.8,2.26,1.78,2.26a1.45,1.45,0,0,0,1.53-1.23h0.88Z"/><path class="cls-3" d="M288.47,73.7V65.78h0.81v3a2.05,2.05,0,0,1,1.77-1,1.87,1.87,0,0,1,2,2.07V73.7h-0.81V69.91a1.25,1.25,0,0,0-1.38-1.4,1.6,1.6,0,0,0-1.58,1.68V73.7h-0.81Z"/><rect class="cls-5" x="243" y="66" width="8" height="9"/><path class="cls-3" d="M264.87,48.17c0-.85-0.43-1.27-2.58-1.79-1.82-.45-2.43-1.11-2.43-2.21s1-2,2.78-2c1.63,0,2.84.77,3.07,2.06h-0.89c-0.16-.84-0.93-1.33-2.17-1.33s-1.92.53-1.92,1.22,0.35,1.12,2.17,1.57c2.16,0.55,2.84,1.21,2.84,2.44s-1.09,2.29-3,2.29a2.89,2.89,0,0,1-3.15-2.29h0.89a2,2,0,0,0,2.24,1.56C264.12,49.7,264.87,49.05,264.87,48.17Z"/><path class="cls-3" d="M267.5,42.34l2.57,7.13,2.6-7.13h0.85l-2.89,7.92h-1.11l-2.92-7.92h0.9Z"/><path class="cls-3" d="M274.31,46.33c0-2.7,1.54-4.16,3.64-4.16a3.1,3.1,0,0,1,3.3,2.63h-0.87A2.26,2.26,0,0,0,278,42.9c-1.6,0-2.76,1.17-2.76,3.43s1.14,3.36,2.73,3.36a2.34,2.34,0,0,0,2.46-2.13h0.87a3.2,3.2,0,0,1-3.34,2.87C275.75,50.43,274.31,48.9,274.31,46.33Z"/><path class="cls-3" d="M291.78,50.26l-2-3.13h-2.11v3.13h-0.86V42.34h2.63c1.9,0,3,.89,3,2.43A2.27,2.27,0,0,1,290.63,47l2.19,3.3h-1Zm-4.14-7.21v3.36h1.8c1.28,0,2-.66,2-1.64s-0.67-1.72-2-1.72h-1.79Z"/><path class="cls-3" d="M298.94,48.65a2.41,2.41,0,0,1-2.48,1.77c-1.58,0-2.75-1-2.75-3s1.14-3,2.67-3,2.63,1,2.63,3.21h-4.47a1.93,1.93,0,0,0,1.95,2.15,1.55,1.55,0,0,0,1.56-1.08h0.88Zm-4.37-1.73h3.61A1.76,1.76,0,0,0,296.4,45,1.85,1.85,0,0,0,294.58,46.93Z"/><path class="cls-3" d="M300.81,50.26V44.54h0.67l0.1,0.86a2.08,2.08,0,0,1,1.81-1,1.87,1.87,0,0,1,2,2.07v3.82h-0.81V46.46a1.25,1.25,0,0,0-1.38-1.4,1.59,1.59,0,0,0-1.58,1.65v3.54h-0.81Z"/><path class="cls-3" d="M312.31,48.65a2.41,2.41,0,0,1-2.48,1.77c-1.58,0-2.75-1-2.75-3s1.14-3,2.67-3,2.63,1,2.63,3.21h-4.47a1.93,1.93,0,0,0,1.95,2.15,1.55,1.55,0,0,0,1.56-1.08h0.88Zm-4.37-1.73h3.61A1.76,1.76,0,0,0,309.77,45,1.85,1.85,0,0,0,307.94,46.93Z"/><path class="cls-3" d="M321.85,44.54l-1.66,5.72h-1l-1.5-4.83-1.45,4.83h-1l-1.71-5.72h0.85l1.38,4.86,1.44-4.86h1l1.46,4.84L321,44.54h0.83Z"/><rect class="cls-6" x="243" y="42" width="8" height="8"/><path class="cls-3" d="M264.87,95.05c0-.85-0.43-1.27-2.58-1.79-1.82-.45-2.43-1.11-2.43-2.21s1-2,2.78-2c1.63,0,2.84.77,3.07,2.06h-0.89c-0.16-.84-0.93-1.33-2.17-1.33s-1.92.53-1.92,1.22,0.35,1.12,2.17,1.57c2.16,0.55,2.84,1.21,2.84,2.44s-1.09,2.29-3,2.29A2.89,2.89,0,0,1,259.56,95h0.89a2,2,0,0,0,2.24,1.56C264.12,96.58,264.87,95.93,264.87,95.05Z"/><path class="cls-3" d="M268.29,91.42v3.81a1.23,1.23,0,0,0,1.34,1.39,1.56,1.56,0,0,0,1.56-1.69v-3.5H272v5.72h-0.68l-0.09-.79a2.07,2.07,0,0,1-1.8,1,1.86,1.86,0,0,1-2-2.08V91.42h0.81Z"/><path class="cls-3" d="M274.07,97.14V89.22h0.81v3.13a2.19,2.19,0,0,1,2-1.1c1.45,0,2.46,1,2.46,3s-1.08,3.08-2.53,3.08a2.13,2.13,0,0,1-1.92-1.07l-0.12.9h-0.67Zm2.6-5.19c-1,0-1.84.69-1.84,2.3s0.76,2.37,1.84,2.37,1.79-.76,1.79-2.41S277.7,92,276.67,92Z"/><path class="cls-3" d="M289.84,97.14l-2-3.13H285.7v3.13h-0.86V89.22h2.63c1.9,0,3,.89,3,2.43a2.27,2.27,0,0,1-1.75,2.19l2.19,3.3h-1Zm-4.14-7.21v3.36h1.8c1.28,0,2-.66,2-1.64s-0.67-1.72-2-1.72H285.7Z"/><path class="cls-3" d="M297,95.54a2.41,2.41,0,0,1-2.48,1.77c-1.58,0-2.75-1-2.75-3s1.14-3,2.67-3,2.63,1,2.63,3.21h-4.47a1.93,1.93,0,0,0,1.95,2.15,1.55,1.55,0,0,0,1.56-1.08H297Zm-4.37-1.73h3.61a1.76,1.76,0,0,0-1.78-1.89A1.85,1.85,0,0,0,292.63,93.81Z"/><path class="cls-3" d="M298.87,97.14V91.42h0.67l0.1,0.86a2.08,2.08,0,0,1,1.81-1,1.87,1.87,0,0,1,2,2.07v3.82h-0.81V93.35a1.25,1.25,0,0,0-1.38-1.4,1.59,1.59,0,0,0-1.58,1.65v3.54h-0.81Z"/><path class="cls-3" d="M310.36,95.54a2.41,2.41,0,0,1-2.48,1.77c-1.58,0-2.75-1-2.75-3s1.14-3,2.67-3,2.63,1,2.63,3.21H306a1.93,1.93,0,0,0,1.95,2.15,1.55,1.55,0,0,0,1.56-1.08h0.88ZM306,93.81h3.61a1.76,1.76,0,0,0-1.78-1.89A1.85,1.85,0,0,0,306,93.81Z"/><path class="cls-3" d="M319.9,91.42l-1.66,5.72h-1l-1.5-4.83-1.45,4.83h-1l-1.71-5.72h0.85l1.38,4.86,1.44-4.86h1l1.46,4.84,1.32-4.84h0.83Z"/><rect class="cls-7" x="243" y="89" width="8" height="8"/><path class="cls-8" d="M109.42,51.65c0.62,0,1.24,0,1.86.07l0.83,0.06c0.54,0,1.08.11,1.62,0.19l1.06,0.15c0.43,0.07.85,0.16,1.28,0.24s0.89,0.18,1.33.29a34.45,34.45,0,0,1,5.47,1.85c0.66,0.28,1.31.58,1.94,0.91l0.59,0.31q0.87,0.46,1.71,1l0.7,0.44a34.75,34.75,0,0,1,6,4.82l0.34,0.35q0.8,0.83,1.55,1.73l0.3,0.36q0.76,0.93,1.47,1.92l0.2,0.29q0.74,1.07,1.41,2.2a34.63,34.63,0,0,1,2.27,4.59h0c0.17,0.41.33,0.83,0.48,1.25L141.92,75q0.22,0.62.41,1.24l0.17,0.58c0.09,0.33.18,0.65,0.26,1s0.12,0.47.18,0.71,0.1,0.47.15,0.7,0.12,0.53.17,0.79h0a34.53,34.53,0,0,1,.56,5h0c0,0.33,0,.66,0,1s0,0.51,0,.77,0,0.68,0,1,0,0.57,0,.86a34.65,34.65,0,0,1-.75,5.32h0q-0.23,1-.52,2l0,0.12q-0.28,1-.61,1.9l-0.05.14a35,35,0,0,1-3.56,7.17q-0.33.51-.68,1l-0.48.67q-0.44.6-.9,1.17l-0.36.44-0.1.12,18.76,16.89c0.75-.87,1.47-1.74,2.17-2.65l0.07-.09q0.48-.63.94-1.27l0.34-.47,0.63-.92,0.59-.87,0.35-.54c0.27-.42.54-0.85,0.8-1.28l0.09-.16c0.57-1,1.13-1.91,1.65-2.9h0q1.18-2.23,2.17-4.55h0c0.18-.43.35-0.87,0.52-1.31l0.06-.15q1-2.59,1.81-5.3l0.17-.6c0.15-.53.29-1.06,0.43-1.6s0.33-1.35.47-2c0.07-.34.14-0.69,0.21-1q0.18-.91.33-1.82c0-.23.08-0.46,0.11-0.69s0-.24.06-0.37h0q0.36-2.48.51-5h0a59.65,59.65,0,0,0,0-7.11v-0.1h0c-0.1-1.67-.26-3.34-0.51-5h0q-0.18-1.27-.42-2.53c0-.19-0.08-0.38-0.12-0.57q-0.23-1.19-.51-2.35l-0.11-.45q-0.32-1.3-.7-2.58l-0.06-.19a59.6,59.6,0,0,0-4.43-10.78h0l-0.25-.45c-0.25-.45-0.49-0.9-0.75-1.35s-0.44-.75-0.67-1.12l-0.5-.82q-0.47-.75-1-1.49l-0.27-.4q-0.6-.89-1.24-1.75l-0.08-.1a59.67,59.67,0,0,0-10-10.6h0l-0.22-.18q-0.66-.54-1.34-1.07l-0.75-.58-1-.76-1.1-.78-0.69-.46c-0.5-.33-1-0.65-1.5-1l-0.25-.15A59.61,59.61,0,0,0,120,27.41l-0.16,0L119,27.24a59.59,59.59,0,0,0-9.7-.83V51.66h0.13Z"/><path class="cls-9" d="M79.07,104a34.94,34.94,0,0,1-2.73-5.86c-0.25-.69-0.46-1.38-0.66-2.07l0-.17c-0.18-.63-0.34-1.26-0.48-1.9l-0.06-.25q-0.22-1-.38-2c0-.15,0-0.3-0.06-0.45-0.07-.48-0.13-1-0.17-1.45s-0.06-.69-0.08-1,0-.57,0-0.86,0-.78,0-1.17c0-.22,0-0.44,0-0.66,0-.44,0-0.87,0-1.31L49.19,83a59.6,59.6,0,0,0,.56,12.31l0.08,0.54Q50,96.92,50.22,98c0.09,0.44.18,0.88,0.28,1.32s0.22,1,.33,1.45,0.27,1.05.41,1.58l0.16,0.57a60.1,60.1,0,0,0,11.82,22.18l18.51-17.26A35,35,0,0,1,79.07,104Z"/><path class="cls-10" d="M70.87,132.66l0.07,0.06c0.57,0.47,1.15.92,1.73,1.36l0.63,0.49c0.4,0.3.82,0.58,1.23,0.87s0.82,0.58,1.24.86l0.67,0.43c0.62,0.4,1.24.8,1.87,1.18l0.08,0A60.09,60.09,0,0,0,113,146.29l0.57,0,1.62-.14,1.35-.16,1.22-.16c0.81-.12,1.61-0.25,2.41-0.4l0.49-.1a59.8,59.8,0,0,0,31.81-17.44l-18.77-16.9c-0.18.18-.35,0.37-0.53,0.54l-0.19.18q-0.69.65-1.41,1.27l-0.21.18q-0.7.59-1.44,1.14l-0.33.24q-0.67.49-1.37,0.95l-0.56.36q-0.59.38-1.2,0.73l-0.88.49-1,.5c-0.41.21-.83,0.4-1.26,0.59l-0.68.3c-0.52.22-1.05,0.43-1.59,0.63l-0.5.19-1.13.37-0.81.24-1,.28-1.21.28-0.67.15c-0.68.13-1.36,0.25-2,.34l-0.18,0q-1,.13-2,0.2h-0.18c-0.73,0-1.47.07-2.22,0.07a34.87,34.87,0,0,1-17.8-4.9l-0.05,0c-0.37-.22-0.72-0.45-1.08-0.68l-0.39-.25-0.71-.5-0.71-.51L88,114c-0.34-.26-0.68-0.52-1-0.79l0,0a34.73,34.73,0,0,1-3.25-3.11L65.21,127.34A59.51,59.51,0,0,0,70.87,132.66Z"/><path class="cls-11" d="M74.64,81.77c0-.11,0-0.22,0-0.32A34.54,34.54,0,0,1,75.93,76c0.16-.52.34-1,0.53-1.54l0.14-.37c0.18-.48.38-1,0.59-1.44l0.2-.46c0.2-.44.41-0.87,0.62-1.3l0.29-.58a34.9,34.9,0,0,1,3-4.81h0a35,35,0,0,1,10-8.94l0.32-.2,0.78-.43c0.36-.2.71-0.4,1.08-0.58l0.35-.17c0.52-.25,1-0.5,1.58-0.73l0.12,0q0.91-.38,1.85-0.72l0.09,0c0.76-.27,1.52-0.5,2.28-0.72l0.42-.12c0.67-.18,1.34-0.33,2-0.47l0.47-.1q1.15-.22,2.29-0.35c0.35,0,.7-0.06,1-0.09l0.3,0V26.49c-0.87,0-1.74.09-2.62,0.17l-0.59.06c-0.59.06-1.19,0.13-1.78,0.2l-1.73.25-0.64.11a59.54,59.54,0,0,0-16.8,5.53l-0.06,0q-1.49.75-2.92,1.58l-0.5.29q-1.2.71-2.35,1.46l-0.86.57q-1,.65-1.9,1.35L72.31,39q-0.74.57-1.45,1.17t-1.57,1.35l-1.05,1q-0.74.69-1.45,1.4T65.66,45c-0.37.38-.73,0.77-1.08,1.16s-0.94,1.06-1.4,1.61l-0.65.77c-0.59.72-1.16,1.46-1.71,2.21l-0.33.44-0.11.15h0c-1,1.36-1.89,2.78-2.75,4.22l0,0a59.64,59.64,0,0,0-7.37,19.09h0c0,0.11,0,.23-0.06.34-0.09.46-.18,0.92-0.25,1.38s-0.13.79-.19,1.19c0,0.22-.07.44-0.1,0.66-0.08.59-.15,1.19-0.22,1.78Z"/></svg>