<svg id="Artwork" xmlns="http://www.w3.org/2000/svg" viewBox="0 0 336 186"><defs><style>.cls-1{fill:#fff;}.cls-2{fill:#59595c;}.cls-3{fill:#31a254;}.cls-4{fill:#2c7fb7;}.cls-5{fill:#ef3b20;}.cls-6{fill:#646871;}.cls-7{fill:#0f9047;}.cls-8{fill:#263e95;}.cls-9{fill:#792b8c;}</style></defs><title>cis_ready_dashboards_executive_flow</title><path class="cls-1" d="M336,182.08a3.76,3.76,0,0,1-3.56,3.92H3.56A3.76,3.76,0,0,1,0,182.08V0H336V182.08Z"/><path class="cls-2" d="M259.39,23.61c0-2.66,1.64-4.13,3.66-4.13s3.66,1.43,3.66,4.13a4.19,4.19,0,0,1-1.31,3.29l1.25,1.56-0.71.47-1.17-1.62a3.62,3.62,0,0,1-1.73.42C260.94,27.74,259.39,26.24,259.39,23.61Zm6.44,0c0-2.22-1.17-3.41-2.77-3.41s-2.78,1.19-2.78,3.41,1.2,3.41,2.78,3.41S265.83,25.89,265.83,23.61Z"/><path class="cls-2" d="M269.26,21.85v3.81A1.23,1.23,0,0,0,270.6,27a1.56,1.56,0,0,0,1.56-1.69v-3.5H273v5.72h-0.68l-0.09-.79a2.07,2.07,0,0,1-1.8,1,1.86,1.86,0,0,1-2-2.08V21.85h0.81Z"/><path class="cls-2" d="M274.85,23.39a2.06,2.06,0,0,1,2.33-1.71,2,2,0,0,1,2.23,1.92v4h-0.67l-0.1-.87a2.27,2.27,0,0,1-2,1,1.7,1.7,0,0,1-1.95-1.63c0-1,.61-1.61,2.18-1.87L278.6,24v-0.4a1.24,1.24,0,0,0-1.45-1.22,1.26,1.26,0,0,0-1.44,1.06h-0.86Zm3.75,1.21-1.49.25c-1.2.21-1.54,0.58-1.54,1.18a1.07,1.07,0,0,0,1.29,1,1.69,1.69,0,0,0,1.74-1.54V24.6Z"/><path class="cls-2" d="M282.23,27.57h-0.81V19.65h0.81v7.92Z"/><path class="cls-2" d="M284.21,20.68v-1h0.93v1h-0.93Zm0.06,6.9V21.85h0.82v5.72h-0.82Z"/><path class="cls-2" d="M290.59,27.57v-5h-2.35v5h-0.81v-5h-0.85V21.85h0.85V21.12a1.52,1.52,0,0,1,1.76-1.6,5.51,5.51,0,0,1,1.35.2v0.7a5.16,5.16,0,0,0-1.25-.2c-0.7,0-1,.24-1,0.84v0.79h3.18v5.72h-0.83Z"/><path class="cls-2" d="M298.37,26a2.41,2.41,0,0,1-2.47,1.77c-1.58,0-2.75-1-2.75-3s1.14-3,2.67-3,2.63,1,2.63,3.21H294A1.93,1.93,0,0,0,295.92,27,1.55,1.55,0,0,0,297.49,26h0.88ZM294,24.24h3.61a1.76,1.76,0,0,0-1.78-1.89A1.84,1.84,0,0,0,294,24.24Z"/><path class="cls-2" d="M304.48,27.57l-0.14-.95a2.17,2.17,0,0,1-2,1.11c-1.39,0-2.48-1-2.48-3s1.08-3.07,2.52-3.07a2.12,2.12,0,0,1,1.9,1V19.65h0.82v7.92h-0.67ZM302.54,27c1,0,1.84-.8,1.84-2.3s-0.75-2.37-1.83-2.37-1.8.76-1.8,2.39S301.53,27,302.54,27Z"/><rect class="cls-3" x="242.7" y="20.11" width="8.48" height="8.48"/><rect class="cls-4" x="242.7" y="67" width="8.48" height="8.48"/><path class="cls-2" d="M262.12,43.1c2.29,0,3.85,1.31,3.85,4a3.67,3.67,0,0,1-3.91,4h-2.34V43.1h2.4Zm-1.54.7v6.49h1.57c1.79,0,2.95-1.12,2.95-3.23s-1.2-3.26-3-3.26h-1.55Z"/><path class="cls-2" d="M267.68,44.12v-1h0.94v1h-0.94Zm0.05,6.9V45.29h0.83V51h-0.83Z"/><path class="cls-2" d="M272.23,48.32c-1.24-.25-1.87-0.75-1.87-1.62s0.74-1.57,2.16-1.57a2.1,2.1,0,0,1,2.29,1.63H274a1.34,1.34,0,0,0-1.47-1c-0.89,0-1.3.38-1.3,0.85s0.31,0.79,1.46,1c1.41,0.29,2.18.7,2.18,1.78s-0.85,1.75-2.31,1.75-2.27-.69-2.38-1.74H271a1.35,1.35,0,0,0,1.55,1.08,1.22,1.22,0,0,0,1.46-1C274,48.78,273.4,48.55,272.23,48.32Z"/><path class="cls-2" d="M281.49,45.29V53h-0.83V50.08a2.18,2.18,0,0,1-1.95,1.1c-1.39,0-2.48-1-2.48-3s1.08-3.07,2.52-3.07a2.19,2.19,0,0,1,1.94,1l0.12-.86h0.67Zm-2.61,5.19c1,0,1.84-.8,1.84-2.3s-0.75-2.37-1.83-2.37-1.8.76-1.8,2.39S277.88,50.49,278.89,50.49Z"/><path class="cls-2" d="M284.31,45.29V49.1a1.23,1.23,0,0,0,1.34,1.39,1.56,1.56,0,0,0,1.56-1.69v-3.5H288V51h-0.68l-0.09-.79a2.08,2.08,0,0,1-1.8,1,1.86,1.86,0,0,1-2-2.08V45.29h0.81Z"/><path class="cls-2" d="M289.9,46.84a2.06,2.06,0,0,1,2.33-1.71,2,2,0,0,1,2.23,1.92v4h-0.67l-0.1-.87a2.27,2.27,0,0,1-2,1,1.7,1.7,0,0,1-1.95-1.63c0-1,.61-1.61,2.18-1.87l1.71-.29V47a1.24,1.24,0,0,0-1.45-1.22,1.26,1.26,0,0,0-1.44,1.06H289.9ZM293.65,48l-1.48.25c-1.2.21-1.54,0.58-1.54,1.18a1.07,1.07,0,0,0,1.29,1,1.69,1.69,0,0,0,1.74-1.54V48Z"/><path class="cls-2" d="M297.28,51h-0.81V43.1h0.81V51Z"/><path class="cls-2" d="M299.26,44.12v-1h0.94v1h-0.94Zm0.05,6.9V45.29h0.83V51h-0.83Z"/><path class="cls-2" d="M305.64,51V46h-2.35v5h-0.81V46h-0.85V45.29h0.85V44.56a1.52,1.52,0,0,1,1.76-1.6,5.55,5.55,0,0,1,1.35.2v0.7a5.18,5.18,0,0,0-1.25-.2c-0.7,0-1,.24-1,0.84v0.79h3.18V51h-0.83Z"/><path class="cls-2" d="M313.42,49.41a2.41,2.41,0,0,1-2.48,1.77c-1.58,0-2.75-1-2.75-3s1.14-3,2.67-3,2.63,1,2.63,3.21H309A1.93,1.93,0,0,0,311,50.49a1.55,1.55,0,0,0,1.56-1.08h0.88ZM309,47.68h3.61a1.76,1.76,0,0,0-1.78-1.89A1.84,1.84,0,0,0,309,47.68Z"/><path class="cls-2" d="M319.53,51l-0.14-.95a2.18,2.18,0,0,1-2,1.11c-1.39,0-2.47-1-2.47-3s1.08-3.07,2.52-3.07a2.12,2.12,0,0,1,1.9,1V43.1h0.83V51h-0.67Zm-1.94-.53c1,0,1.84-.8,1.84-2.3s-0.75-2.37-1.83-2.37-1.8.76-1.8,2.39S316.58,50.49,317.6,50.49Z"/><rect class="cls-5" x="242.7" y="42.47" width="8.48" height="8.48"/><path class="cls-2" d="M261.12,72.35V67.05H262v5.36a2.23,2.23,0,0,0,4.43,0V67.05h0.84v5.29A3.08,3.08,0,0,1,261.12,72.35Z"/><path class="cls-2" d="M269.3,75V69.25H270l0.1,0.86a2.08,2.08,0,0,1,1.82-1,1.87,1.87,0,0,1,2,2.07V75h-0.81V71.18a1.25,1.25,0,0,0-1.37-1.4,1.59,1.59,0,0,0-1.58,1.65V75H269.3Z"/><path class="cls-2" d="M275.71,70.79A2.06,2.06,0,0,1,278,69.09,2,2,0,0,1,280.27,71v4H279.6l-0.1-.87a2.27,2.27,0,0,1-2,1,1.7,1.7,0,0,1-1.95-1.63c0-1,.61-1.61,2.18-1.87l1.71-.29V71A1.24,1.24,0,0,0,278,69.74a1.26,1.26,0,0,0-1.44,1.06h-0.86ZM279.46,72l-1.49.25c-1.2.21-1.54,0.58-1.54,1.18a1.07,1.07,0,0,0,1.29,1,1.69,1.69,0,0,0,1.74-1.54V72Z"/><path class="cls-2" d="M283.91,72.28C282.67,72,282,71.53,282,70.66s0.74-1.57,2.16-1.57a2.1,2.1,0,0,1,2.29,1.63h-0.84a1.34,1.34,0,0,0-1.47-1c-0.89,0-1.3.38-1.3,0.85s0.31,0.79,1.46,1c1.41,0.29,2.18.7,2.18,1.78s-0.85,1.75-2.31,1.75-2.27-.69-2.38-1.74h0.84a1.35,1.35,0,0,0,1.55,1.08,1.22,1.22,0,0,0,1.46-1C285.68,72.74,285.08,72.51,283.91,72.28Z"/><path class="cls-2" d="M289.82,72.28c-1.24-.25-1.87-0.75-1.87-1.62s0.74-1.57,2.16-1.57a2.1,2.1,0,0,1,2.29,1.63h-0.84a1.34,1.34,0,0,0-1.47-1c-0.89,0-1.3.38-1.3,0.85s0.31,0.79,1.46,1c1.41,0.29,2.18.7,2.18,1.78s-0.85,1.75-2.31,1.75-2.27-.69-2.38-1.74h0.84a1.35,1.35,0,0,0,1.55,1.08,1.22,1.22,0,0,0,1.46-1C291.59,72.74,291,72.51,289.82,72.28Z"/><path class="cls-2" d="M294.07,68.08v-1H295v1h-0.94Zm0.06,6.9V69.25H295V75h-0.83Z"/><path class="cls-2" d="M297.78,75.44a1.41,1.41,0,0,0,1.58,1,1.52,1.52,0,0,0,1.72-1.61v-1a2.25,2.25,0,0,1-1.95.92A2.53,2.53,0,0,1,296.66,72c0-1.83,1.06-2.89,2.52-2.89a2.13,2.13,0,0,1,1.92,1l0.13-.88h0.67V74.9a2.25,2.25,0,0,1-2.52,2.22c-1.42,0-2.28-.64-2.48-1.68h0.87Zm1.53-1.34a1.81,1.81,0,0,0,1.83-2.1c0-1.47-.77-2.21-1.84-2.21s-1.79.7-1.79,2.21A1.86,1.86,0,0,0,299.31,74.1Z"/><path class="cls-2" d="M304,75V69.25h0.67l0.1,0.86a2.08,2.08,0,0,1,1.82-1,1.87,1.87,0,0,1,2,2.07V75h-0.81V71.18a1.25,1.25,0,0,0-1.38-1.4,1.59,1.59,0,0,0-1.58,1.65V75H304Z"/><path class="cls-2" d="M315.46,73.37A2.41,2.41,0,0,1,313,75.14c-1.58,0-2.75-1-2.75-3s1.14-3,2.67-3,2.63,1,2.63,3.21h-4.47A1.93,1.93,0,0,0,313,74.45a1.55,1.55,0,0,0,1.56-1.08h0.88Zm-4.37-1.73h3.61a1.76,1.76,0,0,0-1.78-1.89A1.84,1.84,0,0,0,311.09,71.64Z"/><path class="cls-2" d="M321.57,75L321.43,74a2.17,2.17,0,0,1-2,1.11c-1.39,0-2.48-1-2.48-3s1.08-3.07,2.52-3.07a2.12,2.12,0,0,1,1.9,1V67.05h0.83V75h-0.67Zm-1.94-.53c1,0,1.84-.8,1.84-2.3s-0.75-2.37-1.83-2.37-1.8.76-1.8,2.39S318.63,74.45,319.64,74.45Z"/><path class="cls-6" d="M11.67,66.36a2.65,2.65,0,0,1-2.62-2.21H9.94a1.9,1.9,0,0,0,2.13,1.51c1.33,0,2-.62,2-1.46S13.7,63,11.67,62.47C10,62.05,9.36,61.4,9.36,60.35s0.8-1.84,2.31-1.95V57.11h0.77V58.4a2.49,2.49,0,0,1,2.52,2H14.07C13.9,59.56,13.2,59.1,12,59.1s-1.78.53-1.78,1.19,0.29,1.07,2,1.5C14.3,62.28,15,63,15,64.15s-0.9,2.1-2.54,2.22v1.35H11.67V66.36Z"/><path class="cls-6" d="M19.47,66.24V59.4l-1.75,1V59.51l1.76-1h0.8v7.7H19.47Z"/><path class="cls-6" d="M28.43,59.95a1.3,1.3,0,0,0-1.34-.9c-1,0-1.88.74-2,3.31a2.26,2.26,0,0,1,2-1.14,2.36,2.36,0,0,1,2.42,2.57A2.47,2.47,0,0,1,27,66.41c-1.86,0-2.66-1.45-2.66-3.7,0-3.46,1.38-4.33,2.78-4.33a2.17,2.17,0,0,1,2.22,1.57H28.43Zm-3.2,3.77a1.8,1.8,0,0,0,1.76,2,1.91,1.91,0,0,0,0-3.81A1.69,1.69,0,0,0,25.23,63.72Z"/><path class="cls-6" d="M35.36,66.24L32.7,59.58v6.67H31.86V58.32h1.22l2.73,6.94,2.56-6.94h1.17v7.92H38.73V59.63l-2.51,6.61H35.36Z"/><path class="cls-6" d="M88.82,162.76a2.65,2.65,0,0,1-2.62-2.21h0.89a1.9,1.9,0,0,0,2.13,1.51c1.33,0,2-.62,2-1.46s-0.41-1.23-2.44-1.73c-1.69-.42-2.31-1.07-2.31-2.12s0.8-1.84,2.31-1.95v-1.29h0.77v1.29a2.49,2.49,0,0,1,2.52,2H91.22c-0.17-.82-0.87-1.29-2.06-1.29s-1.78.53-1.78,1.19,0.29,1.07,2,1.5c2,0.5,2.71,1.25,2.71,2.37s-0.9,2.1-2.54,2.22v1.35H88.82v-1.36Z"/><path class="cls-6" d="M95.69,162.64H94.76l3.36-7h-4v-0.74H99v0.74Z"/><path class="cls-6" d="M105.09,162.64L102.43,156v6.67h-0.84v-7.92h1.22l2.73,6.94,2.56-6.94h1.17v7.92h-0.81V156l-2.51,6.61h-0.86Z"/><path class="cls-6" d="M168.59,49.81A2.65,2.65,0,0,1,166,47.6h0.89A1.9,1.9,0,0,0,169,49.11c1.33,0,2-.62,2-1.46s-0.41-1.23-2.44-1.73c-1.7-.42-2.31-1.07-2.31-2.12s0.8-1.84,2.31-1.95V40.56h0.77v1.29a2.49,2.49,0,0,1,2.52,2H171c-0.17-.82-0.87-1.29-2.06-1.29s-1.78.53-1.78,1.19,0.29,1.07,2,1.5c2,0.49,2.71,1.25,2.71,2.37s-0.9,2.1-2.54,2.22v1.35h-0.77V49.81Z"/><path class="cls-6" d="M176.39,49.69V42.85l-1.75,1V43l1.76-1h0.8v7.7h-0.81Z"/><path class="cls-6" d="M181.09,47.87h0.86a1.71,1.71,0,0,0,1.8,1.3,1.82,1.82,0,0,0,1.86-2,1.71,1.71,0,0,0-1.82-1.88,2.21,2.21,0,0,0-1.72.8h-0.71L181.53,42h4.56v0.69h-3.82l-0.1,2.61a2.61,2.61,0,0,1,1.79-.65,2.39,2.39,0,0,1,2.49,2.57,2.57,2.57,0,0,1-2.72,2.64A2.53,2.53,0,0,1,181.09,47.87Z"/><path class="cls-6" d="M192.29,49.69L189.63,43v6.67h-0.84V41.77H190l2.73,6.94,2.56-6.94h1.17v7.92h-0.81V43.08l-2.51,6.61h-0.86Z"/><path class="cls-7" d="M110,27.32v26a34,34,0,0,1,13.51,64.21l13,22.53A60,60,0,0,0,110,27.32Z"/><path class="cls-8" d="M48,87.28a59.85,59.85,0,0,0,17,41.8l16.59-20.45A34,34,0,0,1,106,53.34v-26A60,60,0,0,0,48,87.28Z"/><path class="cls-9" d="M119.8,119.17a34,34,0,0,1-35.55-7.55L67.82,131.87a60.07,60.07,0,0,0,65.09,10Z"/></svg>