<svg id="Artwork" xmlns="http://www.w3.org/2000/svg" viewBox="0 0 336 186"><defs><style>.cls-1{fill:#fff;}.cls-2{fill:#59595c;}.cls-3{fill:#d85f0e;}.cls-4{fill:#2c7fb7;}.cls-5{fill:#c41b89;}.cls-6{fill:#ef3b20;}.cls-7{fill:#31a254;}.cls-8{fill:#7eb963;}.cls-9{fill:#d53927;}.cls-10{fill:#9269a5;}.cls-11{fill:#fbdf00;}.cls-12{fill:#792b8c;}.cls-13{fill:#f06522;}.cls-14{fill:#263e95;}.cls-15{fill:#0f9047;}.cls-16{fill:#e9874b;}.cls-17{fill:#616ca8;}.cls-18{fill:#c1693c;}.cls-19{fill:#646871;}</style></defs><title>cis_ready_dashboards_executive_flow</title><path class="cls-1" d="M336,182.08a3.76,3.76,0,0,1-3.56,3.92H3.56A3.76,3.76,0,0,1,0,182.08V0H336V182.08Z"/><path class="cls-2" d="M248.58,25.39c0-2.7,1.54-4.16,3.64-4.16a3.1,3.1,0,0,1,3.3,2.63h-0.87a2.26,2.26,0,0,0-2.43-1.9c-1.6,0-2.76,1.17-2.76,3.43s1.14,3.36,2.73,3.36a2.34,2.34,0,0,0,2.46-2.13h0.87a3.2,3.2,0,0,1-3.34,2.87C250,29.48,248.58,28,248.58,25.39Z"/><path class="cls-2" d="M259.65,23.43c1.54,0,2.72,1,2.72,3s-1.15,3-2.72,3-2.73-1-2.73-3S258.14,23.43,259.65,23.43Zm0,5.38c1.09,0,1.86-.8,1.86-2.35s-0.79-2.36-1.87-2.36-1.88.79-1.88,2.36S258.59,28.81,259.67,28.81Z"/><path class="cls-2" d="M264.92,29.31h-0.81V21.39h0.81v7.92Z"/><path class="cls-2" d="M267.8,29.31H267V21.39h0.81v7.92Z"/><path class="cls-2" d="M269.67,25.13A2.06,2.06,0,0,1,272,23.43a2,2,0,0,1,2.23,1.92v4h-0.67l-0.1-.87a2.27,2.27,0,0,1-2,1,1.7,1.7,0,0,1-1.95-1.63c0-1,.61-1.61,2.18-1.87l1.71-.29V25.3A1.24,1.24,0,0,0,272,24.08a1.26,1.26,0,0,0-1.44,1.06h-0.86Zm3.75,1.21-1.48.25c-1.2.21-1.54,0.58-1.54,1.18a1.07,1.07,0,0,0,1.29,1,1.69,1.69,0,0,0,1.74-1.54v-0.9Z"/><path class="cls-2" d="M276.24,29.31V21.39h0.81v3.13a2.19,2.19,0,0,1,2-1.1c1.45,0,2.46,1,2.46,3s-1.08,3.08-2.53,3.08A2.13,2.13,0,0,1,277,28.41l-0.12.9h-0.67Zm2.6-5.19c-1,0-1.84.69-1.84,2.3s0.76,2.37,1.84,2.37,1.79-.76,1.79-2.41S279.87,24.12,278.84,24.12Z"/><path class="cls-2" d="M285.61,23.43c1.54,0,2.72,1,2.72,3s-1.16,3-2.72,3-2.73-1-2.73-3S284.1,23.43,285.61,23.43Zm0,5.38c1.09,0,1.86-.8,1.86-2.35s-0.79-2.36-1.87-2.36-1.88.79-1.88,2.36S284.55,28.81,285.63,28.81Z"/><path class="cls-2" d="M290.07,29.31V23.59h0.67l0.11,1a1.61,1.61,0,0,1,1.53-1.14,2.55,2.55,0,0,1,.61.08v0.81a2.3,2.3,0,0,0-.64-0.1c-0.78,0-1.46.68-1.46,2.09v3h-0.81Z"/><path class="cls-2" d="M294.14,25.13a2.06,2.06,0,0,1,2.33-1.71,2,2,0,0,1,2.23,1.92v4H298l-0.1-.87a2.27,2.27,0,0,1-2,1A1.7,1.7,0,0,1,294,27.85c0-1,.61-1.61,2.18-1.87l1.71-.29V25.3a1.24,1.24,0,0,0-1.45-1.22A1.26,1.26,0,0,0,295,25.13h-0.86Zm3.75,1.21-1.49.25c-1.2.21-1.54,0.58-1.54,1.18a1.07,1.07,0,0,0,1.29,1,1.69,1.69,0,0,0,1.74-1.54v-0.9Z"/><path class="cls-2" d="M301.75,24.3V28a0.63,0.63,0,0,0,.68.71,2.42,2.42,0,0,0,.67-0.09v0.69a2.69,2.69,0,0,1-.76.11A1.3,1.3,0,0,1,300.94,28V24.3H300.1V23.59h0.84L301,22.22h0.76v1.38H303V24.3h-1.29Z"/><path class="cls-2" d="M304.49,22.42v-1h0.93v1h-0.93Zm0.06,6.9V23.59h0.82v5.72h-0.82Z"/><path class="cls-2" d="M309.8,23.43c1.54,0,2.72,1,2.72,3s-1.15,3-2.72,3-2.73-1-2.73-3S308.28,23.43,309.8,23.43Zm0,5.38c1.09,0,1.86-.8,1.86-2.35s-0.79-2.36-1.87-2.36-1.88.79-1.88,2.36S308.74,28.81,309.81,28.81Z"/><path class="cls-2" d="M314.26,29.31V23.59h0.67l0.1,0.86a2.08,2.08,0,0,1,1.81-1,1.87,1.87,0,0,1,2,2.07v3.82H318V25.52a1.25,1.25,0,0,0-1.38-1.4,1.59,1.59,0,0,0-1.58,1.65v3.54h-0.81Z"/><rect class="cls-3" x="232" y="21" width="8" height="8"/><path class="cls-2" d="M253.4,72.54h-3.63v2.93h3.95V76.2h-4.81V68.28h4.81V69h-3.95v2.79h3.63v0.73Z"/><path class="cls-2" d="M255.55,76.2V70.48h0.67l0.1,0.86a2.08,2.08,0,0,1,1.82-1,1.87,1.87,0,0,1,2,2.07V76.2h-0.81V72.4a1.25,1.25,0,0,0-1.37-1.4,1.59,1.59,0,0,0-1.58,1.65V76.2h-0.81Z"/><path class="cls-2" d="M263.2,71.18v3.75a0.63,0.63,0,0,0,.68.71,2.42,2.42,0,0,0,.67-0.09v0.69a2.69,2.69,0,0,1-.76.11,1.3,1.3,0,0,1-1.41-1.45V71.18h-0.84V70.48h0.84l0.06-1.37h0.76v1.38h1.29v0.71H263.2Z"/><path class="cls-2" d="M270.86,74.59a2.41,2.41,0,0,1-2.47,1.77c-1.58,0-2.75-1-2.75-3s1.14-3,2.67-3,2.63,1,2.63,3.21h-4.47a1.93,1.93,0,0,0,1.95,2.15A1.55,1.55,0,0,0,270,74.59h0.88Zm-4.37-1.73h3.61A1.76,1.76,0,0,0,268.32,71,1.84,1.84,0,0,0,266.5,72.87Z"/><path class="cls-2" d="M272.73,76.2V70.48h0.67l0.11,1A1.61,1.61,0,0,1,275,70.31a2.53,2.53,0,0,1,.61.08v0.81a2.29,2.29,0,0,0-.64-0.1c-0.78,0-1.46.68-1.46,2.09v3h-0.81Z"/><path class="cls-2" d="M277.67,70.48l0.12,0.91a2.26,2.26,0,0,1,2-1.08c1.45,0,2.46,1,2.46,3s-1.09,3.08-2.54,3.08a2.09,2.09,0,0,1-1.89-1v2.86H277v-7.7h0.67ZM279.6,71c-1,0-1.84.69-1.84,2.3s0.76,2.37,1.83,2.37,1.8-.76,1.8-2.41S280.63,71,279.6,71Z"/><path class="cls-2" d="M284,76.2V70.48h0.67l0.11,1a1.61,1.61,0,0,1,1.53-1.14,2.55,2.55,0,0,1,.61.08v0.81a2.3,2.3,0,0,0-.64-0.1c-0.78,0-1.46.68-1.46,2.09v3H284Z"/><path class="cls-2" d="M288.15,69.3v-1h0.94v1h-0.94Zm0.06,6.9V70.48H289V76.2h-0.83Z"/><path class="cls-2" d="M292.71,73.5c-1.24-.25-1.87-0.75-1.87-1.62s0.74-1.57,2.16-1.57a2.1,2.1,0,0,1,2.29,1.63h-0.84A1.34,1.34,0,0,0,293,71c-0.89,0-1.3.38-1.3,0.85s0.31,0.79,1.46,1c1.41,0.29,2.18.7,2.18,1.78s-0.85,1.75-2.31,1.75-2.27-.69-2.38-1.74h0.84A1.35,1.35,0,0,0,293,75.71a1.22,1.22,0,0,0,1.46-1C294.48,74,293.88,73.74,292.71,73.5Z"/><path class="cls-2" d="M301.95,74.59a2.41,2.41,0,0,1-2.47,1.77c-1.58,0-2.75-1-2.75-3s1.14-3,2.67-3,2.63,1,2.63,3.21h-4.47a1.93,1.93,0,0,0,1.95,2.15,1.55,1.55,0,0,0,1.56-1.08h0.88Zm-4.37-1.73h3.61A1.76,1.76,0,0,0,299.41,71,1.84,1.84,0,0,0,297.58,72.87Z"/><rect class="cls-4" x="232" y="68" width="8" height="8"/><path class="cls-2" d="M253.77,120.9c0-.85-0.43-1.26-2.57-1.79-1.81-.45-2.43-1.11-2.43-2.21s1-2,2.78-2c1.63,0,2.84.77,3.07,2.06h-0.89c-0.17-.84-0.94-1.33-2.17-1.33s-1.93.53-1.93,1.22,0.35,1.12,2.17,1.57c2.16,0.55,2.84,1.21,2.84,2.44s-1.09,2.29-3,2.29a2.9,2.9,0,0,1-3.15-2.29h0.89a2,2,0,0,0,2.24,1.56C253,122.43,253.77,121.78,253.77,120.9Z"/><path class="cls-2" d="M261.33,121.39a2.41,2.41,0,0,1-2.47,1.77c-1.58,0-2.75-1-2.75-3s1.14-3,2.67-3,2.63,1,2.63,3.21h-4.47a1.93,1.93,0,0,0,1.95,2.14,1.55,1.55,0,0,0,1.56-1.08h0.88ZM257,119.66h3.61a1.76,1.76,0,0,0-1.78-1.89A1.85,1.85,0,0,0,257,119.66Z"/><path class="cls-2" d="M267.92,121.23a2.32,2.32,0,0,1-2.43,1.92c-1.47,0-2.62-1-2.62-3s1.1-3.07,2.62-3.07a2.24,2.24,0,0,1,2.4,1.8H267a1.38,1.38,0,0,0-1.47-1.11c-1,0-1.78.76-1.78,2.41s0.8,2.25,1.78,2.25a1.45,1.45,0,0,0,1.53-1.23h0.88Z"/><path class="cls-2" d="M270.41,117.27v3.81a1.23,1.23,0,0,0,1.34,1.38,1.56,1.56,0,0,0,1.56-1.69v-3.5h0.83V123h-0.68l-0.09-.79a2.07,2.07,0,0,1-1.8,1,1.86,1.86,0,0,1-2-2.08v-3.81h0.81Z"/><path class="cls-2" d="M276.2,123v-5.72h0.67l0.11,1a1.61,1.61,0,0,1,1.53-1.14,2.52,2.52,0,0,1,.61.08V118a2.26,2.26,0,0,0-.64-0.1c-0.78,0-1.46.68-1.46,2.09v3H276.2Z"/><path class="cls-2" d="M280.38,116.1v-1h0.93v1h-0.93Zm0.06,6.9v-5.72h0.82V123h-0.82Z"/><path class="cls-2" d="M284.34,118v3.75a0.62,0.62,0,0,0,.68.71,2.43,2.43,0,0,0,.67-0.09V123a2.73,2.73,0,0,1-.76.11,1.3,1.3,0,0,1-1.41-1.45V118h-0.84v-0.7h0.84l0.05-1.38h0.76v1.38h1.29V118h-1.29Z"/><path class="cls-2" d="M289.75,123.06c-0.5,1.41-.8,2.08-1.74,2.08a2.41,2.41,0,0,1-.64-0.1v-0.67a2.21,2.21,0,0,0,.56.09c0.5,0,.66-0.38,1-1.46h-0.29l-2.18-5.72h0.88l1.83,5.07,1.73-5.07h0.83Z"/><path class="cls-2" d="M236.41,145l-2.66-6.67V145h-0.84v-7.92h1.22l2.73,6.94,2.56-6.94h1.17V145h-0.81v-6.61L237.27,145h-0.86Z"/><path class="cls-2" d="M245.11,139.11c1.54,0,2.72,1,2.72,3s-1.15,3-2.72,3-2.73-1-2.73-3S243.59,139.11,245.11,139.11Zm0,5.38c1.09,0,1.86-.8,1.86-2.36s-0.79-2.35-1.87-2.35-1.88.79-1.88,2.35S244,144.49,245.12,144.49Z"/><path class="cls-2" d="M249.56,145v-5.72h0.67l0.11,1a1.61,1.61,0,0,1,1.53-1.14,2.52,2.52,0,0,1,.6.08V140a2.26,2.26,0,0,0-.64-0.1c-0.78,0-1.46.68-1.46,2.09v3h-0.81Z"/><path class="cls-2" d="M258.62,143.39a2.41,2.41,0,0,1-2.47,1.77c-1.58,0-2.75-1-2.75-3s1.14-3,2.67-3,2.63,1,2.63,3.21h-4.47a1.93,1.93,0,0,0,1.95,2.14,1.55,1.55,0,0,0,1.56-1.08h0.88Zm-4.37-1.73h3.61a1.76,1.76,0,0,0-1.78-1.89A1.85,1.85,0,0,0,254.25,141.66Z"/><rect class="cls-5" x="232" y="114" width="8" height="8"/><path class="cls-2" d="M248.58,48.83c0-2.7,1.54-4.16,3.64-4.16a3.1,3.1,0,0,1,3.3,2.63h-0.87a2.26,2.26,0,0,0-2.43-1.9c-1.6,0-2.76,1.17-2.76,3.43s1.14,3.36,2.73,3.36a2.34,2.34,0,0,0,2.46-2.13h0.87a3.2,3.2,0,0,1-3.34,2.87C250,52.92,248.58,51.39,248.58,48.83Z"/><path class="cls-2" d="M259.66,46.87c1.54,0,2.72,1,2.72,3s-1.15,3-2.72,3-2.73-1-2.73-3S258.14,46.87,259.66,46.87Zm0,5.38c1.09,0,1.86-.8,1.86-2.35s-0.79-2.36-1.87-2.36-1.88.79-1.88,2.36S258.59,52.25,259.67,52.25Z"/><path class="cls-2" d="M264.11,52.76V47h0.67l0.09,0.78a1.94,1.94,0,0,1,1.73-.95,1.71,1.71,0,0,1,1.69,1,2,2,0,0,1,1.86-1,1.78,1.78,0,0,1,1.89,2v3.88h-0.83V48.94A1.15,1.15,0,0,0,270,47.57a1.57,1.57,0,0,0-1.51,1.67v3.52h-0.81V48.94a1.15,1.15,0,0,0-1.23-1.38,1.56,1.56,0,0,0-1.51,1.66v3.53h-0.81Z"/><path class="cls-2" d="M274.71,47L274.84,48a2.26,2.26,0,0,1,2-1.08c1.45,0,2.46,1,2.46,3s-1.09,3.08-2.54,3.08a2.09,2.09,0,0,1-1.89-1v2.86H274V47h0.67Zm1.93,0.53c-1,0-1.84.69-1.84,2.3s0.76,2.37,1.83,2.37,1.8-.76,1.8-2.41S277.67,47.57,276.64,47.57Z"/><path class="cls-2" d="M281.78,47v3.81a1.23,1.23,0,0,0,1.34,1.39,1.56,1.56,0,0,0,1.56-1.69V47h0.82v5.72h-0.68L284.74,52a2.07,2.07,0,0,1-1.8,1,1.86,1.86,0,0,1-2-2.08V47h0.81Z"/><path class="cls-2" d="M288.61,47.74v3.75a0.63,0.63,0,0,0,.68.71,2.42,2.42,0,0,0,.67-0.09v0.69a2.69,2.69,0,0,1-.76.11,1.3,1.3,0,0,1-1.41-1.45V47.74H287V47h0.84l0.06-1.37h0.76V47h1.29v0.71h-1.29Z"/><path class="cls-2" d="M291.35,45.86v-1h0.93v1h-0.93Zm0.06,6.9V47h0.82v5.72H291.4Z"/><path class="cls-2" d="M294.26,52.76V47h0.67L295,47.9a2.08,2.08,0,0,1,1.82-1,1.87,1.87,0,0,1,2,2.07v3.82H298V49a1.25,1.25,0,0,0-1.37-1.4,1.59,1.59,0,0,0-1.58,1.65v3.54h-0.81Z"/><path class="cls-2" d="M301.65,53.22a1.41,1.41,0,0,0,1.58,1A1.52,1.52,0,0,0,305,52.65v-1a2.25,2.25,0,0,1-1.95.92,2.53,2.53,0,0,1-2.48-2.81c0-1.83,1.06-2.89,2.52-2.89a2.13,2.13,0,0,1,1.93,1l0.13-.88h0.67v5.64a2.25,2.25,0,0,1-2.52,2.22c-1.42,0-2.28-.64-2.47-1.68h0.87Zm1.53-1.34a1.81,1.81,0,0,0,1.83-2.1c0-1.47-.77-2.21-1.84-2.21s-1.79.7-1.79,2.21A1.86,1.86,0,0,0,303.18,51.88Z"/><rect class="cls-6" x="232" y="44" width="8" height="9"/><path class="cls-2" d="M252.41,99.64L249.75,93v6.67h-0.84V91.72h1.22l2.73,6.94,2.56-6.94h1.17v7.92h-0.81V93l-2.51,6.61h-0.86Z"/><path class="cls-2" d="M261.11,93.76c1.54,0,2.72,1,2.72,3s-1.16,3-2.72,3-2.73-1-2.73-3S259.59,93.76,261.11,93.76Zm0,5.38c1.09,0,1.86-.8,1.86-2.35s-0.79-2.36-1.87-2.36-1.88.79-1.88,2.36S260,99.14,261.12,99.14Z"/><path class="cls-2" d="M265.56,99.64V91.72h0.81v3.13a2.19,2.19,0,0,1,2-1.1c1.45,0,2.46,1,2.46,3s-1.08,3.08-2.53,3.08a2.13,2.13,0,0,1-1.93-1.07l-0.12.9h-0.67Zm2.6-5.19c-1,0-1.84.69-1.84,2.3s0.76,2.37,1.84,2.37,1.79-.76,1.79-2.41S269.19,94.45,268.16,94.45Z"/><path class="cls-2" d="M272.45,92.75v-1h0.93v1h-0.93Zm0.05,6.9V93.92h0.83v5.72H272.5Z"/><path class="cls-2" d="M276.18,99.64h-0.81V91.72h0.81v7.92Z"/><path class="cls-2" d="M278.16,92.75v-1h0.93v1h-0.93Zm0.05,6.9V93.92H279v5.72h-0.83Z"/><path class="cls-2" d="M282.12,94.63v3.75a0.63,0.63,0,0,0,.68.71,2.42,2.42,0,0,0,.67-0.09V99.7a2.69,2.69,0,0,1-.76.11,1.3,1.3,0,0,1-1.41-1.45V94.63h-0.84V93.92h0.84l0.06-1.37h0.76v1.38h1.29v0.71h-1.29Z"/><path class="cls-2" d="M287.53,99.71c-0.49,1.41-.8,2.08-1.74,2.08a2.36,2.36,0,0,1-.64-0.1V101a2.17,2.17,0,0,0,.56.09c0.49,0,.66-0.39,1-1.46h-0.29l-2.18-5.72h0.88L287,99l1.73-5.07h0.82Z"/><rect class="cls-7" x="232" y="91" width="8" height="9"/><path class="cls-8" d="M108.69,50.69l0.53,0,1.23,0.09,0.6,0.06L112,51l0.2,0,0.57,0.09,0.69,0.12,0.55,0.1,0.3,0.06,0.62,0.14,0.85,0.2h0l0.78,0.21,0.92,0.26h0L118,52.36l1,0.33,0.09,0,0.55,0.21,0.66,0.26,0.54,0.22,0.25,0.11,1,0.47,0.21,0.1c0.41,0.19.82,0.4,1.22,0.61l0.39,0.21c0.34,0.18.67,0.37,1,.57l0.61,0.37,0.59,0.37c0.4,0.26.8,0.52,1.18,0.8h0l0.54,0.38L128,57.43c0.42,0.31.84,0.63,1.25,1l0.08,0.07c0.3,0.24.59,0.5,0.88,0.75h0l0.12,0.1c0.39,0.35.78,0.7,1.15,1.06h0l0.23,0.21,0.46,0.48c0.27,0.28.55,0.55,0.81,0.84l0.13,0.15q0.89,1,1.71,2h0l0,0.05c0.5,0.64,1,1.3,1.44,2,0.13,0.2.25,0.4,0.38,0.6,0.29,0.45.57,0.9,0.84,1.37l0.35,0.61c0.25,0.46.49,0.93,0.72,1.4l23.18-10.32c-0.14-.3-0.28-0.61-0.43-0.92l-0.1-.21,0,0-0.1-.19c-0.25-.5-0.5-1-0.77-1.5h0c-0.18-.34-0.38-0.66-0.57-1s-0.5-.9-0.76-1.34l0,0-0.07-.12-0.15-.25-0.31-.51-0.34-.54L158,52.9l-0.14-.21-0.17-.25q-0.45-.68-0.92-1.35l-0.24-.35,0,0v0L156,50.05l-0.74-1-0.12-.15-0.22-.28-0.39-.48c-0.27-.34-0.53-0.69-0.81-1l0,0L153,46.28l-0.42-.48-0.19-.21-0.17-.18-0.43-.46-0.6-.65-0.57-.62,0,0,0,0c-0.3-.31-0.6-0.6-0.9-0.9l-0.21-.21-0.06-.06-0.41-.4-0.26-.25L147.9,41l-0.62-.57-0.08-.07L147,40.26h0l-0.56-.47c-0.41-.35-0.81-0.71-1.23-1h0q-1.85-1.5-3.8-2.84v0l-0.35-.25-0.17-.11-0.66-.44-0.68-.44-0.17-.1c-0.45-.29-0.92-0.55-1.37-0.82l-0.36-.22h0q-2-1.2-4.18-2.24h0l-0.38-.19L133,31l-0.72-.33L132,30.57a59.67,59.67,0,0,0-6.24-2.4l-0.91-.27c-0.63-.19-1.26-0.39-1.91-0.56A59.89,59.89,0,0,0,116.63,26h0l-0.63-.1-1-.14h0l-0.46,0-1.25-.13-1.57-.13-1.19-.08-0.28,0h0l-1.73-.06V50.68h0.26Z"/><path class="cls-9" d="M142.18,87c0,0.17,0,.34,0,0.5v0c0,0.35,0,.7-0.08,1s0,0.46-.07.69h0q-0.06.54-.13,1.07c0,0.24-.07.48-0.11,0.72s-0.09.54-.14,0.8-0.14.72-.21,1.08l0,0.12-0.11.48q-0.11.45-.23,0.9l-0.13.47-0.1.35c-0.08.27-.16,0.53-0.24,0.8l0,0.07-0.08.26-0.13.4c-0.11.32-.22,0.64-0.34,1l0,0.08-0.11.3,23.37,9.92,0.17-.44,0.34-.88,0.18-.48c0.12-.32.23-0.64,0.34-1l0.14-.42c0.12-.34.23-0.69,0.34-1l0.11-.35c0.11-.37.23-0.73,0.33-1.1l0.09-.31c0.11-.38.22-0.77,0.32-1.16l0.07-.27,0.09-.35v0l0-.12c0.06-.23.12-0.45,0.17-0.68l0.06-.26,0-.13,0.05-.24,0.1-.47,0.09-.38v0h0l0.1-.51,0.12-.64,0.05-.26v-0.1l0.08-.43,0-.26c0-.19.07-0.37,0.1-0.56l0-.16h0v-0.1l0.05-.37v0l0-.23,0.1-.68,0-.18v0l0-.13s0,0,0,0,0-.13,0-0.19h0c0-.37.09-0.74,0.13-1.11l0-.28,0-.26V91.34l0-.26c0-.22,0-0.44.06-0.66l0-.26c0-.25,0-0.51.05-0.77V89.24c0-.1,0-0.21,0-0.31s0-.18,0-0.27V88.52c0-.1,0-0.19,0-0.29v-0.1h0c0-.23,0-0.47,0-0.7s0-.22,0-0.33c0-.35,0-0.69,0-1,0-.05,0-0.11,0-0.16h0s0-.07,0-0.11c0-.21,0-0.43,0-0.64s0-.68,0-1c0,0,0,0,0,0s0-.13,0-0.19,0-.33,0-0.49h0c0-.35,0-0.7,0-1s0-.67-0.06-1-0.05-.68-0.08-1-0.08-.83-0.13-1.24v0h0c0-.09,0-0.18,0-0.28,0-.32-0.07-0.65-0.12-1s-0.09-.69-0.14-1-0.11-.71-0.17-1.06-0.07-.5-0.12-0.75c0,0,0,0,0,0-0.07-.37-0.14-0.73-0.21-1.09,0-.19-0.07-0.38-0.11-0.57s-0.08-.37-0.12-0.56l-0.25-1.1v0c-0.11-.48-0.24-1-0.36-1.44h0l0-.06-0.08-.31-0.17-.62,0-.09v0l-0.06-.2q-0.15-.5-0.3-1l-0.16-.49,0-.14v0l0-.08-0.09-.27c-0.08-.24-0.15-0.48-0.23-0.72v0c-0.08-.23-0.16-0.45-0.24-0.68h0L163.95,65v0c-0.06-.18-0.13-0.36-0.2-0.55s-0.13-.36-0.2-0.53l-0.41-1,0,0,0,0-0.1-.24-23.2,10.33L140,73.51c0.13,0.33.24,0.67,0.36,1l0.19,0.59c0.13,0.4.25,0.81,0.36,1.21l0,0.15h0c0.13,0.48.25,1,.36,1.44l0,0.19c0,0.14.06,0.29,0.09,0.42,0.1,0.45.18,0.9,0.26,1.35,0,0.07,0,.15,0,0.23,0.08,0.5.15,1,.21,1.5V81.7c0,0.4.08,0.8,0.11,1.21,0,0.16,0,.31,0,0.47,0,0.34,0,.68,0,1s0,0.52,0,.79,0,0.39,0,.58,0,0.19,0,.28C142.2,86.39,142.19,86.72,142.18,87Z"/><path class="cls-10" d="M72.51,81.93c0-.06,0-0.12,0-0.18v-0.1c0-.35.09-0.69,0.14-1s0.08-.5.12-0.75,0.09-.53.14-0.8l0-.21,0.1-.51c0.06-.27.12-0.54,0.19-0.81s0.1-.44.16-0.66l0-.13,0.09-.31c0.09-.34.19-0.67,0.29-1s0.15-.49.23-0.73,0.21-.61.31-0.91l0.2-.54L74.68,73h0c0.29-.76.61-1.51,1-2.25l0.24-.51,0-.06,0.29-.57c0.1-.19.19-0.38,0.29-0.56s0.31-.56.47-0.84L55.69,54.35,55.31,55c-0.26.44-.53,0.87-0.78,1.32h0l-0.18.35-0.28.5-0.14.28c-0.32.62-.65,1.24-0.95,1.87l-0.12.25L52.64,60h0L52.2,61,52,61.49c-0.1.24-.19,0.48-0.29,0.71s-0.24.55-.35,0.83-0.21.54-.31,0.81l-0.23.61-0.09.22h0c-0.07.18-.12,0.36-0.18,0.54l-0.09.25h0l-0.29.85q-0.29.86-.55,1.73l-0.21.69c-0.12.42-.23,0.85-0.35,1.27h0c-0.06.21-.11,0.42-0.16,0.63l-0.16.62c0,0.19-.1.37-0.14,0.56s-0.12.57-.18,0.85l-0.06.27c0,0.15-.07.29-0.1,0.43s0,0.21-.06.31l0,0.22v0.07l0,0.17,0,0.21v0.13l0,0.13-0.11.62v0.06c0,0.15-.06.3-0.08,0.46-0.07.43-.14,0.85-0.2,1.28l0,0.19,0,0.17v0.1l0,0.24v0.09l0,0.31c0,0.18,0,.36-0.05.54-0.06.51-.11,1-0.16,1.53Z"/><path class="cls-11" d="M72.33,87s0,0,0,0c0-.4,0-0.8,0-1.2v0c0-.09,0-0.19,0-0.29s0-.34,0-0.52L47,83.15c0,0.14,0,.28,0,0.42s0,0.1,0,.15c0,0.38,0,.76,0,1.13s0,0.87,0,1.3v0.19c0,0.06,0,.11,0,0.17v0.17c0,0.19,0,.38,0,0.57,0,0.4,0,.8.06,1.2h0c0,0.27,0,.54.06,0.8,0,0.1,0,.2,0,0.3l25.27-2.21C72.35,87.24,72.34,87.11,72.33,87Z"/><path class="cls-12" d="M74.75,98.42l-0.14-.36c-0.11-.29-0.22-0.59-0.32-0.88L74,96.48C74,96.24,73.89,96,73.81,95.75s-0.16-.54-0.23-0.82v0l0-.1c-0.08-.3-0.17-0.61-0.24-0.92s-0.15-.63-0.21-1S73,92.51,73,92.29s-0.12-.65-0.17-1-0.08-.51-0.12-0.76l0-.21L47.35,92.56c0,0.11,0,.22,0,0.34h0q0.29,2.35.76,4.69h0c0.08,0.41.19,0.82,0.28,1.24,0,0.19.07,0.38,0.12,0.56l0.05,0.25s0,0.07,0,.11l0.08,0.31v0.06l0.05,0.21,0.09,0.36c0.07,0.29.16,0.57,0.24,0.86s0.19,0.68.28,1l0.05,0.19L49.5,103l0.11,0.36L49.82,104c0.11,0.35.23,0.7,0.35,1l0.22,0.65L50.51,106l0.19,0.52v0c0.14,0.39.3,0.77,0.45,1.15,0.05,0.14.1,0.27,0.15,0.41l0.09,0.24,0,0.11,0.11,0.26,0,0.08v0L74.79,98.51Z"/><path class="cls-13" d="M112.53,145.68l1.09-.11,0.53-.05h0.07l0.2,0,1.11-.16,0.36-.05-4.41-25-0.9.11h0c-1.1.1-2.2,0.16-3.32,0.16-0.51,0-1,0-1.51,0s-1,0-1.46-.08h0a35.34,35.34,0,0,1-4.31-.66l-0.75-.16-0.77-.2-0.78-.22-7.85,24.16,0.11,0c1.47,0.44,3,.81,4.44,1.13L95,144.64,96.65,145l0.65,0.12h0c1.34,0.22,2.68.42,4,.55h0l0.65,0.05h0l0.61,0,0.73,0.06v0q0.85,0.06,1.69.09h1.4a59.5,59.5,0,0,0,6.09-.22h0Z"/><path class="cls-14" d="M94.22,118h0c-0.91-.37-1.8-0.77-2.68-1.21l-0.69-.36a35.36,35.36,0,0,1-3.52-2.14h0L87,114.09h0c-0.22-.15-0.43-0.31-0.65-0.47a35.43,35.43,0,0,1-2.73-2.27h0c-0.31-.28-0.62-0.56-0.92-0.85l-1.87,1.75-16.7,15.57,0.11,0.11,0.43,0.43c0.55,0.55,1.11,1.09,1.68,1.61L66.44,130c0.42,0.38.84,0.75,1.27,1.12v0c1.2,1,2.43,2,3.7,3h0l0.23,0.16c0.49,0.36,1,.69,1.48,1s0.84,0.58,1.27.86l0.24,0.16L75,136.56c0.55,0.35,1.11.69,1.68,1l0.53,0.31,0.89,0.51,1,0.55,0.3,0.15,1,0.5L81,139.9l0.37,0.18,0.58,0.26,0.77,0.37,0.38,0.17,0.79,0.33,0.35,0.15,0.89,0.37,1.31,0.5,0.55,0.2,7.85-24.16Z"/><path class="cls-15" d="M121.62,144.18l1.14-.3,0.39-.1,0.08,0h0l0.43-.12,0.5-.14,1.4-.43,0.06,0,0.16-.05,0.09,0h0l0.15-.05,1.12-.38,0.79-.28c0.76-.28,1.51-0.57,2.26-0.87l0.13-.06,1-.41,0.57-.25h0l0.07,0,0.79-.36h0l0.15-.07,1.34-.64h0l0.67-.36,0,0,0.59-.3,0.74-.4,0.12-.07,0.37-.2,0.34-.19,0.94-.56,0.08,0,0.25-.14,0.12-.07,0.13-.08,0.23-.14,0.9-.56,0.87-.57c0.55-.37,1.1-0.74,1.63-1.13l0.43-.31c0.42-.3.82-0.63,1.23-0.94l0.48-.35,0.3-.24,0,0,0.85-.7,0.1-.08,0,0,0.16-.14,0.38-.31,0.8-.69,0.78-.69q0.74-.68,1.44-1.36l0.38-.37,0.19-.2,0.16-.16h0c1-1,1.94-2,2.85-3.1l0.52-.59h0l0.13-.16v0l0.12-.15,0,0,0.17-.22,0.77-1h0c0.22-.29.46-0.57,0.67-0.85l0.33-.44,0.35-.46h0q0.74-1,1.45-2.07h0l0.4-.61,0.35-.54c0.06-.08.1-0.16,0.15-0.24l0.42-.7h0l0.11-.18,0,0,0,0,0.14-.22,0.52-.89,0.25-.43,0.47-.85,0.26-.49L161,113l0.28-.56,0.36-.75L162,111l0.08-.18-23.38-9.92-0.08.17-0.27.54c-0.18.35-.37,0.7-0.57,1l-0.26.46-0.28.47c-0.24.41-.49,0.8-0.75,1.2l-0.08.13c-0.29.43-.59,0.86-0.9,1.28l0,0.07c-0.31.42-.64,0.84-1,1.25l-0.07.08c-0.25.3-.51,0.6-0.76,0.9l-0.38.44c-0.21.24-.44,0.47-0.66,0.7l-0.39.41-0.17.18-0.62.61-0.29.28-0.45.41-0.48.42-0.26.23-0.74.61-0.11.09-0.44.35-1,.72-0.62.44-0.61.4-0.73.47-0.92.55-0.47.27c-0.42.23-.84,0.46-1.27,0.67h0l-0.61.3-0.73.34-0.11,0h0c-0.71.32-1.42,0.62-2.14,0.88l-0.8.28-0.46.16-0.07,0h0l-0.65.21-0.33.1h0l-1,.27-0.23.06c-0.5.13-1,.24-1.51,0.35l4.4,25c0.92-.18,1.85-0.38,2.76-0.61h0Z"/><path class="cls-16" d="M84.27,29.84l-0.72.29-0.37.16c-0.59.26-1.19,0.53-1.77,0.81l-0.9.44-0.68.35-0.19.1-0.14.08h0l-0.78.42,0,0h0l-0.2.11-0.61.33-0.42.24-0.5.3-0.34.19-0.39.22h0l-0.1.06-0.2.12-0.06,0h0l-0.72.45L75,34.65l0,0c-0.49.31-1,.63-1.44,0.95l-0.42.29-1.28.9-0.13.1h0L71,37.43l0,0h0l-0.9.71h0l-0.17.13-0.23.18L69,38.93l-0.35.28h0l-0.08.07-0.06.05-0.2.18-0.27.24c-0.49.42-1,.84-1.46,1.28h0q-1.76,1.6-3.38,3.33h0l-0.15.16-0.61.67-0.23.25-0.27.3L61.8,46l-0.13.16c-0.23.27-.45,0.54-0.67,0.81-0.48.57-1,1.14-1.41,1.72h0l-0.11.13-0.08.1L59,49.41l-0.18.26-0.67.94-0.38.53-0.17.23-0.16.23-0.15.21L78.58,65.64l0.06-.09L79,65l0.21-.29,0.33-.43,0.47-.6,0.13-.16c0.21-.25.42-0.5,0.63-0.75L81,62.55l0-.05q0.52-.6,1.08-1.17L82.48,61c0.25-.25.5-0.5,0.76-0.73l0.57-.53,0.68-.59c0.44-.38.89-0.75,1.35-1.11h0l0.13-.1,0.5-.38c0.34-.26.7-0.51,1-0.75l0.13-.09,1-.64,0.15-.09h0c0.49-.31,1-0.61,1.5-0.89h0l0.42-.23,0.48-.25,1-.48,0.79-.37,0.66-.29,0.53-.22-8.27-24-0.13,0C85.23,29.44,84.75,29.64,84.27,29.84Z"/><path class="cls-17" d="M104.85,25.31l-0.85.06-1.31.09-1.55.13H101c-1.75.18-3.51,0.44-5.26,0.78h0l-0.27.06-0.39.09c-0.94.19-1.87,0.4-2.8,0.64h0l-0.39.1-1.32.38L89,28.11l-0.31.1,8.26,24,0.91-.27,0.08,0,0.41-.11,0.89-.22,0.52-.12,0.19,0,0.2,0h0c0.46-.09.91-0.18,1.36-0.25l0.22,0c0.5-.08,1-0.15,1.5-0.21h0.11c0.5-.06,1-0.1,1.49-0.14H105l0.4,0h0V25.3l-0.58,0v0Z"/><path class="cls-18" d="M80.68,108.28l-0.15-.18-0.43-.52-0.1-.12h0c-0.3-.38-0.61-0.75-0.9-1.14v0c-0.3-.4-0.58-0.81-0.85-1.22l-0.18-.28c-0.22-.33-0.43-0.67-0.63-1l-0.35-.58-0.18-.32h0c-0.19-.33-0.36-0.65-0.54-1l-0.21-.42L76,101.25,52.82,111.58,53,111.9l0.31,0.6c0.21,0.42.43,0.84,0.65,1.26l0.34,0.65,0.27,0.48v0l0.34,0.58,0.43,0.74v0l0.36,0.61L55.76,117l0,0.08h0l0.13,0.2,0.23,0.38,0.43,0.68c0.26,0.4.52,0.8,0.79,1.2s0.63,0.91,1,1.36l0.36,0.49c0.46,0.63.93,1.24,1.42,1.85l0.07,0.09c0.35,0.44.72,0.87,1.08,1.3h0L61.62,125l0.48,0.55,13-12.08Z"/><path class="cls-19" d="M176.37,84.41a2.65,2.65,0,0,1-2.62-2.21h0.89a1.9,1.9,0,0,0,2.13,1.51c1.33,0,2-.62,2-1.46s-0.41-1.23-2.44-1.73c-1.69-.42-2.31-1.07-2.31-2.12s0.8-1.84,2.31-1.95V75.15h0.77v1.29a2.49,2.49,0,0,1,2.52,2h-0.89c-0.17-.83-0.87-1.29-2.06-1.29s-1.78.53-1.78,1.19,0.29,1.07,2,1.5c2,0.5,2.71,1.25,2.71,2.37s-0.9,2.1-2.54,2.22v1.35h-0.77V84.41Z"/><path class="cls-19" d="M184.17,84.29V77.44l-1.75,1V77.55l1.76-1H185v7.7h-0.81Z"/><path class="cls-19" d="M188.87,80.42c0-2.83,1.18-4,2.7-4s2.7,1.18,2.7,4-1.17,4-2.7,4S188.87,83.21,188.87,80.42Zm4.55,0c0-2.27-.66-3.31-1.86-3.31s-1.86,1-1.86,3.31,0.66,3.33,1.86,3.33S193.43,82.7,193.43,80.42Z"/><path class="cls-19" d="M200.06,84.29l-2.66-6.67v6.67h-0.84V76.36h1.22l2.73,6.94,2.56-6.94h1.17v7.92h-0.81V77.67l-2.51,6.61h-0.86Z"/><path class="cls-19" d="M154,143.55a2.65,2.65,0,0,1-2.62-2.21h0.89a1.9,1.9,0,0,0,2.13,1.51c1.33,0,2-.62,2-1.46s-0.41-1.23-2.44-1.73c-1.69-.42-2.31-1.07-2.31-2.12s0.8-1.84,2.31-1.95V134.3h0.77v1.29a2.49,2.49,0,0,1,2.52,2h-0.89c-0.17-.83-0.87-1.29-2.06-1.29s-1.78.53-1.78,1.19,0.29,1.07,2,1.5c2,0.5,2.71,1.25,2.71,2.37s-0.9,2.1-2.54,2.22v1.35H154v-1.36Z"/><path class="cls-19" d="M160.21,142a1.34,1.34,0,0,0,1.4.91c1.09,0,1.87-.8,2-3.31a2.22,2.22,0,0,1-2,1.14,2.35,2.35,0,0,1-2.42-2.57,2.47,2.47,0,0,1,2.51-2.62c1.86,0,2.68,1.4,2.68,3.7,0,3.33-1.26,4.33-2.8,4.33a2.21,2.21,0,0,1-2.26-1.58h0.89Zm3.26-3.76a1.8,1.8,0,0,0-1.76-2A1.91,1.91,0,1,0,163.47,138.25Z"/><path class="cls-19" d="M170.23,143.43l-2.66-6.67v6.67h-0.84v-7.92H168l2.73,6.94,2.56-6.94h1.17v7.92H173.6v-6.61l-2.51,6.61h-0.86Z"/><path class="cls-19" d="M93.87,162.93a2.65,2.65,0,0,1-2.62-2.21h0.89a1.9,1.9,0,0,0,2.13,1.51c1.33,0,2-.62,2-1.46s-0.41-1.23-2.44-1.73c-1.69-.42-2.31-1.07-2.31-2.12s0.8-1.84,2.31-1.95v-1.29h0.77V155a2.49,2.49,0,0,1,2.52,2H96.26c-0.17-.83-0.87-1.29-2.06-1.29s-1.78.53-1.78,1.19,0.29,1.07,2,1.5c2,0.5,2.71,1.25,2.71,2.37s-0.9,2.1-2.54,2.22v1.35H93.87v-1.36Z"/><path class="cls-19" d="M103.21,156.52a1.3,1.3,0,0,0-1.34-.9c-1,0-1.88.74-2,3.31a2.26,2.26,0,0,1,2-1.14,2.36,2.36,0,0,1,2.42,2.57,2.47,2.47,0,0,1-2.53,2.62c-1.86,0-2.66-1.45-2.66-3.7,0-3.46,1.37-4.33,2.78-4.33a2.17,2.17,0,0,1,2.22,1.57h-0.89Zm-3.2,3.77a1.8,1.8,0,0,0,1.76,2,1.91,1.91,0,0,0,0-3.81A1.69,1.69,0,0,0,100,160.29Z"/><path class="cls-19" d="M110.13,162.81l-2.66-6.67v6.67h-0.84v-7.92h1.22l2.73,6.94,2.56-6.94h1.17v7.92H113.5V156.2L111,162.81h-0.86Z"/><path class="cls-19" d="M50,151.18A2.65,2.65,0,0,1,47.37,149h0.89a1.9,1.9,0,0,0,2.13,1.51c1.33,0,2-.62,2-1.46S52,147.78,50,147.28c-1.69-.42-2.31-1.07-2.31-2.12s0.8-1.84,2.31-1.95v-1.29h0.77v1.29a2.49,2.49,0,0,1,2.52,2H52.39c-0.17-.83-0.87-1.29-2.06-1.29s-1.78.53-1.78,1.19,0.29,1.07,2,1.5c2,0.5,2.71,1.25,2.71,2.37s-0.9,2.1-2.54,2.22v1.35H50v-1.36Z"/><path class="cls-19" d="M55.06,149.23h0.86a1.71,1.71,0,0,0,1.8,1.3,1.82,1.82,0,0,0,1.86-2,1.71,1.71,0,0,0-1.82-1.88,2.21,2.21,0,0,0-1.72.8H55.33l0.17-4.11h4.57V144H56.25l-0.1,2.61a2.61,2.61,0,0,1,1.79-.65,2.39,2.39,0,0,1,2.49,2.57,2.57,2.57,0,0,1-2.72,2.64A2.53,2.53,0,0,1,55.06,149.23Z"/><path class="cls-19" d="M66.26,151.06l-2.66-6.67v6.67H62.76v-7.92H64l2.73,6.94,2.56-6.94h1.17v7.92H69.62v-6.61l-2.51,6.61H66.26Z"/><path class="cls-19" d="M28.46,131.25A2.65,2.65,0,0,1,25.85,129h0.89a1.9,1.9,0,0,0,2.13,1.51c1.33,0,2-.62,2-1.46s-0.41-1.23-2.44-1.73c-1.69-.42-2.31-1.07-2.31-2.12s0.8-1.84,2.31-1.95V122h0.77v1.29a2.49,2.49,0,0,1,2.52,2H30.86C30.7,124.45,30,124,28.81,124s-1.78.53-1.78,1.19,0.29,1.07,2,1.5c2,0.5,2.71,1.25,2.71,2.37s-0.9,2.1-2.54,2.22v1.35H28.46v-1.36Z"/><path class="cls-19" d="M37.8,123.43V129H39v0.7H37.8v1.45H37v-1.45H33.55V128.9l3.39-5.47H37.8ZM37,129v-4.24L34.44,129H37Z"/><path class="cls-19" d="M44.73,131.13l-2.66-6.67v6.67H41.24v-7.92h1.22l2.73,6.94,2.56-6.94h1.17v7.92H48.1v-6.61l-2.51,6.61H44.73Z"/><path class="cls-19" d="M18.71,109.56a2.65,2.65,0,0,1-2.62-2.21H17a1.9,1.9,0,0,0,2.13,1.51c1.33,0,2-.62,2-1.46s-0.41-1.23-2.44-1.73c-1.69-.42-2.31-1.07-2.31-2.12s0.8-1.84,2.31-1.95v-1.29h0.77v1.29a2.49,2.49,0,0,1,2.52,2H21.11c-0.17-.83-0.87-1.29-2.06-1.29s-1.78.53-1.78,1.19,0.29,1.07,2,1.5c2,0.5,2.71,1.25,2.71,2.37s-0.9,2.1-2.54,2.22v1.35H18.71v-1.36Z"/><path class="cls-19" d="M23.74,107.62h0.87a1.65,1.65,0,0,0,1.82,1.3,1.61,1.61,0,0,0,1.84-1.58,1.52,1.52,0,0,0-1.66-1.58H25.89V105h0.68a1.36,1.36,0,0,0,1.45-1.4,1.43,1.43,0,0,0-1.63-1.36,1.59,1.59,0,0,0-1.74,1.24H23.8a2.43,2.43,0,0,1,2.64-1.94c1.3,0,2.42.68,2.42,2a1.81,1.81,0,0,1-1.42,1.78,1.93,1.93,0,0,1,1.66,2c0,1.35-1.07,2.26-2.66,2.26A2.45,2.45,0,0,1,23.74,107.62Z"/><path class="cls-19" d="M35,109.44l-2.66-6.67v6.67H31.49v-7.92h1.22l2.73,6.94L38,101.52h1.17v7.92H38.35v-6.61l-2.51,6.61H35Z"/><path class="cls-19" d="M12.22,90.46A2.65,2.65,0,0,1,9.6,88.25h0.89a1.9,1.9,0,0,0,2.13,1.51c1.33,0,2-.62,2-1.46s-0.41-1.23-2.44-1.73c-1.69-.42-2.31-1.07-2.31-2.12s0.8-1.84,2.31-1.95V81.21H13v1.29a2.49,2.49,0,0,1,2.52,2H14.62c-0.17-.83-0.87-1.29-2.06-1.29s-1.78.53-1.78,1.19,0.29,1.07,2,1.5c2,0.5,2.71,1.25,2.71,2.37s-0.9,2.1-2.54,2.22v1.35H12.22V90.46Z"/><path class="cls-19" d="M20,90.34V83.49l-1.75,1V83.6l1.76-1h0.8v7.7H20Z"/><path class="cls-19" d="M28.49,90.34l-2.66-6.67v6.67H25V82.42h1.22l2.73,6.94,2.56-6.94h1.17v7.92H31.86V83.72l-2.51,6.61H28.49Z"/><path class="cls-19" d="M23.24,65.67a2.65,2.65,0,0,1-2.62-2.21h0.89A1.9,1.9,0,0,0,23.64,65c1.33,0,2-.62,2-1.46s-0.41-1.23-2.44-1.73c-1.69-.42-2.31-1.07-2.31-2.12s0.8-1.84,2.31-1.95V56.42H24v1.29a2.49,2.49,0,0,1,2.52,2H25.63c-0.17-.83-0.87-1.29-2.06-1.29s-1.78.53-1.78,1.19,0.29,1.07,2,1.5c2,0.5,2.71,1.25,2.71,2.37s-0.9,2.1-2.54,2.22V67H23.24V65.67Z"/><path class="cls-19" d="M30.1,65.55H29.18l3.36-7h-4V57.85H33.4v0.74Z"/><path class="cls-19" d="M39.5,65.55l-2.66-6.67v6.67H36V57.63h1.22L40,64.57l2.56-6.94h1.17v7.92H42.87V58.94l-2.51,6.61H39.5Z"/><path class="cls-19" d="M47.18,34.68a2.65,2.65,0,0,1-2.62-2.21h0.89A1.9,1.9,0,0,0,47.59,34c1.33,0,2-.62,2-1.46s-0.41-1.23-2.44-1.73c-1.69-.42-2.31-1.07-2.31-2.12s0.8-1.84,2.31-1.95V25.43H48v1.29a2.49,2.49,0,0,1,2.52,2H49.58c-0.17-.83-0.87-1.29-2.06-1.29s-1.78.53-1.78,1.19,0.29,1.07,2,1.5c2,0.5,2.71,1.25,2.71,2.37s-0.9,2.1-2.54,2.22V36H47.18V34.68Z"/><path class="cls-19" d="M56,30.46a2.29,2.29,0,0,1,1.73,2.07c0,1.26-1.09,2.2-2.76,2.2s-2.76-.92-2.76-2.13a2.16,2.16,0,0,1,1.65-2.08,1.93,1.93,0,0,1-1.36-1.8c0-1.38,1.19-2,2.48-2s2.47,0.58,2.47,1.95A2,2,0,0,1,56,30.46Zm-1.21.32a1.91,1.91,0,0,0-1.72,1.75,1.94,1.94,0,0,0,3.78,0C56.85,31.28,55.72,31,54.78,30.78Zm0.3-.54a1.78,1.78,0,0,0,1.54-1.57,1.71,1.71,0,0,0-3.33,0C53.29,29.83,54.33,30.12,55.08,30.24Z"/><path class="cls-19" d="M63.45,34.56l-2.66-6.67v6.67H60V26.64h1.22l2.73,6.94,2.56-6.94h1.17v7.92H66.82V27.95l-2.51,6.61H63.45Z"/><path class="cls-19" d="M87,16.13a2.65,2.65,0,0,1-2.62-2.21H85.3a1.9,1.9,0,0,0,2.13,1.51c1.33,0,2-.62,2-1.46S89.07,12.73,87,12.23c-1.69-.42-2.31-1.07-2.31-2.12S85.52,8.27,87,8.16V6.88H87.8V8.16a2.49,2.49,0,0,1,2.52,2H89.43c-0.17-.83-0.87-1.29-2.06-1.29s-1.78.53-1.78,1.19,0.29,1.07,2,1.5c2,0.5,2.71,1.25,2.71,2.37s-0.9,2.1-2.54,2.22v1.35H87V16.13Z"/><path class="cls-19" d="M92.22,10.24a2.47,2.47,0,0,1,2.62-2.1,2.2,2.2,0,0,1,2.42,2.15c0,1-.46,1.69-1.73,2.93l-2.08,2h3.78V16H92.35V15.25l2.7-2.66c1-.93,1.38-1.5,1.38-2.29a1.43,1.43,0,0,0-1.61-1.46,1.61,1.61,0,0,0-1.73,1.41H92.22Z"/><path class="cls-19" d="M103.3,16l-2.66-6.67V16H99.8V8.09H101L103.75,15l2.56-6.94h1.17V16h-0.81V9.4L104.16,16H103.3Z"/><path class="cls-19" d="M145.38,30.77a2.65,2.65,0,0,1-2.62-2.21h0.89a1.9,1.9,0,0,0,2.13,1.51c1.33,0,2-.62,2-1.46s-0.41-1.23-2.44-1.73c-1.69-.42-2.31-1.07-2.31-2.12s0.8-1.84,2.31-1.95V21.52h0.77v1.29a2.49,2.49,0,0,1,2.52,2h-0.89c-0.17-.83-0.87-1.29-2.06-1.29s-1.78.53-1.78,1.19,0.29,1.07,2,1.5c2,0.5,2.71,1.25,2.71,2.37s-0.9,2.1-2.54,2.22v1.35h-0.77V30.77Z"/><path class="cls-19" d="M153.18,30.65V23.81l-1.75,1V23.92l1.76-1H154v7.7h-0.81Z"/><path class="cls-19" d="M160.6,30.65V23.81l-1.75,1V23.92l1.76-1h0.8v7.7H160.6Z"/><path class="cls-19" d="M169.07,30.65L166.41,24v6.67h-0.84V22.73h1.22l2.73,6.94,2.56-6.94h1.17v7.92h-0.81V24l-2.51,6.61h-0.86Z"/></svg>