<svg xmlns="http://www.w3.org/2000/svg" viewBox="0 0 16 16"><defs><style>.cls-1{fill:#ccc;}.cls-2{fill:#999;}</style></defs><title>Asset 5</title><g id="Layer_2" data-name="Layer 2"><g id="Body_Content" data-name="Body Content"><rect class="cls-1" x="0.5" y="0.5" width="15" height="15" rx="3.5" ry="3.5"/><path class="cls-2" d="M12,1a3,3,0,0,1,3,3v8a3,3,0,0,1-3,3H4a3,3,0,0,1-3-3V4A3,3,0,0,1,4,1h8m0-1H4A4,4,0,0,0,0,4v8a4,4,0,0,0,4,4h8a4,4,0,0,0,4-4V4a4,4,0,0,0-4-4Z"/><polygon class="cls-2" points="6.61 12.13 2.86 8.37 4.27 6.96 6.61 9.3 11.73 4.19 13.14 5.6 6.61 12.13"/></g></g></svg>