<?xml version="1.0" encoding="utf-8"?>
<!-- Generator: Adobe Illustrator 22.0.0, SVG Export Plug-In . SVG Version: 6.00 Build 0)  -->
<svg version="1.1" id="Body_Content" xmlns="http://www.w3.org/2000/svg" xmlns:xlink="http://www.w3.org/1999/xlink" x="0px"
	 y="0px" viewBox="0 0 18 18" style="enable-background:new 0 0 18 18;" xml:space="preserve">
<style type="text/css">
	.st0{fill:#00BCEB;}
	.st1{fill:#FFFFFF;}
</style>
<symbol  id="actions_2">
</symbol>
<title>cis-ready-style-guide-web-3.0</title>
<use xlink:href="#actions_2"  width="-32766" height="-32766" id="actions_2-3" x="16383" y="16383" transform="matrix(0 0 0 0 -6696 -23858)" style="overflow:visible;"/>
<use xlink:href="#actions_2"  width="-32766" height="-32766" id="left_panel_3-3" x="16383" y="16383" transform="matrix(0 0 0 0 -12419 -14269)" style="overflow:visible;enable-background:new    ;"/>
<rect class="st0" width="18" height="18"/>
<g id="_Group_">
	<path id="_Compound_Path_2" class="st1" d="M14.5,2.9l0.2,0.5c-1.5,1.2-2.9,2.7-4,4.3C9.4,9.4,8.3,11.1,7.3,13c0,0-0.6,1.1-1.2,1.1
		s-0.9-0.9-1-1.2l-0.2-0.5c-0.2-0.6-0.6-1.2-1-1.7c-0.2-0.4-0.6-0.6-1-0.7C3.4,9.1,4,8.9,4.7,8.7c0.5,0,1,0.6,1.5,1.8l0.2,0.6
		c1-1.7,2.2-3.3,3.7-4.7C11.3,5,12.9,3.9,14.5,2.9z"/>
</g>
</svg>
