<svg id="Layer_1" data-name="Layer 1" xmlns="http://www.w3.org/2000/svg" viewBox="0 0 88.65 102.89"><defs><style>.cls-1{fill:#ededed;}.cls-2{fill:#3bbcf9;}.cls-3{fill:#e3a116;}.cls-4{fill:#78bf1f;}.cls-5{fill:#fff;}.cls-6{fill:#95da40;}.cls-7{fill:#f9b526;}.cls-8{fill:#caff8a;}.cls-9{fill:#ffcf69;}.cls-10{fill:#93dbfd;}.cls-11{fill:#14a6eb;}</style></defs><title>Cisco-Salesconnect</title><path class="cls-1" d="M43.31,24.47V25Q43.32,24.74,43.31,24.47Zm-9.88-9.8v-1c0-3.1,2.51-4.32,5.61-4.32H50.23c3.1,0,5.61,1.22,5.61,4.32v1h5.24l.55-.87v-3.3a8.27,8.27,0,0,0-8.27-8.27h-18a8.27,8.27,0,0,0-8.27,8.27V13.8l.55.86Zm55.1,48.57.11-36.81A9.66,9.66,0,0,0,79,16.76H48.76v7.71c0,2.74-1.28,4.79-5.44,5.45q-.59.09-1.14.21a5.2,5.2,0,0,0,1.13-3.53V25a7.76,7.76,0,0,1-.07.9,11.77,11.77,0,0,0,.07-1.44V16.76H9.77A9.66,9.66,0,0,0,.11,26.42L0,63.23c0,.12,0,.24,0,.36V66a9.66,9.66,0,0,0,9.66,9.66H38.44V72.14c0-4.06,1.88-5.82,5.9-6a6.94,6.94,0,0,0-.62,3.21v6.36H79v0A9.65,9.65,0,0,0,88.53,66v-2.5h0C88.53,63.42,88.53,63.32,88.53,63.23ZM30,38.81h0v-.21c0-.15,0-.3,0-.45,0,.19,0,.38,0,.57,0,0,0,.06,0,.09Zm21,24.77a8.25,8.25,0,0,0,2.37-5.77c0-.44.12-1.92,0-2.83v0a8.35,8.35,0,0,0-8.34-8.31s-3.67.1-7.7-.17h-.64l-.1,0h-.08l-.1,0-.09,0-.1,0-.09,0-.09,0-.09,0-.09,0-.09,0-.09,0-.08,0-.09,0-.08,0,0,0a8.27,8.27,0,0,1-5.39-6.83c0-5.3,4-7.18,8-7.49a6.38,6.38,0,0,0-2.71,4.79c0,.27,0,.31,0,.35a4,4,0,0,0-.1,1c0,5.45,2.62,8.3,8.3,8.3h6.45a8.8,8.8,0,0,1,8.71,8.68h0s0,0,0,0A8.85,8.85,0,0,1,51.06,63.58Z"/><path class="cls-2" d="M39.3,100.91v1.77l.13,0a11,11,0,0,0,1.23.16,7.45,7.45,0,0,0,1.08,0,4.54,4.54,0,0,0,1-.19,2.82,2.82,0,0,0,1.06-.56,2.13,2.13,0,0,0,.61-.88,2.42,2.42,0,0,0,0-1.77,2,2,0,0,0-.55-.76,2.28,2.28,0,0,0-.81-.47l-1.33-.49a.71.71,0,0,1-.36-.35.45.45,0,0,1,0-.4.53.53,0,0,1,.09-.12l.14-.11.06,0a1.41,1.41,0,0,1,.47-.14,2.77,2.77,0,0,1,.85,0,7.24,7.24,0,0,1,1,.18l.07,0V95.16l-.13,0a8.67,8.67,0,0,0-1-.18,5.14,5.14,0,0,0-1.32,0,2.85,2.85,0,0,0-1.52.61,2,2,0,0,0-.65.89,2.45,2.45,0,0,0,0,1.66,1.87,1.87,0,0,0,.47.7,2.68,2.68,0,0,0,.6.44,4.16,4.16,0,0,0,.92.36l.31.1.16.06,0,0a1.17,1.17,0,0,1,.42.26.74.74,0,0,1,.19.28.61.61,0,0,1,0,.3.63.63,0,0,1-.31.37,1.51,1.51,0,0,1-.51.16,3.66,3.66,0,0,1-.79,0,9,9,0,0,1-1-.14l-.53-.12-.07,0"/><path class="cls-2" d="M32.05,102.61v-2.05l0,0a3.79,3.79,0,0,1-1.48.38,2.18,2.18,0,0,1-1.49-.44,1.91,1.91,0,0,1-.65-.92,2.21,2.21,0,0,1,0-1.23A1.88,1.88,0,0,1,29,97.31a2,2,0,0,1,1-.45,3.42,3.42,0,0,1,2,.37l0,0V95.19l-.09,0a5.26,5.26,0,0,0-1.87-.24,4.32,4.32,0,0,0-1.67.38,3.81,3.81,0,0,0-1.37,1.06,4.11,4.11,0,0,0-.08,5,3.92,3.92,0,0,0,2.17,1.4,5.09,5.09,0,0,0,2.75-.1l.15,0"/><polyline class="cls-2" points="36.67 102.75 36.67 95.05 34.73 95.05 34.73 102.75 36.67 102.75"/><path class="cls-2" d="M22.2,88.86a1,1,0,0,0,1.92,0V86.73a1,1,0,0,0-1.92,0v2.13"/><path class="cls-2" d="M27.51,88.86a1,1,0,0,0,1.92,0V84.08a1,1,0,0,0-1.92,0v4.78"/><path class="cls-2" d="M32.79,90.79a1,1,0,0,0,1.92,0V80.45a1,1,0,0,0-1.92,0V90.79"/><path class="cls-2" d="M38.11,88.86a1,1,0,0,0,1.92,0V84.08a1,1,0,0,0-1.92,0v4.78"/><path class="cls-2" d="M43.4,88.86a1,1,0,0,0,1.92,0V86.73a1,1,0,0,0-1.92,0v2.13"/><path class="cls-2" d="M48.7,88.86a1,1,0,0,0,1.92,0V84.08a1,1,0,0,0-1.92,0v4.78"/><path class="cls-2" d="M54,90.79a1,1,0,0,0,1.92,0V80.45a1,1,0,0,0-1.92,0V90.79"/><path class="cls-2" d="M59.3,88.86a1,1,0,0,0,1.92,0V84.08a1,1,0,0,0-1.92,0v4.78"/><path class="cls-2" d="M64.59,88.86a1,1,0,0,0,1.92,0V86.73a1,1,0,0,0-1.92,0v2.13"/><path class="cls-2" d="M52.33,102.61v-2.05l0,0a3.79,3.79,0,0,1-1.48.38,2.18,2.18,0,0,1-1.49-.44,1.91,1.91,0,0,1-.65-.92,2.21,2.21,0,0,1,0-1.23,1.88,1.88,0,0,1,.66-1.05,2,2,0,0,1,1-.45,3.42,3.42,0,0,1,2,.37l0,0V95.19l-.09,0a5.26,5.26,0,0,0-1.87-.24,4.32,4.32,0,0,0-1.67.38,3.82,3.82,0,0,0-1.37,1.06,4.11,4.11,0,0,0-.07,5,3.92,3.92,0,0,0,2.17,1.4,5.09,5.09,0,0,0,2.75-.1l.15,0"/><path class="cls-2" d="M54.38,98.9a4.05,4.05,0,0,0,4.92,3.89,4,4,0,0,0,1.3-7.27,4.08,4.08,0,0,0-6.22,3.38m2.82-1.58a2,2,0,1,1-.75,1.36,2,2,0,0,1,.75-1.36"/><path class="cls-3" d="M38.25,29.52c4-.26,5.06-2.6,5.06-5.14V22.25c.05,2.58-.59,4.54-4.63,4.74A8.89,8.89,0,0,0,30,35.7a8.73,8.73,0,0,0,.13,1.42C30.1,31.68,34.11,29.8,38.25,29.52ZM53.43,52.42c0,4.7-3.25,8.59-8.3,8.59-4.57,0-6.69,1.72-6.69,6v2.88c0-4.32,2.13-6,6.69-6a8.37,8.37,0,0,0,8.3-8.3A21.71,21.71,0,0,0,53.43,52.42Z"/><path class="cls-4" d="M58.78,52.67a21.53,21.53,0,0,0,.05-2.31,9,9,0,0,0-8.76-9H43.62c-4.92,0-8.2-2.54-8.2-6.65a4,4,0,0,0-.1,1c0,5.45,2.62,8.3,8.3,8.3h6.45A8.8,8.8,0,0,1,58.78,52.67Z"/><path class="cls-5" d="M45.13,44.41s-3.67.1-7.7-.17A8.19,8.19,0,0,1,30,36.14c0,.14,0,.27,0,.41a8.23,8.23,0,0,0,7.46,8.54c4,.27,7.7.17,7.7.17a8.31,8.31,0,0,1,8.29,7.87q0-.21,0-.43A8.31,8.31,0,0,0,45.13,44.41Z"/><path class="cls-6" d="M79,14.55H48.76v7.71c0,3.13-1.31,4.86-5.47,5.51-5.09.8-7.33,2.91-7.77,6.62,0,.27-.11.24-.1.28,0,4.12,3.28,6.65,8.2,6.65h6.45a9,9,0,0,1,8.76,9,21.91,21.91,0,0,1-.05,2.3s0,0,0,0a8.83,8.83,0,0,1-8.71,8.71c-5.59,0-6.35,2.88-6.35,5.69v3.57H79v0A9.65,9.65,0,0,0,88.53,61l.11-36.81A9.66,9.66,0,0,0,79,14.55Z"/><path class="cls-7" d="M45.13,44.41s-3.67.1-7.7-.17A8.23,8.23,0,0,1,30,35.7c0-4.88,3.92-8.3,8.79-8.69,4.3-.34,4.55-2.22,4.55-4.76V14.54H9.77A9.66,9.66,0,0,0,.11,24.2L0,61a9.66,9.66,0,0,0,9.66,9.66H38.44V67c0-4.32,2.26-5.74,6.82-5.92,5.24-.2,8.17-3.84,8.17-8.42A8.31,8.31,0,0,0,45.13,44.41Z"/><path class="cls-4" d="M88.52,61.3A9.65,9.65,0,0,1,79,70.66v0H43.72v2.79H79v0a9.65,9.65,0,0,0,9.49-9.65V61.3Z"/><path class="cls-3" d="M10.48,70.67H9.66A9.65,9.65,0,0,1,0,61.31V63.8a9.66,9.66,0,0,0,9.66,9.66H38.44V70.68h-28Z"/><path class="cls-8" d="M79,15.4A9.65,9.65,0,0,1,88.64,25V24.2A9.66,9.66,0,0,0,79,14.55H48.76v.86H79Z"/><path class="cls-9" d="M10.48,14.54H9.77A9.66,9.66,0,0,0,.11,24.2v.72h0A9.65,9.65,0,0,1,9.77,15.4H43.31v-.86Z"/><path class="cls-2" d="M53.36,0h-18a8.27,8.27,0,0,0-8.27,8.27v3.3H32V10.46C32,7,34.7,5.51,38.07,5.51H51.25c3.37,0,6.1,1.5,6.1,4.94v1.12h4.27V8.27A8.27,8.27,0,0,0,53.36,0Z"/><path class="cls-10" d="M53.36,0h-18a8.27,8.27,0,0,0-8.27,8.27V9.42a8.27,8.27,0,0,1,8.27-8.27h18A8,8,0,0,1,61.63,9.1V8.27A8.27,8.27,0,0,0,53.36,0Z"/><path class="cls-8" d="M48.78,23.08l0-.84c0,2.74-1.25,4.77-5.41,5.43-5.46.86-7.78,3.3-7.92,7.11,0,0,0,.14,0,.2.5-3.61,2.88-5.66,7.89-6.46C47.5,27.87,48.78,25.82,48.78,23.08ZM58.85,51.67a7.55,7.55,0,0,1-.05,1s0,0,0,0a8.83,8.83,0,0,1-8.71,8.71c-5.59,0-6.35,2.88-6.35,5.69v.86c0-2.81.75-5.69,6.35-5.69a8.83,8.83,0,0,0,8.71-8.71s0,0,0,0A15,15,0,0,0,58.85,51.67Z"/><path class="cls-9" d="M45.17,44.42s-3.67.1-7.7-.17A8.19,8.19,0,0,1,30,36.16c0,.14,0,.27,0,.41a8.23,8.23,0,0,0,7.46,8.54c4,.27,7.7.17,7.7.17a8.31,8.31,0,0,1,8.29,7.87q0-.21,0-.43A8.31,8.31,0,0,0,45.17,44.42Z"/><path class="cls-11" d="M57.36,11.57V10.46c0-3.44-2.73-4.94-6.1-4.94H38.07C34.7,5.51,32,7,32,10.46v1.12H27.09l.55.86h5.79v-1c0-3.1,2.51-4.32,5.61-4.32H50.23c3.1,0,5.61,1.22,5.61,4.32v1h5.24l.55-.87Z"/></svg>