<svg id="Layer_1" data-name="Layer 1" xmlns="http://www.w3.org/2000/svg" viewBox="0 0 148 82"><defs><style>.cls-1{fill:#ccc;}.cls-2{fill:#c82439;}</style></defs><title>Artwork21_44504992-39de-46c6-ac54-94aaf36443cc</title><rect class="cls-1" x="1" y="80" width="147" height="2"/><path class="cls-1" d="M121,62V80h2V62ZM117,0H30a6,6,0,0,0-6,6V80h2V6a4,4,0,0,1,4-4h87a4,4,0,0,1,4,4V38h0a5,5,0,0,1,2,.41V6A6,6,0,0,0,117,0Z"/><polygon class="cls-1" points="92.69 53.97 92.38 56.15 80.47 44.11 68.99 56.09 57 44.11 45.95 56.16 35.5 44.22 26 55.98 26 52.8 35.44 41.11 45.99 53.16 56.94 41.22 68.96 53.23 80.47 41.22 92.69 53.97"/><polygon class="cls-1" points="102.44 41.11 109.99 49.73 108.85 51.48 102.5 44.22 92.38 56.15 92 54 102.44 41.11"/><rect class="cls-1" x="54" y="12" width="67" height="2"/><rect class="cls-1" x="30" y="11" width="4" height="3"/><rect class="cls-1" x="38" y="11" width="4" height="3"/><rect class="cls-1" x="46" y="11" width="4" height="3"/><path class="cls-2" d="M130.32,56.15l-9-13.75a1,1,0,0,0-.81-.4,1.27,1.27,0,0,0-1,.54l-8.84,13.55c-.41.61.1,1.91.93,1.91H129.4A1.28,1.28,0,0,0,130.32,56.15ZM122,56h-2V54h2Zm0-3h-2V48h2Z"/></svg>