<?xml version="1.0" encoding="utf-8"?>
<!-- Generator: Adobe Illustrator 21.1.0, SVG Export Plug-In . SVG Version: 6.00 Build 0)  -->
<svg version="1.1" id="Layer_1" xmlns="http://www.w3.org/2000/svg" xmlns:xlink="http://www.w3.org/1999/xlink" x="0px" y="0px"
	 viewBox="0 0 85 83" style="enable-background:new 0 0 85 83;" xml:space="preserve">
<style type="text/css">
	.st0{fill:none;stroke:#BBBAC0;stroke-width:2;stroke-miterlimit:10;}
	.st1{fill:#EEEFF2;}
	.st2{fill:#EEEFF2;stroke:#BBBAC0;stroke-width:2;stroke-miterlimit:10;}
	.st3{fill:#BBBAC0;}
	.st4{fill:#999999;}
</style>
<g>
	<path class="st0" d="M13.1,46.1c0,0-15.8-4-9.5-21.7c0,0,2.3-10.5,19.5-9c0,0,3.5-6.8,12-3.5c0,0,3.5-11.2,18-10.5
		c0,0,15.5,0,16.5,18.5c0,0,13.5,0.5,12.8,16.5c0,0-3.2,10-12.2,9.8S13.1,46.1,13.1,46.1z"/>
	<rect x="70" y="44" class="st1" width="3" height="7"/>
	<path class="st2" d="M65,75H19c-2.2,0-4-1.8-4-4V43c0-2.2,1.8-4,4-4h46c2.2,0,4,1.8,4,4v28C69,73.2,67.2,75,65,75z"/>
	<line class="st0" x1="31" y1="82" x2="53" y2="82"/>
	<line class="st0" x1="42" y1="75" x2="42" y2="82"/>
	<g>
		<path class="st3" d="M40,59v-9c0-1.1,0.9-2,2-2h0c1.1,0,2,0.9,2,2v9c0,1.1-0.9,2-2,2h0C40.9,61,40,60.1,40,59z"/>
		<circle class="st3" cx="42" cy="65" r="2"/>
	</g>
	<rect x="11" y="44" class="st1" width="3" height="7"/>
</g>
</svg>
