<svg id="Layer_1" data-name="Layer 1" xmlns="http://www.w3.org/2000/svg" viewBox="0 0 14 68"><defs><style>.cls-1{fill:#6d6d70;}</style></defs><title>Untitled-4</title><path class="cls-1" d="M6.92.08C6.94,0,6.73,0,6.69,0,6.74.16,7,.08,6.92.08Z"/><polygon class="cls-1" points="7.38 1.67 7.29 1.64 7.5 1.88 7.38 1.67"/><path class="cls-1" d="M7.35,3.16c.36-.14-.05-.54.08-.8l.08,0-.29-.12C7.27,2.51,7.46,2.93,7.35,3.16Z"/><path class="cls-1" d="M6.57,3.94c.14,0,.12.17,0-.18l0,0A.74.74,0,0,1,6.57,3.94Z"/><path class="cls-1" d="M6.58,3.79c0-.16-.12.1,0,0Z"/><path class="cls-1" d="M6.65,4.51,6.53,4.3c-.08,0-.1.23-.16.16C6.44,4.67,6.52,4.63,6.65,4.51Z"/><path class="cls-1" d="M6.91,4.71,6.86,4.6S6.81,4.65,6.91,4.71Z"/><path class="cls-1" d="M6.75,4.37l.11.23c.06,0,.17,0,0-.1C6.93,4.52,6.83,4.47,6.75,4.37Z"/><path class="cls-1" d="M6.81,4.24c.08-.11.13-.26.25-.06C7,3.8,6.76,3.85,6.81,4.24Z"/><path class="cls-1" d="M7.72,3.24l.11-.15-.12-.13C7.77,3,7.61,3.24,7.72,3.24Z"/><path class="cls-1" d="M6.45,5.79c.08,0,.2-.07.3-.08l-.09-.15C6.62,5.63,6.57,5.78,6.45,5.79Z"/><path class="cls-1" d="M6.75,5.71l.13.23C6.9,5.73,6.84,5.7,6.75,5.71Z"/><polygon class="cls-1" points="7.31 4.75 7.04 4.37 7.31 4.82 7.31 4.75"/><polygon class="cls-1" points="6.43 6.66 6.26 6.53 6.52 6.76 6.43 6.66"/><path class="cls-1" d="M6.46,7.23c-.14-.1-.25.13-.34,0a.88.88,0,0,0,.26.41A.41.41,0,0,1,6.46,7.23Z"/><path class="cls-1" d="M6.54,7.88a1.16,1.16,0,0,0-.16-.2A.6.6,0,0,0,6.54,7.88Z"/><path class="cls-1" d="M6.84,6.32a.33.33,0,0,0-.22.18l.21-.09Z"/><path class="cls-1" d="M6.84,6.41h0c0,.1,0,.16,0,.19Z"/><path class="cls-1" d="M6.84,6.3v0S6.87,6.31,6.84,6.3Z"/><path class="cls-1" d="M7.11,5.34c.12.14.24.42.43.15C7.39,5.39,7.28,5.55,7.11,5.34Z"/><path class="cls-1" d="M7.11,6.19,7.16,6C7.1,6,7,6,7,5.93Z"/><polygon class="cls-1" points="7.18 6.31 7.11 6.19 7.09 6.28 7.18 6.31"/><path class="cls-1" d="M6.75,7.47a.56.56,0,0,1,.11.35,1.43,1.43,0,0,0,.07-.42C6.86,7.38,6.74,7.32,6.75,7.47Z"/><path class="cls-1" d="M6.81,7V7S6.85,7,6.81,7Z"/><path class="cls-1" d="M6.84,9.08l0,0h0Z"/><path class="cls-1" d="M7,7.38c0-.1,0-.17-.07-.23a1,1,0,0,1,0,.25S7,7.41,7,7.38Z"/><path class="cls-1" d="M6.64,8.23a1.12,1.12,0,0,0,.12-.18C6.69,8.11,6.58,8.21,6.64,8.23Z"/><path class="cls-1" d="M6.76,7V7S6.73,7,6.76,7Z"/><path class="cls-1" d="M6.76,7a.62.62,0,0,0,.13.14A.64.64,0,0,0,6.82,7Z"/><path class="cls-1" d="M8.21,9.49A.31.31,0,0,1,8,9c-.15-.23-.8-.09-1.17.11.09,0,.17,0,.28.25.11-.08.26-.53.44-.32s-.07.26-.18.41c.25-.13.35.41.72.34L8,9.47C8.07,9.46,8.16,9.56,8.21,9.49Z"/><path class="cls-1" d="M6.91,8.61l0-.1a.85.85,0,0,1-.27.34c.09.16.17.2.23.21l0-.48Z"/><path class="cls-1" d="M6.89,8.07c.21.08.3.32.54.17,0-.29-.18-.2-.27-.38,0,.47-.12-.14-.24.2a.93.93,0,0,1-.05-.25,1.45,1.45,0,0,1-.1.24h0s0,0,0,0h0l.08,0c0,.13-.06,0-.08,0h0l.11.47A1.16,1.16,0,0,0,6.89,8.07Z"/><path class="cls-1" d="M8,5.74H7.95S8,5.8,8,5.74Z"/><path class="cls-1" d="M7.86,5.93s-.12-.06-.09-.17.1,0,.17,0-.15-.23-.26,0l0,0c-.08.19-.35.42-.38.39A1.66,1.66,0,0,0,7.86,5.93Z"/><path class="cls-1" d="M7.43,7l.1.39.19-.2H7.61C7.65,7,7.52,7,7.43,7Z"/><polygon class="cls-1" points="6.73 9.13 6.51 9.07 6.83 9.3 6.73 9.13"/><polygon class="cls-1" points="6.75 9.63 6.56 9.61 6.67 9.75 6.75 9.63"/><path class="cls-1" d="M8.87,38.13l.05.11A.35.35,0,0,0,8.87,38.13Z"/><path class="cls-1" d="M8.89,37.3l-.1,0C8.85,37.32,8.89,37.33,8.89,37.3Z"/><path class="cls-1" d="M6.63,22c-.19.16-.48.35-.25.33l.22,0A.31.31,0,0,1,6.63,22Z"/><path class="cls-1" d="M7.82,30.52l.07,0-.21-.11Z"/><path class="cls-1" d="M8.72,30.65l-.14.22A.73.73,0,0,0,8.72,30.65Z"/><path class="cls-1" d="M9,42.64l.22.14C9.26,42.57,9.15,42.66,9,42.64Z"/><path class="cls-1" d="M6.77,14.8a.88.88,0,0,0-.14.36C6.76,15,7,14.85,6.77,14.8Z"/><path class="cls-1" d="M6.57,37.77c0,.07.08.1.13.1S6.62,37.76,6.57,37.77Z"/><path class="cls-1" d="M6.63,15.57l.05-.08a.74.74,0,0,1,0-.34C6.54,15.28,6.48,15.43,6.63,15.57Z"/><path class="cls-1" d="M8.67,59l0,0S8.67,59,8.67,59Z"/><path class="cls-1" d="M6.64,11.66c0-.11,0,0,0,0Z"/><path class="cls-1" d="M7.5,11.15a.16.16,0,0,0,.1,0A.2.2,0,0,1,7.5,11.15Z"/><path class="cls-1" d="M8,16.65H8S8,16.63,8,16.65Z"/><path class="cls-1" d="M6.74,11.5a.53.53,0,0,0-.07.14A.56.56,0,0,0,6.74,11.5Z"/><path class="cls-1" d="M6.63,11.52l0-.09S6.6,11.43,6.63,11.52Z"/><path class="cls-1" d="M6.65,11.81a.52.52,0,0,1,0-.17s0,0,0,0S6.64,11.74,6.65,11.81Z"/><path class="cls-1" d="M8.19,50.22l0,0C8.26,50.35,8.25,50.3,8.19,50.22Z"/><path class="cls-1" d="M8.85,24.83h0v0Z"/><path class="cls-1" d="M9,25.22c-.27-.17-.23-.26-.18-.38L8.2,25Z"/><path class="cls-1" d="M8.61,30.63a.35.35,0,0,1-.13,0S8.57,30.7,8.61,30.63Z"/><path class="cls-1" d="M9,42.61H9Z"/><path class="cls-1" d="M8.9,18.11a.31.31,0,0,1-.13.14C8.84,18.25,8.89,18.22,8.9,18.11Z"/><path class="cls-1" d="M6.54,10.55l.06.23a.26.26,0,0,1,.08-.21C6.63,10.58,6.54,10.62,6.54,10.55Z"/><path class="cls-1" d="M8.06,8.56s0-.07,0-.11H7.91C7.92,8.6,8,8.71,8.06,8.56Z"/><path class="cls-1" d="M7.34,10.35c.2,0,.14-.16.1-.33a.09.09,0,0,1,0,0C7.16,10,7.25,10.17,7.34,10.35Z"/><path class="cls-1" d="M7.44,10a.4.4,0,0,1,0-.15C7.32,9.81,7.41,9.89,7.44,10Z"/><path class="cls-1" d="M6.8,12c.05-.08-.26-.05-.18-.09C6.37,11.83,6.93,12.44,6.8,12Z"/><polygon class="cls-1" points="8.01 10.22 7.76 10.28 7.96 10.37 8.01 10.22"/><path class="cls-1" d="M7.82,11.5l.07-.26s-.07,0-.08-.07C7.79,11.33,7.74,11.51,7.82,11.5Z"/><path class="cls-1" d="M7.8,11.17a.3.3,0,0,0,0-.21A.65.65,0,0,0,7.8,11.17Z"/><polygon class="cls-1" points="8.09 10.58 8.03 10.66 8.01 10.84 8.09 10.58"/><path class="cls-1" d="M7.73,14.29l.07.28c.09,0,.14,0,.11-.15S7.82,14.25,7.73,14.29Z"/><path class="cls-1" d="M8.43,13.44c-.05.08-.11.08-.19.12h.31Z"/><path class="cls-1" d="M8.49,14.27c.09,0,.24.41.23.05C8.63,14.3,8.57,14,8.49,14.27Z"/><polygon class="cls-1" points="8.05 18.53 8.04 18.46 7.54 18.47 8.05 18.53"/><path class="cls-1" d="M9.22,22.31c.13-.33-.31-.08-.16-.38-.12-.08-.13.25-.23.16C9,22.29,8.89,22.4,9.22,22.31Z"/><path class="cls-1" d="M8.83,22.09,8.76,22A.32.32,0,0,0,8.83,22.09Z"/><path class="cls-1" d="M9.46,35.48l-.08,0c-.08,0-.09.08-.11.18Z"/><polygon class="cls-1" points="9.18 38.4 9.19 38.35 8.89 38.44 9.18 38.4"/><path class="cls-1" d="M9.53,40.86c0-.1-.05-.22,0-.32C9.54,40.76,9.16,40.88,9.53,40.86Z"/><path class="cls-1" d="M13.29,59.44s-.11-.15-.14-.19S13.33,59.48,13.29,59.44Z"/><polygon class="cls-1" points="13.14 60.26 13.09 60.19 13.17 60.41 13.14 60.26"/><path class="cls-1" d="M13,60.5l.07,0-.16-.24c-.07.13-.06.39-.2.38C13,60.91,12.81,60.49,13,60.5Z"/><path class="cls-1" d="M12,60.35l0,0-.05,0C12,60.46,11.94,60.51,12,60.35Z"/><path class="cls-1" d="M12,60.34c0-.05-.11-.05,0,0Z"/><path class="cls-1" d="M11.8,60.61l0-.15c-.07,0-.14,0-.16-.07C11.6,60.5,11.67,60.55,11.8,60.61Z"/><path class="cls-1" d="M11.92,60.85v-.07S11.87,60.76,11.92,60.85Z"/><path class="cls-1" d="M11.92,60.72c.07.08,0,0,0-.09v.15S12,60.9,11.92,60.72Z"/><path class="cls-1" d="M12.18,60.8c.09-.15-.11-.31-.19-.16C12.08,60.66,12.16,60.65,12.18,60.8Z"/><path class="cls-1" d="M12.93,61,13,61l0-.13C13,60.95,12.85,60.9,12.93,61Z"/><path class="cls-1" d="M11.5,60.94a.36.36,0,0,1-.22-.08c0,.06.16.12.24.19Z"/><path class="cls-1" d="M11.52,61l0,.16C11.61,61.16,11.58,61.1,11.52,61Z"/><polygon class="cls-1" points="12.11 60.84 12.17 61.17 12.19 61.15 12.11 60.84"/><polygon class="cls-1" points="11.01 61.11 10.93 60.94 11.04 61.2 11.01 61.11"/><path class="cls-1" d="M10.86,61.3c-.07-.13-.21-.14-.24-.23,0,.07,0,.19.06.31C10.67,61.3,10.72,61.27,10.86,61.3Z"/><path class="cls-1" d="M11.39,61.29a.42.42,0,0,0-.21-.1l.18.13Z"/><path class="cls-1" d="M11.37,61.32h0l-.07,0Z"/><path class="cls-1" d="M12.13,61.54c-.07-.13-.19-.16-.26-.35C11.92,61.31,11.92,61.49,12.13,61.54Z"/><path class="cls-1" d="M11.6,61.26l0,.18.11,0S11.62,61.33,11.6,61.26Z"/><polygon class="cls-1" points="11.63 61.53 11.62 61.45 11.58 61.46 11.63 61.53"/><path class="cls-1" d="M11,61.58a.18.18,0,0,1,0,.19.3.3,0,0,0,.17-.08C11.1,61.63,11,61.53,11,61.58Z"/><polygon class="cls-1" points="10.58 62.14 10.61 62.16 10.59 62.13 10.58 62.14"/><path class="cls-1" d="M11.19,61.59a.21.21,0,0,1,0,.1s0,0,0,0S11.22,61.65,11.19,61.59Z"/><path class="cls-1" d="M10.69,61.73l.14,0C10.76,61.73,10.66,61.69,10.69,61.73Z"/><path class="cls-1" d="M11.14,61.45h0S11.11,61.43,11.14,61.45Z"/><path class="cls-1" d="M11.14,61.45a.62.62,0,0,0,0,.13.25.25,0,0,0,0-.1Z"/><path class="cls-1" d="M10.77,62v0a.67.67,0,0,1-.29-.09.43.43,0,0,0,.1.23l.17-.12Z"/><path class="cls-1" d="M10.91,61.86c.13.18.12.31.33.44.08-.1-.06-.19-.08-.31-.1.18,0-.13-.23-.11a.23.23,0,0,1,0-.12h-.13s0,0,0,0h0l.05.06c-.07,0,0,0-.05-.06l0,0h0l-.06.22C10.83,62,10.86,61.94,10.91,61.86Z"/><path class="cls-1" d="M12.17,61.75a.83.83,0,0,1-.38-.15,3.15,3.15,0,0,0,.43.31s-.06-.1,0-.12.07.07.12.12,0-.18-.17-.19Z"/><path class="cls-1" d="M11.6,61.93l0,.19.19.07-.08-.08C11.77,62.08,11.66,62,11.6,61.93Z"/><polygon class="cls-1" points="10.49 62.08 10.35 61.9 10.51 62.19 10.49 62.08"/><polygon class="cls-1" points="10.36 62.24 10.22 62.1 10.27 62.22 10.36 62.24"/><path class="cls-1" d="M.33,61l-.2.12C.19,61.2.25,61.09.33,61Z"/><path class="cls-1" d="M8.85,63.84a.3.3,0,0,0-.2,0C8.78,63.89,9,64,8.85,63.84Z"/><path class="cls-1" d="M8.52,64h.06a.16.16,0,0,1,.07-.14C8.54,63.82,8.46,63.82,8.52,64Z"/><path class="cls-1" d="M9.14,65.25h0S9.17,65.27,9.14,65.25Z"/><path class="cls-1" d="M9.72,62.74h0S9.72,62.68,9.72,62.74Z"/><path class="cls-1" d="M9.68,62.78l0,.05a.11.11,0,0,1,.07,0Z"/><polygon class="cls-1" points="0.36 61 0.36 60.99 0.33 61.02 0.36 61"/><path class="cls-1" d="M9.13,66.6A.16.16,0,0,1,9,66.54C9,66.6,9.07,66.64,9.13,66.6Z"/><path class="cls-1" d="M10,62.48s-.11-.08-.09-.11l0,.11S10,62.47,10,62.48Z"/><path class="cls-1" d="M11.59,62.84a0,0,0,0,1,0,0l2.57-2.52-2.63,2.44,0,0s0,0,0,0l-.11.1a3.28,3.28,0,0,0-.79-.69.38.38,0,0,1,.12.28c.1.05.34,0,.4.21s-.13,0-.25,0c.16.1.15.27.26.44l-.17.16-.1-.09.08.11-.28.26a.12.12,0,0,1,0-.07c-.05,0-.14.06-.09.11l.11,0-.18.17c-.11-.11-.07-.26-.19-.27,0-.18-.12-.43.07-.44l.23.2c-.06-.06-.19-.07-.16,0-.05-.14.45.14.21-.19L10.42,63c0-.18-.17-.5,0-.52-.25-.18,0,0-.31-.15.36.26-.24.21.17.46-.35-.23-.24,0-.57-.18.07.07.17.11.05.15l0,.08h0s0,0,0,0a.44.44,0,0,1,.15.07c.12.2,0,.32,0,.44s-.06-.1-.16-.15l.06.19c-.16-.15-.38-.15-.37-.35l-.1.09c-.14,0-.26,0-.24.12s.06.29,0,.13l-.05.25,0,0c-.17.12,0,.56-.5.44,0,.09,0,.19-.14.23l-.15-.12c0,.05-.1.08-.14.08s-.05,0,0,.07c-.34-.4-.12,0-.21-.09l.11.25s0,.1,0,.25l.07.25c0,.25-.15-.08-.19,0,0-.11,0-.1,0,0-.08-.37-.08,0-.13.18,0,.07-.06.07-.07-.12,0,.09,0,0,0,0h0v0s0,0-.06.06l0-.3h0c0-.12,0,.12-.07.35l-.06.14c.09-.46-.1.09,0-.4-.08.21-.14.08-.34.46h0c0-.05,0-.08,0-.07s0-.15-.1-.07l.14-.29a2.88,2.88,0,0,1-.2.22l0-.06a1,1,0,0,1,.23-.32c-.2.15-.19.13-.27.15v0c.22-.05.45-.22.7-.3l0,.22s0,0,0,.07c0-.1,0-.21,0-.29a.7.7,0,0,1,.28,0c-.42-.29.64-.74,0-1.21.1-.1.15.09.26,0-.2-.12-.24-.26-.15-.53l.05,0a7.23,7.23,0,0,1,.31-1.89l-.24.06a.56.56,0,0,1,.17-.3c-.36-.21,0,.5-.42.31.48-.23,0-1.26.57-1.41,0-.28-.28.08-.27-.2l.15-.07-.19-.07a.37.37,0,0,1,.35-.27s0,.12,0,.17c.18-.23-.05-.66,0-.74l-.09.26a11.77,11.77,0,0,0-.22-2.4l-.11.05c-.2-.56.13-.44,0-1.05l0,0a.6.6,0,0,1-.15-.45c.13.16.26-.29.4-.08-.21-.6-.17-.3-.58-.7l.19-.09c-.17-.14-.25-.15-.3-.45.16.25.28-.19.49.09.41-.63-.4-1,.2-1.24-.51-.3-.29.55-.4.38-.17.14-.38-.25-.33-.45s.66-.34.66-.85c0,.05,0,.05,0,.11.13-.19-.17-.38,0-.61-.31-.14,0-.31-.37-.35l.09.47c-.1-.27-.56-.52-.33-1a.78.78,0,0,1,.24.26c.12-.13-.07-.25,0-.38.4,0,.08.57.38.86.17-.14-.28-.54.15-.39-.54-.21.07-.5-.34-.86l.24,0c0-.06-.15-.17-.14-.27l.31.19c-.26-.28.24-.54.1-.81,0,.56-.29.12-.46.36-.31-.7.63-.39.52-1.17,0,.11-.15.39-.26.23A.93.93,0,0,1,9,47.57c0-.52-.24.08-.39-.15.29-.17-.11-.25-.2-.48h.24c.16-.59-.5-.16-.31-.69l.33.23-.08-.28.27.06c-.2-.3-.15-.4-.07-.69a.33.33,0,0,1-.44-.3c.15-.18.23.1.2-.27.15.09.34.18.11.34.08,0,.15.08.23.1.17-.19,0-.48,0-.61a.26.26,0,0,1-.06.14l-.33-.54c.09-.08.16,0,.23.05,0-.11-.13-.19-.15-.34.2,0,.4,0,.49.26l-.21-.51c.09,0,.24-.26.31-.19.12-.28-.37-.7-.22-1.07a.23.23,0,0,1-.1-.14c0-.35.29-.66,0-1.08l.35-.23c-.08-.33-.45.32-.57-.23-.11-.39.3-.14.4-.27-.17-.19-.53-.53-.24-.88.06.12,0,.21,0,.32l.2-.27c.32.33.2.56.48.31-.68,0-.06-1-.73-1.1L9,38.88c0,.05,0,.06,0,.11.33-.34-.49-.26-.39-.71.05-.15.15-.26.23-.16l-.16-.35c0-.1.13-.07.12,0l0-.53h0a2.41,2.41,0,0,1-.34-.33c.1-.13.07.07.16,0l-.16-.29c.18-.12.35.13.32.33.68-.26-.17-.24.24-.83l.08.28c.39-.17.25-.39.49-.7-.13.07-.61.62-.78.3a.31.31,0,0,0-.06-.38c.24,0,.18-.17.17-.38l.32,0c-.09-.23-.25-.21-.4-.35,0-.25.28-.3.49-.36.06-.4-.4.27-.46-.2.13-.33,0-.57-.19-1,.11-.23.2,0,.29,0l-.25-.21c0-.05.08,0,.12,0-.1-.18-.32,0-.4-.3-.35-.08.52-.56.13-.91.09-.08.2,0,.32,0a2.51,2.51,0,0,0-.53-.79l.21-.33c-.24.24-.52-.07-.75-.35a2.86,2.86,0,0,0-.27.2l-.17-.43c.05-.05.16,0,.3.07l-.08-.08c.12-.15.3-.07.48,0l-.2.15a1.1,1.1,0,0,0,.59.19.28.28,0,0,1-.08-.14.18.18,0,0,0,.13,0s0-.06-.12-.13l.36-.09-.14,0,.23-.56c-.35-.41-.88-.76-1-1.4.26.16.43,0,.74.05-.33.17.13.5.06.83a.14.14,0,0,1,.23-.09l-.29-.59c.25,0,.19-.12.3-.28-.5.11-.33-.44-.48-.69.17,0,.34,0,.3.34.38-.32-.58-.42-.26-.74,0,.07,0,.11.06.14-.15-.17,0-.58.12-.48v.07c.06-.47,0-1.45-.4-1.52a4.28,4.28,0,0,1,.6.1L7.4,24.62c.36.08,1.24-.2,1.44.2a.47.47,0,0,0,0-.49c-.05.08-.53.19-.56.08.41-.28.22-.2.57-.55-.08.11-.65,0-.63-.2.09,0,.57,0,.62.06l-.56-.46c.1.11.48,0,.64-.07-.11,0,0-.39,0-.52l-.13.19c.09-.51-.78-.52-.75-1,.12.06.71.16.79-.1-.29-.12-1.38-.54-1.6-1l.17-.08-.18-.35a10.12,10.12,0,0,1,1.69,1.17c.13-.19.19-.05.18-.34.16-.1.23.16.24.24l.11-.67c-.34,0-.33-.52-.61-.49l.34.73c-.34,0-.95-.43-.88-.91.14-.12.6.1.71.09-.11-.06-.22-.45-.13-.5l.18.2c.13-.26-.44-.44-.12-.75,0-.11.44-.32.24-.34a4,4,0,0,1-1.86.07,3.53,3.53,0,0,1,.56-.69c.3-.18.71.28,1,.13a.46.46,0,0,1-.24-.15c.08-.11.28.05.25-.2-.34,0,0-.51-.29-.12-.09-.25.07-.26.06-.55-.22.09-.75-.27-.84-.51A.47.47,0,0,0,8,16.65c0-.5.19-.77.2-1.24.08,0,.19-.27.33-.17-.06-.07-.17-.13-.18-.28.3-.28,0,.32.4.11-.2,0-.27-.38-.39-.58-.31.06-.06.47.06.68a1.26,1.26,0,0,1-1-.86c-.1-.39.27-.17.22-.23.08-.73-.73-.63-.42-1.23.27-.24.53,0,.73-.06.1.32-.18.48-.17.7l.13-.26a.41.41,0,0,1,.07.43c.24-.2.06-1.23.29-1.79-.09-.1-.18-.27-.29-.19l0,.18c-.22.16-.3-.34-.4-.11-.15-.24-.39-.51-.26-.85l.31-.06a.21.21,0,0,0-.09.31c-.13-.14.42-.51,0-.67l-.22.23c-.15-.24-.47-.54-.37-.84-.3.13,0,.07-.32.28.44-.18,0,.76.44.47-.41.21-.18.37-.53.65.1,0,.19-.1.14.15l.09.06v0h0s0,0,0,0a.35.35,0,0,1,.16-.13c.23.13.22.53.34.66,0,.15-.12-.06-.22,0l.18.2c-.22,0-.38.39-.51,0v.31a.6.6,0,0,0-.09.6c-.05.15.24.38.07.25l.13.5H6.74c0,.49.36,1-.05,1.56a1,1,0,0,1,.05.61l-.19.05c.07.21-.2.63,0,.72-.53.22-.13,1-.22,1.39l.25,0a2.26,2.26,0,0,0,.15.82l.22,0c.18.28-.17.7-.15,1.13-.09,0-.06-.14,0-.22-.51.51.36,1.09,0,1.56a.22.22,0,0,1,0,.28v0a.22.22,0,0,0,0,0L6.63,22a.55.55,0,0,0,.12-.13,1.15,1.15,0,0,0,.08.36l-.24.05v0c-.09.13.11.11.29,0a.66.66,0,0,0,.14.18c-.39.1.13.35-.29.49.2.09.14.67.57.75-.06,0-.08,0-.08,0-.05.15-.1.3,0,.43l-.31.06.41.33c-.19.2-.3.28-.53.08.36.48.13.39.49.79l-.2,0c0,.14.27.38.1.46-.38.32-.07,1.59-.43,2.42.58-.15-.27.38.19.42-.14,0-.22.16-.34,0,.13.42-.23.63.15.93-.14,0-.2-.09-.28-.05s.12.14,0,.18-.11-.06-.17-.13c0,.43.44.48.84.52-.19.22-.17.33.09.49-.13.07-.27.2-.31-.07,0,.15-.2.92.12.94-.08,0,0,.21,0,.25a3.34,3.34,0,0,0,0,.7l.05-.09c.38.14.08.28.13.55h0c-.29.61.13.27-.19.87l.24,0c.52.06-.31.53-.12.89l.14-.13c.17.19-.71.53-.77.72,0,0-.07-.07-.1-.13-.31.5.31.07.38.45-.17.07-.43-.09-.46.16s.54.74.21,1.08c.13-.07.26-.15.36,0s-.5.72-.09,1a.16.16,0,0,1-.1,0c.1.21.17.67.39.79-.83.18.39,1.28-.38,1.26l0,.63-.08,0a.64.64,0,0,0,.31.69c-.05.09-.12,0-.16,0-.16.59-.13.65.25,1.14l-.25,0c.14.14-.4.85-.12,1.43a.18.18,0,0,1-.11-.06c.28.65-.71,1.55.19,1.79L7,46c.08-.55.39.09.54-.14.05.22-.28.56-.32.29l0,0c-.47-.1-.17.69-.5.67,0,1.09-.26,2.15-.3,3.17l.37-.11,0,.36c-.09.09-.29.12-.27-.13-.21.13.17.43.25.44-.15.5-.42-.2-.43,0l0,.21,0,0c.15.17.31.19.28.49s-.23.1-.24.17,0,0,0,.12l0,.45.29-.18c.14.2,0,.42.31.22-.51.3-.2,1.67-.36,1.86a1.19,1.19,0,0,1,.17.9c.06-.08.39-.13.34.16-.67-.12-.3.53-.78.77.32-.21.07.84.53.51-.06.24-.25,0-.41.2.25.59-.18,1.28-.11,2,.09,0,.22-.11.35,0l-.44.38c0,.14.51.14.2.39.07,0,.19-.09.21,0C6.29,60.51,7,62,6.26,63.35c-.13-.07,0-.3-.35-.14.08-.11.17-.12.22-.19S6,63.08,6,63s.1-.06.16-.08c-.12-.09-.34.08-.58.29a.54.54,0,0,0-.18-.05l0,.05-.07,0-.06,0c.05-.09.11-.17.2-.13s-.14-.41-.37-.19h0c0-.07,0-.08-.08-.07l0-.07c0-.08.06-.18.17-.2-.3,0-.25,0-.54.14a.18.18,0,0,0,0-.06l0,0-.05,0h0l0,0c0-.12,0-.16,0-.18a.27.27,0,0,1,.1-.05c.11-.47-.57,0-.22-.51-.46.26,0,.37-.18.39a.25.25,0,0,1-.1.1c0-.14.09-.33,0-.31l-.06.13c-.18.07.34-.66.33-.76s.07,0,.11,0c.07-.37-.24.2-.41.14.1-.14.33-.28.28-.37s-.61.17-.48-.17a.74.74,0,0,1-.15.18s0-.09-.15-.07v0l.1-.08L3.6,61s0,0,0-.06l.19-.1c-.27.09,0-.32-.17-.31.14.14-.06.21-.17.34l-.06,0a.28.28,0,0,1,.06-.09H3.28c.08-.17.34-.44.14-.55.05,0,0,.22-.12.24a.55.55,0,0,1,.07-.32c-.19-.13-.16.19-.33.22.16-.25-.16,0-.29,0l.18-.16c0-.11-.09-.09-.16,0l-.07-.05L2.81,60l-.14,0,.22-.17c-.24,0-.22,0-.25-.16a.59.59,0,0,1-.34.22l0,0a.88.88,0,0,0,0-.1s.06,0,0-.1c.13-.08.3-.18.18,0l.2-.12c.07-.17-.11-.18-.15-.22a.1.1,0,0,1,0,.08l-.4.06a.29.29,0,0,1,.19-.14c-.05,0-.15,0-.21,0,.16-.12.3-.26.43-.25H2.21c.05-.07.1-.24.17-.27s0-.07-.12-.07l-.42.4,0,0L.38,60.48l0,0L0,60.9c.14,0,.36-.05.36.09a.18.18,0,0,1,.11,0c.07.14,0,.4.31.34l-.18.32c.15,0,.22-.41.48-.34s-.17.25-.2.36c.18-.07.54-.22.44.09-.08,0-.07-.05-.12-.07l-.06.22c-.33.13-.32,0-.44.25.49-.47.36.27.86-.2l0,.15s0,0-.05,0c-.11.28.25-.08.41-.1l.06.12a.16.16,0,0,1-.1.13H2l0,.06s-.05,0-.06,0l.11.07.05.08s-.06,0-.06.05l.06,0,.07.11c-.26.38.12,0,.14.25,0,0,0,0,0,0l0,0a.3.3,0,0,1,0,0l-.14,0c-.22.32-.06.29-.13.55a2.51,2.51,0,0,1,.33-.56h0a.25.25,0,0,1,.13-.08c0,.06,0,.12.16.07-.17.17-.08.18,0,.23l-.23.22a.65.65,0,0,0,.31-.13l0,0,0-.06h0c.05.1-.11.29-.24.45.08.16.2-.36.38-.26,0,.19.18.17.43.15,0,.15-.15.13-.19.22l.24-.12s0,.07-.08.1a.29.29,0,0,0,.13-.07s0,0,0,0a.31.31,0,0,1,.29,0c0,.13,0,.26.14.17,0,.09-.15.13-.23.22l.24,0a.37.37,0,0,1-.09.33c.17-.28.3.21.54-.21,0,.11-.18.18-.24.34.36,0,.25.52.52.68A1.52,1.52,0,0,1,4.88,65a.35.35,0,0,0,0,.1l-.14.27c.07,0,.41-.3.26,0,0-.06.1-.14.15-.14h0c.06.46.47.6.73.89l-.1.08.12-.05a.83.83,0,0,1,.16.73c.07-.18.12-.15.17-.11s.16-.15.24-.23l-.07.41c.25-.17.22.1.4,0,0,0,0,.07,0,.09,0-.14.18.19.25.19L7,67c.14.23.27-.18.39-.41h0l.14-.13a2.67,2.67,0,0,0-.06,1.06c0-.17.14-.62.22-1l.08.08.09-.09c0,.24-.05.48-.09.73a2.72,2.72,0,0,1-.19.53c.08.26,0,.29.15.41s-.08.25-.13.21l.16.23L8,68.45c0-.45.24-.7.19-1q-.14.38-.32.8a3.58,3.58,0,0,1,.31-1.56,5.3,5.3,0,0,1,.07.93c0-.18.17-.47.2-.39l-.06.31c.16,0,.09-.71.32-.48.05,0,.3.31.24.09a5.63,5.63,0,0,1-.47-1.2l.11-.11,0,.14,0,0-.05-.13.11-.11c.14.26.18.71.33.88a1,1,0,0,1,0-.29c.08,0,.11.29.2.15-.15-.33.23-.18-.09-.31,0-.18.14,0,.25-.17a1.86,1.86,0,0,1-.3-.59l.09-.09,0,0c.18-.13.36-.1.51-.23.07,0,.21.05.28.18,0-.06-.08-.16,0-.21.29.13-.07.13.25.32-.13-.15-.08-.31-.1-.46-.23-.2-.19.1-.16.25a1.91,1.91,0,0,1-.26-.35l.47-.46c.18,0,.35-.33.63-.34a.81.81,0,0,0-.09-.19l.6-.59a.6.6,0,0,0,.07.09v-.15h0s.07.12.12.14a.45.45,0,0,1-.09-.16l.12-.11h0l.11-.11ZM8.8,36.07c0,.08.2.24.06.29S8.72,36.2,8.8,36.07Zm-.51-6.14c.08.06,0,.15-.05.25A.3.3,0,0,1,8.29,29.93ZM6.82,12.84h0C6.73,13,6.77,13,6.82,12.84ZM6.56,51.34l.06-.07C6.69,51.43,6.63,51.39,6.56,51.34Zm2.9,11.92h0C9.34,63.26,9.39,63.27,9.46,63.27Zm-7-1,0,0,0,0Zm-.06.06h.1l0,0a.23.23,0,0,1-.21.1Zm3.8,1.08h0a.22.22,0,0,1,.08-.06h0c.09-.06.11,0,.11.15,0-.1.22,0,.34,0L6.47,64a.8.8,0,0,1-.08-.14l.05-.07s.06,0,.08,0,0-.14-.11-.17,0-.07,0-.12a.23.23,0,0,0,0,.11c-.05,0-.1,0-.1-.06v.05l0,.06-.07,0c0-.07,0-.12-.08-.05h0A.76.76,0,0,1,6.22,63.45Zm-3.83-.71c.17-.13.17-.09.15,0l-.17.07A.07.07,0,0,1,2.39,62.73Zm.13,0h0Zm4.24,4.11.06,0s0,0,0,.06Zm1-.63c0-.12,0-.24.06-.35s0-.35.06-.43l0,.21.06-.32c0,.18,0,.44,0,.73Zm.74-.69-.11.1c-.06-.22-.12-.41-.14-.51s.19.2.33.34l-.07.07-.07-.18ZM9,65.12v0l0,0Zm.43-1c0-.19.24.14.22.08.27-.16-.33-.71.07-.67s.37.35.51.48l-.11.1c-.08,0-.16,0-.2,0H10l-.33.31a.12.12,0,0,0,0-.06l0,.13-.12.11A1.13,1.13,0,0,1,9.39,64.09Z"/><path class="cls-1" d="M10.73,62.85h0c-.18-.22-.17-.1-.16,0S10.7,62.93,10.73,62.85Z"/><path class="cls-1" d="M10.73,62.84a.07.07,0,0,1,0,0C10.7,62.7,10.74,62.79,10.73,62.84Z"/><path class="cls-1" d="M9.69,63c.06,0-.17-.2-.1-.15C9.44,62.64,9.65,63.23,9.69,63Z"/><polygon class="cls-1" points="10.88 63.51 11.01 63.48 10.95 63.47 10.88 63.51"/><path class="cls-1" d="M10.24,64.5l.21.22,0-.13A.59.59,0,0,1,10.24,64.5Z"/><path class="cls-1" d="M10.21,64.9c.05.07,0,.3.14.18S10.34,64.87,10.21,64.9Z"/><path class="cls-1" d="M7.31,67.42c-.11.07-.15-.08-.18.38.15.32.1-.35.22,0C7.41,67.67,7.25,67.51,7.31,67.42Z"/><polygon class="cls-1" points="6.31 67.36 6.39 67.2 6.32 67.22 6.31 67.36"/><path class="cls-1" d="M6.72,67.09l-.22.24.25-.16S6.68,67.15,6.72,67.09Z"/><path class="cls-1" d="M2.23,63.42l.06-.05c0-.07,0-.09,0-.13Z"/><polygon class="cls-1" points="1.54 62.38 1.72 62.15 1.53 62.36 1.54 62.38"/><path class="cls-1" d="M.53,61.88s.1,0,.12.07S.78,61.62.53,61.88Z"/></svg>