<?xml version="1.0" encoding="utf-8"?>
<!-- Generator: Adobe Illustrator 21.1.0, SVG Export Plug-In . SVG Version: 6.00 Build 0)  -->
<svg version="1.1" id="Body_Content" xmlns="http://www.w3.org/2000/svg" xmlns:xlink="http://www.w3.org/1999/xlink" x="0px"
	 y="0px" viewBox="0 0 23 14" style="enable-background:new 0 0 23 14;" xml:space="preserve">
<style type="text/css">
	.st0{fill:#FF6E00;}
	.st1{fill:#FFFFFF;}
</style>
<symbol  id="actions_2">
</symbol>
<title>cis-ready-style-guide-web</title>
<use xlink:href="#actions_2"  width="-32766" height="-32766" id="actions_2-3" x="16383" y="16383" transform="matrix(-1 0 0 -1 757 -2470)" style="overflow:visible;"/>
<use xlink:href="#actions_2"  width="-32766" height="-32766" id="left_panel_3-3" x="16383" y="16383" transform="matrix(-1 0 0 -1 -4966 7119)" style="overflow:visible;"/>
<path class="st0" d="M16.5,0c-3,0-5.6,2.1-6.3,5h1.5c0.8-2.7,3.7-4.2,6.3-3.3s4.2,3.7,3.3,6.3c-0.8,2.7-3.7,4.2-6.3,3.3
	c-0.8-0.2-1.4-0.6-2-1.2c0,0.1,0,0.1,0,0.2c-0.1,0.4-0.2,0.7-0.4,0.9l-0.1,0.1l-0.1,0.1c2.8,2.3,6.9,1.9,9.2-0.8s1.9-6.9-0.8-9.2
	C19.5,0.5,18,0,16.5,0z M19.5,6.5c0,1.7-1.3,3-3,3c-1,0-1.9-0.5-2.5-1.3V8h2c0.8,0,1.5-0.7,1.5-1.5S16.8,5,16,5h-2.1
	c0.8-1.4,2.7-1.9,4.1-1.1C18.9,4.4,19.5,5.4,19.5,6.5z"/>
<path class="st1" d="M16,5H7.8c0,0-0.1,0-0.1-0.1c0,0,0,0,0,0l0,0c0.3-0.8,1.1-2,0.8-2.9c-0.4-1.3-1.2-1.9-2-1.9
	c-0.6,0-1.2,0.5-1.3,1.1C5.1,1.5,5,1.8,4.8,2C3.6,4,1.3,5.2,0.3,7.4c-0.5,1.4-0.4,3,0.4,4.3C1.6,13.4,3,14,6,14h2c3,0,3-2,3-2
	c0.5,0,1-0.2,1.3-0.5l0.1-0.1l0.1-0.1c0.2-0.3,0.4-0.6,0.4-0.9c0-0.1,0-0.1,0-0.2c0,0,0-0.1,0-0.1c1,0,1-0.9,1-1.8V8h2
	c0.8,0,1.5-0.7,1.5-1.5S16.8,5,16,5z M16.4,6.9c0,0.1-0.1,0.1-0.2,0.1c-0.1,0-0.1,0-0.2,0l0,0h-6v1h3c0,0.3,0,0.7,0,1h-3v1h2
	c0,0.5-0.3,1-0.8,1c-0.1,0-0.1,0-0.2,0H9v1h1c0,0.2-0.2,1-2,1H6c-2.9,0-3.8-0.6-4.5-1.8c-0.6-1.1-0.7-2.3-0.3-3.4
	c0.6-1.1,1.3-2,2.3-2.8C4.3,4.3,5,3.4,5.7,2.5C5.9,2.2,6,1.9,6.1,1.5c0.1-0.2,0.2-0.4,0.4-0.4s0.8,0.4,1,1.1
	C7.5,2.8,7.3,3.2,7.1,3.6C6.9,3.9,6.8,4.2,6.7,4.5c-0.1,0.3-0.1,0.7,0.2,1C7.1,5.8,7.4,6,7.8,6H16c0.3,0,0.5,0.2,0.5,0.5
	C16.5,6.6,16.4,6.8,16.4,6.9z"/>
</svg>
