<svg id="Body_Content" data-name="Body Content" xmlns="http://www.w3.org/2000/svg" xmlns:xlink="http://www.w3.org/1999/xlink" viewBox="0 0 23 14"><defs><style>.cls-1{fill:#ff6e00;}.cls-2{fill:#58585b;}</style><symbol id="actions_2" data-name="actions 2" viewBox="0 0 32766 32766"/></defs><title>cis-ready-style-guide-web</title><use id="actions_2-3" data-name="actions 2" width="32766" height="32766" transform="translate(-15626 -18853)" xlink:href="#actions_2"/><use id="left_panel_3-3" data-name="left panel 3" width="32766" height="32766" transform="translate(-21349 -9264)" xlink:href="#actions_2"/><path class="cls-1" d="M16.5,0a6.49,6.49,0,0,0-6.32,5h1.49A5.06,5.06,0,1,1,13,10.14a1.08,1.08,0,0,1,0,.18,1.92,1.92,0,0,1-.43.95l-.13.14-.08.08A6.5,6.5,0,1,0,16.5,0Zm3,6.5A3,3,0,0,1,14,8.16V8h2a1.5,1.5,0,0,0,0-3H13.9a3,3,0,0,1,5.6,1.5Z"/><path class="cls-2" d="M16,5H7.75a.09.09,0,0,1-.1-.1v0c.26-.8,1.13-2,.84-2.88C8.07.75,7.26.17,6.49.17A1.44,1.44,0,0,0,5.18,1.25,3,3,0,0,1,4.83,2C3.57,4,1.29,5.19.29,7.43a5.41,5.41,0,0,0,.36,4.33C1.64,13.44,3,14,6,14H8c3,0,3-2,3-2a2,2,0,0,0,1.33-.51l.08-.08.13-.14a1.92,1.92,0,0,0,.43-.95,1.08,1.08,0,0,0,0-.18A.63.63,0,0,0,13,10c1,0,1-.89,1-1.84V8h2a1.5,1.5,0,0,0,0-3Zm.36,1.87A.58.58,0,0,1,16.2,7,.45.45,0,0,1,16,7V7H10V8h3a5.52,5.52,0,0,1,0,1H10v1h2a.92.92,0,0,1-.83,1A.48.48,0,0,1,11,11H9v1h1c0,.21-.23,1-2,1H6c-2.94,0-3.8-.57-4.5-1.78A4.48,4.48,0,0,1,1.19,7.8,9.41,9.41,0,0,1,3.46,5,13.53,13.53,0,0,0,5.67,2.47a4.13,4.13,0,0,0,.47-.94c.06-.18.18-.4.41-.4s.75.36,1,1.15a3.55,3.55,0,0,1-.46,1.34,7.58,7.58,0,0,0-.39.93,1.06,1.06,0,0,0,.16,1A1.12,1.12,0,0,0,7.75,6H16a.51.51,0,0,1,.5.51A.55.55,0,0,1,16.36,6.87Z"/></svg>