<?xml version="1.0" encoding="utf-8"?>
<!-- Generator: Adobe Illustrator 21.1.0, SVG Export Plug-In . SVG Version: 6.00 Build 0)  -->
<svg version="1.1" id="Layer_1" xmlns="http://www.w3.org/2000/svg" xmlns:xlink="http://www.w3.org/1999/xlink" x="0px" y="0px"
	 viewBox="0 0 30 36" style="enable-background:new 0 0 30 36;" xml:space="preserve">
<style type="text/css">
	.st0{fill:#FFFFFF;stroke:#C8C8C8;stroke-miterlimit:10;}
	.st1{fill:#9B9798;}
	.st2{fill:#7FBB9A;}
	.st3{fill:#157448;}
	.st4{fill:#FFFFFF;}
	.st5{font-family:'Arial-BoldMT';}
	.st6{font-size:9.49px;}
</style>
<polygon class="st0" points="28.5,35.5 3.5,35.5 3.5,1.5 21,1.5 28.5,9 "/>
<rect x="14" y="6" class="st1" width="6" height="2"/>
<rect x="14" y="9" class="st2" width="6" height="2"/>
<rect x="14" y="13" class="st2" width="6" height="2"/>
<rect x="14" y="17" class="st2" width="6" height="2"/>
<rect x="14" y="21" class="st2" width="6" height="2"/>
<rect x="14" y="25" class="st2" width="6" height="2"/>
<rect x="14" y="29" class="st2" width="6" height="2"/>
<polygon class="st1" points="26,8 20,8 20,6 24.7,6 26,6.1 "/>
<rect x="20" y="9" class="st2" width="6" height="2"/>
<rect x="20" y="13" class="st2" width="6" height="2"/>
<rect x="20" y="17" class="st2" width="6" height="2"/>
<rect x="20" y="21" class="st2" width="6" height="2"/>
<rect x="20" y="25" class="st2" width="6" height="2"/>
<rect x="20" y="29" class="st2" width="6" height="2"/>
<rect x="7" y="6" class="st1" width="6" height="2"/>
<rect x="7" y="9" class="st1" width="6" height="2"/>
<rect x="7" y="13" class="st1" width="6" height="2"/>
<rect x="7" y="17" class="st1" width="6" height="2"/>
<rect x="7" y="21" class="st1" width="6" height="2"/>
<rect x="7" y="25" class="st1" width="6" height="2"/>
<rect x="7" y="29" class="st1" width="6" height="2"/>
<polygon class="st0" points="28.8,8.5 21.5,8.5 21.5,1.2 "/>
<polygon class="st3" points="13,30.6 0,29.1 0,13 13,11.5 "/>
<text transform="matrix(1 0 0 1 3.59 23.9)" class="st4 st5 st6">X</text>
</svg>
