<svg xmlns="http://www.w3.org/2000/svg" viewBox="0 0 34 34"><defs><style>.cls-1{fill:#fff;}.cls-2{fill:#00b9ec;}</style></defs><title>Guided Help</title><g id="Layer_2" data-name="Layer 2"><g id="Layer_1-2" data-name="Layer 1"><g id="_Group_" data-name="&lt;Group&gt;"><circle id="_Path_" data-name="&lt;Path&gt;" class="cls-1" cx="17" cy="17" r="17"/><g id="_Group_2" data-name="&lt;Group&gt;"><g id="_Group_3" data-name="&lt;Group&gt;"><path class="cls-2" d="M15.56,19h-2v3h2Zm-2,7h2V23h-2Zm-4-5h3V19h-3Zm17-2.59a3.5,3.5,0,0,0-7,0c0,1.89,3.5,7.59,3.5,7.59S26.56,20.3,26.56,18.41Zm-5.25-.26a1.75,1.75,0,1,1,1.75,1.69A1.72,1.72,0,0,1,21.31,18.16ZM17.56,29h3V27h-3Zm4,0h3V27h-3Zm-7-11.91V12.76a1,1,0,0,0,1-.91V8.5a1,1,0,0,0-1-.91h-1l-1,1.15-1-1.15h-1a1,1,0,0,0-1,.91v3.35a1,1,0,0,0,1,.91v4.33a1,1,0,0,0,1,.91,1,1,0,0,0,1-.58,1,1,0,0,0,1,.58A1,1,0,0,0,14.53,17.09ZM13.56,29h3V27h-3Zm-1-22a1.6,1.6,0,0,0,1.67-1.49A1.59,1.59,0,0,0,12.55,4a1.59,1.59,0,0,0-1.67,1.49A1.6,1.6,0,0,0,12.55,7Z"/></g></g></g></g></g></svg>