<?xml version="1.0" encoding="utf-8"?>
<!-- Generator: Adobe Illustrator 19.0.0, SVG Export Plug-In . SVG Version: 6.00 Build 0)  -->
<svg version="1.1" id="Layer_1" xmlns="http://www.w3.org/2000/svg" xmlns:xlink="http://www.w3.org/1999/xlink" x="0px" y="0px"
	 viewBox="0 0 34 34" style="enable-background:new 0 0 34 34;" xml:space="preserve">
<style type="text/css">
	.st0{fill:#00BBEB;}
	.st1{fill-rule:evenodd;clip-rule:evenodd;fill:#FFFFFF;}
</style>
<g id="XMLID_1612_">
	<circle id="XMLID_1622_" class="st0" cx="17" cy="17" r="17"/>
</g>
<g id="XMLID_14_">
	<g id="XMLID_57_">
		<path id="XMLID_58_" class="st1" d="M14.3,13.8c0-0.8-0.8-1.5-1.5-1.5H12L10.6,14L9,12.3H8.3c-0.7,0-1.7,0.9-1.7,1.7v5
			c0,0.8,1.3,2,2,2c0,0.5,0,1,0,1.4c0,2.4,0,3.1,0,3c0,0.5,0,1,0,1.5c0,0.8,0.3,1,1,1c0.6,0,0.8-0.5,1-1c0.2,0.5,0.4,1,1,1
			c0.7,0,1-0.2,1-1c0-1.3,0-2.1,0-2.6c0,0.2,0-0.2,0-3.4c0.7,0,2-1.2,2-2L14.3,13.8z M10.5,11.5c1.1,0,2.3-0.9,2.3-2.2
			C12.8,8,11.7,7,10.5,7C9.4,7,8.3,8,8.3,9.3C8.3,10.6,9.4,11.5,10.5,11.5z M22.4,16.4l0.5-4.3c1-0.4,1.7-1.3,1.7-2.4
			c0-1.4-1.1-2.6-2.5-2.6s-2.5,1.2-2.5,2.6c0,1.1,0.7,2.1,1.7,2.4l0.4,4.1c-2.1-0.5-4.5-0.8-7.1-0.9v0.5c2.8,0.1,5.2,0.4,7.2,0.9
			l0.3,3.2V20l0.3-3.1c3.4,1,5.3,2.6,5.3,4.4c0,3.6-6.3,4.5-13.1,4.7v2c8.3-0.2,15-2.8,15-6.2C29.6,19.5,26.7,17.5,22.4,16.4z"/>
	</g>
</g>
</svg>
