<?xml version="1.0" encoding="utf-8"?>
<!-- Generator: Adobe Illustrator 21.0.2, SVG Export Plug-In . SVG Version: 6.00 Build 0)  -->
<svg version="1.1" id="Layer_1" xmlns="http://www.w3.org/2000/svg" xmlns:xlink="http://www.w3.org/1999/xlink" x="0px" y="0px"
	 viewBox="0 0 30 30" style="enable-background:new 0 0 30 30;" xml:space="preserve">
<style type="text/css">
	.st0{fill:#FFFFFF;}
	.st1{fill:#989898;}
</style>
<path class="st0" d="M15,0L15,0c8.3,0,15,6.7,15,15l0,0c0,8.3-6.7,15-15,15l0,0C6.7,30,0,23.3,0,15l0,0C0,6.7,6.7,0,15,0z"/>
<path class="st1" d="M11.1,21.1L5,15l6-6l0.7,0.7L6.4,15l5.4,5.4L11.1,21.1z M25,15l-6-6l-0.7,0.7l5.3,5.3l-5.4,5.4l0.7,0.7L25,15z"
	/>
</svg>
