<svg xmlns="http://www.w3.org/2000/svg" viewBox="0 0 23 23"><defs><style>.cls-1,.cls-2{fill:#58585b;}.cls-1{opacity:0.1;}</style></defs><title>icon_narrative_hoverAsset 2</title><g id="Layer_2" data-name="Layer 2"><g id="content"><circle class="cls-1" cx="11.5" cy="11.5" r="11.5"/><polygon class="cls-2" points="11.57 14.44 11 17 13.56 16.43 18.81 11.18 16.82 9.19 11.57 14.44"/><path class="cls-2" d="M19.58,7a1.41,1.41,0,0,0-.85.28l-.57.57,2,2,.57-.57A1.42,1.42,0,0,0,19.58,7Z"/><polygon class="cls-2" points="15 7 3 7 3 9 13 9 15 7"/><polygon class="cls-2" points="3 11 3 13 10 13 12 11 3 11"/><rect class="cls-2" x="3" y="15" width="6" height="2"/></g></g></svg>