<svg id="Global_Nav" data-name="Global Nav" xmlns="http://www.w3.org/2000/svg" viewBox="0 0 115.71 22.65"><defs><style>.cls-1{fill:#58595b;}.cls-2{fill:#666;}</style></defs><title>iphone-logo</title><path class="cls-1" d="M8.12,7.21H9.66a4.49,4.49,0,0,1-4.71,4c-3,0-5-2-5-5.62S2.1,0,5.07,0A4.3,4.3,0,0,1,9.64,3.69H8.1a2.81,2.81,0,0,0-3-2.42C3,1.27,1.56,2.7,1.56,5.63S3,10,5,10A3,3,0,0,0,8.12,7.21Z"/><path class="cls-1" d="M13.74,0.22V11H12.21V0.22h1.53Z"/><path class="cls-1" d="M19.88,5.83c-2.5-.69-3.29-1.58-3.29-3.06S18,0,20.46,0c2.31,0,4,1.09,4.27,2.92H23.16c-0.17-1-1.08-1.67-2.7-1.67s-2.34.64-2.34,1.46S18.48,4,21,4.65C24,5.49,24.81,6.38,24.81,8s-1.53,3.21-4.21,3.21c-2.32,0-4.08-1.27-4.38-3.25h1.58C18,9.21,19,10,20.57,10c1.8,0,2.71-.87,2.71-1.89S22.79,6.63,19.88,5.83Z"/><path class="cls-1" d="M35,7.21h1.54a4.49,4.49,0,0,1-4.71,4c-3,0-5-2-5-5.62S29,0,32,0a4.3,4.3,0,0,1,4.57,3.69H35a2.81,2.81,0,0,0-3-2.42c-2.07,0-3.51,1.43-3.51,4.35S29.87,10,31.89,10A3,3,0,0,0,35,7.21Z"/><path class="cls-1" d="M38.37,5.63C38.37,2,40.67,0,43.52,0s5.11,1.9,5.11,5.63c0,3.57-2.22,5.62-5.13,5.62S38.37,9.19,38.37,5.63Zm8.7,0c0-2.85-1.46-4.38-3.57-4.38s-3.57,1.53-3.57,4.38S41.39,10,43.5,10,47.07,8.47,47.07,5.63Z"/><path class="cls-1" d="M63.28,11L60.67,6.92H58.11V11H56.58V0.22h3.49c2.75,0,4.28,1.21,4.28,3.39a3.05,3.05,0,0,1-2.17,3L65.08,11h-1.8ZM58.11,1.47v4.2h2c1.68,0,2.61-.79,2.61-2.06S61.92,1.47,60.1,1.47h-2Z"/><path class="cls-1" d="M73.48,6.17H68.71V9.73h5.21V11H67.18V0.22h6.74V1.51H68.71V4.9h4.77V6.17Z"/><path class="cls-1" d="M84.39,11L83.32,8.29H78.18L77.1,11H75.5l4.44-10.8h1.72L86.08,11H84.39ZM78.67,7h4.15L80.77,1.75Z"/><path class="cls-1" d="M91.54,0.22c3.18,0,5.31,1.7,5.31,5.4,0,3.49-2.25,5.4-5.42,5.4H88V0.22h3.51Zm-2,1.21V9.76h2c2.37,0,3.72-1.42,3.72-4.14s-1.44-4.19-3.75-4.19h-2Z"/><path class="cls-1" d="M101.49,11V6.73l-4-6.51h1.68l3,5.19,3.15-5.19H107l-4,6.51V11h-1.51Z"/><path class="cls-2" d="M3.67,19.52h-3v2.39H3.93v0.6H0V16H3.93v0.6H0.7v2.29h3v0.59Z"/><path class="cls-2" d="M8.33,19.15l2.31,3.37H9.8L7.94,19.73,6,22.52H5.21l2.32-3.36L5.37,16H6.21L8,18.61,9.77,16h0.8Z"/><path class="cls-2" d="M15.83,19.52h-3v2.39h3.23v0.6H12.16V16h3.93v0.6H12.86v2.29h3v0.59Z"/><path class="cls-2" d="M17.68,19.3c0-2.21,1.26-3.4,3-3.4a2.54,2.54,0,0,1,2.7,2.15H22.65a1.85,1.85,0,0,0-2-1.56c-1.31,0-2.26,1-2.26,2.81S19.34,22,20.64,22a1.91,1.91,0,0,0,2-1.75h0.71a2.61,2.61,0,0,1-2.74,2.35C18.85,22.65,17.68,21.4,17.68,19.3Z"/><path class="cls-2" d="M25.1,20.37V16h0.7v4.38A1.63,1.63,0,0,0,27.61,22a1.64,1.64,0,0,0,1.82-1.63V16h0.68v4.33a2.27,2.27,0,0,1-2.5,2.29A2.26,2.26,0,0,1,25.1,20.37Z"/><path class="cls-2" d="M36.62,16.67H34.44v5.85H33.73V16.67H31.57V16h5.05v0.63Z"/><path class="cls-2" d="M38.83,16v6.48h-0.7V16h0.7Z"/><path class="cls-2" d="M41,16l2.11,5.83L45.23,16h0.69l-2.37,6.48H42.64L40.26,16H41Z"/><path class="cls-2" d="M51,19.52H48v2.39h3.23v0.6H47.34V16h3.93v0.6H48v2.29h3v0.59Z"/><path class="cls-2" d="M58.47,16a2.92,2.92,0,0,1,3.15,3.24,3,3,0,0,1-3.2,3.24H56.51V16h2Zm-1.26.58v5.31H58.5c1.47,0,2.41-.92,2.41-2.65s-1-2.67-2.43-2.67H57.21Z"/><path class="cls-2" d="M67.89,22.52l-0.67-1.74H64l-0.69,1.74H62.59L65.22,16h0.83l2.62,6.48H67.89ZM64.25,20.2H67l-1.35-3.46Z"/><path class="cls-2" d="M74,20.81c0-.69-0.35-1-2.11-1.47-1.49-.37-2-0.91-2-1.81s0.81-1.63,2.28-1.63a2.29,2.29,0,0,1,2.51,1.68H74a1.56,1.56,0,0,0-1.77-1.09c-1.09,0-1.58.43-1.58,1s0.29,0.92,1.77,1.29c1.76,0.45,2.32,1,2.32,2s-0.89,1.87-2.48,1.87a2.37,2.37,0,0,1-2.58-1.87h0.73a1.64,1.64,0,0,0,1.84,1.28C73.41,22.06,74,21.53,74,20.81Z"/><path class="cls-2" d="M81.41,16v6.48H80.69v-3H77.26v3h-0.7V16h0.7v2.89h3.43V16h0.71Z"/><path class="cls-2" d="M85.77,16c1.41,0,2.16.63,2.16,1.67a1.45,1.45,0,0,1-1.11,1.39,1.6,1.6,0,0,1,1.34,1.61c0,1.13-.81,1.82-2.39,1.82H83.5V16h2.27Zm-1.57.55v2.25H85.9a1.14,1.14,0,0,0,1.32-1.13,1.16,1.16,0,0,0-1.38-1.12H84.2Zm0,2.81v2.54h1.68c1,0,1.54-.44,1.54-1.23a1.29,1.29,0,0,0-1.5-1.31H84.2Z"/><path class="cls-2" d="M89.71,19.28c0-2.18,1.34-3.38,3-3.38s3,1.17,3,3.38-1.31,3.38-3,3.38S89.71,21.43,89.71,19.28Zm5.27,0c0-1.82-1-2.79-2.27-2.79s-2.28,1-2.28,2.79,1,2.79,2.28,2.79S95,21.14,95,19.28Z"/><path class="cls-2" d="M102,22.52l-0.68-1.74H98.1l-0.69,1.74H96.67L99.3,16h0.83l2.62,6.48H102ZM98.32,20.2h2.73L99.7,16.74Z"/><path class="cls-2" d="M108.25,22.52L106.6,20h-1.73v2.57h-0.7V16h2.15c1.56,0,2.42.73,2.42,2a1.86,1.86,0,0,1-1.43,1.79l1.79,2.7h-0.85Zm-3.38-5.9v2.75h1.48A1.41,1.41,0,0,0,108,18c0-.9-0.55-1.41-1.67-1.41h-1.47Z"/><path class="cls-2" d="M112.56,16a2.92,2.92,0,0,1,3.15,3.24,3,3,0,0,1-3.2,3.24H110.6V16h2Zm-1.26.58v5.31h1.29c1.47,0,2.41-.92,2.41-2.65s-1-2.67-2.43-2.67H111.3Z"/></svg>