<svg id="Layer_1" data-name="Layer 1" xmlns="http://www.w3.org/2000/svg" viewBox="0 0 29 14"><title>jive</title><path d="M0,11.59a4,4,0,0,0,.47-.15A1.46,1.46,0,0,0,1.39,10q0-3.6,0-7.19c0-.05,0-.1,0-.16l1.06.17L4.2,3.1c.1,0,.12,0,.12.14q0,3.65,0,7.3a3.1,3.1,0,0,1-.82,2.21,3.93,3.93,0,0,1-1.59,1c-.27.1-.54.17-.81.25h0L.21,12.06,0,11.62S0,11.6,0,11.59Z"/><path d="M29,5.43l-5.86.4a5.06,5.06,0,0,0,.19.51,1.87,1.87,0,0,0,1.33,1,4.92,4.92,0,0,0,1.74,0c.27,0,.53-.1.8-.15a.14.14,0,0,1,.11,0l1.42,1.85a.2.2,0,0,1,0,.05l-.39.14a8.66,8.66,0,0,1-3.83.41A4.49,4.49,0,0,1,21,7.43a5,5,0,0,1-.62-3c0-.13,0-.25,0-.38s0-.12.14-.12l.82,0,3.38-.2c.56,0,1.12-.1,1.68-.14.13,0,.14-.06.13-.17a1.32,1.32,0,0,0-1.11-1.22,3.93,3.93,0,0,0-1.37,0c-.69.07-1.38.13-2.07.19L21,2.41l0-.11A4.23,4.23,0,0,1,24.25.05a4.37,4.37,0,0,1,2.52.33,3.68,3.68,0,0,1,1.9,2.19,5.71,5.71,0,0,1,.33,2C29,4.85,29,5.13,29,5.43Z"/><path d="M15.56,5.72c.07-.21.14-.41.21-.62q.75-2.37,1.49-4.74a.18.18,0,0,1,.21-.15h2.94l0,.12L16.86,9.57a.15.15,0,0,1-.17.12H14.27a.14.14,0,0,1-.16-.11L12,4l0-.12h.12l2.76.1C15,3.94,15,4,15,4l.49,1.55,0,.11Z"/><path d="M6.42,3.38l2.9.27v6H6.42Z"/><path d="M10.63.21h3c.09,0,.14,0,.16.11.23.73.46,1.46.7,2.19l0,.12h-1l-1.94,0a.12.12,0,0,1-.14-.09L10.65.28A.66.66,0,0,1,10.63.21Z"/><path d="M9.32.24V2.52l-2.9-.16V.24Z"/><path d="M1.4.23h2.9v2l-.63,0L1.5,2c-.07,0-.11,0-.11-.1,0-.53,0-1.06,0-1.58A.45.45,0,0,1,1.4.23Z"/></svg>