<?xml version="1.0" encoding="utf-8"?>
<!-- Generator: Adobe Illustrator 19.1.0, SVG Export Plug-In . SVG Version: 6.00 Build 0)  -->
<svg version="1.1" id="Layer_1" xmlns="http://www.w3.org/2000/svg" xmlns:xlink="http://www.w3.org/1999/xlink" x="0px" y="0px"
	 viewBox="-297 389 16 16" style="enable-background:new -297 389 16 16;" xml:space="preserve">
<style type="text/css">
	.st0{fill:#FFFFFF;}
	.st1{fill:#CCCCCC;}
	.st2{fill:#039AD3;}
	.st3{fill:#049FD9;}
</style>
<path class="st0" d="M-289,389L-289,389c4.4,0,8,3.6,8,8l0,0c0,4.4-3.6,8-8,8l0,0c-4.4,0-8-3.6-8-8l0,0
	C-297,392.6-293.4,389-289,389z"/>
<path class="st1" d="M-289,390c3.9,0,7,3.1,7,7s-3.1,7-7,7s-7-3.1-7-7S-292.9,390-289,390 M-289,389L-289,389c-4.4,0-8,3.6-8,8l0,0
	c0,4.4,3.6,8,8,8l0,0c4.4,0,8-3.6,8-8l0,0C-281,392.6-284.6,389-289,389z"/>
<path class="st2" d="M-287.5,400.4l-3.1-3.4l0,0l3.1-3.4l-1-1.1l-4,4.5l4,4.5L-287.5,400.4z"/>
<path class="st3" d="M-287.5,400.4l-3.1-3.4l0,0l3.1-3.4l-1-1.1l-4,4.5l4,4.5L-287.5,400.4z"/>
</svg>
