<?xml version="1.0" encoding="utf-8"?>
<!-- Generator: Adobe Illustrator 20.1.0, SVG Export Plug-In . SVG Version: 6.00 Build 0)  -->
<svg version="1.1" id="Layer_1" xmlns="http://www.w3.org/2000/svg" xmlns:xlink="http://www.w3.org/1999/xlink" x="0px" y="0px"
	 viewBox="0 0 218 30.4" style="enable-background:new 0 0 218 30.4;" xml:space="preserve">
<style type="text/css">
	.st0{fill:#666666;}
	.st1{fill:#59595B;}
</style>
<title>Asset 10</title>
<path class="st0" d="M1.3,22.3v7.1h3.9v0.8H0.4v-7.9H1.3z"/>
<path class="st0" d="M11.8,26.6H8.1v2.9h4v0.7H7.3v-7.9h4.8v0.7h-4v2.8h3.6L11.8,26.6z"/>
<path class="st0" d="M20,30.3l-0.8-2.1h-3.9l-0.9,2.1h-0.9l3.2-7.9h1l3.3,7.9H20z M15.6,27.4h3.3l-1.6-4.2L15.6,27.4z"/>
<path class="st0" d="M25.1,22.3c2.3,0,3.9,1.3,3.9,4c0.2,2-1.3,3.8-3.3,4c-0.2,0-0.4,0-0.6,0h-2.3v-8H25.1z M23.5,23v6.5h1.6
	c1.8,0,3-1.1,3-3.2s-1.2-3.3-3-3.3L23.5,23z"/>
<path class="st0" d="M35.7,26.6H32v2.9h4v0.7h-4.8v-7.9H36v0.7h-4v2.8h3.6L35.7,26.6z"/>
<path class="st0" d="M43.3,30.3l-2-3.1h-2.1v3.1h-0.9v-7.9h2.6c1.9,0,3,0.9,3,2.4c0,1.1-0.7,2-1.8,2.2l2.2,3.3L43.3,30.3z M39.1,23
	v3.4h1.8c1.3,0,2-0.7,2-1.6s-0.7-1.7-2-1.7L39.1,23z"/>
<path class="st0" d="M50.9,28.2c0-0.9-0.4-1.3-2.6-1.8c-1.8-0.5-2.4-1.1-2.4-2.2s1-2,2.8-2c1.6,0,2.8,0.8,3.1,2.1h-0.9
	c-0.2-0.8-0.9-1.3-2.2-1.3s-1.9,0.5-1.9,1.2s0.3,1.1,2.2,1.6c2.2,0.5,2.8,1.2,2.8,2.4s-1.1,2.3-3,2.3c-1.5,0.2-2.8-0.8-3.2-2.3h0.9
	c0.2,1,1,1.6,2.2,1.6C50.2,29.7,50.9,29,50.9,28.2z"/>
<path class="st0" d="M60,22.3v7.9h-0.9v-3.6h-4.2v3.6H54v-7.9h0.9v3.5H59v-3.5H60z"/>
<path class="st0" d="M63.4,22.3v7.9h-0.9v-7.9H63.4z"/>
<path class="st0" d="M68.6,22.3c1.9,0,2.9,0.9,2.9,2.5s-1.1,2.5-3,2.5h-1.7v2.9h-0.9v-7.9H68.6z M66.8,23v3.5h1.7
	c1.4,0,2.1-0.6,2.1-1.7s-0.7-1.8-2-1.8L66.8,23z"/>
<path class="st0" d="M80.2,22.3c2.3,0,3.8,1.3,3.8,4c0.2,2-1.3,3.8-3.3,4c-0.2,0-0.4,0-0.6,0h-2.3v-8H80.2z M78.6,23v6.5h1.6
	c1.8,0,2.9-1.1,2.9-3.2S82,23,80.2,23L78.6,23z"/>
<path class="st0" d="M91.7,30.3l-0.8-2.1H87l-0.8,2.1h-0.9l3.2-7.9h1l3.2,7.9L91.7,30.3z M87.3,27.4h3.3l-1.7-4.2L87.3,27.4z"/>
<path class="st0" d="M99.2,28.2c0-0.9-0.4-1.3-2.6-1.8c-1.8-0.5-2.4-1.1-2.4-2.2s1-2,2.8-2c1.6,0,2.8,0.8,3.1,2.1h-0.9
	c-0.1-0.8-0.9-1.3-2.1-1.3s-1.9,0.5-1.9,1.2s0.3,1.1,2.2,1.6c2.2,0.5,2.8,1.2,2.8,2.4S99,30.4,97,30.4c-1.5,0.2-2.8-0.8-3.2-2.3h0.9
	c0.2,1,1,1.6,2.2,1.6C98.4,29.7,99.2,29,99.2,28.2z"/>
<path class="st0" d="M108.2,22.3v7.9h-0.9v-3.6h-4.2v3.6h-0.9v-7.9h0.9v3.5h4.2v-3.5H108.2z"/>
<path class="st0" d="M113.6,22.3c1.7,0,2.6,0.8,2.6,2c0,0.8-0.6,1.5-1.3,1.7c1,0.2,1.7,1,1.6,2c0,1.4-1,2.2-2.9,2.2h-2.8v-7.9H113.6
	z M111.6,23v2.8h2.1c1.1,0,1.6-0.6,1.6-1.4s-0.6-1.4-1.7-1.4L111.6,23z M111.6,26.4v3.1h2.1c1.2,0,1.9-0.5,1.9-1.5s-0.7-1.6-1.8-1.6
	L111.6,26.4z"/>
<path class="st0" d="M118.4,26.3c0-2.7,1.6-4.1,3.7-4.1s3.7,1.4,3.7,4.1s-1.6,4.1-3.7,4.1S118.4,28.9,118.4,26.3z M124.8,26.3
	c0-2.2-1.2-3.4-2.8-3.4s-2.8,1.2-2.8,3.4s1.2,3.4,2.8,3.4S124.8,28.6,124.8,26.3L124.8,26.3z"/>
<path class="st0" d="M133.3,30.3l-0.8-2.1h-3.9l-0.8,2.1h-0.9l3.2-7.9h1l3.2,7.9L133.3,30.3z M128.9,27.4h3.3l-1.6-4.2L128.9,27.4z"
	/>
<path class="st0" d="M141,30.3l-2-3.1h-2.1v3.1H136v-7.9h2.6c1.9,0,3,0.9,3,2.4c0,1.1-0.7,2-1.8,2.2l2.2,3.3L141,30.3z M136.9,23
	v3.4h1.8c1.3,0,2-0.7,2-1.6s-0.7-1.7-2-1.7L136.9,23z"/>
<path class="st0" d="M146.3,22.3c2.3,0,3.9,1.3,3.9,4c0.2,2-1.3,3.8-3.3,4c-0.2,0-0.4,0-0.6,0h-2.3v-8H146.3z M144.8,23v6.5h1.6
	c1.8,0,2.9-1.1,2.9-3.2s-1.2-3.3-3-3.3H144.8z"/>
<g>
	<g>
		<path class="st1" d="M11.1,2H6.5v11.9H4.5V2H0V0.3h11.1V2z"/>
		<path class="st1" d="M21.7,7.8h-6v4.5h6.6v1.6h-8.5V0.3h8.5v1.6h-6.6v4.3h6V7.8z"/>
		<path class="st1" d="M35.4,9.1h2c-0.2,2.7-2.5,5.1-6,5.1c-3.8,0-6.3-2.6-6.3-7.1c0-4.6,2.7-7.1,6.4-7.1c3.3,0,5.6,2.2,5.8,4.7h-2
			c-0.2-1.9-1.7-3.1-3.8-3.1c-2.6,0-4.4,1.8-4.4,5.5c0,3.5,1.8,5.5,4.3,5.5C33.6,12.6,35.3,11.1,35.4,9.1z"/>
		<path class="st1" d="M51.2,0.3v13.7h-2V7.8h-6.7v6.1h-1.9V0.3h1.9v5.9h6.7V0.3H51.2z"/>
		<path class="st1" d="M65.9,0.3v13.7h-2.5L56.8,2.5v11.5h-1.8V0.3h2.6l6.5,11.4V0.3H65.9z"/>
		<path class="st1" d="M71.7,0.3v13.7h-1.9V0.3H71.7z"/>
		<path class="st1" d="M85.3,9.1h2c-0.2,2.7-2.5,5.1-6,5.1c-3.8,0-6.3-2.6-6.3-7.1C75,2.5,77.7,0,81.4,0c3.3,0,5.6,2.2,5.8,4.7h-2
			c-0.2-1.9-1.7-3.1-3.8-3.1c-2.6,0-4.4,1.8-4.4,5.5c0,3.5,1.8,5.5,4.3,5.5C83.5,12.6,85.2,11.1,85.3,9.1z"/>
		<path class="st1" d="M100.3,13.9L99,10.5h-6.5l-1.4,3.5h-2l5.6-13.7h2.2l5.6,13.7H100.3z M93.1,8.9h5.3l-2.6-6.7L93.1,8.9z"/>
		<path class="st1" d="M106.9,0.3v11.9h6.4v1.7h-8.4V0.3H106.9z"/>
		<path class="st1" d="M127.1,7.4c-3.2-0.9-4.2-2-4.2-3.9c0-2,1.8-3.5,4.9-3.5c2.9,0,5.1,1.4,5.4,3.7h-2c-0.2-1.3-1.4-2.1-3.4-2.1
			c-2.1,0-3,0.8-3,1.8c0,1.1,0.5,1.6,3.6,2.5c3.8,1.1,4.9,2.2,4.9,4.3c0,2.1-1.9,4.1-5.3,4.1c-2.9,0-5.2-1.6-5.5-4.1h2
			c0.2,1.5,1.5,2.5,3.5,2.5c2.3,0,3.4-1.1,3.4-2.4C131.4,9,130.8,8.4,127.1,7.4z"/>
		<path class="st1" d="M144.7,7.8h-6v4.5h6.6v1.6h-8.5V0.3h8.5v1.6h-6.6v4.3h6V7.8z"/>
		<path class="st1" d="M157.1,13.9l-3.3-5.2h-3.2v5.2h-1.9V0.3h4.4c3.5,0,5.4,1.5,5.4,4.3c0,2.1-1.3,3.2-2.8,3.8l3.7,5.6H157.1z
			 M150.6,1.8v5.3h2.6c2.1,0,3.3-1,3.3-2.6c0-1.8-1.1-2.7-3.4-2.7H150.6z"/>
		<path class="st1" d="M172.7,0.3l-4.9,13.7h-2.4l-5-13.7h2.1l4.1,11.9l4.2-11.9H172.7z"/>
		<path class="st1" d="M177.1,0.3v13.7h-1.9V0.3H177.1z"/>
		<path class="st1" d="M190.7,9.1h2c-0.2,2.7-2.5,5.1-6,5.1c-3.8,0-6.3-2.6-6.3-7.1c0-4.6,2.7-7.1,6.4-7.1c3.3,0,5.6,2.2,5.8,4.7h-2
			c-0.2-1.9-1.7-3.1-3.8-3.1c-2.6,0-4.4,1.8-4.4,5.5c0,3.5,1.8,5.5,4.3,5.5C189,12.6,190.6,11.1,190.7,9.1z"/>
		<path class="st1" d="M203.9,7.8h-6v4.5h6.6v1.6h-8.5V0.3h8.5v1.6h-6.6v4.3h6V7.8z"/>
		<path class="st1" d="M211.8,7.4c-3.2-0.9-4.2-2-4.2-3.9c0-2,1.8-3.5,4.9-3.5c2.9,0,5.1,1.4,5.4,3.7h-2c-0.2-1.3-1.4-2.1-3.4-2.1
			c-2.1,0-3,0.8-3,1.8c0,1.1,0.5,1.6,3.6,2.5c3.8,1.1,4.9,2.2,4.9,4.3c0,2.1-1.9,4.1-5.3,4.1c-2.9,0-5.2-1.6-5.5-4.1h2
			c0.2,1.5,1.5,2.5,3.5,2.5c2.3,0,3.4-1.1,3.4-2.4C216.1,9,215.4,8.4,211.8,7.4z"/>
	</g>
</g>
</svg>
