<svg id="Layer_1" data-name="Layer 1" xmlns="http://www.w3.org/2000/svg" viewBox="0 0 221.4 36"><defs><style>.cls-1{fill:#0f9ed9;}.cls-2{fill:#595a5c;}.cls-3{fill:#666;}</style></defs><title>logo</title><path id="_Path_" data-name=" Path " class="cls-1" d="M59.69,10.84a1.51,1.51,0,0,0-3,0v2.9a1.51,1.51,0,0,0,3,0v-2.9Z"/><rect id="_Path_2" data-name=" Path 2" class="cls-1" x="17.69" y="22.34" width="3" height="11"/><path id="_Path_3" data-name=" Path 3" class="cls-1" d="M41.69,25.74c-1-.1-1.6-0.6-2.8-0.6a3,3,0,0,0-3.2,2.9h0a3.15,3.15,0,0,0,3.4,2.9c1.3,0,1.7-.5,2.7-0.6v3c-1,.2-2,0.3-3,0.4a5.79,5.79,0,0,1-6-5.5v-0.3a5.89,5.89,0,0,1,6-5.7h0.1a28.86,28.86,0,0,1,2.9.4l-0.1,3.1h0Z"/><path id="_Path_4" data-name=" Path 4" class="cls-1" d="M13.69,25.74a6.71,6.71,0,0,0-2.8-.6A3,3,0,0,0,7.69,28h0a3.12,3.12,0,0,0,3.3,2.9,6.6,6.6,0,0,0,2.7-.6v3c-1,.2-2,0.3-3,0.4a5.7,5.7,0,0,1-5.9-5.5V28a5.89,5.89,0,0,1,6-5.7h0a28.86,28.86,0,0,1,2.9.4v3h0Z"/><path id="_Compound_Path_" data-name=" Compound Path " class="cls-1" d="M54.59,28.14a5.6,5.6,0,1,1-5.6-5.6,5.66,5.66,0,0,1,5.6,5.6m-5.7-2.9a2.85,2.85,0,1,0,2.7,3V28a2.54,2.54,0,0,0-2.7-2.8h0"/><path id="_Path_5" data-name=" Path 5" class="cls-1" d="M30.69,25.14a9.86,9.86,0,0,0-2.4-.3c-1.1,0-1.8.4-1.8,0.9a1.19,1.19,0,0,0,1.2,1l0.7,0.3a3.11,3.11,0,0,1,2.5,3.1c0,2.8-1.8,3.7-3.8,3.7a8.52,8.52,0,0,1-2.3-.3V31a3.44,3.44,0,0,0,2,.4c1.3,0,1.7-.4,1.7-1a1.63,1.63,0,0,0-1.3-1.1l-0.6-.2c-1.5-.5-2.8-1.4-2.8-3.2,0-2.1,1.8-3.4,4.2-3.4a14.28,14.28,0,0,1,2.9.3l-0.2,2.3h0Z"/><path id="_Path_6" data-name=" Path 6" class="cls-1" d="M3.69,10.84A1.5,1.5,0,0,0,2,9.54a1.49,1.49,0,0,0-1.3,1.3v2.9A1.5,1.5,0,0,0,2.39,15a1.49,1.49,0,0,0,1.3-1.3v-2.9Z"/><path id="_Path_7" data-name=" Path 7" class="cls-1" d="M10.69,6.94a1.51,1.51,0,0,0-3,0v6.7a1.51,1.51,0,0,0,3,0V6.94Z"/><path id="_Path_8" data-name=" Path 8" class="cls-1" d="M16.69,1.84a1.07,1.07,0,0,0-.8-1.3h-0.2a1.11,1.11,0,0,0-1,1.2v14.8a1.23,1.23,0,0,0,.8,1.4h0.2c0.7,0,1-.6,1-1.4V1.84Z"/><path id="_Path_9" data-name=" Path 9" class="cls-1" d="M24.69,6.94a1.51,1.51,0,0,0-3,0v6.7a1.51,1.51,0,0,0,3,0V6.94Z"/><path id="_Path_10" data-name=" Path 10" class="cls-1" d="M31.69,10.84a1.51,1.51,0,0,0-3,0v2.9a1.51,1.51,0,0,0,3,0v-2.9Z"/><path id="_Path_11" data-name=" Path 11" class="cls-1" d="M38.69,6.94a1.4,1.4,0,0,0-1.2-1.4h-0.3a1.34,1.34,0,0,0-1.5,1.1v7a1.32,1.32,0,0,0,1.2,1.4h0.3a1.34,1.34,0,0,0,1.5-1.1v-7Z"/><path id="_Path_12" data-name=" Path 12" class="cls-1" d="M45.69,1.44a1.5,1.5,0,1,0-3,0v15a1.5,1.5,0,0,0,3,0v-15Z"/><path id="_Path_13" data-name=" Path 13" class="cls-1" d="M17.69,1.44A1.27,1.27,0,0,0,16.49,0h-0.3a1.34,1.34,0,0,0-1.5,1.1v15.3a1.27,1.27,0,0,0,1.2,1.4h0.3a1.34,1.34,0,0,0,1.5-1.1V1.44Z"/><path id="_Path_14" data-name=" Path 14" class="cls-1" d="M52.69,6.94a1.51,1.51,0,0,0-3,0v6.7a1.51,1.51,0,0,0,3,0V6.94Z"/><path class="cls-2" d="M88.49,13.54h2a5.72,5.72,0,0,1-6,5.1c-3.8,0-6.3-2.6-6.3-7.1s2.7-7.1,6.4-7.1c3.3,0,5.6,2.2,5.8,4.7h-2A3.55,3.55,0,0,0,84.59,6c-2.6,0-4.4,1.8-4.4,5.5,0,3.5,1.8,5.5,4.3,5.5A3.86,3.86,0,0,0,88.49,13.54Z"/><path class="cls-2" d="M95.69,4.64v13.7h-2V4.64h2Z"/><path class="cls-2" d="M103.39,11.84c-3.2-.9-4.2-2-4.2-3.9s1.8-3.5,4.9-3.5c2.9,0,5.1,1.4,5.4,3.7h-2c-0.2-1.3-1.4-2.1-3.4-2.1s-3,.8-3,1.8,0.5,1.6,3.6,2.5c3.8,1.1,4.9,2.2,4.9,4.3s-1.9,4.1-5.3,4.1c-2.9,0-5.2-1.6-5.6-4.1h2c0.2,1.5,1.5,2.5,3.5,2.5,2.3,0,3.4-1.1,3.4-2.4S107.09,12.84,103.39,11.84Z"/><path class="cls-2" d="M122.59,13.54h2a5.72,5.72,0,0,1-6,5.1c-3.8,0-6.3-2.6-6.3-7.1s2.7-7.1,6.4-7.1c3.3,0,5.6,2.2,5.8,4.7h-2a3.55,3.55,0,0,0-3.8-3.1c-2.6,0-4.4,1.8-4.4,5.5,0,3.5,1.8,5.5,4.3,5.5A3.86,3.86,0,0,0,122.59,13.54Z"/><path class="cls-2" d="M126.89,11.54c0-4.6,2.9-7.1,6.5-7.1s6.5,2.4,6.5,7.1c0,4.5-2.8,7.1-6.5,7.1S126.89,16,126.89,11.54Zm10.9,0c0-3.6-1.8-5.6-4.5-5.6s-4.5,1.9-4.5,5.6,1.8,5.5,4.5,5.5,4.6-1.9,4.5-5.5h0Z"/><path class="cls-2" d="M158.39,18.34l-3.3-5.2h-3.3v5.2h-1.9V4.64h4.4c3.5,0,5.4,1.5,5.4,4.3a4,4,0,0,1-2.8,3.8l3.7,5.6h-2.2Zm-6.5-12.1v5.3h2.6c2.1,0,3.3-1,3.3-2.6,0-1.8-1.1-2.7-3.4-2.7h-2.5Z"/><path class="cls-2" d="M171.29,12.24h-6v4.5h6.6v1.6h-8.5V4.64h8.5v1.6h-6.6v4.3h6v1.7h0Z"/><path class="cls-2" d="M185.09,18.34l-1.4-3.5h-6.5l-1.4,3.5h-2l5.6-13.7h2.2l5.6,13.7h-2.1Zm-7.2-5h5.3l-2.6-6.7Z"/><path class="cls-2" d="M194.19,4.64c4,0,6.7,2.1,6.7,6.8,0,4.4-2.9,6.8-6.9,6.8h-4.3V4.54h4.5v0.1Zm-2.5,1.6v10.5h2.6c3,0,4.7-1.8,4.7-5.2,0-3.6-1.8-5.3-4.8-5.3h-2.5Z"/><path class="cls-2" d="M206.79,18.34v-5.4l-5-8.2h2.1l3.9,6.6,4-6.6h2l-5,8.2v5.4h-2Z"/><path class="cls-3" d="M83.69,32.24h-3.6v2.9h4v0.7h-4.9v-7.9H84v0.7H80v2.8h3.6v0.8h0.1Z"/><path class="cls-3" d="M89.39,31.74l2.8,4.1h-1l-2.3-3.4-2.3,3.4h-1l2.8-4.1-2.7-3.8h1l2.2,3.1,2.2-3.1h1Z"/><path class="cls-3" d="M98.59,32.24H95v2.9h3.9v0.7h-4.8v-7.9h4.8v0.7H95v2.8h3.6v0.8h0Z"/><path class="cls-3" d="M100.89,31.94c0-2.7,1.5-4.2,3.6-4.2a3.08,3.08,0,0,1,3.3,2.6h-0.9a2.21,2.21,0,0,0-2.4-1.9c-1.6,0-2.8,1.2-2.8,3.4s1.1,3.4,2.7,3.4a2.41,2.41,0,0,0,2.5-2.1h0.9a3.17,3.17,0,0,1-3.3,2.8C102.29,35.94,100.89,34.54,100.89,31.94Z"/><path class="cls-3" d="M109.89,33.24V28h0.9v5.4a2.27,2.27,0,0,0,2.5,2,2.33,2.33,0,0,0,2-2V28h0.8v5.3a3,3,0,0,1-3.4,2.7A3.29,3.29,0,0,1,109.89,33.24Z"/><path class="cls-3" d="M124,28.74h-2.7v7.1h-0.9v-7.1h-2.6V28H124v0.7h0Z"/><path class="cls-3" d="M126.69,27.94v7.9h-0.9v-7.9h0.9Z"/><path class="cls-3" d="M129.39,27.94L132,35l2.6-7.1h0.9l-2.9,7.9h-1.1l-2.9-7.9h0.8Z"/><path class="cls-3" d="M141.59,32.24H138v2.9h4v0.7h-4.8v-7.9H142v0.7h-4v2.8h3.6v0.8h0Z"/><path class="cls-3" d="M150.69,27.94c2.3,0,3.9,1.3,3.9,4a3.69,3.69,0,0,1-3.3,4h-2.9v-8h2.3Zm-1.5.7v6.5h1.6c1.8,0,2.9-1.1,2.9-3.2s-1.2-3.3-3-3.3h-1.5Z"/><path class="cls-3" d="M162.19,35.84l-0.8-2.1h-3.9l-0.8,2.1h-0.9l3.2-7.9h1l3.2,7.9h-1Zm-4.4-2.9h3.3l-1.6-4.2Z"/><path class="cls-3" d="M169.69,33.74c0-.9-0.4-1.3-2.6-1.8-1.8-.4-2.4-1.1-2.4-2.2s1-2,2.8-2a2.92,2.92,0,0,1,3.1,2.1h-0.9c-0.2-.8-0.9-1.3-2.2-1.3s-1.9.5-1.9,1.2,0.4,1.1,2.2,1.6c2.2,0.6,2.8,1.2,2.8,2.4s-1.1,2.3-3,2.3a2.78,2.78,0,0,1-3.1-2.3h0.9a2.07,2.07,0,0,0,2.2,1.6C169,35.34,169.69,34.64,169.69,33.74Z"/><path class="cls-3" d="M178.79,27.94v7.9h-0.9v-3.7h-4.2v3.6h-0.9v-7.9h0.9v3.5h4.2v-3.5h0.9v0.1Z"/><path class="cls-3" d="M184.09,27.94c1.7,0,2.6.8,2.6,2a1.81,1.81,0,0,1-1.4,1.7,1.86,1.86,0,0,1,1.6,2c0,1.4-1,2.2-2.9,2.2h-2.8v-7.9h2.9Zm-1.9.7v2.8h2.1a1.38,1.38,0,0,0,1.6-1.2V30a1.43,1.43,0,0,0-1.4-1.4h-2.3Zm0,3.4v3.1h2.1c1.2,0,1.9-.5,1.9-1.5a1.5,1.5,0,0,0-1.5-1.6h-2.5Z"/><path class="cls-3" d="M188.89,31.94c0-2.7,1.6-4.1,3.7-4.1s3.7,1.4,3.7,4.1-1.6,4.1-3.7,4.1S188.89,34.54,188.89,31.94Zm6.5,0c0-2.2-1.2-3.4-2.8-3.4s-2.8,1.2-2.8,3.4,1.2,3.4,2.8,3.4,2.7-1.2,2.8-3.4h0Z"/><path class="cls-3" d="M203.89,35.84l-0.8-2.1h-3.9l-0.9,2.1h-0.9l3.2-7.9h1l3.2,7.9h-0.9Zm-4.5-2.9h3.3l-1.6-4.2Z"/><path class="cls-3" d="M211.59,35.84l-2-3.1h-2.1v3.1h-0.9v-7.9h2.6c1.9,0,3,.9,3,2.4a2.24,2.24,0,0,1-1.8,2.2l2.2,3.3h-1Zm-4.2-7.2v3.3h1.8c1.3,0,2-.7,2-1.6a1.72,1.72,0,0,0-2-1.7h-1.8Z"/><path class="cls-3" d="M216.79,27.94c2.3,0,3.9,1.3,3.9,4a3.69,3.69,0,0,1-3.3,4h-2.9v-8h2.3Zm-1.5.7v6.5h1.6c1.8,0,2.9-1.1,2.9-3.2s-1.2-3.3-3-3.3h-1.5Z"/></svg>