<?xml version="1.0" encoding="utf-8"?>
<!-- Generator: Adobe Illustrator 21.0.0, SVG Export Plug-In . SVG Version: 6.00 Build 0)  -->
<svg version="1.1" id="Layer_1" xmlns="http://www.w3.org/2000/svg" xmlns:xlink="http://www.w3.org/1999/xlink" x="0px" y="0px"
	 viewBox="0 0 59 33.8" style="enable-background:new 0 0 59 33.8;" xml:space="preserve">
<style type="text/css">
	.st0{fill:#0C9ED9;}
</style>
<title>Asset 9</title>
<path id="_Path_" class="st0" d="M59,10.8c-0.1-0.8-0.8-1.4-1.7-1.3c-0.7,0.1-1.2,0.6-1.3,1.3v2.9c0.1,0.8,0.8,1.4,1.7,1.3
	c0.7-0.1,1.2-0.6,1.3-1.3V10.8z"/>
<rect id="_Path_2" x="17" y="22.4" class="st0" width="3" height="11"/>
<path id="_Path_3" class="st0" d="M41,25.8c-1-0.1-1.5-0.6-2.8-0.6c-1.7-0.1-3.1,1.2-3.2,2.9l0,0c0.1,1.7,1.6,3,3.4,2.9
	c1.3,0,1.7-0.5,2.7-0.6v3c-1,0.2-2,0.3-3,0.4c-3.2,0.1-5.8-2.3-6-5.5c0-0.1,0-0.2,0-0.3c0.1-3.2,2.8-5.8,6-5.7c0,0,0,0,0.1,0
	c1,0.1,1.9,0.2,2.9,0.4L41,25.8z"/>
<path id="_Path_4" class="st0" d="M13,25.8c-0.9-0.4-1.8-0.6-2.8-0.6c-1.7-0.1-3.1,1.2-3.2,2.9l0,0c0.1,1.7,1.6,3,3.3,2.9
	c0.9,0,1.8-0.2,2.7-0.6v3c-1,0.2-2,0.3-3,0.4c-3.2,0.1-5.8-2.4-5.9-5.5c0-0.1,0-0.1,0-0.2c0.1-3.2,2.8-5.8,6-5.7l0,0
	c1,0.1,1.9,0.2,2.9,0.4V25.8z"/>
<path id="_Compound_Path_" class="st0" d="M53.8,28.1c0,3.1-2.5,5.6-5.6,5.6s-5.6-2.5-5.6-5.6s2.5-5.6,5.6-5.6S53.8,25,53.8,28.1
	 M48.2,25.2c-1.6-0.1-3,1.1-3,2.7c-0.1,1.6,1.1,3,2.7,3c1.6,0.1,3-1.1,3-2.7c0-0.1,0-0.1,0-0.2C51.1,26.6,49.9,25.3,48.2,25.2
	C48.3,25.2,48.3,25.2,48.2,25.2"/>
<path id="_Path_5" class="st0" d="M30,25.1c-0.8-0.2-1.6-0.3-2.4-0.3c-1.1,0-1.8,0.4-1.8,0.9s0.7,0.9,1.1,1l0.7,0.2
	c1.5,0.3,2.5,1.6,2.5,3.1c0,2.8-1.8,3.7-3.8,3.7c-0.8,0-1.6-0.1-2.3-0.3V31c0.6,0.3,1.3,0.5,2,0.4c1.3,0,1.7-0.4,1.7-1
	s-0.7-0.9-1.4-1.1l-0.6-0.2c-1.5-0.5-2.8-1.4-2.8-3.2c0-2.1,1.8-3.4,4.2-3.4c1,0,1.9,0.1,2.9,0.4C30,22.9,30,25.1,30,25.1z"/>
<path id="_Path_6" class="st0" d="M3,10.8C2.9,10,2.2,9.4,1.3,9.5C0.6,9.6,0.1,10.1,0,10.8v2.9c0.1,0.8,0.8,1.4,1.7,1.3
	c0.7-0.1,1.2-0.6,1.3-1.3V10.8z"/>
<path id="_Path_7" class="st0" d="M10,7C9.9,6.2,9.2,5.6,8.3,5.7C7.6,5.8,7.1,6.3,7,7v6.7c0.1,0.8,0.8,1.4,1.7,1.3
	c0.7-0.1,1.2-0.6,1.3-1.3V7z"/>
<path id="_Path_8" class="st0" d="M16,1.8c0-0.8-0.3-1.4-1-1.4S14,1,14,1.8v14.6c0,0.8,0.3,1.4,1,1.4s1-0.6,1-1.4V1.8z"/>
<path id="_Path_9" class="st0" d="M24,7c-0.1-0.8-0.8-1.4-1.7-1.3C21.6,5.8,21.1,6.3,21,7v6.7c0.1,0.8,0.8,1.4,1.7,1.3
	c0.7-0.1,1.2-0.6,1.3-1.3V7z"/>
<path id="_Path_10" class="st0" d="M31,10.8c-0.1-0.8-0.8-1.4-1.7-1.3c-0.7,0.1-1.2,0.6-1.3,1.3v2.9c0.1,0.8,0.8,1.4,1.7,1.3
	c0.7-0.1,1.2-0.6,1.3-1.3V10.8z"/>
<path id="_Path_11" class="st0" d="M38,7c0-0.8-0.4-1.4-1.5-1.4S35,6.3,35,7v6.7c0,0.8,0.4,1.4,1.5,1.4s1.5-0.6,1.5-1.4V7z"/>
<path id="_Path_12" class="st0" d="M45,1.4c0-0.8-0.7-1.5-1.5-1.5S42,0.6,42,1.4v15c0,0.8,0.7,1.5,1.5,1.5s1.5-0.7,1.5-1.5V1.4z"/>
<path id="_Path_13" class="st0" d="M17,1.4C17.1,0.7,16.5,0,15.8,0c-0.1,0-0.2,0-0.3,0c-0.7-0.1-1.4,0.4-1.5,1.1c0,0.1,0,0.2,0,0.3
	v15c-0.1,0.7,0.5,1.4,1.2,1.4c0.1,0,0.2,0,0.3,0c0.7,0.1,1.4-0.4,1.5-1.1c0-0.1,0-0.2,0-0.3V1.4z"/>
<path id="_Path_14" class="st0" d="M52,7c-0.1-0.8-0.8-1.4-1.7-1.3C49.6,5.8,49.1,6.3,49,7v6.7c0.1,0.8,0.8,1.4,1.7,1.3
	c0.7-0.1,1.2-0.6,1.3-1.3V7z"/>
</svg>
