<svg id="Layer_1" data-name="Layer 1" xmlns="http://www.w3.org/2000/svg" viewBox="0 0 220 34"><defs><style>.cls-1{fill:#0c9ed9;}.cls-2{fill:#59595b;}.cls-3{fill:#666;}</style></defs><title>Untitled-2</title><path id="_Path_" data-name="&lt;Path&gt;" class="cls-1" d="M59,10.87a1.51,1.51,0,0,0-3,0v2.9a1.5,1.5,0,0,0,3,0Z"/><rect id="_Path_2" data-name="&lt;Path&gt;" class="cls-1" x="17" y="22" width="3" height="11"/><path id="_Path_3" data-name="&lt;Path&gt;" class="cls-1" d="M41,25.92c-1-.06-1.55-.59-2.83-.59a3.08,3.08,0,0,0-3.22,3,3.22,3.22,0,0,0,3.36,3c1.26,0,1.69-.52,2.69-.59v3A25.39,25.39,0,0,1,38,34,5.74,5.74,0,0,1,32,28.27a5.88,5.88,0,0,1,6.08-5.72,24.55,24.55,0,0,1,2.87.4Z"/><path id="_Path_4" data-name="&lt;Path&gt;" class="cls-1" d="M13,25.92a7.53,7.53,0,0,0-2.79-.59,3.06,3.06,0,0,0-3.2,3,3.19,3.19,0,0,0,3.34,3A6.56,6.56,0,0,0,13,30.64v3A24.58,24.58,0,0,1,10,34a5.72,5.72,0,0,1-5.91-5.72,5.85,5.85,0,0,1,6-5.72,24,24,0,0,1,2.85.4Z"/><path id="_Compound_Path_" data-name="&lt;Compound Path&gt;" class="cls-1" d="M53.85,28.27a5.6,5.6,0,1,1-11.2,0,5.6,5.6,0,1,1,11.2,0m-5.6-2.91A2.91,2.91,0,1,0,51,28.27a2.8,2.8,0,0,0-2.76-2.91"/><path id="_Path_5" data-name="&lt;Path&gt;" class="cls-1" d="M30,25.26a12.64,12.64,0,0,0-2.38-.34c-1.08,0-1.8.37-1.8.9s.71.91,1.15,1.06l.7.24a3.28,3.28,0,0,1,2.51,3.16c0,2.78-1.79,3.71-3.84,3.71A7.08,7.08,0,0,1,24,33.7V31.15a3.8,3.8,0,0,0,2,.41c1.33,0,1.66-.4,1.66-1s-.67-.88-1.33-1.1l-.64-.19c-1.49-.49-2.77-1.4-2.77-3.23,0-2.07,1.76-3.46,4.23-3.46A14,14,0,0,1,30,22.9Z"/><path id="_Path_6" data-name="&lt;Path&gt;" class="cls-1" d="M3,10.87a1.51,1.51,0,0,0-3,0v2.9a1.5,1.5,0,0,0,3,0Z"/><path id="_Path_7" data-name="&lt;Path&gt;" class="cls-1" d="M10,7.06a1.51,1.51,0,0,0-3,0v6.71a1.5,1.5,0,0,0,3,0Z"/><path id="_Path_8" data-name="&lt;Path&gt;" class="cls-1" d="M24,7.06a1.51,1.51,0,0,0-3,0v6.71a1.5,1.5,0,0,0,3,0Z"/><path id="_Path_9" data-name="&lt;Path&gt;" class="cls-1" d="M31,10.87a1.51,1.51,0,0,0-3,0v2.9a1.5,1.5,0,0,0,3,0Z"/><path id="_Path_10" data-name="&lt;Path&gt;" class="cls-1" d="M38,7.06c0-.76-.4-1.38-1.5-1.38A1.3,1.3,0,0,0,35,7.06v6.71a1.3,1.3,0,0,0,1.5,1.39c1.1,0,1.5-.62,1.5-1.39Z"/><path id="_Path_11" data-name="&lt;Path&gt;" class="cls-1" d="M45,1.42a1.5,1.5,0,0,0-3,0V16.49a1.5,1.5,0,0,0,3,0Z"/><path id="_Path_12" data-name="&lt;Path&gt;" class="cls-1" d="M17,1.42A1.31,1.31,0,0,0,15.5,0,1.31,1.31,0,0,0,14,1.42V16.49a1.31,1.31,0,0,0,1.5,1.42A1.31,1.31,0,0,0,17,16.49Z"/><path id="_Path_13" data-name="&lt;Path&gt;" class="cls-1" d="M52,7.06a1.51,1.51,0,0,0-3,0v6.71a1.5,1.5,0,0,0,3,0Z"/><path class="cls-2" d="M87.82,11.71h2a5.68,5.68,0,0,1-6,5.11c-3.82,0-6.27-2.56-6.27-7.12S80.21,2.58,84,2.58c3.29,0,5.6,2.17,5.79,4.67h-2A3.55,3.55,0,0,0,84,4.19c-2.62,0-4.45,1.81-4.45,5.51,0,3.53,1.77,5.49,4.33,5.49A3.76,3.76,0,0,0,87.82,11.71Z"/><path class="cls-2" d="M95,2.86V16.54H93V2.86Z"/><path class="cls-2" d="M102.72,10c-3.17-.87-4.16-2-4.16-3.87s1.77-3.51,4.9-3.51c2.93,0,5.07,1.39,5.41,3.7h-2c-.21-1.33-1.37-2.11-3.42-2.11s-3,.82-3,1.84.46,1.58,3.59,2.45c3.8,1.06,4.88,2.19,4.88,4.29s-1.94,4.07-5.34,4.07c-2.94,0-5.17-1.62-5.55-4.12h2c.23,1.54,1.48,2.53,3.51,2.53,2.28,0,3.44-1.1,3.44-2.39S106.41,11,102.72,10Z"/><path class="cls-2" d="M121.91,11.71h2a5.68,5.68,0,0,1-6,5.11c-3.82,0-6.27-2.56-6.27-7.12s2.66-7.12,6.42-7.12c3.29,0,5.6,2.17,5.79,4.67h-2a3.55,3.55,0,0,0-3.84-3.06c-2.62,0-4.45,1.81-4.45,5.51,0,3.53,1.77,5.49,4.33,5.49A3.76,3.76,0,0,0,121.91,11.71Z"/><path class="cls-2" d="M126.15,9.7c0-4.6,2.91-7.12,6.52-7.12S139.14,5,139.14,9.7c0,4.52-2.81,7.12-6.5,7.12S126.15,14.22,126.15,9.7Zm11,0c0-3.61-1.84-5.55-4.52-5.55s-4.52,1.94-4.52,5.55,1.84,5.55,4.52,5.55S137.17,13.31,137.17,9.7Z"/><path class="cls-2" d="M157.71,16.54l-3.31-5.21h-3.25v5.21h-1.94V2.86h4.43c3.48,0,5.41,1.54,5.41,4.29a3.86,3.86,0,0,1-2.75,3.78l3.69,5.6Zm-6.55-12.1V9.76h2.58c2.13,0,3.31-1,3.31-2.6,0-1.77-1.06-2.72-3.36-2.72Z"/><path class="cls-2" d="M170.63,10.38h-6v4.52h6.59v1.63h-8.53V2.86h8.53V4.5h-6.59V8.79h6Z"/><path class="cls-2" d="M184.44,16.54l-1.35-3.46h-6.52l-1.37,3.46h-2L178.8,2.86H181l5.6,13.68Zm-7.24-5h5.26l-2.6-6.71Z"/><path class="cls-2" d="M193.5,2.86c4,0,6.73,2.15,6.73,6.84,0,4.43-2.85,6.84-6.86,6.84h-4.31V2.86ZM191,4.4V14.94h2.56c3,0,4.71-1.8,4.71-5.24,0-3.59-1.82-5.3-4.75-5.3Z"/><path class="cls-2" d="M206.1,16.54V11.11l-5-8.24h2.13l3.86,6.57,4-6.57h2l-5,8.24v5.43Z"/><path class="cls-3" d="M83,29H79.42V32h3.95v.74H78.56V24.78h4.81v.74H79.42v2.79H83Z"/><path class="cls-3" d="M88.75,28.58l2.83,4.12h-1l-2.28-3.41L85.91,32.7h-1l2.84-4.1-2.64-3.82h1l2.15,3.15,2.21-3.15h1Z"/><path class="cls-3" d="M97.91,29H94.28V32h3.95v.74H93.42V24.78h4.81v.74H94.28v2.79h3.63Z"/><path class="cls-3" d="M100.17,28.77c0-2.7,1.54-4.16,3.64-4.16a3.1,3.1,0,0,1,3.3,2.63h-.87a2.26,2.26,0,0,0-2.43-1.9c-1.6,0-2.76,1.17-2.76,3.43s1.14,3.36,2.73,3.36A2.34,2.34,0,0,0,106.25,30h.87a3.19,3.19,0,0,1-3.34,2.87C101.6,32.86,100.17,31.33,100.17,28.77Z"/><path class="cls-3" d="M109.24,30.07V24.78h.86v5.36a2.23,2.23,0,0,0,4.43,0V24.78h.84v5.29a3.08,3.08,0,0,1-6.13,0Z"/><path class="cls-3" d="M123.32,25.55h-2.66V32.7h-.87V25.55h-2.64v-.77h6.17Z"/><path class="cls-3" d="M126,24.78V32.7h-.86V24.78Z"/><path class="cls-3" d="M128.67,24.78l2.57,7.13,2.6-7.13h.85l-2.89,7.92h-1.11l-2.92-7.92Z"/><path class="cls-3" d="M140.91,29h-3.63V32h3.95v.74h-4.81V24.78h4.81v.74h-3.95v2.79h3.63Z"/><path class="cls-3" d="M150,24.78c2.29,0,3.85,1.31,3.85,4a3.67,3.67,0,0,1-3.91,4h-2.34V24.78Zm-1.54.7V32h1.57c1.79,0,2.95-1.12,2.95-3.23s-1.2-3.26-3-3.26Z"/><path class="cls-3" d="M161.53,32.7l-.82-2.12h-3.89L156,32.7h-.9l3.21-7.92h1l3.2,7.92Zm-4.44-2.84h3.33l-1.65-4.22Z"/><path class="cls-3" d="M169,30.61c0-.85-.43-1.26-2.57-1.79-1.81-.45-2.43-1.11-2.43-2.21s1-2,2.78-2c1.63,0,2.84.77,3.07,2.06H169c-.17-.84-.94-1.33-2.17-1.33s-1.93.53-1.93,1.22.35,1.12,2.17,1.57c2.16.55,2.84,1.21,2.84,2.44s-1.09,2.29-3,2.29a2.89,2.89,0,0,1-3.15-2.29h.89c.17,1,1,1.56,2.24,1.56C168.29,32.14,169,31.49,169,30.61Z"/><path class="cls-3" d="M178.06,24.78V32.7h-.87V29H173V32.7h-.86V24.78H173v3.53h4.19V24.78Z"/><path class="cls-3" d="M183.39,24.78c1.73,0,2.64.77,2.64,2a1.78,1.78,0,0,1-1.35,1.69,2,2,0,0,1,1.64,2c0,1.39-1,2.22-2.92,2.22h-2.78V24.78Zm-1.91.67V28.2h2.07c1.07,0,1.62-.58,1.62-1.39s-.62-1.36-1.68-1.36Zm0,3.43V32h2.06c1.24,0,1.88-.54,1.88-1.51s-.66-1.59-1.84-1.59Z"/><path class="cls-3" d="M188.21,28.74c0-2.66,1.64-4.12,3.66-4.12s3.66,1.43,3.66,4.13-1.61,4.13-3.66,4.13S188.21,31.37,188.21,28.74Zm6.44,0c0-2.22-1.17-3.41-2.77-3.41s-2.78,1.19-2.78,3.41,1.2,3.41,2.78,3.41S194.64,31,194.64,28.74Z"/><path class="cls-3" d="M203.18,32.7l-.82-2.12h-3.89l-.85,2.12h-.9l3.21-7.92h1l3.2,7.92Zm-4.44-2.84h3.33l-1.65-4.22Z"/><path class="cls-3" d="M210.87,32.7l-2-3.14h-2.11V32.7h-.86V24.78h2.63c1.9,0,3,.89,3,2.43a2.27,2.27,0,0,1-1.75,2.19l2.19,3.3Zm-4.14-7.21v3.36h1.8c1.28,0,2-.66,2-1.64s-.67-1.72-2-1.72Z"/><path class="cls-3" d="M216.14,24.78c2.29,0,3.85,1.31,3.85,4a3.67,3.67,0,0,1-3.91,4h-2.34V24.78Zm-1.54.7V32h1.57c1.79,0,2.95-1.12,2.95-3.23s-1.2-3.26-3-3.26Z"/></svg>