<?xml version="1.0" encoding="utf-8"?>
<!-- Generator: Adobe Illustrator 20.1.0, SVG Export Plug-In . SVG Version: 6.00 Build 0)  -->
<svg version="1.1" id="Layer_1" xmlns="http://www.w3.org/2000/svg" xmlns:xlink="http://www.w3.org/1999/xlink" x="0px" y="0px"
	 viewBox="0 0 294.5 33.8" style="enable-background:new 0 0 294.5 33.8;" xml:space="preserve">
<style type="text/css">
	.st0{fill:#0C9ED9;}
	.st1{fill:#666666;}
	.st2{fill:#59595B;}
</style>
<title>Asset 9</title>
<path id="_Path_" class="st0" d="M59,10.8c-0.1-0.8-0.8-1.4-1.7-1.3c-0.7,0.1-1.2,0.6-1.3,1.3v2.9c0.1,0.8,0.8,1.4,1.7,1.3
	c0.7-0.1,1.2-0.6,1.3-1.3V10.8z"/>
<rect id="_Path_2" x="17" y="22.4" class="st0" width="3" height="11"/>
<path id="_Path_3" class="st0" d="M41,25.8c-1-0.1-1.5-0.6-2.8-0.6c-1.7-0.1-3.1,1.2-3.2,2.9c0,0,0,0,0,0c0.1,1.7,1.6,3,3.4,2.9
	c1.3,0,1.7-0.5,2.7-0.6v3c-1,0.2-2,0.3-3,0.4c-3.2,0.1-5.8-2.3-6-5.5c0-0.1,0-0.2,0-0.3c0.1-3.2,2.8-5.8,6-5.7c0,0,0,0,0.1,0
	c1,0.1,1.9,0.2,2.9,0.4L41,25.8z"/>
<path id="_Path_4" class="st0" d="M13,25.8c-0.9-0.4-1.8-0.6-2.8-0.6c-1.7-0.1-3.1,1.2-3.2,2.9c0,0,0,0,0,0c0.1,1.7,1.6,3,3.3,2.9
	c0.9,0,1.8-0.2,2.7-0.6v3c-1,0.2-2,0.3-3,0.4c-3.2,0.1-5.8-2.4-5.9-5.5c0-0.1,0-0.1,0-0.2c0.1-3.2,2.8-5.8,6-5.7c0,0,0,0,0,0
	c1,0.1,1.9,0.2,2.9,0.4L13,25.8z"/>
<path id="_Compound_Path_" class="st0" d="M53.8,28.1c0,3.1-2.5,5.6-5.6,5.6c-3.1,0-5.6-2.5-5.6-5.6s2.5-5.6,5.6-5.6
	C51.3,22.5,53.8,25,53.8,28.1 M48.3,25.2c-1.6-0.1-3,1.1-3,2.7c-0.1,1.6,1.1,3,2.7,3c1.6,0.1,3-1.1,3-2.7c0-0.1,0-0.1,0-0.2
	C51.1,26.6,49.9,25.3,48.3,25.2C48.3,25.2,48.3,25.2,48.3,25.2"/>
<path id="_Path_5" class="st0" d="M30,25.1c-0.8-0.2-1.6-0.3-2.4-0.3c-1.1,0-1.8,0.4-1.8,0.9s0.7,0.9,1.1,1l0.7,0.2
	c1.5,0.3,2.5,1.6,2.5,3.1c0,2.8-1.8,3.7-3.8,3.7c-0.8,0-1.6-0.1-2.3-0.3V31c0.6,0.3,1.3,0.5,2,0.4c1.3,0,1.7-0.4,1.7-1
	s-0.7-0.9-1.4-1.1l-0.6-0.2c-1.5-0.5-2.8-1.4-2.8-3.2c0-2.1,1.8-3.4,4.2-3.4c1,0,1.9,0.1,2.9,0.4V25.1z"/>
<path id="_Path_6" class="st0" d="M3,10.8C2.9,10,2.2,9.4,1.3,9.5C0.6,9.6,0.1,10.1,0,10.8v2.9c0.1,0.8,0.8,1.4,1.7,1.3
	c0.7-0.1,1.2-0.6,1.3-1.3V10.8z"/>
<path id="_Path_7" class="st0" d="M10,7C9.9,6.2,9.2,5.6,8.3,5.7C7.6,5.8,7.1,6.3,7,7v6.7c0.1,0.8,0.8,1.4,1.7,1.3
	c0.7-0.1,1.2-0.6,1.3-1.3V7z"/>
<path id="_Path_8" class="st0" d="M16,1.8c0-0.8-0.3-1.4-1-1.4s-1,0.6-1,1.4v14.6c0,0.8,0.3,1.4,1,1.4s1-0.6,1-1.4V1.8z"/>
<path id="_Path_9" class="st0" d="M24,7c-0.1-0.8-0.8-1.4-1.7-1.3C21.6,5.8,21.1,6.3,21,7v6.7c0.1,0.8,0.8,1.4,1.7,1.3
	c0.7-0.1,1.2-0.6,1.3-1.3V7z"/>
<path id="_Path_10" class="st0" d="M31,10.8c-0.1-0.8-0.8-1.4-1.7-1.3c-0.7,0.1-1.2,0.6-1.3,1.3v2.9c0.1,0.8,0.8,1.4,1.7,1.3
	c0.7-0.1,1.2-0.6,1.3-1.3V10.8z"/>
<path id="_Path_11" class="st0" d="M38,7c0-0.8-0.4-1.4-1.5-1.4S35,6.3,35,7v6.7c0,0.8,0.4,1.4,1.5,1.4s1.5-0.6,1.5-1.4V7z"/>
<path id="_Path_12" class="st0" d="M45,1.4c0-0.8-0.7-1.5-1.5-1.5S42,0.6,42,1.4v15c0,0.8,0.7,1.5,1.5,1.5s1.5-0.7,1.5-1.5V1.4z"/>
<path id="_Path_13" class="st0" d="M17,1.4c0.1-0.7-0.5-1.4-1.2-1.4c-0.1,0-0.2,0-0.3,0c-0.7-0.1-1.4,0.4-1.5,1.1c0,0.1,0,0.2,0,0.3
	v15c-0.1,0.7,0.5,1.4,1.2,1.4c0.1,0,0.2,0,0.3,0c0.7,0.1,1.4-0.4,1.5-1.1c0-0.1,0-0.2,0-0.3V1.4z"/>
<path id="_Path_14" class="st0" d="M52,7c-0.1-0.8-0.8-1.4-1.7-1.3C49.6,5.8,49.1,6.3,49,7v6.7c0.1,0.8,0.8,1.4,1.7,1.3
	c0.7-0.1,1.2-0.6,1.3-1.3V7z"/>
<path class="st1" d="M79.1,25.3v7.2H83v0.8h-4.8v-7.9H79.1z"/>
<path class="st1" d="M89.6,29.5H86v2.9h4v0.7h-4.9v-7.9h4.8V26H86v2.8h3.6L89.6,29.5z"/>
<path class="st1" d="M97.8,33.2L97,31.1h-3.9l-0.8,2.1h-0.9l3.2-7.9h1l3.2,7.9L97.8,33.2z M93.4,30.4h3.3l-1.7-4.2L93.4,30.4z"/>
<path class="st1" d="M102.9,25.3c2.3,0,3.8,1.3,3.8,4c0.2,2-1.3,3.8-3.3,4c-0.2,0-0.4,0-0.6,0h-2.3v-8H102.9z M101.4,26v6.5h1.6
	c1.8,0,2.9-1.1,2.9-3.2S104.7,26,103,26H101.4z"/>
<path class="st1" d="M113.5,29.5h-3.6v2.9h4v0.7H109v-7.9h4.8V26h-4v2.8h3.6L113.5,29.5z"/>
<path class="st1" d="M121.1,33.2l-2-3.1H117v3.1h-0.9v-7.9h2.6c1.9,0,3,0.9,3,2.4c0,1-0.7,2-1.8,2.2l2.2,3.3H121.1z M117,26v3.4h1.8
	c1.3,0,2-0.7,2-1.6s-0.7-1.7-2-1.7L117,26z"/>
<path class="st1" d="M128.8,31.1c0-0.9-0.4-1.3-2.6-1.8c-1.8-0.5-2.4-1.1-2.4-2.2s1-2,2.8-2c1.6,0,2.8,0.8,3.1,2.1h-0.9
	c-0.2-0.8-0.9-1.3-2.2-1.3s-1.9,0.5-1.9,1.2s0.3,1.1,2.2,1.6c2.2,0.5,2.8,1.2,2.8,2.4s-1.1,2.3-3,2.3c-1.5,0.2-2.8-0.8-3.2-2.3h0.9
	c0.2,1,1,1.6,2.2,1.6C128,32.7,128.8,32,128.8,31.1z"/>
<path class="st1" d="M137.8,25.3v7.9h-0.9v-3.7h-4.2v3.7h-0.9v-7.9h0.9v3.5h4.2v-3.5H137.8z"/>
<path class="st1" d="M141.2,25.3v7.9h-0.9v-7.9H141.2z"/>
<path class="st1" d="M146.4,25.3c1.9,0,2.9,0.9,2.9,2.5s-1.1,2.5-3,2.5h-1.7v2.9h-0.9v-7.9H146.4z M144.6,26v3.5h1.7
	c1.4,0,2.1-0.6,2.1-1.7s-0.7-1.8-2-1.8L144.6,26z"/>
<path class="st1" d="M158,25.3c2.3,0,3.9,1.3,3.9,4c0.2,2-1.3,3.8-3.3,4c-0.2,0-0.4,0-0.6,0h-2.3v-8H158z M156.5,26v6.5h1.6
	c1.8,0,2.9-1.1,2.9-3.2s-1.2-3.3-3-3.3L156.5,26z"/>
<path class="st1" d="M169.6,33.2l-0.8-2.1h-3.9l-0.8,2.1h-0.9l3.2-7.9h1l3.2,7.9H169.6z M165.1,30.4h3.3l-1.6-4.2L165.1,30.4z"/>
<path class="st1" d="M177,31.1c0-0.9-0.4-1.3-2.6-1.8c-1.8-0.5-2.4-1.1-2.4-2.2s1-2,2.8-2c1.6,0,2.8,0.8,3.1,2.1H177
	c-0.2-0.8-0.9-1.3-2.2-1.3s-1.9,0.5-1.9,1.2s0.4,1.1,2.2,1.6c2.2,0.5,2.8,1.2,2.8,2.4s-1.1,2.3-3,2.3c-1.5,0.2-2.8-0.8-3.1-2.3h0.9
	c0.2,1,1,1.6,2.2,1.6C176.3,32.7,177,32,177,31.1z"/>
<path class="st1" d="M186.1,25.3v7.9h-0.9v-3.7H181v3.7h-0.9v-7.9h0.9v3.5h4.2v-3.5H186.1z"/>
<path class="st1" d="M191.4,25.3c1.7,0,2.6,0.8,2.6,2c0,0.8-0.6,1.5-1.3,1.7c1,0.2,1.7,1,1.6,2c0,1.4-1,2.2-2.9,2.2h-2.8v-7.9H191.4
	z M189.5,26v2.8h2.1c1.1,0,1.6-0.6,1.6-1.4s-0.6-1.3-1.7-1.3L189.5,26z M189.5,29.4v3.1h2.1c1.2,0,1.9-0.5,1.9-1.5s-0.7-1.6-1.8-1.6
	L189.5,29.4z"/>
<path class="st1" d="M196.2,29.3c0-2.7,1.6-4.1,3.7-4.1s3.7,1.4,3.7,4.1s-1.6,4.1-3.7,4.1S196.2,31.9,196.2,29.3z M202.7,29.3
	c0-2.2-1.2-3.4-2.8-3.4s-2.8,1.1-2.8,3.4s1.2,3.4,2.8,3.4S202.7,31.5,202.7,29.3z"/>
<path class="st1" d="M211.2,33.2l-0.8-2.1h-3.9l-0.9,2.1h-0.9l3.2-7.9h1l3.2,7.9H211.2z M206.8,30.4h3.3l-1.6-4.2L206.8,30.4z"/>
<path class="st1" d="M218.9,33.2l-2-3.1h-2.1v3.1h-0.9v-7.9h2.6c1.9,0,3,0.9,3,2.4c0,1-0.7,2-1.8,2.2l2.2,3.3H218.9z M214.7,26v3.4
	h1.8c1.3,0,2-0.7,2-1.6s-0.7-1.7-2-1.7L214.7,26z"/>
<path class="st1" d="M224.1,25.3c2.3,0,3.9,1.3,3.9,4c0.2,2-1.3,3.8-3.3,4c-0.2,0-0.4,0-0.6,0h-2.3v-8H224.1z M222.6,26v6.5h1.6
	c1.8,0,2.9-1.1,2.9-3.2s-1.2-3.3-3-3.3L222.6,26z"/>
<g>
	<g>
		<path class="st2" d="M87.6,5.5H83v11.9h-1.9V5.5h-4.5V3.7h11.1V5.5z"/>
		<path class="st2" d="M98.2,11.3h-6v4.5h6.6v1.6h-8.5V3.7h8.5v1.6h-6.6v4.3h6V11.3z"/>
		<path class="st2" d="M111.9,12.6h2c-0.2,2.7-2.5,5.1-6,5.1c-3.8,0-6.3-2.6-6.3-7.1c0-4.6,2.7-7.1,6.4-7.1c3.3,0,5.6,2.2,5.8,4.7
			h-2c-0.2-1.9-1.7-3.1-3.8-3.1c-2.6,0-4.4,1.8-4.4,5.5c0,3.5,1.8,5.5,4.3,5.5C110.2,16.1,111.8,14.6,111.9,12.6z"/>
		<path class="st2" d="M127.7,3.7v13.7h-2v-6.1H119v6.1h-1.9V3.7h1.9v5.9h6.7V3.7H127.7z"/>
		<path class="st2" d="M142.4,3.7v13.7h-2.5L133.3,6v11.5h-1.8V3.7h2.6l6.5,11.4V3.7H142.4z"/>
		<path class="st2" d="M148.2,3.7v13.7h-1.9V3.7H148.2z"/>
		<path class="st2" d="M161.8,12.6h2c-0.2,2.7-2.5,5.1-6,5.1c-3.8,0-6.3-2.6-6.3-7.1c0-4.6,2.7-7.1,6.4-7.1c3.3,0,5.6,2.2,5.8,4.7
			h-2c-0.2-1.9-1.7-3.1-3.8-3.1c-2.6,0-4.4,1.8-4.4,5.5c0,3.5,1.8,5.5,4.3,5.5C160.1,16.1,161.7,14.6,161.8,12.6z"/>
		<path class="st2" d="M176.9,17.4l-1.3-3.5H169l-1.4,3.5h-2l5.6-13.7h2.2l5.6,13.7H176.9z M169.6,12.4h5.3l-2.6-6.7L169.6,12.4z"/>
		<path class="st2" d="M183.4,3.7v11.9h6.4v1.7h-8.4V3.7H183.4z"/>
		<path class="st2" d="M203.6,10.9c-3.2-0.9-4.2-2-4.2-3.9c0-2,1.8-3.5,4.9-3.5c2.9,0,5.1,1.4,5.4,3.7h-2c-0.2-1.3-1.4-2.1-3.4-2.1
			c-2.1,0-3,0.8-3,1.8c0,1.1,0.5,1.6,3.6,2.5c3.8,1.1,4.9,2.2,4.9,4.3c0,2.1-1.9,4.1-5.3,4.1c-2.9,0-5.2-1.6-5.5-4.1h2
			c0.2,1.5,1.5,2.5,3.5,2.5c2.3,0,3.4-1.1,3.4-2.4C207.9,12.5,207.3,11.9,203.6,10.9z"/>
		<path class="st2" d="M221.2,11.3h-6v4.5h6.6v1.6h-8.5V3.7h8.5v1.6h-6.6v4.3h6V11.3z"/>
		<path class="st2" d="M233.6,17.4l-3.3-5.2h-3.2v5.2h-1.9V3.7h4.4c3.5,0,5.4,1.5,5.4,4.3c0,2.1-1.3,3.2-2.8,3.8l3.7,5.6H233.6z
			 M227.1,5.3v5.3h2.6c2.1,0,3.3-1,3.3-2.6c0-1.8-1.1-2.7-3.4-2.7H227.1z"/>
		<path class="st2" d="M249.3,3.7l-4.9,13.7h-2.4l-5-13.7h2.1l4.1,11.9l4.2-11.9H249.3z"/>
		<path class="st2" d="M253.7,3.7v13.7h-1.9V3.7H253.7z"/>
		<path class="st2" d="M267.3,12.6h2c-0.2,2.7-2.5,5.1-6,5.1c-3.8,0-6.3-2.6-6.3-7.1c0-4.6,2.7-7.1,6.4-7.1c3.3,0,5.6,2.2,5.8,4.7
			h-2c-0.2-1.9-1.7-3.1-3.8-3.1c-2.6,0-4.4,1.8-4.4,5.5c0,3.5,1.8,5.5,4.3,5.5C265.5,16.1,267.2,14.6,267.3,12.6z"/>
		<path class="st2" d="M280.4,11.3h-6v4.5h6.6v1.6h-8.5V3.7h8.5v1.6h-6.6v4.3h6V11.3z"/>
		<path class="st2" d="M288.3,10.9c-3.2-0.9-4.2-2-4.2-3.9c0-2,1.8-3.5,4.9-3.5c2.9,0,5.1,1.4,5.4,3.7h-2c-0.2-1.3-1.4-2.1-3.4-2.1
			c-2.1,0-3,0.8-3,1.8c0,1.1,0.5,1.6,3.6,2.5c3.8,1.1,4.9,2.2,4.9,4.3c0,2.1-1.9,4.1-5.3,4.1c-2.9,0-5.2-1.6-5.5-4.1h2
			c0.2,1.5,1.5,2.5,3.5,2.5c2.3,0,3.4-1.1,3.4-2.4C292.6,12.5,292,11.9,288.3,10.9z"/>
	</g>
</g>
</svg>
