<?xml version="1.0" encoding="utf-8"?>
<!-- Generator: Adobe Illustrator 21.1.0, SVG Export Plug-In . SVG Version: 6.00 Build 0)  -->
<svg version="1.1" id="Layer_1" xmlns="http://www.w3.org/2000/svg" xmlns:xlink="http://www.w3.org/1999/xlink" x="0px" y="0px"
	 viewBox="0 0 85 70" style="enable-background:new 0 0 85 70;" xml:space="preserve">
<style type="text/css">
	.st0{fill:none;stroke:#BBBAC0;stroke-width:2;stroke-miterlimit:10;}
	.st1{fill:#EEEFF2;}
	.st2{fill:#EEEFF2;stroke:#BBBAC0;stroke-width:2;stroke-miterlimit:10;}
	.st3{fill:#BBBAC0;}
	.st4{fill:#999999;}
</style>
<g>
	<g>
		<path class="st3" d="M79,5c1.1,0,2,0.9,2,2v47c0,1.1-0.9,2-2,2H5c-1.1,0-2-0.9-2-2V7c0-1.1,0.9-2,2-2H79 M79,3H5C2.8,3,1,4.8,1,7
			v47c0,2.2,1.8,4,4,4h74c2.2,0,4-1.8,4-4V7C83,4.8,81.2,3,79,3L79,3z"/>
	</g>
	<path class="st4" d="M36.8,20.3c1.5-1.4,3.5-2.2,6-2.2c2.4,0,4.3,0.6,5.7,1.8c1.4,1.2,2.1,2.8,2.1,4.7c0,1.2-0.3,2.1-0.8,2.8
		c-0.5,0.7-1.6,1.8-3.2,3.2c-1.2,1-1.9,2.2-2.3,2.9c-0.4,0.7-0.5,1.8-0.5,3.4h-3.2c0-1.6,0.2-3.1,0.6-4.1c0.4-1,1.3-2.2,2.7-3.4
		l1.5-1.4c0.4-0.4,0.8-0.8,1.1-1.2c0.5-0.7,0.7-1.5,0.7-2.2c0-1.1-0.4-2-1.1-2.8c-0.7-0.8-1.9-1.2-3.5-1.2c-2,0-3.4,0.7-4.2,2
		c-0.4,0.8-0.7,1.7-0.7,3.3h-3.2C34.6,24.4,35.3,21.7,36.8,20.3z M40,38h3v5h-3V38z"/>
	<line class="st0" x1="25" y1="69" x2="58" y2="69"/>
	<line class="st0" x1="42" y1="58" x2="42" y2="69"/>
</g>
</svg>
