<?xml version="1.0" encoding="utf-8"?>
<!-- Generator: Adobe Illustrator 22.1.0, SVG Export Plug-In . SVG Version: 6.00 Build 0)  -->
<svg version="1.1" id="Layer_1" xmlns="http://www.w3.org/2000/svg" xmlns:xlink="http://www.w3.org/1999/xlink" x="0px" y="0px"
	 viewBox="0 0 94.5 92.1" style="enable-background:new 0 0 94.5 92.1;" xml:space="preserve">
<style type="text/css">
	.st0{fill:#CCCCCC;}
</style>
<path class="st0" d="M89.9,26.5c-3.4-3.7-7.9-4.9-10.1-5.2C78.9,10.8,74,5.5,69.2,2.8C64.4,0.1,59.8,0,59.7,0
	C45.6-0.7,40,8.1,38.3,11.6c-7.8-2.3-12.1,2.3-13.6,4.3c-0.2,0.3-4.4-0.1-5.1,0c-1.8,0.1-3.5,0.4-5.3,0.8c-3.3,0.8-6.4,2.4-8.8,4.8
	c-5.5,5.4-7.2,15.4-4,22.4c0.2,0.4,0.3,0.7,0.5,1.1c2.3,4.3,6.1,6.7,8.8,8v-3.4c-2-1.1-4.5-3-6.1-6c-2.7-5.1-2-13.1,1.2-18
	c2.5-3.9,7.1-5.8,11.5-6.4c2.6-0.4,5.3-0.4,7.9-0.1l1,0.1l0.5-0.9c0.1-0.3,3.5-6.4,11.8-3.3l1.5,0.6l0.5-1.5
	c0-0.1,3.8-11.7,19.1-10.9C60.3,3,75.9,3.3,77,22.7l0.1,1.4l1.4,0.1c0.1,0,5.5,0.3,9.3,4.4c3.9,4.3,5.4,11.1,2.2,16.1
	c-1.3,2-3.3,4.2-6.1,5.4v3.2c2.7-0.9,5-2.8,7.2-5.3C96.4,42,95.2,32.2,89.9,26.5z M73.3,40.1h-54c-3,0-5.5,2.5-5.5,5.5v33
	c0,3,2.5,5.5,5.5,5.5h25.5v5h-11v3h25v-3h-11v-5h25.5c3,0,5.5-2.5,5.5-5.5v-33C78.8,42.6,76.3,40.1,73.3,40.1z M73.3,81.1h-54
	c-1.4,0-2.5-1.1-2.5-2.5v-33c0-1.4,1.1-2.5,2.5-2.5h54c1.4,0,2.5,1.1,2.5,2.5v33C75.8,80,74.7,81.1,73.3,81.1z M44.8,64.1v-11
	c0-1.1,0.9-2,2-2h1c1.1,0,2,0.9,2,2v11c0,1.1-0.9,2-2,2h-1C45.7,66.1,44.8,65.2,44.8,64.1z M49.8,70.6c0,1.4-1.1,2.5-2.5,2.5
	s-2.5-1.1-2.5-2.5c0-1.4,1.1-2.5,2.5-2.5S49.8,69.3,49.8,70.6z"/>
</svg>
