<svg id="Vector_Smart_Object_Image" data-name="Vector Smart Object Image" xmlns="http://www.w3.org/2000/svg" viewBox="0 0 29 20"><defs><style>.cls-1{fill:#e3a116;}.cls-2{fill:#78bf1f;}.cls-3{fill:#fff;}.cls-4{fill:#95da40;}.cls-5{fill:#f9b526;}.cls-6{fill:#caff8a;}.cls-7{fill:#ffcf69;}.cls-8{fill:#3bbcf9;}.cls-9{fill:#93dbfd;}.cls-10{fill:#14a6eb;}</style></defs><title>SalesConnect</title><path class="cls-1" d="M12.85,8a1.28,1.28,0,0,0,1.38-1.4V6.06c0,.7-.16,1.24-1.26,1.29a2.42,2.42,0,0,0-2.37,2.37,2.38,2.38,0,0,0,0,.39C10.63,8.63,11.72,8.11,12.85,8ZM17,14.27a2.23,2.23,0,0,1-2.26,2.34c-1.24,0-1.82.47-1.82,1.64V19c0-1.18.58-1.64,1.82-1.64A2.28,2.28,0,0,0,17,15.13,5.91,5.91,0,0,0,17,14.27Z"/><path class="cls-2" d="M18.43,14.34a5.86,5.86,0,0,0,0-.63,2.46,2.46,0,0,0-2.38-2.46H14.31c-1.34,0-2.23-.69-2.23-1.81a1.1,1.1,0,0,0,0,.28A2,2,0,0,0,14.31,12h1.76A2.4,2.4,0,0,1,18.43,14.34Z"/><path class="cls-3" d="M14.72,12.09s-1,0-2.1,0a2.23,2.23,0,0,1-2-2.2s0,.07,0,.11a2.24,2.24,0,0,0,2,2.32c1.1.07,2.1,0,2.1,0A2.26,2.26,0,0,1,17,14.47s0-.08,0-.12A2.26,2.26,0,0,0,14.72,12.09Z"/><path class="cls-4" d="M24,4H15.71v2.1c0,.85-.36,1.32-1.49,1.5-1.38.22-2,.79-2.11,1.8,0,.07,0,.06,0,.08,0,1.12.89,1.81,2.23,1.81h1.76a2.46,2.46,0,0,1,2.38,2.46,6,6,0,0,1,0,.63h0a2.4,2.4,0,0,1-2.37,2.37c-1.52,0-1.73.78-1.73,1.55v1H24a2.63,2.63,0,0,0,2.58-2.63l0-10A2.63,2.63,0,0,0,24,4Z"/><path class="cls-5" d="M14.72,12.09s-1,0-2.1,0a2.24,2.24,0,0,1-2-2.32A2.43,2.43,0,0,1,13,7.35c1.17-.09,1.24-.6,1.24-1.29V4H5.09A2.63,2.63,0,0,0,2.46,6.59l0,10a2.63,2.63,0,0,0,2.63,2.63H12.9v-1c0-1.18.61-1.56,1.86-1.61A2.18,2.18,0,0,0,17,14.35,2.26,2.26,0,0,0,14.72,12.09Z"/><path class="cls-2" d="M26.53,16.69A2.63,2.63,0,0,1,24,19.24H14.34V20H24a2.63,2.63,0,0,0,2.58-2.63v-.68Z"/><path class="cls-1" d="M5.29,19.24H5.06a2.63,2.63,0,0,1-2.63-2.55v.68A2.63,2.63,0,0,0,5.06,20H12.9v-.76H5.29Z"/><path class="cls-6" d="M24,4.19a2.63,2.63,0,0,1,2.61,2.6V6.59A2.63,2.63,0,0,0,24,4H15.71v.23H24Z"/><path class="cls-7" d="M5.29,4H5.09A2.63,2.63,0,0,0,2.46,6.59v.2h0A2.63,2.63,0,0,1,5.09,4.19h9.13V4Z"/><path class="cls-8" d="M17,0h-4.9A2.25,2.25,0,0,0,9.81,2.25v.9h1.33v-.3c0-.94.74-1.35,1.66-1.35h3.59c.92,0,1.66.41,1.66,1.35v.3h1.16v-.9A2.25,2.25,0,0,0,17,0Z"/><path class="cls-9" d="M17,0h-4.9A2.25,2.25,0,0,0,9.81,2.25v.31A2.25,2.25,0,0,1,12.06.31H17a2.18,2.18,0,0,1,2.25,2.16V2.25A2.25,2.25,0,0,0,17,0Z"/><path class="cls-6" d="M15.71,6.28V6.05c0,.75-.34,1.3-1.47,1.48-1.49.23-2.12.9-2.16,1.94,0,0,0,0,0,.06.14-1,.78-1.54,2.15-1.76C15.36,7.59,15.71,7,15.71,6.28Zm2.74,7.78a2.06,2.06,0,0,1,0,.26h0a2.4,2.4,0,0,1-2.37,2.37c-1.52,0-1.73.78-1.73,1.55v.23c0-.77.21-1.55,1.73-1.55a2.4,2.4,0,0,0,2.37-2.37h0A4.08,4.08,0,0,0,18.45,14.07Z"/><path class="cls-7" d="M14.73,12.09s-1,0-2.1,0a2.23,2.23,0,0,1-2-2.2s0,.07,0,.11a2.24,2.24,0,0,0,2,2.32c1.1.07,2.1,0,2.1,0A2.26,2.26,0,0,1,17,14.47s0-.08,0-.12A2.26,2.26,0,0,0,14.73,12.09Z"/><path class="cls-10" d="M18,3.15v-.3c0-.94-.74-1.35-1.66-1.35H12.8c-.92,0-1.66.41-1.66,1.35v.3H9.81l.15.23h1.58V3.11c0-.84.68-1.18,1.53-1.18h3c.84,0,1.53.33,1.53,1.18v.27h1.43l.15-.24Z"/></svg>