<svg id="Layer_1" data-name="Layer 1" xmlns="http://www.w3.org/2000/svg" viewBox="0 0 78 60"><defs><style>.cls-1{fill:#585858;}</style></defs><title>shredder</title><polygon class="cls-1" points="10 51 12 51 12 44 67 44 67 51 69 51 69 42 10 42 10 51"/><path class="cls-1" d="M64,21V8.27C64,7,64,5.74,65,5.74c.82,0,1,1.42,1,1.7h0a.43.43,0,0,1,0,0v0h0V11h5V8.16C71,3.67,68.44,0,64,0H22c-3.11,0-9,.38-9,8.41V21H0V47H8V45H2V23H13v5H7V39H71V28H64V23H76V45H71v2h7V21ZM9,37V30h4v7Zm60-7v7H64V30ZM62,8.27V37H15V8.41C15,3.09,17.8,2,22,2H64c3.69,0,5,3.32,5,6.16V9H68V7.63q0-.1,0-.2a2,2,0,0,0,0-.38c-.3-2.44-1.72-3.32-3-3.32C62,3.74,62,7,62,8.27Z"/><rect class="cls-1" x="16" y="47" width="2" height="12"/><rect class="cls-1" x="20" y="47" width="2" height="9"/><rect class="cls-1" x="41" y="47" width="2" height="13"/><rect class="cls-1" x="45" y="47" width="2" height="9"/><rect class="cls-1" x="32" y="47" width="2" height="13"/><rect class="cls-1" x="57" y="47" width="2" height="12"/><rect class="cls-1" x="62" y="47" width="2" height="12"/><rect class="cls-1" x="53" y="47" width="2" height="9"/><rect class="cls-1" x="49" y="47" width="2" height="13"/><rect class="cls-1" x="36" y="47" width="2" height="9"/><rect class="cls-1" x="24" y="47" width="2" height="13"/><rect class="cls-1" x="28" y="47" width="2" height="12"/><rect class="cls-1" x="24" y="10" width="29" height="2"/><rect class="cls-1" x="24" y="16" width="29" height="2"/><rect class="cls-1" x="24" y="22" width="29" height="2"/><rect class="cls-1" x="24" y="28" width="23" height="2"/></svg>