<svg id="Body_Content" data-name="Body Content" xmlns="http://www.w3.org/2000/svg" xmlns:xlink="http://www.w3.org/1999/xlink" viewBox="0 0 10 10"><defs><style>.cls-1{fill:#fff;stroke:#949494;stroke-miterlimit:10;}</style><symbol id="actions_2" data-name="actions 2" viewBox="0 0 32766 32766"/></defs><title>cis-ready-style-guide</title><use id="actions_2-3" data-name="actions 2" width="32766" height="32766" transform="translate(-14369.43 -19305.5)" xlink:href="#actions_2"/><path class="cls-1" d="M5.2.77l.74,2.37a1,1,0,0,0,.86.66h2.4c.36,0,.41.18.12.41L7.38,5.69a1,1,0,0,0-.32,1.06l.74,2.38c.11.36,0,.47-.32.25L5.53,7.91a.92.92,0,0,0-1.05,0L2.53,9.39c-.29.22-.43.11-.32-.25l.74-2.39a1,1,0,0,0-.32-1L.69,4.21C.4,4,.45,3.8.81,3.8H3.22a1,1,0,0,0,.84-.65L4.8.77C4.91.41,5.09.41,5.2.77Z"/></svg>