<svg xmlns="http://www.w3.org/2000/svg" xmlns:xlink="http://www.w3.org/1999/xlink" viewBox="0 0 10 10"><defs><style>.cls-1{isolation:isolate;}.cls-2{opacity:0.25;mix-blend-mode:multiply;}.cls-3{fill:#e96d30;}</style><symbol id="actions_2" data-name="actions 2" viewBox="0 0 32766 32766"/></defs><title>cis-ready-style-guide</title><g class="cls-1"><g id="Body_Content" data-name="Body Content"><use id="actions_2-3" data-name="actions 2" width="32766" height="32766" transform="translate(-14342.43 -19306)" xlink:href="#actions_2"/><g class="cls-2"><path d="M5.2,1.27l.74,2.38a1,1,0,0,0,.86.66h2.4c.36,0,.41.18.12.4L7.38,6.19a1,1,0,0,0-.32,1.06l.74,2.38c.11.36,0,.47-.32.25L5.53,8.41a.92.92,0,0,0-1.05,0L2.53,9.88c-.29.22-.44.11-.32-.26l.74-2.38a1,1,0,0,0-.32-1.06L.69,4.72C.4,4.49.45,4.31.81,4.31H3.22a1,1,0,0,0,.84-.65L4.8,1.27C4.91.91,5.09.91,5.2,1.27Z"/></g><path class="cls-3" d="M5.2.27l.74,2.38a1,1,0,0,0,.86.66h2.4c.36,0,.41.18.12.4L7.38,5.19a1,1,0,0,0-.32,1.06l.74,2.38c.11.36,0,.47-.32.25L5.53,7.41a.92.92,0,0,0-1.05,0L2.53,8.88c-.29.22-.44.11-.32-.26l.74-2.38a1,1,0,0,0-.32-1.06L.69,3.72C.4,3.49.45,3.31.81,3.31H3.22a1,1,0,0,0,.84-.65L4.8.27C4.91-.09,5.09-.09,5.2.27Z"/></g></g></svg>