<?xml version="1.0" encoding="utf-8"?>
<!-- Generator: Adobe Illustrator 21.0.0, SVG Export Plug-In . SVG Version: 6.00 Build 0)  -->
<svg version="1.1" id="Layer_1" xmlns="http://www.w3.org/2000/svg" xmlns:xlink="http://www.w3.org/1999/xlink" x="0px" y="0px"
	 viewBox="0 0 75 78" style="enable-background:new 0 0 75 78;" xml:space="preserve">
<style type="text/css">
	.st0{fill:#BBBAC0;}
</style>
<title>cis_ready_timeout_and_notification_flow</title>
<g id="Icons">
	<path class="st0" d="M38.9,65c-0.1-0.7-0.2-1.3-0.2-2H2V51.5v-0.1c-0.1-1.5,0.2-2.9,0.7-4.3c0.6-1.4,3-2.7,4.4-3.2h0.1h0.1
		l14.6-6.4l1.2-0.5v-8.2l-0.4-0.5c-0.8-1.4-1.4-2.8-1.8-4.3l-0.4-1.1l-1.1-0.2c-0.3,0-0.5-0.2-0.7-0.4c-0.5-1.2-0.6-2.5-0.6-3.8
		v-1.2c0.2-0.4,0.5-0.8,0.9-1l1.1-0.5v-1.2c0-0.7,0-1.3,0-1.9c0-3.4,0-5.3,0.7-6.5c2.4-3.9,5.8-4.2,9-4.2l0,0c2.8,0,5.4,0.3,7.7,4.3
		c0.6,1,0.5,2.6,0.5,5.3c0,0.9,0,2,0,3.1v1.2l1,0.6c0.4,0.2,0.7,0.5,1,0.8v1.3c0.1,1.3-0.1,2.6-0.6,3.9c-0.2,0.2-0.4,0.3-0.7,0.4
		L37.6,23l-0.4,1.1c-0.5,1.5-1.1,3-1.9,4.3L35,28.9v8.2l1.2,0.5l14.4,6.3c0.9-0.4,1.9-0.7,2.8-0.9c-0.6-0.3-1.2-0.6-1.8-0.8L37,35.8
		v-6.7c0.9-1.5,1.6-3.1,2.1-4.8c0.9-0.1,1.6-0.6,2.1-1.3c0.6-1.5,0.8-5.7,0.8-5.7c0-1.2-1.2-2.1-2.1-2.6c0-4.9,0.4-7.5-0.8-9.5
		C36.2,0.3,32.5,0,29.4,0h-0.1c-3.2,0-7.5,0.3-10.4,5.2c-1.2,1.9-1,4.5-1,9.4c-1.1,0.5-1.8,1.6-1.9,2.8c0,0,0.2,4.2,0.8,5.7
		c0.5,0.7,1.2,1.2,2.1,1.3c0.5,1.7,1.2,3.3,2.1,4.8v6.7L6.4,42.2C6,42.3,2,43.8,0.8,46.5c-0.7,1.7-1,3.6-0.8,5.4V65H38.9z"/>
	<path class="st0" d="M57.6,45.9c8.3,0,15.1,6.7,15.1,15.1S66,76,57.6,76S42.6,69.3,42.6,61C42.6,52.6,49.3,45.9,57.6,45.9
		 M57.6,43.9c-9.4,0-17.1,7.6-17.1,17.1S48.2,78,57.6,78S74.7,70.4,74.7,61S67.1,43.9,57.6,43.9L57.6,43.9z"/>
	<rect x="56.8" y="52" class="st0" width="2" height="12"/>
	<rect x="56.8" y="62" class="st0" width="10" height="2"/>
</g>
</svg>
