<?xml version="1.0" encoding="utf-8"?>
<!-- Generator: Adobe Illustrator 21.1.0, SVG Export Plug-In . SVG Version: 6.00 Build 0)  -->
<svg version="1.1" id="Layer_1" xmlns="http://www.w3.org/2000/svg" xmlns:xlink="http://www.w3.org/1999/xlink" x="0px" y="0px"
	 viewBox="0 0 16 16" style="enable-background:new 0 0 16 16;" xml:space="preserve">
<style type="text/css">
	.st0{fill:#FFFFFF;}
</style>
<title>info</title>
<path class="st0" d="M8,2c3.3,0,6,2.7,6,6s-2.7,6-6,6s-6-2.7-6-6S4.7,2,8,2 M8,0C3.6,0,0,3.6,0,8s3.6,8,8,8s8-3.6,8-8S12.4,0,8,0
	L8,0z"/>
<path class="st0" d="M7,4.5C7,4.2,7.2,4,7.5,4h1C8.8,4,9,4.2,9,4.5v1C9,5.8,8.8,6,8.5,6h-1C7.2,6,7,5.8,7,5.5V4.5z M7,7.5
	C7,7.2,7.2,7,7.5,7h1C8.8,7,9,7.2,9,7.5v4C9,11.8,8.8,12,8.5,12h-1C7.2,12,7,11.8,7,11.5V7.5z"/>
</svg>
